<svg width="455" height="273" viewBox="0 0 455 273" fill="none" xmlns="http://www.w3.org/2000/svg">
<path d="M37.5546 135.256C36.3923 123.633 11.531 44.4258 14.2004 43.7139C24.4131 40.9905 45.8188 66.9792 52.3854 72.6936C59.4341 78.8276 66.4789 84.8653 73.3531 91.1895C74.7089 92.4369 78.4153 95.4998 78.2966 93.6613C77.682 84.1347 49.5472 9.65933 70.8813 11.2396C77.0386 11.6957 82.4998 16.2545 86.9906 20.0188C98.5292 29.6909 109.439 40.7705 119.38 52.0669C126.376 60.0172 131.347 69.4894 138.813 76.9553" stroke="#FFB800" stroke-width="19" stroke-linecap="round"/>
<path d="M136.373 145.056C125.539 145.056 117.557 148.297 111.144 157.585C99.0994 175.028 94.8236 209.228 102.109 229.097C107.69 244.317 119.371 258.034 135.776 260.719C155.329 263.918 182.681 259.996 198.764 247.934C219.195 232.61 209.729 191.255 196.889 173.524C191.043 165.451 184.447 159.376 176.263 153.92C162.207 144.55 140.09 148.124 124.099 148.124" stroke="#FFB800" stroke-width="19" stroke-linecap="round"/>
<path d="M297.155 215.5C291 215.5 285 210.5 285 205C285 193.5 294 193 297.5 193C303.5 193 307.5 198 307.5 203C307.5 208.743 306.198 213.804 298 215.5" stroke="#FFB800" stroke-width="23" stroke-linecap="round"/>
<path d="M155.155 215.5C149 215.5 143 210.5 143 205C143 193.5 152 193 155.5 193C161.5 193 165.5 198 165.5 203C165.5 208.743 164.198 213.804 156 215.5" stroke="#FFB800" stroke-width="23" stroke-linecap="round"/>
<path d="M291.329 151.191C282.667 151.191 273.428 149.904 265.588 154.26C247.752 164.169 241.637 180.464 239.165 199.946C236.754 218.952 239.393 239.64 257.235 250.234C271.573 258.747 291.727 260.388 307.864 257.905C323.559 255.49 343.719 246.741 349.288 230.63C354.758 214.808 354.501 193.903 349.97 177.955C341.764 149.069 310.843 151.989 285.192 149.657" stroke="#FFB800" stroke-width="19" stroke-linecap="round"/>
<path d="M323.936 94.4683C324.384 97.6294 330.408 81.3742 330.573 80.9908C337.531 64.7845 345.878 49.4762 358.246 35.8782C360.546 33.3495 374.807 15.9053 379.477 16.5569C387.871 17.7278 384.064 42.7543 383.666 46.6551C382.236 60.6907 380.128 66.9068 379.477 80.9908C379.477 80.9908 376.747 122.768 379.477 118.891C387.355 107.706 403.89 90.5338 414.005 80.9908C422.444 73.0298 433.865 56.9969 443.207 49.9229" stroke="#FFB800" stroke-width="19" stroke-linecap="round"/>
</svg>
