<svg width="50" height="50" viewBox="0 0 50 50" fill="none" xmlns="http://www.w3.org/2000/svg">
<path fill-rule="evenodd" clip-rule="evenodd" d="M29.7781 38.3343L33.7063 35.9114L15.0615 5.36792C14.7819 4.90981 14.3223 4.65723 13.8462 4.61778V4.61544L13.8141 4.61544C13.7474 4.61126 13.6805 4.61126 13.6138 4.61544L6.15388 4.61544C4.87938 4.61544 3.84619 5.64863 3.84619 6.92313C3.84619 8.19763 4.87938 9.23082 6.15388 9.23082L11.8268 9.23082L29.7781 38.3343Z" fill="black"/>
<path fill-rule="evenodd" clip-rule="evenodd" d="M15.0615 5.36792C14.7819 4.90981 14.3223 4.65723 13.8462 4.61778V4.61544L13.8141 4.61544C13.7474 4.61126 13.6805 4.61126 13.6138 4.61544L6.15388 4.61544C4.87938 4.61544 3.84619 5.64863 3.84619 6.92313C3.84619 8.19763 4.87938 9.23082 6.15388 9.23082L11.8268 9.23082L29.7781 38.3343L33.7063 35.9114L15.0615 5.36792ZM31.6481 35.4185L13.7812 6.14946C13.7749 6.13908 13.7698 6.13337 13.7667 6.13036C13.7635 6.1272 13.7604 6.12485 13.757 6.12284C13.75 6.11862 13.7383 6.11397 13.7223 6.11265L13.7213 6.11257L13.7203 6.1125C13.716 6.11224 13.7118 6.11224 13.7077 6.1125L13.6608 6.11544L6.15388 6.11544C5.70781 6.11544 5.34619 6.47706 5.34619 6.92313C5.34619 7.36921 5.70781 7.73082 6.15388 7.73082L12.664 7.73082L30.2673 36.2702L31.6481 35.4185Z" fill="#FB6D3A"/>
<path fill-rule="evenodd" clip-rule="evenodd" d="M27.8619 37.5116C27.3859 37.7917 27.227 38.4046 27.5071 38.8806L28.9843 41.3914C29.0679 41.5336 29.1812 41.6474 29.3116 41.7298L29.3395 43.0117C29.362 44.0448 30.2177 44.864 31.2507 44.8416L45.5027 44.5316C46.1914 44.5166 46.7376 43.9461 46.7226 43.2574C46.6477 39.8139 43.7954 37.0831 40.3519 37.158L36.7976 37.2353C36.7797 37.11 36.7375 36.986 36.6693 36.8701L35.1922 34.3593C34.9121 33.8833 34.2992 33.7244 33.8232 34.0045L27.8619 37.5116Z" fill="black"/>
<path fill-rule="evenodd" clip-rule="evenodd" d="M30.7938 40.8914L30.8392 42.9791C30.8436 43.184 31.0133 43.3464 31.2181 43.3419L45.2108 43.0376C45.0252 40.5426 42.9151 38.6026 40.3845 38.6576L35.5008 38.7639L35.3268 37.5462L34.1529 35.5509L29.0535 38.551L30.2158 40.5267L30.7938 40.8914ZM27.5071 38.8806C27.227 38.4046 27.3859 37.7917 27.8619 37.5116L33.8232 34.0045C34.2992 33.7244 34.9121 33.8833 35.1922 34.3593L36.6693 36.8701C36.7375 36.986 36.7797 37.11 36.7976 37.2353L40.3519 37.158C43.7954 37.0831 46.6477 39.8139 46.7226 43.2574C46.7376 43.9461 46.1914 44.5166 45.5027 44.5316L31.2507 44.8416C30.2177 44.864 29.362 44.0448 29.3395 43.0117L29.3116 41.7298C29.1812 41.6474 29.0679 41.5336 28.9843 41.3914L27.5071 38.8806Z" fill="#FB6D3A"/>
<path fill-rule="evenodd" clip-rule="evenodd" d="M19.6763 19.8838C20.0228 19.6569 20.4877 19.7539 20.7146 20.1005L23.1619 23.839C23.3888 24.1856 23.2918 24.6504 22.9452 24.8773C22.5987 25.1042 22.1338 25.0072 21.9069 24.6606L19.4596 20.9221C19.2327 20.5755 19.3297 20.1107 19.6763 19.8838Z" fill="#FB6D3A"/>
<path fill-rule="evenodd" clip-rule="evenodd" d="M24.6075 27.1918C24.2634 27.4225 23.7975 27.3305 23.5669 26.9864L23.264 26.5346C23.0334 26.1905 23.1254 25.7246 23.4695 25.494C23.8136 25.2634 24.2794 25.3554 24.5101 25.6994L24.8129 26.1513C25.0435 26.4953 24.9515 26.9612 24.6075 27.1918Z" fill="#FB6D3A"/>
<path d="M33.8276 27.5868C34.977 29.0858 34.4715 31.2613 32.779 32.1001L27.3524 34.7895C26.1955 35.3629 24.7923 34.9609 24.1145 33.862L14.3027 17.9546C13.5387 16.7159 13.9901 15.089 15.2831 14.4211L19.4773 12.2543C20.5529 11.6986 21.8721 11.9935 22.6088 12.9542L33.8276 27.5868Z" fill="black"/>
<path fill-rule="evenodd" clip-rule="evenodd" d="M26.6863 33.4455L32.1129 30.7561C32.9592 30.3367 33.2119 29.249 32.6372 28.4994L21.4184 13.8669C21.1237 13.4826 20.596 13.3647 20.1658 13.5869L15.9715 15.7537C15.4543 16.0209 15.2738 16.6717 15.5794 17.1671L25.3912 33.0745C25.6623 33.5141 26.2236 33.6749 26.6863 33.4455ZM32.779 32.1001C34.4715 31.2613 34.977 29.0858 33.8276 27.5868L22.6088 12.9542C21.8721 11.9935 20.5529 11.6986 19.4773 12.2543L15.2831 14.4211C13.9901 15.089 13.5387 16.7159 14.3027 17.9546L24.1145 33.862C24.7923 34.9609 26.1955 35.3629 27.3524 34.7895L32.779 32.1001Z" fill="#FB6D3A"/>
<path fill-rule="evenodd" clip-rule="evenodd" d="M36.5001 38.4968L30.5001 41.9968L29.7443 40.7012L35.7443 37.2012L36.5001 38.4968Z" fill="#FB6D3A"/>
</svg>
