<svg width="60" height="60" viewBox="0 0 60 60" fill="none" xmlns="http://www.w3.org/2000/svg">
<rect width="60" height="60" rx="16" fill="#2D0402"/>
<path d="M46.8108 24.0254H41.1919V44.5636H46.8108V24.0254Z" fill="#FF9A00"/>
<path d="M44.0016 21.8945C45.7852 21.8945 47.2311 20.4487 47.2311 18.665C47.2311 16.8814 45.7852 15.4355 44.0016 15.4355C42.218 15.4355 40.7721 16.8814 40.7721 18.665C40.7721 20.4487 42.218 21.8945 44.0016 21.8945Z" fill="#FF9A00"/>
<path d="M29.0223 17.502H21.7837C21.7837 18.7187 21.5726 19.9266 21.1597 21.0715L12.6899 44.5636H18.6201L20.7508 38.0908L30.2534 38.0219L32.4248 44.5636H38.6949L29.0223 17.502ZM22.3091 32.7935L25.3988 22.2877L28.6402 32.7935H22.3091Z" fill="#FF9A00"/>
</svg>
