<svg width="50" height="50" viewBox="0 0 50 50" fill="none" xmlns="http://www.w3.org/2000/svg">
<path fill-rule="evenodd" clip-rule="evenodd" d="M29.7776 38.3375L33.7058 35.9145L15.061 5.37109C14.7814 4.91299 14.3218 4.6604 13.8457 4.62095V4.61862L13.8136 4.61862C13.747 4.61444 13.68 4.61443 13.6133 4.61862L6.15339 4.61862C4.87889 4.61862 3.8457 5.6518 3.8457 6.9263C3.8457 8.20081 4.87889 9.23399 6.15339 9.23399L11.8263 9.23399L29.7776 38.3375Z" fill="#1B1322"/>
<path fill-rule="evenodd" clip-rule="evenodd" d="M15.061 5.37109C14.7814 4.91299 14.3218 4.6604 13.8457 4.62095V4.61862L13.8136 4.61862C13.747 4.61444 13.68 4.61443 13.6133 4.61862L6.15339 4.61862C4.87889 4.61862 3.8457 5.6518 3.8457 6.9263C3.8457 8.20081 4.87889 9.23399 6.15339 9.23399L11.8263 9.23399L29.7776 38.3375L33.7058 35.9145L15.061 5.37109ZM31.6476 35.4217L13.7807 6.15264C13.7744 6.14225 13.7693 6.13655 13.7662 6.13353C13.763 6.13038 13.7599 6.12802 13.7566 6.12602C13.7495 6.12179 13.7378 6.11715 13.7218 6.11583L13.7208 6.11574L13.7198 6.11568C13.7155 6.11541 13.7113 6.11541 13.7072 6.11567L13.6603 6.11862L6.15339 6.11862C5.70732 6.11862 5.3457 6.48023 5.3457 6.9263C5.3457 7.37238 5.70732 7.73399 6.15339 7.73399L12.6635 7.73399L30.2668 36.2734L31.6476 35.4217Z" fill="white"/>
<path fill-rule="evenodd" clip-rule="evenodd" d="M27.8622 37.5143C27.3862 37.7944 27.2273 38.4073 27.5074 38.8833L28.9846 41.3941C29.0682 41.5362 29.1815 41.6501 29.3119 41.7324L29.3398 43.0144C29.3623 44.0475 30.218 44.8667 31.251 44.8443L45.503 44.5343C46.1917 44.5193 46.7379 43.9488 46.7229 43.2601C46.648 39.8166 43.7957 37.0858 40.3522 37.1607L36.7979 37.238C36.78 37.1127 36.7378 36.9887 36.6697 36.8728L35.1925 34.362C34.9124 33.886 34.2995 33.7271 33.8235 34.0072L27.8622 37.5143Z" fill="#1B1322"/>
<path fill-rule="evenodd" clip-rule="evenodd" d="M30.7941 40.8941L30.8395 42.9818C30.8439 43.1866 31.0136 43.3491 31.2184 43.3446L45.2111 43.0402C45.0255 40.5453 42.9154 38.6053 40.3848 38.6603L35.5011 38.7665L35.3271 37.5489L34.1532 35.5535L29.0538 38.5536L30.2161 40.5293L30.7941 40.8941ZM27.5074 38.8833C27.2273 38.4073 27.3862 37.7944 27.8622 37.5143L33.8235 34.0072C34.2995 33.7271 34.9124 33.886 35.1925 34.362L36.6697 36.8728C36.7378 36.9887 36.78 37.1127 36.7979 37.238L40.3522 37.1607C43.7957 37.0858 46.648 39.8166 46.7229 43.2601C46.7379 43.9488 46.1917 44.5193 45.503 44.5343L31.251 44.8443C30.218 44.8667 29.3623 44.0475 29.3398 43.0144L29.3119 41.7324C29.1815 41.6501 29.0682 41.5362 28.9846 41.3941L27.5074 38.8833Z" fill="white"/>
<path fill-rule="evenodd" clip-rule="evenodd" d="M19.6759 19.8872C20.0225 19.6603 20.4873 19.7574 20.7142 20.1039L23.1616 23.8424C23.3884 24.189 23.2914 24.6539 22.9449 24.8807C22.5983 25.1076 22.1334 25.0106 21.9066 24.664L19.4592 20.9255C19.2323 20.5789 19.3294 20.1141 19.6759 19.8872Z" fill="white"/>
<path fill-rule="evenodd" clip-rule="evenodd" d="M24.6062 27.1953C24.2622 27.4259 23.7963 27.3339 23.5657 26.9898L23.2628 26.538C23.0322 26.1939 23.1242 25.728 23.4683 25.4974C23.8123 25.2668 24.2782 25.3588 24.5088 25.7029L24.8117 26.1547C25.0423 26.4988 24.9503 26.9646 24.6062 27.1953Z" fill="white"/>
<path d="M33.8262 27.5899C34.9756 29.089 34.4701 31.2645 32.7776 32.1033L27.351 34.7927C26.1941 35.3661 24.7909 34.9641 24.1131 33.8651L14.3013 17.9578C13.5373 16.7191 13.9887 15.0922 15.2817 14.4242L19.4759 12.2574C20.5515 11.7018 21.8707 11.9967 22.6074 12.9574L33.8262 27.5899Z" fill="#1B1322"/>
<path fill-rule="evenodd" clip-rule="evenodd" d="M26.6849 33.4487L32.1115 30.7593C32.9578 30.3399 33.2105 29.2521 32.6358 28.5026L21.417 13.8701C21.1223 13.4858 20.5946 13.3678 20.1644 13.5901L15.9701 15.7569C15.4529 16.0241 15.2724 16.6748 15.578 17.1703L25.3898 33.0777C25.6609 33.5173 26.2222 33.678 26.6849 33.4487ZM32.7776 32.1033C34.4701 31.2645 34.9756 29.089 33.8262 27.5899L22.6074 12.9574C21.8707 11.9967 20.5515 11.7018 19.4759 12.2574L15.2817 14.4242C13.9887 15.0922 13.5373 16.7191 14.3013 17.9578L24.1131 33.8651C24.7909 34.9641 26.1941 35.3661 27.351 34.7927L32.7776 32.1033Z" fill="white"/>
<path fill-rule="evenodd" clip-rule="evenodd" d="M36.4999 38.5L30.4999 42L29.7441 40.7043L35.7441 37.2043L36.4999 38.5Z" fill="white"/>
</svg>
