<svg width="50" height="50" viewBox="0 0 50 50" fill="none" xmlns="http://www.w3.org/2000/svg">
<path fill-rule="evenodd" clip-rule="evenodd" d="M34.2022 15.7209C34.2796 15.576 34.3221 15.4071 34.3206 15.2428C34.241 6.44989 30.0187 3.99707 24.8217 3.99707C19.6214 3.99707 15.3969 6.45311 15.3227 15.2602C15.3214 15.4135 15.3584 15.5715 15.4263 15.709C18.4301 21.7867 19.6348 23.4971 24.8217 23.4971C24.8681 23.4971 24.9142 23.4969 24.9599 23.4967C24.9969 23.4969 25.0342 23.4971 25.0717 23.4971C25.433 23.4971 25.7653 23.4844 26.0731 23.4572C30.1872 23.1699 31.2408 21.2655 34.2022 15.7209ZM26.0731 23.4572C28.8947 23.2079 29.6551 21.7346 31.7173 17.5549C31.7852 17.4173 31.8227 17.2638 31.8186 17.1104C31.7085 13.0269 28.73 8.49707 25.0717 8.49707C21.4086 8.49707 18.427 13.0389 18.3245 17.1267C18.3209 17.2696 18.3534 17.413 18.4129 17.543C20.5131 22.1408 21.3782 23.47 24.9599 23.4967C25.3549 23.4943 25.7249 23.4815 26.0731 23.4572Z" fill="black"/>
<path fill-rule="evenodd" clip-rule="evenodd" d="M18.6802 6.85639C17.1568 8.37932 16.1089 10.9696 16.0727 15.2665C16.0724 15.3 16.0817 15.3423 16.0987 15.3767L15.4355 15.7045L16.0987 15.3767C17.2512 17.7086 18.1002 19.3084 18.9654 20.4128C18.5721 19.6751 18.1732 18.8236 17.7307 17.8547C17.6288 17.6317 17.568 17.3758 17.5747 17.1078C17.63 14.9029 18.4564 12.5978 19.7596 10.8334C21.0566 9.07743 22.916 7.74707 25.0717 7.74707C27.2246 7.74707 29.0819 9.07395 30.3786 10.8263C31.6815 12.5871 32.5089 14.8878 32.5683 17.0902C32.569 17.1177 32.5691 17.1451 32.5684 17.1724C32.868 16.6252 33.1893 16.0254 33.5406 15.3676C33.5604 15.3307 33.5709 15.2853 33.5706 15.2496C33.5318 10.9599 32.4833 8.37392 30.9603 6.85336C29.4394 5.33504 27.3131 4.74707 24.8217 4.74707C22.3288 4.74707 20.2012 5.3358 18.6802 6.85639ZM26.1321 24.2049C28.327 24.0506 29.8093 23.4466 31.113 22.0778C32.3479 20.7813 33.4033 18.8086 34.8637 16.0743C34.9988 15.8213 35.0732 15.529 35.0706 15.236C35.0298 10.7328 33.9273 7.69591 32.0201 5.79183C30.1106 3.88551 27.5274 3.24707 24.8217 3.24707C22.1143 3.24707 19.5295 3.88636 17.6197 5.79556C15.7122 7.70242 14.6108 10.7437 14.5728 15.2539C14.5705 15.527 14.6351 15.8008 14.754 16.0413C16.2388 19.0457 17.3512 21.1382 18.8048 22.4408C20.3281 23.8056 22.1455 24.2471 24.8217 24.2471C24.8679 24.2471 24.9138 24.2469 24.9594 24.2467C24.9966 24.2469 25.0341 24.2471 25.0717 24.2471C25.4473 24.2471 25.7999 24.234 26.1321 24.2049ZM26.0139 22.7095C27.257 22.5986 27.9602 22.2407 28.6137 21.4882C29.3358 20.6567 29.9956 19.3495 31.0447 17.223C31.0644 17.1831 31.0694 17.1497 31.0689 17.1306C31.0181 15.2494 30.3013 13.2435 29.1728 11.7185C28.0381 10.1851 26.5771 9.24707 25.0717 9.24707C23.5644 9.24707 22.1014 10.1876 20.9662 11.7246C19.8372 13.253 19.1215 15.2627 19.0742 17.1455C19.0738 17.1634 19.0781 17.1943 19.0951 17.2314C20.161 19.565 20.8484 20.905 21.6565 21.699C22.3889 22.4186 23.2747 22.7335 24.9604 22.7466C25.3377 22.7443 25.6876 22.7321 26.0139 22.7095Z" fill="#FB6D3A"/>
<path d="M38.9635 40.0625L36.5946 43.3387C36.3044 43.74 35.8604 43.7863 35.5442 43.438C33.3224 40.9911 24.9439 31.6941 22.2232 27.6693C19.4971 23.6365 16.0527 17.2292 15.1794 15.5861C15.0447 15.3326 14.9928 15.0126 15.0341 14.6973C15.3921 11.9653 15.8603 9.61975 17.3217 7.4968C17.3217 7.4968 22.6295 18.0984 25.7769 22.7544C28.4238 26.67 36.4257 35.5757 38.9037 38.3091C39.2937 38.7392 39.3215 39.5672 38.9635 40.0625Z" fill="black"/>
<path fill-rule="evenodd" clip-rule="evenodd" d="M17.8174 6.98593L17.3217 7.49724C17.8174 6.98593 17.8174 6.98588 17.8174 6.98593L17.8769 7.10447C17.9163 7.18268 17.9745 7.29823 18.0499 7.44708C18.2005 7.74479 18.4194 8.17567 18.692 8.70741C19.2372 9.77108 19.9969 11.2375 20.8544 12.8486C22.5754 16.0823 24.67 19.8595 26.2164 22.1471C28.8251 26.0062 36.7819 34.8651 39.2785 37.619C39.9609 38.3717 40.0086 39.8197 39.3835 40.6842L37.0146 43.9605C36.5116 44.6562 35.7297 44.746 35.1698 44.1293C32.9672 41.7036 24.5429 32.3592 21.7838 28.2775C19.0295 24.2031 15.565 17.7565 14.6938 16.1174C14.4555 15.669 14.3641 15.1012 14.4367 14.5472C14.8008 11.7684 15.2969 9.20662 16.8909 6.89117L17.3998 6.15191L17.8174 6.98593ZM17.2684 8.8835C16.3083 10.6089 15.9367 12.5195 15.6316 14.8482C15.6215 14.9248 15.6339 14.9971 15.6649 15.0556C16.5404 16.7028 19.9648 23.0709 22.6627 27.062C25.3449 31.0299 33.6776 40.2796 35.9186 42.7476C35.9912 42.8275 36.0973 42.8247 36.1746 42.7178L38.5434 39.4415C38.6345 39.3156 38.6265 39.1076 38.5289 39C36.0695 36.2872 28.0226 27.3347 25.3375 23.3626C23.7364 20.9941 21.6034 17.1426 19.8837 13.9114C19.0208 12.2901 18.2568 10.8152 17.7085 9.74556C17.5404 9.41772 17.3926 9.12789 17.2684 8.8835Z" fill="#FB6D3A"/>
<path d="M10.68 40.0624L13.0488 43.3387C13.339 43.74 13.788 43.7807 14.1043 43.4324C14.9941 42.4524 16.8619 40.3841 18.9581 37.9968C20.9914 35.681 24.9766 30.8972 25.0989 30.7502C25.1021 30.7465 25.1033 30.745 25.1057 30.7419L25.1076 30.7396C26.0511 29.5619 26.8569 28.5026 27.4202 27.6693C30.1463 23.6365 33.5907 17.2292 34.464 15.586C34.5988 15.3326 34.65 15.0127 34.6115 14.6967C34.2787 11.9649 34.0331 9.61959 32.5717 7.49679C32.5717 7.49679 27.0139 18.0983 23.8665 22.7544C21.2196 26.67 13.2177 35.5757 10.7397 38.3091C10.3497 38.7392 10.3219 39.5672 10.68 40.0624Z" fill="black"/>
<path fill-rule="evenodd" clip-rule="evenodd" d="M32.0838 6.97039L32.5717 7.49683C32.0838 6.97039 32.0838 6.97033 32.0838 6.97039L32.0213 7.08922C31.9801 7.16753 31.9191 7.28318 31.8403 7.43214C31.6828 7.73008 31.454 8.1612 31.1696 8.69322C30.6007 9.75741 29.8095 11.2246 28.9204 12.8365C27.1367 16.0703 24.9773 19.8533 23.4271 22.1466C20.8184 26.0058 12.8616 34.8647 10.3649 37.6186C9.68256 38.3713 9.63487 39.8193 10.2599 40.6838L12.6288 43.9601C13.1362 44.6618 13.9235 44.7348 14.4787 44.1233C15.37 43.1417 17.2406 41.0704 19.3402 38.6791C21.3809 36.3548 25.3728 31.5628 25.493 31.4186C25.5003 31.4098 25.5048 31.4042 25.5088 31.3992C25.5088 31.3992 25.5087 31.3993 25.5088 31.3992L25.5103 31.3973C26.4576 30.2149 27.2785 29.1368 27.8596 28.2771C30.6139 24.2026 34.0785 17.756 34.9496 16.117C35.1888 15.667 35.2768 15.1027 35.2104 14.5572C35.1975 14.4515 35.1847 14.3459 35.172 14.2405C34.8597 11.6602 34.5556 9.14681 33.0025 6.89075L32.5047 6.16757L32.0838 6.97039ZM32.6099 8.87434C33.4881 10.5237 33.7094 12.3437 33.9915 14.6618C33.9985 14.7197 34.0056 14.7778 34.0127 14.8363C34.0232 14.9227 34.0087 14.9982 33.9785 15.0551C33.103 16.7024 29.6787 23.0705 26.9808 27.0616C26.4353 27.8685 25.6446 28.909 24.7048 30.0821L24.7034 30.0837C24.5524 30.2651 20.5948 35.0153 18.576 37.3146C16.4832 39.698 14.6182 41.7632 13.7298 42.7416C13.6526 42.8267 13.5418 42.8182 13.4688 42.7173L11.1 39.4411C11.0089 39.3152 11.0169 39.1072 11.1145 38.9996C13.5739 36.2867 21.6209 27.3343 24.3059 23.3622C25.9031 20.9995 28.0963 17.1537 29.8784 13.9227C30.7721 12.3023 31.5671 10.828 32.1387 9.75892C32.3194 9.42091 32.4778 9.12333 32.6099 8.87434Z" fill="#FB6D3A"/>
<path fill-rule="evenodd" clip-rule="evenodd" d="M28.9056 25.3663C28.5572 25.1423 28.0932 25.2432 27.8692 25.5916C25.8599 28.7171 25.2799 29.4006 23.1581 31.9009C22.9331 32.166 22.6908 32.4516 22.4275 32.7627C22.16 33.0789 22.1994 33.5521 22.5156 33.8197C22.8318 34.0873 23.305 34.0478 23.5726 33.7316C23.8326 33.4244 24.0727 33.1414 24.2963 32.8779C26.442 30.3493 27.0683 29.6113 29.1309 26.4027C29.3549 26.0543 29.2541 25.5903 28.9056 25.3663Z" fill="#FB6D3A"/>
</svg>
