<svg width="50" height="50" viewBox="0 0 50 50" fill="none" xmlns="http://www.w3.org/2000/svg">
<path fill-rule="evenodd" clip-rule="evenodd" d="M32.25 12.0058C32.25 9.10311 29.8969 6.75 26.9942 6.75H26.4143C23.8319 6.75 21.7384 8.84348 21.7384 11.4259C21.7384 14.0084 23.8319 16.1019 26.4143 16.1019H26.8613C27.2755 16.1019 27.6113 15.7661 27.6113 15.3519C27.6113 14.9376 27.2755 14.6019 26.8613 14.6019H26.4143C24.6603 14.6019 23.2384 13.1799 23.2384 11.4259C23.2384 9.67191 24.6603 8.25 26.4143 8.25H26.9942C29.0685 8.25 30.75 9.93154 30.75 12.0058V13.5C30.75 16.3995 28.3995 18.75 25.5 18.75H6.5C6.08579 18.75 5.75 19.0858 5.75 19.5C5.75 19.9142 6.08579 20.25 6.5 20.25H25.5C29.2279 20.25 32.25 17.2279 32.25 13.5V12.0058Z" fill="white"/>
<path fill-rule="evenodd" clip-rule="evenodd" d="M36.75 38.4923C36.75 41.3961 34.3961 43.75 31.4923 43.75H30.9106C28.3282 43.75 26.2347 41.6565 26.2347 39.0741C26.2347 36.4916 28.3282 34.3981 30.9106 34.3981H31.1996C31.6138 34.3981 31.9496 34.7339 31.9496 35.1481C31.9496 35.5624 31.6138 35.8981 31.1996 35.8981H30.9106C29.1566 35.8981 27.7347 37.3201 27.7347 39.0741C27.7347 40.8281 29.1566 42.25 30.9106 42.25H31.4923C33.5676 42.25 35.25 40.5676 35.25 38.4923V37C35.25 34.1005 32.8995 31.75 30 31.75H7.5C7.08578 31.75 6.75 31.4142 6.75 31C6.75 30.5858 7.08578 30.25 7.5 30.25H30C33.7279 30.25 36.75 33.2721 36.75 37V38.4923Z" fill="white"/>
<path fill-rule="evenodd" clip-rule="evenodd" d="M48.25 15.9277C48.25 12.2397 45.2603 9.25 41.5723 9.25H40.7156C37.5007 9.25 34.8946 11.8561 34.8946 15.071C34.8946 18.2858 37.5007 20.892 40.7156 20.892H41.1386C41.5528 20.892 41.8886 20.5562 41.8886 20.142C41.8886 19.7278 41.5528 19.392 41.1386 19.392H40.7156C38.3292 19.392 36.3946 17.4574 36.3946 15.071C36.3946 12.6846 38.3292 10.75 40.7156 10.75H41.5723C44.4319 10.75 46.75 13.0681 46.75 15.9277V17.75C46.75 21.616 43.616 24.75 39.75 24.75H23.5C23.0858 24.75 22.75 25.0858 22.75 25.5C22.75 25.9142 23.0858 26.25 23.5 26.25H39.75C44.4444 26.25 48.25 22.4444 48.25 17.75V15.9277Z" fill="white"/>
<path fill-rule="evenodd" clip-rule="evenodd" d="M9.75 25.5C9.75 25.0858 10.0858 24.75 10.5 24.75L19 24.75C19.4142 24.75 19.75 25.0858 19.75 25.5C19.75 25.9142 19.4142 26.25 19 26.25L10.5 26.25C10.0858 26.25 9.75 25.9142 9.75 25.5Z" fill="white"/>
<path fill-rule="evenodd" clip-rule="evenodd" d="M1.75 31C1.75 30.5858 2.08579 30.25 2.5 30.25L3.5 30.25C3.91421 30.25 4.25 30.5858 4.25 31C4.25 31.4142 3.91421 31.75 3.5 31.75L2.5 31.75C2.08579 31.75 1.75 31.4142 1.75 31Z" fill="white"/>
</svg>
