<svg width="50" height="50" viewBox="0 0 50 50" fill="none" xmlns="http://www.w3.org/2000/svg">
<path d="M6.92314 36.3809C6.92314 35.8286 7.37085 35.3809 7.92314 35.3809H11.3078C11.86 35.3809 12.3078 35.8286 12.3078 36.3809V40.5347C12.3078 41.087 11.86 41.5347 11.3078 41.5347H7.92314C7.37085 41.5347 6.92314 41.087 6.92314 40.5347V36.3809Z" fill="black"/>
<path fill-rule="evenodd" clip-rule="evenodd" d="M6.17314 36.3809C6.17314 35.4144 6.95664 34.6309 7.92314 34.6309H11.3078C12.2743 34.6309 13.0578 35.4144 13.0578 36.3809V40.5347C13.0578 41.5012 12.2743 42.2847 11.3078 42.2847H7.92314C6.95664 42.2847 6.17314 41.5012 6.17314 40.5347V36.3809ZM7.92314 36.1309C7.78507 36.1309 7.67314 36.2428 7.67314 36.3809V40.5347C7.67314 40.6728 7.78507 40.7847 7.92314 40.7847H11.3078C11.4458 40.7847 11.5578 40.6728 11.5578 40.5347V36.3809C11.5578 36.2428 11.4458 36.1309 11.3078 36.1309H7.92314Z" fill="#FB6D3A"/>
<path d="M37.6924 36.3809C37.6924 35.8286 38.1401 35.3809 38.6924 35.3809H42.077C42.6293 35.3809 43.077 35.8286 43.077 36.3809V40.5347C43.077 41.087 42.6293 41.5347 42.077 41.5347H38.6924C38.1401 41.5347 37.6924 41.087 37.6924 40.5347V36.3809Z" fill="black"/>
<path fill-rule="evenodd" clip-rule="evenodd" d="M36.9424 36.3809C36.9424 35.4144 37.7259 34.6309 38.6924 34.6309H42.077C43.0435 34.6309 43.827 35.4144 43.827 36.3809V40.5347C43.827 41.5012 43.0435 42.2847 42.077 42.2847H38.6924C37.7259 42.2847 36.9424 41.5012 36.9424 40.5347V36.3809ZM38.6924 36.1309C38.5543 36.1309 38.4424 36.2428 38.4424 36.3809V40.5347C38.4424 40.6728 38.5543 40.7847 38.6924 40.7847H42.077C42.2151 40.7847 42.327 40.6728 42.327 40.5347V36.3809C42.327 36.2428 42.2151 36.1309 42.077 36.1309H38.6924Z" fill="#FB6D3A"/>
<path d="M3.07698 26.3428C3.07698 24.9621 4.19627 23.8428 5.57698 23.8428H44.4231C45.8038 23.8428 46.9231 24.9621 46.9231 26.3428V36.6889C46.9231 37.2412 46.4754 37.6889 45.9231 37.6889H4.07698C3.5247 37.6889 3.07698 37.2412 3.07698 36.6889V26.3428Z" fill="black"/>
<path fill-rule="evenodd" clip-rule="evenodd" d="M2.32698 26.3428C2.32698 24.5478 3.78206 23.0928 5.57698 23.0928H44.4231C46.2181 23.0928 47.6731 24.5478 47.6731 26.3428V36.6889C47.6731 37.6554 46.8896 38.4389 45.9231 38.4389H4.07698C3.11048 38.4389 2.32698 37.6554 2.32698 36.6889V26.3428ZM5.57698 24.5928C4.61049 24.5928 3.82698 25.3763 3.82698 26.3428V36.6889C3.82698 36.827 3.93891 36.9389 4.07698 36.9389H45.9231C46.0612 36.9389 46.1731 36.827 46.1731 36.6889V26.3428C46.1731 25.3763 45.3896 24.5928 44.4231 24.5928H5.57698Z" fill="#FB6D3A"/>
<path fill-rule="evenodd" clip-rule="evenodd" d="M47.6498 33.9131C47.6498 34.3273 47.3141 34.6631 46.8998 34.6631L20.7926 34.6631C20.3784 34.6631 20.0426 34.3273 20.0426 33.9131C20.0426 33.4989 20.3784 33.1631 20.7926 33.1631L46.8998 33.1631C47.3141 33.1631 47.6498 33.4989 47.6498 33.9131Z" fill="#FB6D3A"/>
<path fill-rule="evenodd" clip-rule="evenodd" d="M17.813 33.9131C17.813 34.3273 17.4772 34.6631 17.063 34.6631H7.73899C7.32478 34.6631 6.98899 34.3273 6.98899 33.9131C6.98899 33.4989 7.32478 33.1631 7.73899 33.1631H17.063C17.4772 33.1631 17.813 33.4989 17.813 33.9131Z" fill="#FB6D3A"/>
<path d="M7.69237 14.0352C7.69237 12.6544 8.81166 11.5352 10.1924 11.5352H40.577C41.9577 11.5352 43.077 12.6544 43.077 14.0352V23.8428H7.69237V14.0352Z" fill="black"/>
<path fill-rule="evenodd" clip-rule="evenodd" d="M6.94237 14.0352C6.94237 12.2402 8.39744 10.7852 10.1924 10.7852H40.577C42.3719 10.7852 43.827 12.2402 43.827 14.0352V24.5928H6.94237V14.0352ZM10.1924 12.2852C9.22587 12.2852 8.44237 13.0687 8.44237 14.0352V23.0928H42.327V14.0352C42.327 13.0687 41.5435 12.2852 40.577 12.2852H10.1924Z" fill="#FB6D3A"/>
<path d="M12.3078 17.9199C12.3078 17.3676 12.7555 16.9199 13.3078 16.9199H24.3847C24.937 16.9199 25.3847 17.3676 25.3847 17.9199V23.843H12.3078V17.9199Z" fill="black"/>
<path fill-rule="evenodd" clip-rule="evenodd" d="M11.5578 17.9199C11.5578 16.9534 12.3413 16.1699 13.3078 16.1699H24.3847C25.3512 16.1699 26.1347 16.9534 26.1347 17.9199V24.593H11.5578V17.9199ZM13.3078 17.6699C13.1697 17.6699 13.0578 17.7819 13.0578 17.9199V23.093H24.6347V17.9199C24.6347 17.7818 24.5227 17.6699 24.3847 17.6699H13.3078Z" fill="#FB6D3A"/>
<path d="M25.3847 17.9199C25.3847 17.3676 25.8324 16.9199 26.3847 16.9199H37.4616C38.0139 16.9199 38.4616 17.3676 38.4616 17.9199V23.843H25.3847V17.9199Z" fill="black"/>
<path fill-rule="evenodd" clip-rule="evenodd" d="M24.6347 17.9199C24.6347 16.9534 25.4182 16.1699 26.3847 16.1699H37.4616C38.4281 16.1699 39.2116 16.9534 39.2116 17.9199V24.593H24.6347V17.9199ZM26.3847 17.6699C26.2466 17.6699 26.1347 17.7819 26.1347 17.9199V23.093H37.7116V17.9199C37.7116 17.7818 37.5997 17.6699 37.4616 17.6699H26.3847Z" fill="#FB6D3A"/>
</svg>
