<svg width="71" height="70" viewBox="0 0 71 70" fill="none" xmlns="http://www.w3.org/2000/svg">
<mask id="path-1-inside-1_4579_6612" fill="white">
<path fill-rule="evenodd" clip-rule="evenodd" d="M29.4615 25.7529C37.6097 25.7529 41.7232 33.6084 41.7243 33.6106C41.7244 33.6106 41.7243 33.6106 41.7243 33.6107C41.7243 33.6112 41.7242 33.6129 41.7244 33.6124C41.7434 33.5763 45.8566 25.7529 53.9871 25.7529C60.0851 25.7529 65.5243 30.9336 65.5243 38.476C65.5243 47.1067 59.4697 53.5176 42.1949 62.6444C41.9042 62.798 41.5444 62.798 41.2538 62.6444C23.9789 53.5176 17.9243 47.1067 17.9243 38.476C17.9243 30.9336 23.3635 25.7529 29.4615 25.7529Z"/>
</mask>
<path d="M41.7244 33.6124L39.5105 32.4511L41.7244 33.6124ZM41.2538 62.6444L40.0859 64.8549L41.2538 62.6444ZM41.7243 33.6106L43.9391 32.4509L41.7243 33.6106ZM43.9391 32.4509C43.8755 32.3294 42.6988 30.1029 40.3789 27.877C38.051 25.6434 34.3979 23.2529 29.4615 23.2529V28.2529C32.6733 28.2529 35.1511 29.7902 36.9172 31.4848C38.6914 33.1872 39.572 34.8895 39.5095 34.7702L43.9391 32.4509ZM43.9383 34.7738C43.8845 34.8763 44.7692 33.1734 46.5431 31.4747C48.3087 29.7838 50.7825 28.2529 53.9871 28.2529V23.2529C49.0613 23.2529 45.4132 25.6337 43.0848 27.8635C40.7646 30.0855 39.5833 32.3123 39.5105 32.4511L43.9383 34.7738ZM53.9871 28.2529C58.5808 28.2529 63.0243 32.1874 63.0243 38.476H68.0243C68.0243 29.6799 61.5895 23.2529 53.9871 23.2529V28.2529ZM63.0243 38.476C63.0243 42.0701 61.8158 45.2278 58.535 48.642C55.1499 52.1648 49.6119 55.8983 41.027 60.434L43.3627 64.8549C52.0527 60.2637 58.1794 56.2284 62.1403 52.1064C66.2056 47.8757 68.0243 43.5126 68.0243 38.476H63.0243ZM15.4243 38.476C15.4243 43.5126 17.2431 47.8757 21.3083 52.1064C25.2692 56.2284 31.396 60.2637 40.0859 64.8549L42.4216 60.434C33.8367 55.8983 28.2987 52.1648 24.9136 48.642C21.6329 45.2278 20.4243 42.0701 20.4243 38.476H15.4243ZM29.4615 23.2529C21.8592 23.2529 15.4243 29.6799 15.4243 38.476H20.4243C20.4243 32.1874 24.8678 28.2529 29.4615 28.2529V23.2529ZM39.2243 33.6059C39.2244 33.5508 39.2264 33.5075 39.2267 33.5007C39.2271 33.4931 39.2274 33.4872 39.2275 33.4841C39.2276 33.4824 39.2277 33.481 39.2277 33.4802C39.2278 33.4793 39.2278 33.4787 39.2278 33.4786C39.2283 33.4692 39.2264 33.5031 39.2253 33.5404C39.2247 33.5601 39.2237 33.6019 39.2246 33.6547C39.2252 33.6859 39.227 33.8208 39.2531 33.9908C39.2643 34.064 39.2979 34.2711 39.3948 34.5199C39.4283 34.6058 39.7586 35.5313 40.8198 35.9431C42.2182 36.4858 43.2396 35.6273 43.4718 35.4003C43.755 35.1235 43.9003 34.8461 43.9383 34.7738L39.5105 32.4511C39.5484 32.3788 39.6937 32.1014 39.9768 31.8247C40.209 31.5977 41.2304 30.7392 42.6288 31.2819C43.69 31.6937 44.0203 32.6192 44.0538 32.705C44.1507 32.9538 44.1843 33.1609 44.1955 33.234C44.2215 33.4039 44.2234 33.5387 44.2239 33.5696C44.2248 33.6223 44.2238 33.6639 44.2232 33.6834C44.2222 33.7202 44.2203 33.7537 44.2208 33.7438C44.2208 33.7437 44.2209 33.7412 44.2211 33.738C44.2212 33.7348 44.2215 33.7287 44.2219 33.7211C44.2222 33.7141 44.2242 33.6706 44.2243 33.6154L39.2243 33.6059ZM41.027 60.434C41.4671 60.2015 41.9816 60.2015 42.4216 60.434L40.0859 64.8549C41.1073 65.3945 42.3413 65.3945 43.3627 64.8549L41.027 60.434ZM39.5095 34.7702C39.4888 34.7305 39.4521 34.6581 39.4134 34.5643C39.3757 34.4728 39.3171 34.3162 39.2755 34.1136C39.2306 33.895 39.2068 33.6301 39.2396 33.3345C39.272 33.043 39.3491 32.8192 39.3982 32.6946C39.4202 32.6387 39.4396 32.5956 39.4431 32.588C39.4533 32.5651 39.4395 32.5958 39.4334 32.6099C39.4093 32.6649 39.3683 32.764 39.3298 32.8922C39.2494 33.1602 39.2247 33.4055 39.2243 33.6059L44.2243 33.6154C44.2239 33.8158 44.1993 34.061 44.1189 34.3291C44.0804 34.4573 44.0393 34.5564 44.0153 34.6114C44.0091 34.6255 43.9954 34.6561 44.0056 34.6332C44.009 34.6256 44.0285 34.5825 44.0505 34.5267C44.0995 34.402 44.1767 34.1782 44.209 33.8866C44.2419 33.5911 44.2181 33.3261 44.1732 33.1076C44.1316 32.905 44.073 32.7483 44.0353 32.6569C43.9965 32.563 43.9599 32.4906 43.9391 32.4509L39.5095 34.7702Z" fill="#49C3FF" mask="url(#path-1-inside-1_4579_6612)"/>
<mask id="path-3-inside-2_4579_6612" fill="white">
<path fill-rule="evenodd" clip-rule="evenodd" d="M9.45723 13.7559C12.3355 13.7559 13.7885 16.5307 13.789 16.5315C13.789 16.5315 13.789 16.5315 13.789 16.5315C13.789 16.5317 13.7889 16.5323 13.789 16.5322C13.7957 16.5194 15.2486 13.7559 18.1207 13.7559C20.2747 13.7559 22.1961 15.5859 22.1961 18.2502C22.1961 21.2485 20.1274 23.4884 14.2545 26.6284C13.9646 26.7833 13.6133 26.7833 13.3234 26.6284C7.45046 23.4884 5.38184 21.2485 5.38184 18.2502C5.38184 15.5859 7.30317 13.7559 9.45723 13.7559Z"/>
</mask>
<path d="M13.789 16.5322L16.0029 17.6935L13.789 16.5322ZM14.2545 26.6284L15.4332 28.833L14.2545 26.6284ZM13.789 16.5315L16.0037 15.3719L13.789 16.5315ZM16.0037 15.3719C15.9405 15.251 15.4291 14.2951 14.4332 13.3395C13.4292 12.3761 11.7587 11.2559 9.45723 11.2559V16.2559C10.0341 16.2559 10.5292 16.523 10.9714 16.9473C11.4217 17.3793 11.637 17.8112 11.5742 17.6911L16.0037 15.3719ZM16.0029 17.6935C15.9429 17.8078 16.1596 17.3756 16.6095 16.9448C17.0512 16.5218 17.5452 16.2559 18.1207 16.2559V11.2559C15.8241 11.2559 14.1556 12.3717 13.1512 13.3336C12.1549 14.2877 11.6417 15.2438 11.5751 15.3708L16.0029 17.6935ZM18.1207 16.2559C18.7704 16.2559 19.6961 16.8396 19.6961 18.2502H24.6961C24.6961 14.3321 21.7791 11.2559 18.1207 11.2559V16.2559ZM19.6961 18.2502C19.6961 19.0438 19.4714 19.7559 18.6086 20.6712C17.6448 21.6935 15.9549 22.8843 13.0758 24.4237L15.4332 28.833C18.427 27.2324 20.7079 25.7333 22.2467 24.1011C23.8864 22.3618 24.6961 20.4548 24.6961 18.2502H19.6961ZM2.88184 18.2502C2.88184 20.4548 3.69151 22.3618 5.33119 24.1011C6.86998 25.7333 9.1509 27.2324 12.1447 28.833L14.5021 24.4237C11.623 22.8843 9.9331 21.6935 8.96934 20.6712C8.10647 19.7559 7.88184 19.0438 7.88184 18.2502H2.88184ZM9.45723 11.2559C5.79884 11.2559 2.88184 14.3321 2.88184 18.2502H7.88184C7.88184 16.8396 8.80751 16.2559 9.45723 16.2559V11.2559ZM11.289 16.5315C11.289 16.4761 11.2909 16.4324 11.2912 16.4254C11.2915 16.4178 11.2918 16.4117 11.292 16.4085C11.2921 16.4054 11.2923 16.4029 11.2923 16.4028C11.2928 16.3931 11.2909 16.4271 11.2898 16.4645C11.2893 16.4842 11.2884 16.5262 11.2894 16.5793C11.29 16.6106 11.2921 16.7466 11.3189 16.9179C11.3304 16.9916 11.3649 17.2004 11.4639 17.451C11.4995 17.541 11.837 18.4672 12.9054 18.8709C14.2983 19.397 15.3084 18.5433 15.5383 18.3182C15.8199 18.0424 15.9647 17.7663 16.0029 17.6935L11.5751 15.3708C11.6133 15.298 11.758 15.022 12.0396 14.7462C12.2695 14.521 13.2796 13.6673 14.6725 14.1935C15.7409 14.5971 16.0784 15.5233 16.114 15.6133C16.213 15.8639 16.2475 16.0727 16.259 16.1464C16.2857 16.3177 16.2879 16.4536 16.2885 16.4848C16.2895 16.5379 16.2886 16.5798 16.288 16.5995C16.287 16.6366 16.2851 16.6705 16.2856 16.6606C16.2856 16.6605 16.2858 16.658 16.2859 16.6548C16.2861 16.6516 16.2864 16.6455 16.2867 16.6378C16.287 16.6307 16.289 16.587 16.289 16.5315H11.289ZM13.0758 24.4237C13.5223 24.1849 14.0556 24.1849 14.5021 24.4237L12.1447 28.833C13.1711 29.3818 14.4068 29.3818 15.4332 28.833L13.0758 24.4237ZM11.5742 17.6911C11.5535 17.6516 11.517 17.5795 11.4784 17.486C11.4408 17.395 11.3823 17.239 11.3407 17.0373C11.2957 16.8197 11.2716 16.5558 11.3036 16.261C11.3353 15.9701 11.4116 15.7466 11.4603 15.6219C11.4821 15.566 11.5014 15.523 11.5048 15.5153C11.515 15.4925 11.5013 15.5231 11.4952 15.5373C11.4713 15.5923 11.4306 15.6914 11.3925 15.8195C11.3129 16.0873 11.289 16.3319 11.289 16.5315H16.289C16.289 16.7311 16.265 16.9758 16.1854 17.2435C16.1474 17.3716 16.1066 17.4707 16.0827 17.5258C16.0766 17.5399 16.063 17.5705 16.0731 17.5477C16.0765 17.54 16.0958 17.497 16.1176 17.4411C16.1663 17.3164 16.2426 17.0929 16.2743 16.802C16.3064 16.5072 16.2822 16.2433 16.2373 16.0257C16.1956 15.824 16.1372 15.668 16.0995 15.5769C16.0609 15.4835 16.0244 15.4114 16.0037 15.3719L11.5742 17.6911Z" fill="#49C3FF" mask="url(#path-3-inside-2_4579_6612)"/>
<mask id="path-5-inside-3_4579_6612" fill="white">
<path fill-rule="evenodd" clip-rule="evenodd" d="M30.1921 7.28711C33.0704 7.28711 34.5234 10.062 34.5238 10.0627C34.5238 10.0628 34.5238 10.0628 34.5238 10.0628C34.5238 10.0629 34.5238 10.0636 34.5238 10.0634C34.5305 10.0506 35.9835 7.28711 38.8555 7.28711C41.0096 7.28711 42.9309 9.11714 42.9309 11.7814C42.9309 14.7797 40.8623 17.0196 34.9894 20.1596C34.6994 20.3146 34.3482 20.3146 34.0583 20.1596C28.1853 17.0196 26.1167 14.7797 26.1167 11.7814C26.1167 9.11714 28.038 7.28711 30.1921 7.28711Z"/>
</mask>
<path d="M34.5238 10.0634L36.7377 11.2247L34.5238 10.0634ZM34.9894 20.1596L36.1681 22.3643L34.9894 20.1596ZM34.5238 10.0627L36.7386 8.90313L34.5238 10.0627ZM36.7386 8.90313C36.6753 8.78226 36.164 7.82634 35.168 6.87071C34.164 5.90739 32.4935 4.78711 30.1921 4.78711V9.78711C30.7689 9.78711 31.2641 10.0543 31.7063 10.4785C32.1565 10.9105 32.3719 11.3424 32.309 11.2223L36.7386 8.90313ZM36.7377 11.2247C36.6778 11.339 36.8944 10.9069 37.3443 10.476C37.786 10.053 38.2801 9.78711 38.8555 9.78711V4.78711C36.5589 4.78711 34.8905 5.90295 33.886 6.8649C32.8898 7.81898 32.3766 8.77501 32.3099 8.90207L36.7377 11.2247ZM38.8555 9.78711C39.5053 9.78711 40.4309 10.3709 40.4309 11.7814H45.4309C45.4309 7.86339 42.5139 4.78711 38.8555 4.78711V9.78711ZM40.4309 11.7814C40.4309 12.5751 40.2063 13.2872 39.3434 14.2025C38.3797 15.2248 36.6898 16.4156 33.8106 17.9549L36.1681 22.3643C39.1619 20.7637 41.4428 19.2646 42.9816 17.6323C44.6213 15.8931 45.4309 13.9861 45.4309 11.7814H40.4309ZM23.6167 11.7814C23.6167 13.9861 24.4264 15.8931 26.0661 17.6323C27.6048 19.2646 29.8858 20.7637 32.8796 22.3643L35.237 17.9549C32.3578 16.4156 30.668 15.2248 29.7042 14.2025C28.8413 13.2872 28.6167 12.5751 28.6167 11.7814H23.6167ZM30.1921 4.78711C26.5337 4.78711 23.6167 7.86339 23.6167 11.7814H28.6167C28.6167 10.3709 29.5424 9.78711 30.1921 9.78711V4.78711ZM32.0238 10.0628C32.0238 10.0073 32.0258 9.96367 32.0261 9.95667C32.0264 9.94903 32.0267 9.94296 32.0268 9.9398C32.027 9.93665 32.0271 9.93412 32.0271 9.93408C32.0276 9.92439 32.0257 9.9584 32.0247 9.9957C32.0242 10.0155 32.0232 10.0574 32.0242 10.1106C32.0248 10.1418 32.027 10.2778 32.0537 10.4491C32.0652 10.5228 32.0998 10.7317 32.1988 10.9823C32.2344 11.0723 32.5719 11.9985 33.6403 12.4021C35.0331 12.9283 36.0433 12.0746 36.2732 11.8494C36.5548 11.5736 36.6995 11.2975 36.7377 11.2247L32.3099 8.90207C32.3481 8.82928 32.4929 8.55323 32.7745 8.2774C33.0044 8.05225 34.0145 7.19856 35.4073 7.72475C36.4758 8.12838 36.8133 9.05456 36.8488 9.14457C36.9479 9.39513 36.9824 9.60399 36.9939 9.67768C37.0206 9.84893 37.0228 9.98489 37.0233 10.016C37.0244 10.0691 37.0234 10.111 37.0229 10.1307C37.0219 10.1679 37.02 10.2017 37.0205 10.1919C37.0205 10.1918 37.0206 10.1892 37.0208 10.186C37.0209 10.1828 37.0212 10.1767 37.0216 10.169C37.0219 10.162 37.0238 10.1183 37.0238 10.0628H32.0238ZM33.8106 17.9549C34.2572 17.7162 34.7904 17.7162 35.237 17.9549L32.8796 22.3643C33.9059 22.913 35.1417 22.913 36.1681 22.3643L33.8106 17.9549ZM32.309 11.2223C32.2883 11.1829 32.2518 11.1107 32.2132 11.0173C32.1756 10.9263 32.1172 10.7703 32.0755 10.5686C32.0306 10.351 32.0064 10.087 32.0385 9.79227C32.0702 9.50138 32.1465 9.27787 32.1952 9.15316C32.217 9.09728 32.2363 9.05422 32.2397 9.04658C32.2498 9.02375 32.2362 9.05437 32.23 9.06851C32.2062 9.12357 32.1654 9.22265 32.1273 9.35077C32.0478 9.61851 32.0238 9.86316 32.0238 10.0628H37.0238C37.0238 10.2624 36.9998 10.507 36.9203 10.7748C36.8822 10.9029 36.8415 11.0019 36.8176 11.057C36.8115 11.0711 36.7978 11.1018 36.808 11.0789C36.8114 11.0713 36.8306 11.0282 36.8525 10.9724C36.9012 10.8476 36.9775 10.6241 37.0091 10.3332C37.0412 10.0385 37.0171 9.77454 36.9721 9.55693C36.9304 9.35523 36.872 9.19924 36.8344 9.10819C36.7958 9.01474 36.7593 8.94262 36.7386 8.90313L32.309 11.2223Z" fill="#49C3FF" mask="url(#path-5-inside-3_4579_6612)"/>
</svg>
