<svg width="40" height="31" viewBox="0 0 40 31" fill="none" xmlns="http://www.w3.org/2000/svg">
<path fill-rule="evenodd" clip-rule="evenodd" d="M0 6.25C0 3.07436 2.60695 0.5 5.82279 0.5H34.1772C37.3931 0.5 40 3.07436 40 6.25V24.75C40 27.9256 37.3931 30.5 34.1772 30.5H5.82278C2.60695 30.5 0 27.9256 0 24.75V6.25ZM5.82279 3C5.21705 3 4.64954 3.1616 4.16204 3.44351L17.5209 18.5473C18.8324 20.03 21.167 20.03 22.4785 18.5473L35.8376 3.44329C35.3502 3.16151 34.7828 3 34.1772 3H5.82279ZM2.53165 6.25C2.53165 5.9919 2.56211 5.74082 2.61969 5.50009L12.2487 16.3868L2.70952 25.8067C2.59423 25.4754 2.53165 25.1199 2.53165 24.75V6.25ZM4.39416 27.6787C4.82625 27.8846 5.31087 28 5.82278 28H34.1772C34.6893 28 35.174 27.8845 35.6062 27.6785L26.082 18.2734L24.3852 20.1919C22.065 22.8152 17.9344 22.8152 15.6142 20.1919L13.9179 18.274L4.39416 27.6787ZM27.7512 16.3862L37.2906 25.8064C37.4058 25.4752 37.4684 25.1198 37.4684 24.75V6.25C37.4684 5.99171 37.4379 5.74046 37.3802 5.49957L27.7512 16.3862Z" fill="white"/>
</svg>
