<svg width="50" height="50" viewBox="0 0 50 50" fill="none" xmlns="http://www.w3.org/2000/svg">
<path d="M10 7.15381C10 6.60152 10.4477 6.15381 11 6.15381H39C39.5523 6.15381 40 6.60152 40 7.15381V42.8461C40 43.3984 39.5523 43.8461 39 43.8461H11C10.4477 43.8461 10 43.3984 10 42.8461V7.15381Z" fill="#1B1322"/>
<path fill-rule="evenodd" clip-rule="evenodd" d="M9.25 7.15381C9.25 6.18731 10.0335 5.40381 11 5.40381H39C39.9665 5.40381 40.75 6.18731 40.75 7.15381V42.8461C40.75 43.8126 39.9665 44.5961 39 44.5961H11C10.0335 44.5961 9.25 43.8126 9.25 42.8461V7.15381ZM11 6.90381C10.8619 6.90381 10.75 7.01574 10.75 7.15381V42.8461C10.75 42.9842 10.8619 43.0961 11 43.0961H39C39.1381 43.0961 39.25 42.9842 39.25 42.8461V7.15381C39.25 7.01574 39.1381 6.90381 39 6.90381H11Z" fill="white"/>
<path fill-rule="evenodd" clip-rule="evenodd" d="M10 15.4038C10 14.9896 10.3358 14.6538 10.75 14.6538H36.1731C36.5873 14.6538 36.9231 14.9896 36.9231 15.4038C36.9231 15.818 36.5873 16.1538 36.1731 16.1538H10.75C10.3358 16.1538 10 15.818 10 15.4038Z" fill="white"/>
<path d="M15.3839 11.1538C15.3839 11.7911 14.8673 12.3077 14.23 12.3077C13.5928 12.3077 13.0762 11.7911 13.0762 11.1538C13.0762 10.5166 13.5928 10 14.23 10C14.8673 10 15.3839 10.5166 15.3839 11.1538Z" fill="white"/>
<path d="M21.5382 11.1538C21.5382 11.7911 21.0216 12.3077 20.3843 12.3077C19.7471 12.3077 19.2305 11.7911 19.2305 11.1538C19.2305 10.5166 19.7471 10 20.3843 10C21.0216 10 21.5382 10.5166 21.5382 11.1538Z" fill="white"/>
<path d="M36.9229 11.1538C36.9229 11.7911 36.4063 12.3077 35.7691 12.3077C35.1318 12.3077 34.6152 11.7911 34.6152 11.1538C34.6152 10.5166 35.1318 10 35.7691 10C36.4063 10 36.9229 10.5166 36.9229 11.1538Z" fill="white"/>
<path d="M33.8466 29.9999C33.8466 34.673 29.886 38.4614 25.0005 38.4614C20.1149 38.4614 16.1543 34.673 16.1543 29.9999C16.1543 25.3267 20.1149 21.5383 25.0005 21.5383C29.886 21.5383 33.8466 25.3267 33.8466 29.9999Z" fill="#1B1322"/>
<path fill-rule="evenodd" clip-rule="evenodd" d="M25.0005 36.9614C29.1212 36.9614 32.3466 33.7825 32.3466 29.9999C32.3466 26.2173 29.1212 23.0383 25.0005 23.0383C20.8797 23.0383 17.6543 26.2173 17.6543 29.9999C17.6543 33.7825 20.8797 36.9614 25.0005 36.9614ZM25.0005 38.4614C29.886 38.4614 33.8466 34.673 33.8466 29.9999C33.8466 25.3267 29.886 21.5383 25.0005 21.5383C20.1149 21.5383 16.1543 25.3267 16.1543 29.9999C16.1543 34.673 20.1149 38.4614 25.0005 38.4614Z" fill="white"/>
<path fill-rule="evenodd" clip-rule="evenodd" d="M21.0122 30.5534C20.8902 30.6446 20.763 30.7395 20.6228 30.8343C20.296 31.0553 19.8495 30.9729 19.6256 30.6502C19.4017 30.3276 19.4852 29.8868 19.8121 29.6658C19.8624 29.6318 19.9276 29.5823 20.006 29.5228C20.3605 29.2536 20.9861 28.7787 21.7405 28.5923C22.7702 28.3377 23.9691 28.5795 25.3704 29.6997C26.5143 30.6141 27.291 30.6567 27.8168 30.5323C28.2834 30.4219 28.6184 30.1876 28.9862 29.9305C29.1159 29.8398 29.2498 29.7462 29.3949 29.6542C29.7283 29.4429 30.1721 29.5383 30.3862 29.8674C30.6003 30.1965 30.5035 30.6346 30.1702 30.8459C30.113 30.8822 30.04 30.9339 29.9531 30.9956C29.5718 31.266 28.9216 31.7273 28.1512 31.9095C27.0996 32.1583 25.8768 31.9269 24.4675 30.8004L24.4674 30.8004C23.3158 29.8797 22.5692 29.8474 22.089 29.9661C21.6554 30.0733 21.3539 30.2984 21.0122 30.5534Z" fill="white"/>
</svg>
