<svg width="80" height="80" viewBox="0 0 80 80" fill="none" xmlns="http://www.w3.org/2000/svg">
<path d="M21.373 11.0241C21.373 8.738 23.2263 6.88477 25.5124 6.88477H54.4875C56.7735 6.88477 58.6268 8.738 58.6268 11.0241V68.9743C58.6268 71.2604 56.7735 73.1136 54.4875 73.1136H25.5123C23.2263 73.1136 21.373 71.2604 21.373 68.9743V11.0241Z" fill="black"/>
<path fill-rule="evenodd" clip-rule="evenodd" d="M19.8208 11.0246C19.8208 7.8812 22.369 5.33301 25.5123 5.33301H54.4875C57.6308 5.33301 60.179 7.8812 60.179 11.0246V68.9748C60.179 72.1182 57.6308 74.6663 54.4875 74.6663H25.5123C22.369 74.6663 19.8208 72.1182 19.8208 68.9748V11.0246ZM25.5123 8.43749C24.0835 8.43749 22.9253 9.59575 22.9253 11.0246V68.9748C22.9253 70.4036 24.0835 71.5619 25.5123 71.5619H54.4875C55.9163 71.5619 57.0745 70.4036 57.0745 68.9748V11.0246C57.0745 9.59575 55.9163 8.43749 54.4875 8.43749H25.5123Z" fill="white"/>
<path fill-rule="evenodd" clip-rule="evenodd" d="M29.6516 13.6113C30.5089 13.6113 31.2039 14.3063 31.2039 15.1636L31.2039 25.5118C31.2039 26.3691 30.5089 27.0641 29.6516 27.0641C28.7943 27.0641 28.0994 26.3691 28.0994 25.5118L28.0994 15.1636C28.0994 14.3063 28.7943 13.6113 29.6516 13.6113Z" fill="#EF7300"/>
<path fill-rule="evenodd" clip-rule="evenodd" d="M51.9004 33.7905C51.9004 34.6478 51.2054 35.3428 50.3482 35.3428L21.373 35.3428C20.5158 35.3428 19.8208 34.6478 19.8208 33.7905C19.8208 32.9333 20.5158 32.2383 21.373 32.2383H50.3482C51.2054 32.2383 51.9004 32.9333 51.9004 33.7905Z" fill="white"/>
<path fill-rule="evenodd" clip-rule="evenodd" d="M29.6516 40.5176C30.5089 40.5176 31.2039 41.2125 31.2039 42.0698V52.4181C31.2039 53.2754 30.5089 53.9703 29.6516 53.9703C28.7943 53.9703 28.0994 53.2754 28.0994 52.4181V42.0698C28.0994 41.2125 28.7943 40.5176 29.6516 40.5176Z" fill="#EF7300"/>
</svg>
