<svg width="80" height="80" viewBox="0 0 80 80" fill="none" xmlns="http://www.w3.org/2000/svg">
<path fill-rule="evenodd" clip-rule="evenodd" d="M39.889 47.5557C39.1526 47.5557 38.5557 46.9587 38.5557 46.2223L38.5557 35.5557C38.5557 34.8193 39.1526 34.2223 39.889 34.2223C40.6254 34.2223 41.2223 34.8193 41.2223 35.5557L41.2223 46.2223C41.2223 46.9587 40.6254 47.5557 39.889 47.5557Z" fill="white"/>
<path fill-rule="evenodd" clip-rule="evenodd" d="M33.2222 40.889C33.2222 40.1526 33.8191 39.5557 34.5555 39.5557H45.2222C45.9585 39.5557 46.5555 40.1526 46.5555 40.889C46.5555 41.6254 45.9585 42.2223 45.2222 42.2223H34.5555C33.8191 42.2223 33.2222 41.6254 33.2222 40.889Z" fill="white"/>
<path d="M6.11108 23.1112C6.11108 21.1475 7.70296 19.5557 9.66664 19.5557H24.7778C26.7414 19.5557 28.3333 21.1475 28.3333 23.1112V57.7779C28.3333 59.7416 26.7414 61.3334 24.7778 61.3334H9.66664C7.70296 61.3334 6.11108 59.7416 6.11108 57.7779V37.3334V23.1112Z" fill="black"/>
<path fill-rule="evenodd" clip-rule="evenodd" d="M4.77783 23.1106C4.77783 20.4105 6.96666 18.2217 9.66672 18.2217H24.7778C27.4779 18.2217 29.6667 20.4105 29.6667 23.1106V57.7772C29.6667 60.4773 27.4779 62.6661 24.7778 62.6661H9.66672C6.96666 62.6661 4.77783 60.4773 4.77783 57.7772V23.1106ZM9.66672 20.8883C8.43942 20.8883 7.4445 21.8833 7.4445 23.1106V35.9995H23.0001C23.7364 35.9995 24.3334 36.5964 24.3334 37.3328C24.3334 38.0692 23.7364 38.6661 23.0001 38.6661H7.4445V57.7772C7.4445 59.0045 8.43942 59.9995 9.66672 59.9995H24.7778C26.0051 59.9995 27.0001 59.0045 27.0001 57.7772V23.1106C27.0001 21.8833 26.0051 20.8883 24.7778 20.8883H9.66672Z" fill="white"/>
<path fill-rule="evenodd" clip-rule="evenodd" d="M11.4444 24.4443C12.1808 24.4443 12.7778 25.0413 12.7778 25.7777V31.111C12.7778 31.8474 12.1808 32.4443 11.4444 32.4443C10.708 32.4443 10.1111 31.8474 10.1111 31.111V25.7777C10.1111 25.0413 10.708 24.4443 11.4444 24.4443ZM11.4444 42.2221C12.1808 42.2221 12.7778 42.8191 12.7778 43.5554V50.6666C12.7778 51.4029 12.1808 51.9999 11.4444 51.9999C10.708 51.9999 10.1111 51.4029 10.1111 50.6666V43.5554C10.1111 42.8191 10.708 42.2221 11.4444 42.2221Z" fill="#EF7300"/>
<path d="M52.3335 22.2216C52.3335 20.2579 53.9254 18.666 55.8891 18.666H71.0002C72.9638 18.666 74.5557 20.2579 74.5557 22.2216V31.9993C74.5557 33.963 72.9638 35.5549 71.0002 35.5549H55.8891C53.9254 35.5549 52.3335 33.963 52.3335 31.9993V22.2216Z" fill="black"/>
<path fill-rule="evenodd" clip-rule="evenodd" d="M51 22.2219C51 19.5218 53.1888 17.333 55.8889 17.333H71C73.7001 17.333 75.8889 19.5218 75.8889 22.2219V31.9997C75.8889 34.6997 73.7001 36.8886 71 36.8886H55.8889C53.1888 36.8886 51 34.6997 51 31.9997V22.2219ZM55.8889 19.9997C54.6616 19.9997 53.6667 20.9946 53.6667 22.2219V31.9997C53.6667 33.227 54.6616 34.2219 55.8889 34.2219H71C72.2273 34.2219 73.2222 33.227 73.2222 31.9997V22.2219C73.2222 20.9946 72.2273 19.9997 71 19.9997H55.8889Z" fill="white"/>
<path d="M52.3335 43.5556C52.3335 41.5919 53.9254 40 55.8891 40H71.0002C72.9638 40 74.5557 41.5919 74.5557 43.5556V57.7778C74.5557 59.7415 72.9638 61.3333 71.0002 61.3333H55.8891C53.9254 61.3333 52.3335 59.7415 52.3335 57.7778V43.5556Z" fill="black"/>
<path fill-rule="evenodd" clip-rule="evenodd" d="M51 43.5549C51 40.8548 53.1888 38.666 55.8889 38.666H71C73.7001 38.666 75.8889 40.8548 75.8889 43.5549V57.7771C75.8889 60.4772 73.7001 62.666 71 62.666H55.8889C53.1888 62.666 51 60.4772 51 57.7771V43.5549ZM55.8889 41.3327C54.6616 41.3327 53.6667 42.3276 53.6667 43.5549V57.7771C53.6667 59.0044 54.6616 59.9993 55.8889 59.9993H71C72.2273 59.9993 73.2222 59.0044 73.2222 57.7771V43.5549C73.2222 42.3276 72.2273 41.3327 71 41.3327H55.8889Z" fill="white"/>
</svg>
