<svg width="50" height="50" viewBox="0 0 50 50" fill="none" xmlns="http://www.w3.org/2000/svg">
<path d="M2.30859 7.9231C2.30859 7.37081 2.75631 6.9231 3.30859 6.9231H47.4624C48.0147 6.9231 48.4624 7.37081 48.4624 7.9231V29C48.4624 29.5523 48.0147 30 47.4624 30H3.3086C2.75631 30 2.30859 29.5523 2.30859 29V7.9231Z" fill="#1B1322"/>
<path fill-rule="evenodd" clip-rule="evenodd" d="M1.55859 7.9231C1.55859 6.9566 2.34209 6.1731 3.30859 6.1731H47.4624C48.4289 6.1731 49.2124 6.9566 49.2124 7.9231V29C49.2124 29.9665 48.4289 30.75 47.4624 30.75H3.3086C2.3421 30.75 1.55859 29.9665 1.55859 29V7.9231ZM3.30859 7.6731C3.17052 7.6731 3.05859 7.78502 3.05859 7.9231V29C3.05859 29.1381 3.17052 29.25 3.3086 29.25H47.4624C47.6005 29.25 47.7124 29.1381 47.7124 29V7.9231C47.7124 7.78503 47.6005 7.6731 47.4624 7.6731H3.30859Z" fill="white"/>
<path d="M7.69336 27.1538C7.69336 26.6015 8.14107 26.1538 8.69336 26.1538H42.078C42.6303 26.1538 43.078 26.6015 43.078 27.1538V32.0769C43.078 32.6292 42.6303 33.0769 42.078 33.0769H8.69336C8.14107 33.0769 7.69336 32.6292 7.69336 32.0769V27.1538Z" fill="#1B1322"/>
<path fill-rule="evenodd" clip-rule="evenodd" d="M6.94336 27.1538C6.94336 26.1873 7.72686 25.4038 8.69336 25.4038H42.078C43.0445 25.4038 43.828 26.1873 43.828 27.1538V32.0769C43.828 33.0434 43.0445 33.8269 42.078 33.8269H8.69336C7.72686 33.8269 6.94336 33.0434 6.94336 32.0769V27.1538ZM8.69336 26.9038C8.55529 26.9038 8.44336 27.0157 8.44336 27.1538V32.0769C8.44336 32.215 8.55529 32.3269 8.69336 32.3269H42.078C42.216 32.3269 42.328 32.215 42.328 32.0769V27.1538C42.328 27.0157 42.216 26.9038 42.078 26.9038H8.69336Z" fill="white"/>
<path fill-rule="evenodd" clip-rule="evenodd" d="M12.3281 30C12.3281 29.5858 12.6639 29.25 13.0781 29.25L28.4627 29.25C28.877 29.25 29.2127 29.5858 29.2127 30C29.2127 30.4142 28.877 30.75 28.4627 30.75L13.0781 30.75C12.6639 30.75 12.3281 30.4142 12.3281 30Z" fill="white"/>
<path fill-rule="evenodd" clip-rule="evenodd" d="M33.0977 30C33.0977 29.5858 33.4334 29.25 33.8477 29.25L37.6938 29.25C38.108 29.25 38.4438 29.5858 38.4438 30C38.4438 30.4142 38.108 30.75 37.6938 30.75L33.8477 30.75C33.4334 30.75 33.0977 30.4142 33.0977 30Z" fill="white"/>
<path d="M8.46199 13.4615C8.46199 14.0987 7.94539 14.6153 7.30814 14.6153C6.67089 14.6153 6.1543 14.0987 6.1543 13.4615C6.1543 12.8242 6.67089 12.3076 7.30814 12.3076C7.94539 12.3076 8.46199 12.8242 8.46199 13.4615Z" fill="white"/>
<path d="M12.3077 13.4615C12.3077 14.0987 11.7911 14.6153 11.1538 14.6153C10.5166 14.6153 10 14.0987 10 13.4615C10 12.8242 10.5166 12.3076 11.1538 12.3076C11.7911 12.3076 12.3077 12.8242 12.3077 13.4615Z" fill="white"/>
<path fill-rule="evenodd" clip-rule="evenodd" d="M13.0774 37.7117C13.4916 37.7117 13.8274 38.0475 13.8274 38.4617C13.8274 39.1236 13.6996 40.1481 13.3155 41.1429C12.933 42.1336 12.2567 43.192 11.0958 43.7525C10.7227 43.9325 10.2744 43.7761 10.0943 43.4031C9.91421 43.0301 10.0706 42.5817 10.4436 42.4016C11.1288 42.0709 11.6064 41.4051 11.9162 40.6027C12.2244 39.8045 12.3274 38.9669 12.3274 38.4617C12.3274 38.0475 12.6632 37.7117 13.0774 37.7117Z" fill="white"/>
<path fill-rule="evenodd" clip-rule="evenodd" d="M18.4622 37.7117C18.8764 37.7117 19.2122 38.0475 19.2122 38.4617C19.2122 39.1236 19.0844 40.1481 18.7003 41.1429C18.3178 42.1336 17.6415 43.192 16.4805 43.7525C16.1075 43.9325 15.6591 43.7761 15.4791 43.4031C15.299 43.0301 15.4554 42.5817 15.8284 42.4016C16.5136 42.0709 16.9912 41.4051 17.301 40.6027C17.6091 39.8045 17.7122 38.9669 17.7122 38.4617C17.7122 38.0475 18.0479 37.7117 18.4622 37.7117Z" fill="white"/>
<path fill-rule="evenodd" clip-rule="evenodd" d="M23.8471 37.7117C24.2613 37.7117 24.5971 38.0475 24.5971 38.4617C24.5971 39.0963 24.515 40.0915 24.2657 41.0598C24.026 41.9911 23.5874 43.0771 22.7485 43.6845C22.413 43.9274 21.9441 43.8524 21.7012 43.5169C21.4583 43.1814 21.5333 42.7125 21.8688 42.4696C22.2607 42.1858 22.5913 41.5476 22.8131 40.6859C23.0254 39.861 23.0971 38.9942 23.0971 38.4617C23.0971 38.0475 23.4329 37.7117 23.8471 37.7117Z" fill="white"/>
<path fill-rule="evenodd" clip-rule="evenodd" d="M38.4617 37.7117C38.0475 37.7117 37.7117 38.0475 37.7117 38.4617C37.7117 39.1236 37.8394 40.1481 38.2235 41.1429C38.606 42.1336 39.2823 43.192 40.4433 43.7525C40.8163 43.9325 41.2647 43.7761 41.4448 43.4031C41.6249 43.0301 41.4684 42.5817 41.0954 42.4016C40.4102 42.0709 39.9327 41.4051 39.6229 40.6027C39.3147 39.8045 39.2117 38.9669 39.2117 38.4617C39.2117 38.0475 38.8759 37.7117 38.4617 37.7117Z" fill="white"/>
<path fill-rule="evenodd" clip-rule="evenodd" d="M33.0769 37.7117C32.6627 37.7117 32.3269 38.0475 32.3269 38.4617C32.3269 39.1236 32.4547 40.1481 32.8388 41.1429C33.2213 42.1336 33.8976 43.192 35.0585 43.7525C35.4316 43.9325 35.8799 43.7761 36.06 43.4031C36.2401 43.0301 36.0837 42.5817 35.7107 42.4016C35.0255 42.0709 34.5479 41.4051 34.2381 40.6027C33.9299 39.8045 33.8269 38.9669 33.8269 38.4617C33.8269 38.0475 33.4911 37.7117 33.0769 37.7117Z" fill="white"/>
<path fill-rule="evenodd" clip-rule="evenodd" d="M27.6939 37.7117C27.2797 37.7117 26.9439 38.0475 26.9439 38.4617C26.9439 39.0963 27.0261 40.0915 27.2753 41.0598C27.515 41.9911 27.9536 43.0771 28.7925 43.6845C29.128 43.9274 29.5969 43.8524 29.8398 43.5169C30.0828 43.1814 30.0077 42.7125 29.6722 42.4696C29.2804 42.1858 28.9497 41.5476 28.7279 40.6859C28.5156 39.861 28.4439 38.9942 28.4439 38.4617C28.4439 38.0475 28.1081 37.7117 27.6939 37.7117Z" fill="white"/>
<path fill-rule="evenodd" clip-rule="evenodd" d="M38.4629 10.7886C38.8771 10.7886 39.2129 11.1244 39.2129 11.5386V15.3847C39.2129 15.7989 38.8771 16.1347 38.4629 16.1347C38.0487 16.1347 37.7129 15.7989 37.7129 15.3847V11.5386C37.7129 11.1244 38.0487 10.7886 38.4629 10.7886Z" fill="white"/>
<path fill-rule="evenodd" clip-rule="evenodd" d="M40.0215 11.5386C40.0215 11.1244 40.3573 10.7886 40.7715 10.7886H43.0792C43.3163 10.7886 43.5394 10.9007 43.6809 11.0909C43.8224 11.2811 43.8657 11.527 43.7975 11.7541L42.6437 15.6002C42.5247 15.997 42.1066 16.2221 41.7098 16.1031C41.3131 15.9841 41.0879 15.566 41.207 15.1692L42.0712 12.2886H40.7715C40.3573 12.2886 40.0215 11.9528 40.0215 11.5386Z" fill="white"/>
</svg>
