<svg width="80" height="80" viewBox="0 0 80 80" fill="none" xmlns="http://www.w3.org/2000/svg">
<path d="M8.08472 17.1868C8.08472 15.2342 9.6676 13.6514 11.6202 13.6514H68.9696C70.9221 13.6514 72.505 15.2342 72.505 17.1868V52.1969C72.505 54.1495 70.9221 55.7324 68.9696 55.7324H11.6202C9.6676 55.7324 8.08472 54.1495 8.08472 52.1969V17.1868Z" fill="black"/>
<path fill-rule="evenodd" clip-rule="evenodd" d="M6.7417 17.1866C6.7417 14.492 8.92607 12.3076 11.6206 12.3076H68.97C71.6646 12.3076 73.849 14.492 73.849 17.1866V52.1966C73.849 54.8912 71.6646 57.0756 68.97 57.0756H11.6206C8.92607 57.0756 6.7417 54.8912 6.7417 52.1966V17.1866ZM11.6206 14.9946C10.41 14.9946 9.42865 15.976 9.42865 17.1866V52.1966C9.42865 53.4072 10.41 54.3886 11.6206 54.3886H68.97C70.1806 54.3886 71.162 53.4072 71.162 52.1966V17.1866C71.162 15.976 70.1806 14.9946 68.97 14.9946H11.6206Z" fill="white"/>
<path fill-rule="evenodd" clip-rule="evenodd" d="M63.1534 54.3887C63.8953 54.3887 64.4968 54.9902 64.4968 55.7321L64.4968 65.3233C64.4968 66.0652 63.8953 66.6667 63.1534 66.6667C62.4114 66.6667 61.8099 66.0652 61.8099 65.3233L61.8099 55.7321C61.8099 54.9902 62.4114 54.3887 63.1534 54.3887Z" fill="white"/>
<path fill-rule="evenodd" clip-rule="evenodd" d="M47.5681 30.4912C48.3101 30.4912 48.9116 31.0927 48.9116 31.8347L48.9116 41.4258C48.9116 42.1678 48.3101 42.7693 47.5681 42.7693C46.8262 42.7693 46.2247 42.1678 46.2247 41.4258L46.2247 31.8347C46.2247 31.0927 46.8262 30.4912 47.5681 30.4912Z" fill="#FF6121"/>
<path fill-rule="evenodd" clip-rule="evenodd" d="M40.2944 57.0762C39.5524 57.0762 38.9509 56.4747 38.9509 55.7327L38.9509 27.6787C38.9509 26.9367 39.5524 26.3352 40.2944 26.3352C41.0364 26.3352 41.6379 26.9367 41.6379 27.6787L41.6379 55.7327C41.6379 56.4747 41.0364 57.0762 40.2944 57.0762Z" fill="white"/>
<path fill-rule="evenodd" clip-rule="evenodd" d="M6.7417 25.6003C6.7417 24.8583 7.34319 24.2568 8.08517 24.2568L72.5055 24.2568C73.2475 24.2568 73.849 24.8583 73.849 25.6003C73.849 26.3423 73.2475 26.9438 72.5055 26.9438L8.08517 26.9438C7.34319 26.9438 6.7417 26.3423 6.7417 25.6003Z" fill="white"/>
<path fill-rule="evenodd" clip-rule="evenodd" d="M17.4358 54.3887C18.1778 54.3887 18.7793 54.9902 18.7793 55.7321L18.7793 65.3233C18.7793 66.0652 18.1778 66.6667 17.4358 66.6667C16.6938 66.6667 16.0923 66.0652 16.0923 65.3233L16.0923 55.7321C16.0923 54.9902 16.6938 54.3887 17.4358 54.3887Z" fill="white"/>
<path fill-rule="evenodd" clip-rule="evenodd" d="M33.0225 30.4912C33.7645 30.4912 34.366 31.0927 34.366 31.8347L34.366 41.4258C34.366 42.1678 33.7645 42.7693 33.0225 42.7693C32.2805 42.7693 31.679 42.1678 31.679 41.4258L31.679 31.8347C31.679 31.0927 32.2805 30.4912 33.0225 30.4912Z" fill="#FF6121"/>
</svg>
