<svg width="71" height="70" viewBox="0 0 71 70" fill="none" xmlns="http://www.w3.org/2000/svg">
<path d="M17.4505 26.5303H13.9323C11.0964 26.5303 9.96979 28.8262 9.96979 31.6595L9.96924 34.7615C9.96924 37.5949 11.0959 39.8963 13.9317 39.8963H16.5449C17.1002 39.8963 17.5491 39.4439 17.5449 38.8887L17.4505 26.5303ZM17.4505 26.5303C20.4698 17.4967 26.3031 12.8301 35.6365 12.8301C44.9698 12.8301 50.8031 17.4967 53.7385 26.4773M35.6365 52.4963C49.0531 52.4963 53.738 47.0055 53.738 39.8963M53.738 39.8963H57.3401C60.1704 39.8963 61.3026 37.6005 61.3026 34.7615L61.3031 31.6595C61.3031 28.8262 60.1709 26.5303 57.3407 26.5303H53.7609C53.7535 26.5127 53.746 26.495 53.7385 26.4773M53.738 39.8963L53.7385 26.4773" stroke="#49C3FF" stroke-width="2.5" stroke-miterlimit="10"/>
<path d="M31 30.9971C32.1046 30.9971 33 30.1016 33 28.9971C33 27.8925 32.1046 26.9971 31 26.9971C29.8954 26.9971 29 27.8925 29 28.9971C29 30.1016 29.8954 30.9971 31 30.9971Z" fill="#49C3FF"/>
<path d="M41 30.9971C42.1046 30.9971 43 30.1016 43 28.9971C43 27.8925 42.1046 26.9971 41 26.9971C39.8954 26.9971 39 27.8925 39 28.9971C39 30.1016 39.8954 30.9971 41 30.9971Z" fill="#49C3FF"/>
<path d="M27.2373 37.0967C32.1373 40.83 38.4373 40.83 44.0373 37.0967" stroke="#49C3FF" stroke-width="2.5" stroke-linecap="round"/>
<circle cx="35.637" cy="51.7967" r="4.2" fill="black" stroke="#49C3FF" stroke-width="2.5"/>
</svg>
