<svg width="50" height="50" viewBox="0 0 50 50" fill="none" xmlns="http://www.w3.org/2000/svg">
<mask id="path-1-inside-1_4296_1914" fill="white">
<path fill-rule="evenodd" clip-rule="evenodd" d="M20.7194 18.3967C26.5395 18.3967 29.4777 24.0077 29.4785 24.0093C29.4785 24.0094 29.4785 24.0093 29.4785 24.0094C29.4785 24.0097 29.4784 24.011 29.4786 24.0107C29.4921 23.9848 32.4302 18.3967 38.2377 18.3967C42.5934 18.3967 46.4785 22.0972 46.4785 27.4846C46.4785 33.6272 42.185 38.1956 29.948 44.6773C29.6575 44.8311 29.2996 44.8311 29.0091 44.6773C16.7721 38.1956 12.4785 33.6272 12.4785 27.4846C12.4785 22.0972 16.3636 18.3967 20.7194 18.3967Z"/>
</mask>
<path d="M29.4786 24.0107L30.8069 24.7075L29.4786 24.0107ZM29.948 44.6773L30.6501 46.0028L29.948 44.6773ZM29.0091 44.6773L29.7112 43.3517L29.0091 44.6773ZM29.4785 24.0093L30.8074 23.3136L29.4785 24.0093ZM30.8074 23.3136C30.7691 23.2405 29.9456 21.6801 28.3197 20.1201C26.689 18.5554 24.1468 16.8967 20.7194 16.8967V19.8967C23.1121 19.8967 24.949 21.0435 26.2427 22.2848C27.5411 23.5306 28.1871 24.7766 28.1496 24.7051L30.8074 23.3136ZM30.8069 24.7075C30.7757 24.7669 31.4246 23.5206 32.7229 22.2773C34.0162 21.0388 35.8503 19.8967 38.2377 19.8967V16.8967C34.8176 16.8967 32.2789 18.5487 30.6479 20.1107C29.0218 21.6679 28.195 23.2285 28.1502 23.3139L30.8069 24.7075ZM38.2377 19.8967C41.6908 19.8967 44.9785 22.8495 44.9785 27.4846H47.9785C47.9785 21.345 43.496 16.8967 38.2377 16.8967V19.8967ZM44.9785 27.4846C44.9785 30.1252 44.0865 32.442 41.7184 34.9167C39.2881 37.4563 35.3322 40.1279 29.2459 43.3517L30.6501 46.0028C36.8007 42.7449 41.1101 39.8914 43.8859 36.9908C46.7237 34.0253 47.9785 30.9866 47.9785 27.4846H44.9785ZM10.9785 27.4846C10.9785 30.9866 12.2333 34.0253 15.0712 36.9908C17.8469 39.8914 22.1563 42.7449 28.3069 46.0028L29.7112 43.3517C23.6248 40.1279 19.669 37.4563 17.2386 34.9167C14.8705 32.442 13.9785 30.1252 13.9785 27.4846H10.9785ZM20.7194 16.8967C15.461 16.8967 10.9785 21.345 10.9785 27.4846H13.9785C13.9785 22.8495 17.2663 19.8967 20.7194 19.8967V16.8967ZM27.9785 24.0094C27.9785 23.9761 27.9797 23.95 27.9799 23.9459C27.9801 23.9413 27.9802 23.9377 27.9803 23.9358C27.9804 23.9348 27.9804 23.934 27.9804 23.9334C27.9805 23.9329 27.9805 23.9325 27.9805 23.9325C27.9808 23.9268 27.9796 23.9473 27.979 23.9698C27.9787 23.9817 27.9781 24.0069 27.9787 24.0389C27.9791 24.0576 27.9804 24.1393 27.9964 24.2421C28.0034 24.2863 28.0241 24.4116 28.0835 24.562C28.1048 24.616 28.3074 25.1717 28.9484 25.4139C29.7841 25.7296 30.3902 25.2174 30.5281 25.0823C30.6971 24.9168 30.784 24.7512 30.8069 24.7075L28.1502 23.3139C28.1731 23.2702 28.26 23.1046 28.4289 22.9391C28.5669 22.804 29.1729 22.2918 30.0086 22.6075C30.6497 22.8497 30.8522 23.4054 30.8735 23.4594C30.9329 23.6097 30.9536 23.735 30.9605 23.7792C30.9766 23.8819 30.9779 23.9635 30.9782 23.9821C30.9788 24.0139 30.9783 24.039 30.9779 24.0508C30.9773 24.073 30.9762 24.0931 30.9765 24.0871C30.9765 24.087 30.9766 24.0855 30.9767 24.0835C30.9768 24.0816 30.977 24.0779 30.9772 24.0733C30.9773 24.069 30.9785 24.0427 30.9785 24.0094H27.9785ZM29.2459 43.3517C29.3945 43.273 29.5625 43.273 29.7112 43.3517L28.3069 46.0028C29.0366 46.3893 29.9204 46.3893 30.6501 46.0028L29.2459 43.3517ZM28.1496 24.7051C28.1372 24.6814 28.1153 24.6381 28.0922 24.5821C28.0696 24.5274 28.0346 24.4338 28.0095 24.3128C27.9826 24.1823 27.9681 24.0239 27.9873 23.8471C28.0063 23.6725 28.0521 23.5384 28.0813 23.4636C28.0944 23.4301 28.106 23.4042 28.108 23.3997C28.1141 23.386 28.1059 23.4043 28.1022 23.4128C28.0879 23.4459 28.0635 23.5053 28.0406 23.5822C27.9929 23.7428 27.9785 23.8896 27.9785 24.0094H30.9785C30.9785 24.1292 30.9641 24.2759 30.9164 24.4366C30.8936 24.5134 30.8691 24.5729 30.8548 24.6059C30.8511 24.6144 30.8429 24.6328 30.849 24.6191C30.8511 24.6145 30.8626 24.5886 30.8757 24.5551C30.9049 24.4803 30.9507 24.3462 30.9697 24.1716C30.989 23.9948 30.9745 23.8364 30.9475 23.7059C30.9225 23.5848 30.8874 23.4912 30.8649 23.4366C30.8417 23.3805 30.8198 23.3373 30.8074 23.3136L28.1496 24.7051Z" fill="white" mask="url(#path-1-inside-1_4296_1914)"/>
<mask id="path-3-inside-2_4296_1914" fill="white">
<path fill-rule="evenodd" clip-rule="evenodd" d="M6.43053 9.82739C8.48644 9.82739 9.52432 11.8094 9.52462 11.81C9.52462 11.81 9.52462 11.81 9.52462 11.81C9.52461 11.8101 9.52457 11.8106 9.52463 11.8105C9.52942 11.8013 10.5673 9.82739 12.6187 9.82739C14.1573 9.82739 15.5297 11.1346 15.5297 13.0376C15.5297 15.1567 14.0831 16.7454 9.98905 18.9512C9.69965 19.1072 9.34958 19.1072 9.06018 18.9512C4.96609 16.7454 3.51953 15.1567 3.51953 13.0376C3.51953 11.1346 4.89192 9.82739 6.43053 9.82739Z"/>
</mask>
<path d="M9.52463 11.8105L8.1963 11.1137L9.52463 11.8105ZM9.98905 18.9512L9.27756 17.6307L9.98905 18.9512ZM9.06018 18.9512L8.34869 20.2718L9.06018 18.9512ZM9.52462 11.81L10.8535 11.1142L9.52462 11.81ZM10.8535 11.1142C10.8155 11.0417 10.4672 10.3888 9.78695 9.73613C9.10192 9.07884 7.97586 8.32739 6.43053 8.32739V11.3274C6.94111 11.3274 7.36195 11.567 7.70991 11.9008C8.06269 12.2393 8.23344 12.5778 8.19574 12.5057L10.8535 11.1142ZM10.853 12.5073C10.8174 12.5751 10.9891 12.2365 11.3417 11.8988C11.6893 11.5659 12.1093 11.3274 12.6187 11.3274V8.32739C11.0766 8.32739 9.952 9.07585 9.26669 9.73216C8.58629 10.3838 8.23667 11.0367 8.1963 11.1137L10.853 12.5073ZM12.6187 11.3274C13.2547 11.3274 14.0297 11.8868 14.0297 13.0376H17.0297C17.0297 10.3823 15.0599 8.32739 12.6187 8.32739V11.3274ZM14.0297 13.0376C14.0297 13.6798 13.8389 14.2503 13.197 14.9396C12.4959 15.6924 11.2884 16.5473 9.27756 17.6307L10.7005 20.2718C12.7838 19.1493 14.3466 18.107 15.3923 16.9842C16.4972 15.7979 17.0297 14.5145 17.0297 13.0376H14.0297ZM2.01953 13.0376C2.01953 14.5145 2.55204 15.7979 3.6569 16.9842C4.70258 18.107 6.26543 19.1493 8.34869 20.2718L9.77167 17.6307C7.76084 16.5473 6.55337 15.6924 5.85225 14.9396C5.2103 14.2503 5.01953 13.6798 5.01953 13.0376H2.01953ZM6.43053 8.32739C3.98931 8.32739 2.01953 10.3823 2.01953 13.0376H5.01953C5.01953 11.8868 5.79452 11.3274 6.43053 11.3274V8.32739ZM8.02462 11.8072C8.02468 11.7741 8.02589 11.7481 8.02607 11.744C8.02627 11.7394 8.02645 11.7358 8.02655 11.734C8.02664 11.7321 8.02672 11.7306 8.02672 11.7306C8.02702 11.7249 8.02585 11.7452 8.02521 11.7675C8.02488 11.7793 8.02428 11.8043 8.02482 11.836C8.02514 11.8546 8.02628 11.9356 8.0419 12.0376C8.04863 12.0815 8.06879 12.2058 8.12696 12.3551C8.14707 12.4067 8.34539 12.962 8.98219 13.209C9.82116 13.5344 10.4338 13.0193 10.5731 12.8831C10.743 12.7171 10.8302 12.5507 10.853 12.5073L8.1963 11.1137C8.21905 11.0703 8.30623 10.9039 8.4761 10.7378C8.6154 10.6017 9.22807 10.0866 10.067 10.412C10.7038 10.659 10.9022 11.2143 10.9223 11.2659C10.9804 11.4152 11.0006 11.5394 11.0073 11.5833C11.0229 11.6853 11.0241 11.7662 11.0244 11.7848C11.0249 11.8165 11.0243 11.8414 11.024 11.8532C11.0234 11.8753 11.0222 11.8955 11.0225 11.8897C11.0225 11.8897 11.0226 11.8881 11.0227 11.8862C11.0228 11.8844 11.023 11.8807 11.0232 11.8762C11.0233 11.872 11.0246 11.8459 11.0246 11.8128L8.02462 11.8072ZM9.27756 17.6307C9.4323 17.5473 9.61693 17.5473 9.77167 17.6307L8.34869 20.2718C9.08224 20.667 9.96699 20.667 10.7005 20.2718L9.27756 17.6307ZM8.19574 12.5057C8.18329 12.482 8.16129 12.4385 8.13806 12.3822C8.11542 12.3274 8.08027 12.2334 8.0553 12.1118C8.02836 11.9807 8.01409 11.8217 8.03379 11.6444C8.05322 11.4695 8.09948 11.3352 8.12893 11.2604C8.14213 11.2269 8.15378 11.201 8.15583 11.1965C8.16198 11.1828 8.15372 11.2011 8.15002 11.2096C8.13561 11.2426 8.11096 11.302 8.08788 11.379C8.03963 11.5398 8.02484 11.6869 8.02462 11.8072L11.0246 11.8128C11.0244 11.9331 11.0096 12.0802 10.9614 12.241C10.9383 12.318 10.9136 12.3774 10.8992 12.4104C10.8955 12.4189 10.8873 12.4372 10.8934 12.4235C10.8955 12.4189 10.9071 12.3931 10.9203 12.3596C10.9498 12.2848 10.996 12.1505 11.0155 11.9756C11.0351 11.7982 11.0209 11.6393 10.9939 11.5082C10.969 11.3866 10.9338 11.2926 10.9112 11.2378C10.8879 11.1815 10.8659 11.138 10.8535 11.1142L8.19574 12.5057Z" fill="white" mask="url(#path-3-inside-2_4296_1914)"/>
<mask id="path-5-inside-3_4296_1914" fill="white">
<path fill-rule="evenodd" clip-rule="evenodd" d="M21.2411 5.20728C23.297 5.20728 24.3349 7.18931 24.3352 7.18987C24.3352 7.18988 24.3352 7.18988 24.3352 7.1899C24.3352 7.19002 24.3351 7.19045 24.3352 7.19034C24.34 7.18121 25.3778 5.20728 27.4292 5.20728C28.9679 5.20728 30.3402 6.51444 30.3402 8.41748C30.3402 10.5365 28.8937 12.1253 24.7996 14.3311C24.5102 14.487 24.1601 14.487 23.8707 14.3311C19.7766 12.1253 18.3301 10.5365 18.3301 8.41748C18.3301 6.51444 19.7025 5.20728 21.2411 5.20728Z"/>
</mask>
<path d="M24.3352 7.19034L23.0068 6.49354L24.3352 7.19034ZM24.7996 14.3311L24.0881 13.0106L24.7996 14.3311ZM23.8707 14.3311L23.1592 15.6516L23.8707 14.3311ZM24.3352 7.18987L25.664 6.4941L24.3352 7.18987ZM25.664 6.4941C25.626 6.42153 25.2777 5.76868 24.5975 5.11601C23.9125 4.45873 22.7864 3.70728 21.2411 3.70728V6.70728C21.7517 6.70728 22.1725 6.94684 22.5205 7.28071C22.8732 7.61921 23.044 7.95764 23.0063 7.88563L25.664 6.4941ZM25.6635 7.88714C25.6279 7.95498 25.7996 7.61638 26.1522 7.27873C26.4999 6.94578 26.9199 6.70728 27.4292 6.70728V3.70728C25.8872 3.70728 24.7625 4.45574 24.0772 5.11204C23.3968 5.76363 23.0472 6.41657 23.0068 6.49354L25.6635 7.88714ZM27.4292 6.70728C28.0653 6.70728 28.8402 7.2667 28.8402 8.41748H31.8402C31.8402 5.76219 29.8705 3.70728 27.4292 3.70728V6.70728ZM28.8402 8.41748C28.8402 9.05964 28.6495 9.63017 28.0075 10.3194C27.3064 11.0723 26.0989 11.9272 24.0881 13.0106L25.5111 15.6516C27.5943 14.5292 29.1572 13.4868 30.2029 12.3641C31.3077 11.1777 31.8402 9.89439 31.8402 8.41748H28.8402ZM16.8301 8.41748C16.8301 9.89439 17.3626 11.1777 18.4674 12.3641C19.5131 13.4868 21.076 14.5292 23.1592 15.6516L24.5822 13.0106C22.5714 11.9272 21.3639 11.0723 20.6628 10.3194C20.0209 9.63017 19.8301 9.05964 19.8301 8.41748H16.8301ZM21.2411 3.70728C18.7999 3.70728 16.8301 5.76219 16.8301 8.41748H19.8301C19.8301 7.2667 20.6051 6.70728 21.2411 6.70728V3.70728ZM22.8352 7.18707C22.8352 7.154 22.8364 7.12798 22.8366 7.12386C22.8368 7.11932 22.837 7.11572 22.8371 7.11385C22.8372 7.112 22.8373 7.1105 22.8373 7.11049C22.8376 7.10479 22.8364 7.12507 22.8358 7.14736C22.8354 7.15917 22.8348 7.18418 22.8354 7.21587C22.8357 7.23451 22.8368 7.31547 22.8524 7.41748C22.8592 7.46139 22.8793 7.58565 22.9375 7.73495C22.9576 7.78655 23.1559 8.34186 23.7927 8.58885C24.6317 8.91426 25.2444 8.39918 25.3837 8.26302C25.5536 8.09697 25.6407 7.93054 25.6635 7.88714L23.0068 6.49354C23.0296 6.45016 23.1168 6.28374 23.2866 6.11769C23.4259 5.98153 24.0386 5.46646 24.8776 5.79187C25.5144 6.03886 25.7127 6.59416 25.7328 6.64575C25.791 6.79504 25.8111 6.91929 25.8179 6.96319C25.8335 7.06517 25.8346 7.14609 25.8349 7.16469C25.8355 7.19634 25.8349 7.22129 25.8345 7.23305C25.8339 7.25523 25.8327 7.27538 25.833 7.26957C25.833 7.26954 25.8331 7.26801 25.8332 7.26613C25.8333 7.26424 25.8335 7.26061 25.8337 7.25605C25.8339 7.25188 25.8351 7.22582 25.8352 7.19272L22.8352 7.18707ZM24.0881 13.0106C24.2428 12.9272 24.4275 12.9272 24.5822 13.0106L23.1592 15.6516C23.8928 16.0469 24.7775 16.0469 25.5111 15.6516L24.0881 13.0106ZM23.0063 7.88563C22.9938 7.86185 22.9718 7.8184 22.9486 7.7621C22.926 7.70724 22.8908 7.61325 22.8658 7.49171C22.8389 7.36057 22.8246 7.20163 22.8443 7.02428C22.8638 6.84935 22.91 6.71507 22.9395 6.64029C22.9527 6.60676 22.9643 6.58093 22.9664 6.57635C22.9725 6.56264 22.9643 6.58102 22.9606 6.58948C22.9462 6.62247 22.9215 6.68192 22.8984 6.75885C22.8502 6.91969 22.8354 7.06682 22.8352 7.18707L25.8352 7.19272C25.8349 7.31296 25.8201 7.46009 25.7719 7.62092C25.7488 7.69784 25.7242 7.7573 25.7098 7.79029C25.7061 7.79875 25.6978 7.81712 25.704 7.80341C25.706 7.79883 25.7177 7.773 25.7309 7.73947C25.7603 7.66469 25.8066 7.5304 25.826 7.35547C25.8457 7.17813 25.8314 7.01919 25.8045 6.88804C25.7795 6.76649 25.7444 6.6725 25.7217 6.61764C25.6985 6.56134 25.6765 6.51789 25.664 6.4941L23.0063 7.88563Z" fill="white" mask="url(#path-5-inside-3_4296_1914)"/>
</svg>
