<svg width="60" height="60" viewBox="0 0 60 60" fill="none" xmlns="http://www.w3.org/2000/svg">
<path d="M7.82352 54.0016L3 0H56L51.1716 53.993L29.467 60L7.82352 54.0016Z" fill="#E44D26"/>
<path d="M29.5 55.4086L47.0375 50.556L51.1643 4.41602H29.5V55.4086Z" fill="#F16529"/>
<path d="M29.5 24.444H20.7196L20.1133 17.6622H29.5V11.0391H29.4768H12.8622L13.0211 12.8156L14.6517 31.0671H29.5V24.444Z" fill="#EBEBEB"/>
<path d="M29.5 41.6451L29.4707 41.6524L22.0814 39.6611L21.6095 34.3789H18.0182H14.9488L15.8778 44.7785L29.4695 48.544L29.5 48.5355V41.6451Z" fill="#EBEBEB"/>
<path d="M29.4768 24.4443V31.0675H37.6472L36.8771 39.6576L29.4768 41.6513V48.5417L43.0795 44.7787L43.1785 43.6598L44.7382 26.2234L44.8996 24.4443H43.1125H29.4768Z" fill="white"/>
<path d="M29.4768 11.0391V15.1523V17.6451V17.6622H45.4827H45.5034L45.6367 16.1736L45.9398 12.8156L46.0975 11.0391H29.4768Z" fill="white"/>
</svg>
