<svg width="50" height="50" viewBox="0 0 50 50" fill="none" xmlns="http://www.w3.org/2000/svg">
<path fill-rule="evenodd" clip-rule="evenodd" d="M6.94141 33.8462C6.94141 33.432 7.27719 33.0962 7.69141 33.0962L24.6145 33.0962C25.0287 33.0962 25.3645 33.432 25.3645 33.8462C25.3645 34.2604 25.0287 34.5962 24.6145 34.5962L7.69141 34.5962C7.27719 34.5962 6.94141 34.2604 6.94141 33.8462Z" fill="white"/>
<path fill-rule="evenodd" clip-rule="evenodd" d="M27.7109 33.8462C27.7109 33.432 28.0467 33.0962 28.4609 33.0962L32.3071 33.0962C32.7213 33.0962 33.0571 33.432 33.0571 33.8462C33.0571 34.2604 32.7213 34.5962 32.3071 34.5962L28.4609 34.5962C28.0467 34.5962 27.7109 34.2604 27.7109 33.8462Z" fill="white"/>
<path fill-rule="evenodd" clip-rule="evenodd" d="M35.2578 14.6152C35.2578 15.0294 34.922 15.3652 34.5078 15.3652L26.9228 15.3652C26.5086 15.3652 26.1728 15.0294 26.1728 14.6152C26.1728 14.201 26.5086 13.8652 26.9228 13.8652L34.5078 13.8652C34.922 13.8652 35.2578 14.201 35.2578 14.6152Z" fill="white"/>
<path d="M4.61523 38.2092C4.61523 37.6569 5.06295 37.2092 5.61523 37.2092H36.6024C37.2259 37.2092 37.6974 36.6448 37.5865 36.0312L31.9785 5.02229C31.7593 3.81043 33.4981 3.35108 33.906 4.51307L45.328 37.0484C45.3654 37.1548 45.3845 37.2668 45.3845 37.3796V42.8461C45.3845 43.3983 44.9368 43.8461 44.3845 43.8461H5.61523C5.06295 43.8461 4.61523 43.3983 4.61523 42.8461V38.2092Z" fill="#1B1322"/>
<path fill-rule="evenodd" clip-rule="evenodd" d="M31.2404 5.15583C30.8569 3.03515 33.8998 2.23115 34.6137 4.2647L46.0357 36.8C46.1011 36.9863 46.1345 37.1823 46.1345 37.3797V42.8461C46.1345 43.8126 45.351 44.5961 44.3845 44.5961H5.61523C4.64873 44.5961 3.86523 43.8126 3.86523 42.8461V38.2093C3.86523 37.2428 4.64874 36.4593 5.61523 36.4593H36.6024C36.7583 36.4593 36.8762 36.3182 36.8484 36.1648L31.2404 5.15583ZM32.7415 4.70209C32.7231 4.72801 32.6965 4.77832 32.7165 4.88888L38.3245 35.8978C38.5187 36.9716 37.6936 37.9593 36.6024 37.9593H5.61523C5.47716 37.9593 5.36523 38.0712 5.36523 38.2093V42.8461C5.36523 42.9842 5.47716 43.0961 5.61523 43.0961H44.3845C44.5225 43.0961 44.6345 42.9842 44.6345 42.8461V37.3797C44.6345 37.3515 44.6297 37.3235 44.6204 37.2969L33.1984 4.76157C33.1612 4.65556 33.1131 4.62497 33.0844 4.61151C33.0429 4.59212 32.9763 4.58217 32.8986 4.60268C32.821 4.62318 32.768 4.66472 32.7415 4.70209Z" fill="white"/>
</svg>
