<svg width="50" height="50" viewBox="0 0 50 50" fill="none" xmlns="http://www.w3.org/2000/svg">
<path fill-rule="evenodd" clip-rule="evenodd" d="M24.931 29.7222C24.4708 29.7222 24.0977 29.3491 24.0977 28.8888L24.0977 22.2222C24.0977 21.7619 24.4708 21.3888 24.931 21.3888C25.3912 21.3888 25.7643 21.7619 25.7643 22.2222L25.7643 28.8888C25.7643 29.3491 25.3912 29.7222 24.931 29.7222Z" fill="black"/>
<path fill-rule="evenodd" clip-rule="evenodd" d="M20.7637 25.5555C20.7637 25.0953 21.1368 24.7222 21.597 24.7222H28.2637C28.7239 24.7222 29.097 25.0953 29.097 25.5555C29.097 26.0157 28.7239 26.3888 28.2637 26.3888H21.597C21.1368 26.3888 20.7637 26.0157 20.7637 25.5555Z" fill="black"/>
<path d="M3.82031 14.4444C3.82031 13.2171 4.81524 12.2222 6.04253 12.2222H15.487C16.7143 12.2222 17.7092 13.2171 17.7092 14.4444V36.1111C17.7092 37.3384 16.7143 38.3333 15.487 38.3333H6.04253C4.81524 38.3333 3.82031 37.3384 3.82031 36.1111V23.3333V14.4444Z" fill="white"/>
<path fill-rule="evenodd" clip-rule="evenodd" d="M2.98633 14.4445C2.98633 12.7569 4.35435 11.3889 6.04188 11.3889H15.4863C17.1739 11.3889 18.5419 12.7569 18.5419 14.4445V36.1111C18.5419 37.7987 17.1739 39.1667 15.4863 39.1667H6.04188C4.35435 39.1667 2.98633 37.7987 2.98633 36.1111V14.4445ZM6.04188 13.0556C5.27482 13.0556 4.65299 13.6774 4.65299 14.4445V22.5H14.3752C14.8355 22.5 15.2085 22.8731 15.2085 23.3334C15.2085 23.7936 14.8355 24.1667 14.3752 24.1667H4.65299V36.1111C4.65299 36.8782 5.27482 37.5 6.04188 37.5H15.4863C16.2534 37.5 16.8752 36.8782 16.8752 36.1111V14.4445C16.8752 13.6774 16.2534 13.0556 15.4863 13.0556H6.04188Z" fill="black"/>
<path fill-rule="evenodd" clip-rule="evenodd" d="M7.15365 15.2776C7.61388 15.2776 7.98698 15.6507 7.98698 16.1109V19.4443C7.98698 19.9045 7.61388 20.2776 7.15365 20.2776C6.69341 20.2776 6.32031 19.9045 6.32031 19.4443V16.1109C6.32031 15.6507 6.69341 15.2776 7.15365 15.2776ZM7.15365 26.3887C7.61388 26.3887 7.98698 26.7618 7.98698 27.222V31.6665C7.98698 32.1267 7.61388 32.4998 7.15365 32.4998C6.69341 32.4998 6.32031 32.1267 6.32031 31.6665V27.222C6.32031 26.7618 6.69341 26.3887 7.15365 26.3887Z" fill="#EF7300"/>
<path d="M32.709 13.8887C32.709 12.6614 33.7039 11.6665 34.9312 11.6665H44.3757C45.603 11.6665 46.5979 12.6614 46.5979 13.8887V19.9998C46.5979 21.2271 45.603 22.2221 44.3757 22.2221H34.9312C33.7039 22.2221 32.709 21.2271 32.709 19.9998V13.8887Z" fill="white"/>
<path fill-rule="evenodd" clip-rule="evenodd" d="M31.875 13.8888C31.875 12.2013 33.243 10.8333 34.9306 10.8333H44.375C46.0625 10.8333 47.4306 12.2013 47.4306 13.8888V19.9999C47.4306 21.6875 46.0625 23.0555 44.375 23.0555H34.9306C33.243 23.0555 31.875 21.6875 31.875 19.9999V13.8888ZM34.9306 12.4999C34.1635 12.4999 33.5417 13.1217 33.5417 13.8888V19.9999C33.5417 20.767 34.1635 21.3888 34.9306 21.3888H44.375C45.1421 21.3888 45.7639 20.767 45.7639 19.9999V13.8888C45.7639 13.1217 45.1421 12.4999 44.375 12.4999H34.9306Z" fill="black"/>
<path d="M32.709 27.2222C32.709 25.9949 33.7039 25 34.9312 25H44.3757C45.603 25 46.5979 25.9949 46.5979 27.2222V36.1111C46.5979 37.3384 45.603 38.3333 44.3757 38.3333H34.9312C33.7039 38.3333 32.709 37.3384 32.709 36.1111V27.2222Z" fill="white"/>
<path fill-rule="evenodd" clip-rule="evenodd" d="M31.875 27.2221C31.875 25.5345 33.243 24.1665 34.9306 24.1665H44.375C46.0625 24.1665 47.4306 25.5345 47.4306 27.2221V36.1109C47.4306 37.7985 46.0625 39.1665 44.375 39.1665H34.9306C33.243 39.1665 31.875 37.7985 31.875 36.1109V27.2221ZM34.9306 25.8332C34.1635 25.8332 33.5417 26.455 33.5417 27.2221V36.1109C33.5417 36.878 34.1635 37.4998 34.9306 37.4998H44.375C45.1421 37.4998 45.7639 36.878 45.7639 36.1109V27.2221C45.7639 26.455 45.1421 25.8332 44.375 25.8332H34.9306Z" fill="black"/>
</svg>
