<svg width="47" height="50" viewBox="0 0 47 50" fill="none" xmlns="http://www.w3.org/2000/svg">
<rect x="16.4609" y="27.2463" width="1.34833" height="7.19109" rx="0.674164" fill="white"/>
<rect x="20.9551" y="20.0549" width="1.34833" height="14.3822" rx="0.674164" fill="white"/>
<rect x="25.4492" y="22.7522" width="1.34833" height="11.6855" rx="0.674164" fill="white"/>
<rect x="29.9414" y="18.2581" width="1.34833" height="11.6855" rx="0.674164" fill="white"/>
<circle cx="17.1353" cy="22.0789" r="1.12361" fill="white"/>
<circle cx="21.6275" cy="16.6854" r="1.12361" fill="white"/>
<circle cx="26.1236" cy="18.4823" r="1.12361" fill="white"/>
<circle cx="30.6177" cy="14.8865" r="1.12361" fill="white"/>
<path fill-rule="evenodd" clip-rule="evenodd" d="M11.668 9.07251C11.668 8.52023 12.1157 8.07251 12.668 8.07251H34.6345C35.1868 8.07251 35.6345 8.52022 35.6345 9.07251V24.6987C35.6345 25.1129 35.9703 25.4487 36.3845 25.4487C36.7988 25.4487 37.1345 25.1129 37.1345 24.6987V8.07251V7.57251C37.1345 7.02023 36.6868 6.57251 36.1345 6.57251H35.6345H11.668H11.168C10.6157 6.57251 10.168 7.02023 10.168 7.57251V8.07251V41.0279V41.5279C10.168 42.0802 10.6157 42.5279 11.168 42.5279H11.668H23.8006C24.2148 42.5279 24.5506 42.1922 24.5506 41.7779C24.5506 41.3637 24.2148 41.0279 23.8006 41.0279H12.668C12.1157 41.0279 11.668 40.5802 11.668 40.0279V9.07251Z" fill="white"/>
<ellipse cx="29.2914" cy="34.4379" rx="8.53941" ry="8.08997" fill="#212A6A"/>
<path d="M35.2676 34.4836C35.2676 37.7483 32.5842 40.4112 29.2539 40.4112C25.9236 40.4112 23.2402 37.7483 23.2402 34.4836C23.2402 31.2188 25.9236 28.5559 29.2539 28.5559C32.5842 28.5559 35.2676 31.2188 35.2676 34.4836Z" fill="#212A6A" stroke="white" stroke-width="1.5"/>
<path d="M33.3359 38.9329L37.8304 43.4273" stroke="white" stroke-width="1.5" stroke-linecap="round"/>
</svg>
