<svg width="80" height="80" viewBox="0 0 80 80" fill="none" xmlns="http://www.w3.org/2000/svg">
<path fill-rule="evenodd" clip-rule="evenodd" d="M64.4766 33.6141C64.4661 34.316 65.0267 34.8935 65.7286 34.9039L67.9091 34.9363C68.0846 34.9389 68.1971 35.1239 68.1186 35.2809C67.0079 37.5019 69.1444 39.9541 71.4966 39.158L71.9235 39.0135C72.2028 38.919 72.4909 39.1317 72.4827 39.4265L72.4309 41.3008C72.4115 42.0026 72.9646 42.5872 73.6663 42.6066C74.368 42.626 74.9526 42.0729 74.972 41.3711L75.0239 39.4968C75.081 37.4329 73.0643 35.9437 71.1085 36.6056L70.6816 36.75C70.6141 36.7729 70.5711 36.7675 70.5412 36.7586C70.5044 36.7477 70.4621 36.7227 70.4257 36.6809C70.3893 36.6391 70.3703 36.5938 70.3645 36.5559C70.3598 36.525 70.3604 36.4816 70.3923 36.4179C71.3087 34.5854 69.9955 32.4248 67.9468 32.3944L65.7663 32.362C65.0644 32.3516 64.487 32.9122 64.4766 33.6141Z" fill="white"/>
<path fill-rule="evenodd" clip-rule="evenodd" d="M11.3237 36.163C11.6942 35.5667 11.5112 34.783 10.9149 34.4125L9.06266 33.2616C8.91358 33.169 8.9125 32.9524 9.06065 32.8583C11.1567 31.5267 10.5886 28.3244 8.16242 27.7951L7.72209 27.699C7.43395 27.6362 7.29662 27.3054 7.45547 27.057L8.46542 25.4771C8.84352 24.8857 8.67057 24.0997 8.07911 23.7216C7.48764 23.3435 6.70166 23.5164 6.32355 24.1079L5.3136 25.6877C4.20151 27.4273 5.16299 29.7426 7.18024 30.1827L7.62056 30.2788C7.69018 30.294 7.72427 30.3207 7.74535 30.3438C7.77123 30.3721 7.79462 30.4153 7.8043 30.4699C7.81398 30.5245 7.80689 30.5731 7.79232 30.6086C7.78045 30.6375 7.75765 30.6743 7.69751 30.7125C5.96808 31.8112 5.98068 34.3395 7.72098 35.4208L9.57325 36.5718C10.1695 36.9423 10.9532 36.7592 11.3237 36.163Z" fill="white"/>
<path d="M52.6907 38.8324C55.4768 36.1015 59.9492 36.1462 62.68 38.9323L70.5278 46.9387C73.2587 49.7248 73.2139 54.1971 70.4279 56.928C67.6418 59.6588 63.1694 59.6141 60.4386 56.828L52.5908 48.8216C49.8599 46.0356 49.9047 41.5632 52.6907 38.8324Z" fill="black"/>
<path fill-rule="evenodd" clip-rule="evenodd" d="M51.8013 37.9243C55.0887 34.702 60.3658 34.7548 63.5881 38.0422L71.4358 46.0486C74.6581 49.336 74.6053 54.6131 71.3179 57.8353C68.0305 61.0576 62.7534 61.0048 59.5312 57.7174L51.6834 49.711C48.4612 46.4236 48.5139 41.1465 51.8013 37.9243ZM61.7726 39.8217C59.5331 37.5369 55.8656 37.5002 53.5808 39.7397C51.2961 41.9792 51.2594 45.6468 53.4989 47.9315L61.3466 55.9379C63.5861 58.2226 67.2537 58.2593 69.5384 56.0199C71.8232 53.7804 71.8599 50.1128 69.6204 47.8281L61.7726 39.8217Z" fill="white"/>
<path d="M50.5746 68.0618H29.879H19.9838C18.1118 68.0618 16.5508 66.5291 16.8714 64.6848C18.259 56.7034 24.6198 53.6557 30.5588 52.8746C32.4148 52.6305 33.9382 51.1389 33.9382 49.2669V47.004C33.9382 46.6509 34.1619 46.3364 34.4956 46.2207C34.8255 46.1062 35.1917 46.2107 35.4116 46.482L43.2533 56.1577C43.8969 56.9518 44.8644 57.413 45.8866 57.413H50.9131L50.7286 57.413H51.4239C52.7368 57.413 53.9818 57.9969 54.8213 59.0063C57.8142 62.6049 55.2551 68.0618 50.5746 68.0618Z" fill="black"/>
<path fill-rule="evenodd" clip-rule="evenodd" d="M35.2099 48.2517L42.2665 56.9586C43.1514 58.0505 44.4818 58.6847 45.8873 58.6847L50.7292 58.6847M50.9158 56.1426H51.4246C53.1152 56.1426 54.7182 56.8944 55.7992 58.1942C59.4809 62.6208 56.3329 69.3334 50.5753 69.3334H19.9845C17.4893 69.3334 15.1371 67.2446 15.6198 64.4678C16.3708 60.1479 18.4903 57.1059 21.2522 55.059C23.9842 53.0343 27.2858 52.0237 30.3937 51.615C31.7221 51.4403 32.6678 50.4012 32.6678 49.2675V47.0047C32.6678 46.1101 33.2345 45.3137 34.0796 45.0204C34.9152 44.7305 35.8429 44.9952 36.3997 45.6823L44.2415 55.358C44.6437 55.8543 45.2484 56.1426 45.8873 56.1426H50.9137C50.9144 56.1426 50.9151 56.1426 50.9158 56.1426ZM35.2099 48.2517V49.2675C35.2099 51.8778 33.1088 53.8219 30.7252 54.1354C27.8941 54.5078 25.0458 55.4116 22.7658 57.1014C20.5156 58.769 18.7609 61.2416 18.1244 64.9032C17.9659 65.815 18.7357 66.7913 19.9845 66.7913H50.5753C54.1787 66.7913 56.1489 62.5902 53.8447 59.8197C53.2467 59.1006 52.3599 58.6847 51.4246 58.6847L50.9137 58.6847M34.4251 47.2834C34.4253 47.2835 34.425 47.2832 34.4251 47.2834V47.2834Z" fill="white"/>
<path d="M16.1896 14.4433C8.75027 18.1755 16.8996 46.1181 27.3422 55.5316C28.2206 56.3234 28.763 57.4431 28.6754 58.6224C28.5657 60.0984 29.4255 61.4689 30.8515 61.8651C34.9172 62.9948 43.3903 64.5311 49.476 60.0521C56.5352 54.8566 56.8004 47.7975 56.7249 45.8266C56.7113 45.4721 56.611 45.1353 56.4708 44.8094C55.5842 42.7481 54.6356 39.6671 53.2053 36.662C51.766 33.6378 48.0325 33.0055 45.1683 34.7414L40.1439 37.7865C38.8133 38.5929 37.1046 38.3899 36 37.2942L25.7778 27.1542C25.0122 26.3948 24.656 25.3177 24.7495 24.2434C24.9051 22.455 25.0315 19.5807 24.56 17.2236C23.8621 13.7342 18.0582 13.5058 16.1896 14.4433Z" fill="black"/>
<path fill-rule="evenodd" clip-rule="evenodd" d="M18.273 15.26C17.539 15.3102 17.0139 15.4515 16.7583 15.5798C15.5815 16.1702 14.7111 17.9249 14.5941 21.1604C14.4816 24.2736 15.0963 28.2713 16.2829 32.5151C18.6672 41.0421 23.2285 50.1137 28.1919 54.588C29.3075 55.5936 30.0634 57.0779 29.9416 58.717C29.8718 59.657 30.4123 60.4247 31.1904 60.6409C33.1583 61.1877 36.1668 61.8242 39.3919 61.7913C42.6201 61.7583 45.966 61.0566 48.7212 59.0288C55.2896 54.1946 55.5217 47.657 55.4534 45.8757C55.4479 45.7302 55.4054 45.5526 55.3019 45.3121C54.9482 44.4898 54.5835 43.5074 54.1994 42.4727C54.0849 42.1644 53.9687 41.8514 53.8506 41.5367C53.3271 40.1417 52.7476 38.6611 52.0563 37.2086C51.0213 35.0339 48.2191 34.3783 45.8257 35.8288L40.8013 38.8739C38.9718 39.9827 36.6224 39.7036 35.1036 38.197L24.8813 28.057C23.8254 27.0096 23.3585 25.5512 23.4819 24.1336C23.6356 22.3678 23.7465 19.6441 23.3123 17.4734C23.1167 16.4953 22.163 15.7599 20.5486 15.4172C19.7865 15.2554 18.9826 15.2115 18.273 15.26ZM21.0764 12.9304C23.0056 13.3399 25.3028 14.4634 25.8051 16.9748C26.3138 19.5181 26.1721 22.5432 26.0145 24.354C25.9508 25.085 26.1963 25.7807 26.6716 26.2522L36.8938 36.3922C37.5842 37.077 38.6521 37.2039 39.4837 36.6999L44.5081 33.6548C47.8433 31.6335 52.5081 32.2425 54.3517 36.1161C55.0907 37.6689 55.7007 39.2313 56.2306 40.6434C56.359 40.9854 56.4817 41.3158 56.5999 41.6343C56.9784 42.6535 57.3114 43.5503 57.6371 44.3076C57.8141 44.7189 57.9721 45.2148 57.9937 45.7784C58.0765 47.9388 57.7781 55.5195 50.2281 61.0762C46.8976 63.5274 42.9642 64.2971 39.4179 64.3333C35.8686 64.3695 32.6076 63.6731 30.5098 63.0902C28.4361 62.514 27.257 60.5405 27.4065 58.5287C27.4599 57.8092 27.131 57.0541 26.4898 56.4761C21.0106 51.5369 16.2759 41.9304 13.8347 33.1997C12.6086 28.8146 11.9282 24.5385 12.0537 21.0686C12.1747 17.721 13.0754 14.5834 15.6183 13.3076C16.2969 12.9671 17.1981 12.7855 18.0997 12.7238C19.0257 12.6605 20.0667 12.7161 21.0764 12.9304Z" fill="white"/>
<path fill-rule="evenodd" clip-rule="evenodd" d="M32.6969 57.1272C32.941 56.469 33.6725 56.1334 34.3307 56.3776C35.6029 56.8495 36.258 56.9386 37.5857 56.8882C38.2872 56.8616 38.8775 57.4086 38.9041 58.1101C38.9308 58.8116 38.3837 59.4019 37.6822 59.4285C36.0431 59.4908 35.0526 59.3568 33.4465 58.761C32.7883 58.5168 32.4527 57.7853 32.6969 57.1272Z" fill="#EF7300"/>
<path fill-rule="evenodd" clip-rule="evenodd" d="M21.1346 33.1248C21.8193 32.9698 22.4999 33.3992 22.6549 34.0838C23.9893 39.979 25.7192 43.8852 29.5652 47.7328C30.0615 48.2293 30.0614 49.0341 29.5649 49.5303C29.0684 50.0266 28.2636 50.0265 27.7673 49.53C23.4752 45.2362 21.5766 40.8351 20.1755 34.6451C20.0205 33.9604 20.4499 33.2797 21.1346 33.1248Z" fill="#EF7300"/>
</svg>
