<svg width="50" height="50" viewBox="0 0 50 50" fill="none" xmlns="http://www.w3.org/2000/svg">
<path fill-rule="evenodd" clip-rule="evenodd" d="M40.2974 21.0091C40.2909 21.4477 40.6412 21.8087 41.0799 21.8152L42.4427 21.8354C42.5524 21.837 42.6227 21.9527 42.5737 22.0508C41.8795 23.4389 43.2148 24.9715 44.6849 24.474L44.9517 24.3837C45.1263 24.3246 45.3064 24.4575 45.3013 24.6418L45.2688 25.8133C45.2567 26.2518 45.6024 26.6172 46.041 26.6294C46.4796 26.6415 46.8449 26.2958 46.8571 25.8572L46.8895 24.6857C46.9252 23.3958 45.6647 22.465 44.4424 22.8787L44.1756 22.969C44.1334 22.9833 44.1065 22.9799 44.0878 22.9744C44.0648 22.9675 44.0384 22.9519 44.0156 22.9258C43.9929 22.8997 43.981 22.8714 43.9774 22.8477C43.9744 22.8284 43.9748 22.8013 43.9947 22.7614C44.5675 21.6161 43.7467 20.2658 42.4663 20.2467L41.1035 20.2265C40.6648 20.22 40.3039 20.5704 40.2974 21.0091Z" fill="black"/>
<path fill-rule="evenodd" clip-rule="evenodd" d="M7.07711 22.6021C7.30867 22.2295 7.19428 21.7396 6.82162 21.5081L5.66395 20.7887C5.57078 20.7308 5.5701 20.5955 5.66269 20.5367C6.97271 19.7044 6.61764 17.703 5.1013 17.3722L4.82609 17.3121C4.64601 17.2728 4.56017 17.0661 4.65945 16.9109L5.29067 15.9235C5.52699 15.5538 5.41889 15.0625 5.04923 14.8262C4.67956 14.5899 4.18832 14.698 3.952 15.0677L3.32078 16.0551C2.62573 17.1423 3.22665 18.5894 4.48744 18.8645L4.76264 18.9245C4.80615 18.934 4.82745 18.9507 4.84063 18.9651C4.85681 18.9828 4.87142 19.0098 4.87747 19.0439C4.88353 19.078 4.87909 19.1084 4.86999 19.1306C4.86257 19.1487 4.84832 19.1717 4.81073 19.1956C3.72984 19.8822 3.73771 21.4624 4.8254 22.1383L5.98307 22.8576C6.35573 23.0892 6.84555 22.9748 7.07711 22.6021Z" fill="black"/>
<path d="M32.9311 24.2703C34.6724 22.5636 37.4676 22.5915 39.1744 24.3328L44.0793 29.3368C45.7861 31.0781 45.7581 33.8733 44.0168 35.5801C42.2755 37.2869 39.4803 37.2589 37.7735 35.5176L32.8686 30.5136C31.1619 28.7724 31.1898 25.9771 32.9311 24.2703Z" fill="white"/>
<path fill-rule="evenodd" clip-rule="evenodd" d="M32.3755 23.7027C34.4301 21.6887 37.7283 21.7217 39.7422 23.7764L44.6471 28.7804C46.661 30.835 46.628 34.1332 44.5734 36.1471C42.5188 38.161 39.2206 38.128 37.2067 36.0734L32.3018 31.0694C30.2879 29.0148 30.3209 25.7166 32.3755 23.7027ZM38.6076 24.8885C37.2079 23.4606 34.9156 23.4376 33.4877 24.8373C32.0597 26.237 32.0368 28.5292 33.4365 29.9572L38.3413 34.9612C39.741 36.3892 42.0332 36.4121 43.4612 35.0124C44.8892 33.6127 44.9121 31.3205 43.5124 29.8925L38.6076 24.8885Z" fill="black"/>
<path d="M31.6076 42.5387H18.6729H12.4884C11.3184 42.5387 10.3428 41.5808 10.5432 40.4281C11.4104 35.4397 15.3859 33.5349 19.0978 33.0467C20.2577 32.8942 21.2099 31.9619 21.2099 30.7919V29.3776C21.2099 29.1569 21.3497 28.9604 21.5582 28.888C21.7644 28.8165 21.9933 28.8818 22.1307 29.0513L27.0318 35.0987C27.4341 35.595 28.0388 35.8833 28.6776 35.8833H31.8192L31.7038 35.8833H32.1385C32.959 35.8833 33.7371 36.2482 34.2618 36.8791C36.1324 39.1282 34.533 42.5387 31.6076 42.5387Z" fill="white"/>
<path fill-rule="evenodd" clip-rule="evenodd" d="M22.0052 30.1571L26.4156 35.5989C26.9687 36.2813 27.8002 36.6777 28.6786 36.6777L31.7048 36.6777M31.8214 35.0889H32.1394C33.196 35.0889 34.1979 35.5587 34.8735 36.3711C37.1746 39.1378 35.2071 43.3332 31.6086 43.3332H12.4893C10.9298 43.3332 9.45971 42.0276 9.76142 40.2921C10.2308 37.5922 11.5555 35.6909 13.2816 34.4116C14.9891 33.1462 17.0527 32.5146 18.9951 32.2591C19.8253 32.1499 20.4164 31.5005 20.4164 30.792V29.3777C20.4164 28.8186 20.7706 28.3208 21.2988 28.1375C21.821 27.9563 22.4008 28.1217 22.7489 28.5512L27.6499 34.5985C27.9013 34.9087 28.2793 35.0889 28.6786 35.0889H31.8201C31.8205 35.0889 31.821 35.0889 31.8214 35.0889ZM22.0052 30.1571V30.792C22.0052 32.4234 20.692 33.6384 19.2023 33.8344C17.4328 34.0671 15.6527 34.632 14.2277 35.6881C12.8213 36.7304 11.7246 38.2758 11.3268 40.5642C11.2277 41.1341 11.7089 41.7443 12.4893 41.7443H31.6086C33.8607 41.7443 35.0921 39.1186 33.652 37.3871C33.2782 36.9376 32.7239 36.6777 32.1394 36.6777L31.8201 36.6777M21.5147 29.5519C21.5148 29.5519 21.5147 29.5518 21.5147 29.5519V29.5519Z" fill="black"/>
<path d="M10.1187 9.02754C5.46907 11.3602 10.5624 28.8243 17.089 34.7078C17.638 35.2026 17.977 35.9024 17.9223 36.6395C17.8537 37.562 18.3911 38.4186 19.2823 38.6662C21.8234 39.3723 27.1191 40.3324 30.9226 37.5331C35.3346 34.2859 35.5004 29.8739 35.4532 28.6421C35.4447 28.4205 35.382 28.2101 35.2944 28.0064C34.7403 26.718 34.1474 24.7924 33.2535 22.9142C32.3539 21.0241 30.0205 20.6289 28.2303 21.7138L25.0901 23.617C24.2585 24.121 23.1905 23.9942 22.5002 23.3094L16.1113 16.9719C15.6328 16.4972 15.4102 15.824 15.4686 15.1526C15.5659 14.0349 15.6448 12.2384 15.3502 10.7653C14.914 8.58437 11.2865 8.44163 10.1187 9.02754Z" fill="white"/>
<path fill-rule="evenodd" clip-rule="evenodd" d="M11.4198 9.53765C10.9611 9.56901 10.6329 9.65733 10.4731 9.7375C9.73767 10.1065 9.19366 11.2032 9.12055 13.2254C9.0502 15.1711 9.43441 17.6697 10.176 20.3221C11.6662 25.6514 14.517 31.3212 17.6192 34.1176C18.3164 34.7461 18.7888 35.6738 18.7127 36.6983C18.6691 37.2857 19.0069 37.7655 19.4932 37.9007C20.7232 38.2424 22.6034 38.6403 24.6192 38.6197C26.6368 38.5991 28.728 38.1605 30.45 36.8931C34.5552 33.8717 34.7003 29.7858 34.6576 28.6724C34.6541 28.5815 34.6276 28.4705 34.5629 28.3202C34.3418 27.8062 34.1139 27.1922 33.8738 26.5455C33.8023 26.3528 33.7297 26.1573 33.6558 25.9605C33.3286 25.0887 32.9664 24.1633 32.5344 23.2555C31.8875 21.8963 30.1362 21.4865 28.6403 22.3931L25.5 24.2963C24.3566 24.9893 22.8882 24.8149 21.9389 23.8732L15.55 17.5358C14.8901 16.8812 14.5983 15.9696 14.6754 15.0836C14.7714 13.98 14.8408 12.2777 14.5694 10.921C14.4472 10.3097 13.8511 9.85003 12.8421 9.63585C12.3658 9.53475 11.8633 9.50734 11.4198 9.53765ZM13.172 8.08165C14.3777 8.33758 15.8134 9.03973 16.1274 10.6094C16.4453 12.199 16.3567 14.0896 16.2582 15.2214C16.2185 15.6783 16.3719 16.1131 16.669 16.4078L23.0579 22.7452C23.4893 23.1732 24.1568 23.2525 24.6765 22.9375L27.8168 21.0344C29.9012 19.7711 32.8168 20.1517 33.969 22.5727C34.4309 23.5432 34.8121 24.5197 35.1434 25.4023C35.2236 25.616 35.3003 25.8225 35.3742 26.0216C35.6107 26.6586 35.8188 27.219 36.0224 27.6924C36.133 27.9494 36.2318 28.2594 36.2453 28.6116C36.297 29.9619 36.1105 34.6998 31.3918 38.1728C29.3102 39.7048 26.8518 40.1858 24.6354 40.2084C22.4171 40.2311 20.379 39.7958 19.0679 39.4315C17.7718 39.0714 17.0348 37.838 17.1282 36.5806C17.1617 36.1309 16.9561 35.6589 16.5553 35.2977C13.1308 32.2107 10.1717 26.2066 8.64591 20.7499C7.87959 18.0093 7.45435 15.3367 7.53275 13.168C7.60839 11.0758 8.17131 9.11472 9.76066 8.31737C10.1848 8.10458 10.748 7.99103 11.3115 7.95252C11.8903 7.91296 12.5409 7.94768 13.172 8.08165Z" fill="black"/>
<path fill-rule="evenodd" clip-rule="evenodd" d="M20.4355 35.7045C20.5881 35.2931 21.0453 35.0834 21.4566 35.236C22.2518 35.5309 22.6612 35.5867 23.491 35.5551C23.9295 35.5385 24.2984 35.8804 24.315 36.3188C24.3317 36.7572 23.9898 37.1262 23.5514 37.1428C22.5269 37.1817 21.9079 37.098 20.904 36.7256C20.4927 36.573 20.2829 36.1158 20.4355 35.7045Z" fill="#EF7300"/>
<path fill-rule="evenodd" clip-rule="evenodd" d="M13.2095 20.703C13.6374 20.6061 14.0628 20.8745 14.1597 21.3024C14.9936 24.9868 16.0748 27.4282 18.4786 29.833C18.7888 30.1433 18.7887 30.6463 18.4784 30.9565C18.1681 31.2666 17.6651 31.2665 17.3549 30.9562C14.6723 28.2726 13.4857 25.522 12.61 21.6532C12.5132 21.2252 12.7815 20.7998 13.2095 20.703Z" fill="#EF7300"/>
</svg>
