<svg width="50" height="50" viewBox="0 0 50 50" fill="none" xmlns="http://www.w3.org/2000/svg">
<path d="M10.0001 4.99707C10.0001 4.44479 10.4478 3.99707 11.0001 3.99707H39.0001C39.5523 3.99707 40.0001 4.44479 40.0001 4.99707V45.4971C40.0001 46.0494 39.5523 46.4971 39.0001 46.4971H11.0001C10.4478 46.4971 10.0001 46.0494 10.0001 45.4971V4.99707Z" fill="black"/>
<path fill-rule="evenodd" clip-rule="evenodd" d="M9.25006 4.99707C9.25006 4.03057 10.0336 3.24707 11.0001 3.24707H39.0001C39.9666 3.24707 40.7501 4.03057 40.7501 4.99707V45.4971C40.7501 46.4636 39.9666 47.2471 39.0001 47.2471H11.0001C10.0336 47.2471 9.25006 46.4636 9.25006 45.4971V4.99707ZM11.0001 4.74707C10.862 4.74707 10.7501 4.859 10.7501 4.99707V45.4971C10.7501 45.6351 10.862 45.7471 11.0001 45.7471H39.0001C39.1381 45.7471 39.2501 45.6351 39.2501 45.4971V4.99707C39.2501 4.859 39.1381 4.74707 39.0001 4.74707H11.0001Z" fill="#FB6D3A"/>
<path fill-rule="evenodd" clip-rule="evenodd" d="M40.7501 35.9971C40.7501 36.4113 40.4143 36.7471 40.0001 36.7471H10.0001C9.58585 36.7471 9.25006 36.4113 9.25006 35.9971C9.25006 35.5829 9.58585 35.2471 10.0001 35.2471H40.0001C40.4143 35.2471 40.7501 35.5829 40.7501 35.9971Z" fill="#FB6D3A"/>
<path fill-rule="evenodd" clip-rule="evenodd" d="M40.7501 42.9971C40.7501 43.4113 40.4143 43.7471 40.0001 43.7471H10.0001C9.58585 43.7471 9.25006 43.4113 9.25006 42.9971C9.25006 42.5829 9.58585 42.2471 10.0001 42.2471H40.0001C40.4143 42.2471 40.7501 42.5829 40.7501 42.9971Z" fill="#FB6D3A"/>
<path fill-rule="evenodd" clip-rule="evenodd" d="M40.7501 39.4971C40.7501 39.9113 40.4143 40.2471 40.0001 40.2471H10.0001C9.58585 40.2471 9.25006 39.9113 9.25006 39.4971C9.25006 39.0829 9.58585 38.7471 10.0001 38.7471H40.0001C40.4143 38.7471 40.7501 39.0829 40.7501 39.4971Z" fill="#FB6D3A"/>
<path fill-rule="evenodd" clip-rule="evenodd" d="M27.7501 22.4971C27.7501 22.9113 27.4143 23.2471 27.0001 23.2471H23.0001C22.5858 23.2471 22.2501 22.9113 22.2501 22.4971C22.2501 22.0829 22.5858 21.7471 23.0001 21.7471H27.0001C27.4143 21.7471 27.7501 22.0829 27.7501 22.4971Z" fill="#FB6D3A"/>
<path d="M13.0001 7.99707C13.0001 7.44479 13.4478 6.99707 14.0001 6.99707H36.0001C36.5523 6.99707 37.0001 7.44479 37.0001 7.99707V17.9971C37.0001 18.5494 36.5523 18.9971 36.0001 18.9971H14.0001C13.4478 18.9971 13.0001 18.5494 13.0001 17.9971V7.99707Z" fill="black"/>
<path fill-rule="evenodd" clip-rule="evenodd" d="M12.2501 7.99707C12.2501 7.03057 13.0336 6.24707 14.0001 6.24707H36.0001C36.9666 6.24707 37.7501 7.03057 37.7501 7.99707V17.9971C37.7501 18.9636 36.9666 19.7471 36.0001 19.7471H14.0001C13.0336 19.7471 12.2501 18.9636 12.2501 17.9971V7.99707ZM14.0001 7.74707C13.862 7.74707 13.7501 7.859 13.7501 7.99707V17.9971C13.7501 18.1351 13.862 18.2471 14.0001 18.2471H36.0001C36.1381 18.2471 36.2501 18.1351 36.2501 17.9971V7.99707C36.2501 7.859 36.1381 7.74707 36.0001 7.74707H14.0001Z" fill="#FB6D3A"/>
<path fill-rule="evenodd" clip-rule="evenodd" d="M15.2501 9.99707C15.2501 9.58286 15.5858 9.24707 16.0001 9.24707H34.0001C34.4143 9.24707 34.7501 9.58286 34.7501 9.99707C34.7501 10.4113 34.4143 10.7471 34.0001 10.7471H16.0001C15.5858 10.7471 15.2501 10.4113 15.2501 9.99707Z" fill="#FB6D3A"/>
<path fill-rule="evenodd" clip-rule="evenodd" d="M15.2501 12.9971C15.2501 12.5829 15.5858 12.2471 16.0001 12.2471H34.0001C34.4143 12.2471 34.7501 12.5829 34.7501 12.9971C34.7501 13.4113 34.4143 13.7471 34.0001 13.7471H16.0001C15.5858 13.7471 15.2501 13.4113 15.2501 12.9971Z" fill="#FB6D3A"/>
<path fill-rule="evenodd" clip-rule="evenodd" d="M15.2501 15.9971C15.2501 15.5829 15.5858 15.2471 16.0001 15.2471H27.5001C27.9143 15.2471 28.2501 15.5829 28.2501 15.9971C28.2501 16.4113 27.9143 16.7471 27.5001 16.7471H16.0001C15.5858 16.7471 15.2501 16.4113 15.2501 15.9971Z" fill="#FB6D3A"/>
<path fill-rule="evenodd" clip-rule="evenodd" d="M30.2501 15.9971C30.2501 15.5829 30.5858 15.2471 31.0001 15.2471L34.0001 15.2471C34.4143 15.2471 34.7501 15.5829 34.7501 15.9971C34.7501 16.4113 34.4143 16.7471 34.0001 16.7471L31.0001 16.7471C30.5858 16.7471 30.2501 16.4113 30.2501 15.9971Z" fill="#FB6D3A"/>
</svg>
