<svg width="50" height="50" viewBox="0 0 50 50" fill="none" xmlns="http://www.w3.org/2000/svg">
<path d="M9.50006 22.9971C9.50006 22.4448 9.94778 21.9971 10.5001 21.9971H39.5001C40.0523 21.9971 40.5001 22.4448 40.5001 22.9971V29.3096V40.4971C40.5001 41.0494 40.0523 41.4971 39.5001 41.4971H10.5001C9.94778 41.4971 9.50006 41.0494 9.50006 40.4971V22.9971Z" fill="black"/>
<path fill-rule="evenodd" clip-rule="evenodd" d="M8.75006 22.9971C8.75006 22.0306 9.53356 21.2471 10.5001 21.2471H39.5001C40.4666 21.2471 41.2501 22.0306 41.2501 22.9971V40.4971C41.2501 41.4636 40.4666 42.2471 39.5001 42.2471H10.5001C9.53356 42.2471 8.75006 41.4636 8.75006 40.4971V22.9971ZM10.5001 22.7471C10.362 22.7471 10.2501 22.859 10.2501 22.9971V40.4971C10.2501 40.6351 10.362 40.7471 10.5001 40.7471H39.5001C39.6381 40.7471 39.7501 40.6351 39.7501 40.4971V22.9971C39.7501 22.859 39.6381 22.7471 39.5001 22.7471H10.5001Z" fill="#FB6D3A"/>
<path d="M43.5001 20.9971C43.5001 21.5494 43.0523 21.9971 42.5001 21.9971L7.00006 21.9971C6.44777 21.9971 6.00006 21.5494 6.00006 20.9971L6.00006 9.49707C6.00006 8.94478 6.44777 8.49707 7.00006 8.49707L42.5001 8.49707C43.0523 8.49707 43.5001 8.94479 43.5001 9.49707L43.5001 20.9971Z" fill="black"/>
<path fill-rule="evenodd" clip-rule="evenodd" d="M44.2501 20.9971C44.2501 21.9636 43.4666 22.7471 42.5001 22.7471L7.00006 22.7471C6.03356 22.7471 5.25006 21.9636 5.25006 20.9971L5.25006 9.49707C5.25006 8.53057 6.03356 7.74707 7.00006 7.74707L42.5001 7.74707C43.4666 7.74707 44.2501 8.53057 44.2501 9.49707L44.2501 20.9971ZM42.5001 21.2471C42.6381 21.2471 42.7501 21.1351 42.7501 20.9971L42.7501 9.49707C42.7501 9.359 42.6381 9.24707 42.5001 9.24707L7.00006 9.24707C6.86199 9.24707 6.75006 9.359 6.75006 9.49707L6.75006 20.9971C6.75006 21.1351 6.86199 21.2471 7.00006 21.2471L42.5001 21.2471Z" fill="#FB6D3A"/>
<path d="M36.5001 17.4971C36.5001 18.0494 36.0523 18.4971 35.5001 18.4971L15.0001 18.4971C14.4478 18.4971 14.0001 18.0494 14.0001 17.4971L14.0001 12.4971C14.0001 11.9448 14.4478 11.4971 15.0001 11.4971L35.5001 11.4971C36.0523 11.4971 36.5001 11.9448 36.5001 12.4971L36.5001 17.4971Z" fill="black"/>
<path fill-rule="evenodd" clip-rule="evenodd" d="M37.2501 17.4971C37.2501 18.4636 36.4666 19.2471 35.5001 19.2471L15.0001 19.2471C14.0336 19.2471 13.2501 18.4636 13.2501 17.4971L13.2501 12.4971C13.2501 11.5306 14.0336 10.7471 15.0001 10.7471L35.5001 10.7471C36.4666 10.7471 37.2501 11.5306 37.2501 12.4971L37.2501 17.4971ZM35.5001 17.7471C35.6381 17.7471 35.7501 17.6351 35.7501 17.4971L35.7501 12.4971C35.7501 12.359 35.6381 12.2471 35.5001 12.2471L15.0001 12.2471C14.862 12.2471 14.7501 12.359 14.7501 12.4971L14.7501 17.4971C14.7501 17.6351 14.862 17.7471 15.0001 17.7471L35.5001 17.7471Z" fill="#FB6D3A"/>
<path d="M33.0001 40.4971C33.0001 41.0494 32.5523 41.4971 32.0001 41.4971L18.5001 41.4971C17.9478 41.4971 17.5001 41.0494 17.5001 40.4971L17.5001 27.4971C17.5001 26.9448 17.9478 26.4971 18.5001 26.4971L32.0001 26.4971C32.5523 26.4971 33.0001 26.9448 33.0001 27.4971L33.0001 40.4971Z" fill="black"/>
<path fill-rule="evenodd" clip-rule="evenodd" d="M33.7501 40.4971C33.7501 41.4636 32.9666 42.2471 32.0001 42.2471L18.5001 42.2471C17.5336 42.2471 16.7501 41.4636 16.7501 40.4971L16.7501 27.4971C16.7501 26.5306 17.5336 25.7471 18.5001 25.7471L32.0001 25.7471C32.9666 25.7471 33.7501 26.5306 33.7501 27.4971L33.7501 40.4971ZM32.0001 40.7471C32.1381 40.7471 32.2501 40.6351 32.2501 40.4971L32.2501 27.4971C32.2501 27.359 32.1381 27.2471 32.0001 27.2471L18.5001 27.2471C18.362 27.2471 18.2501 27.359 18.2501 27.4971L18.2501 40.4971C18.2501 40.6351 18.362 40.7471 18.5001 40.7471L32.0001 40.7471Z" fill="#FB6D3A"/>
<path fill-rule="evenodd" clip-rule="evenodd" d="M31.0304 29.4667C31.3233 29.7596 31.3233 30.2345 31.0304 30.5274L25.5304 36.0274C25.2375 36.3203 24.7626 36.3203 24.4697 36.0274C24.1768 35.7345 24.1768 35.2596 24.4697 34.9667L29.9697 29.4667C30.2626 29.1738 30.7375 29.1738 31.0304 29.4667Z" fill="#FB6D3A"/>
<path fill-rule="evenodd" clip-rule="evenodd" d="M24.0304 36.4667C24.3233 36.7596 24.3233 37.2345 24.0304 37.5274L22.0304 39.5274C21.7375 39.8203 21.2626 39.8203 20.9697 39.5274C20.6768 39.2345 20.6768 38.7596 20.9697 38.4667L22.9697 36.4667C23.2626 36.1738 23.7375 36.1738 24.0304 36.4667Z" fill="#FB6D3A"/>
<path fill-rule="evenodd" clip-rule="evenodd" d="M26.5304 30.4667C26.8233 30.7596 26.8233 31.2345 26.5304 31.5274L21.5304 36.5274C21.2375 36.8203 20.7626 36.8203 20.4697 36.5274C20.1768 36.2345 20.1768 35.7596 20.4697 35.4667L25.4697 30.4667C25.7626 30.1738 26.2375 30.1738 26.5304 30.4667Z" fill="#FB6D3A"/>
</svg>
