<svg width="50" height="50" viewBox="0 0 50 50" fill="none" xmlns="http://www.w3.org/2000/svg">
<g clip-path="url(#clip0_4579_5420)">
<path fill-rule="evenodd" clip-rule="evenodd" d="M41.1725 20.4941C41.1664 20.9082 41.4972 21.249 41.9113 21.2551L43.4012 21.2772C43.5854 21.28 43.7035 21.4742 43.6211 21.639L43.5944 21.6925C42.8953 23.0904 44.2401 24.6339 45.7206 24.1328L46.2317 23.9599C46.3965 23.9041 46.5665 24.0296 46.5617 24.2036L46.5213 25.6643C46.5099 26.0783 46.8362 26.4233 47.2503 26.4347C47.6643 26.4462 48.0093 26.1198 48.0207 25.7058L48.0612 24.2451C48.0949 23.0272 46.9048 22.1485 45.7508 22.539L45.2397 22.712C45.0282 22.7836 44.8361 22.5631 44.936 22.3634L44.9627 22.3099C45.5395 21.1565 44.713 19.7965 43.4235 19.7774L41.9336 19.7553C41.5194 19.7491 41.1787 20.0799 41.1725 20.4941Z" fill="#FB6D3A"/>
<path fill-rule="evenodd" clip-rule="evenodd" d="M5.23709 22.1514C5.45571 21.7996 5.34772 21.3372 4.99589 21.1186L3.73026 20.3321C3.57377 20.2349 3.57264 20.0076 3.72814 19.9088L3.7786 19.8767C5.0979 19.0386 4.74032 17.0229 3.21323 16.6898L2.68607 16.5748C2.51603 16.5377 2.43498 16.3425 2.52872 16.1959L3.31578 14.9647C3.53888 14.6157 3.43683 14.1519 3.08783 13.9288C2.73884 13.7057 2.27506 13.8078 2.05196 14.1568L1.2649 15.3879C0.608687 16.4144 1.17603 17.7806 2.36635 18.0403L2.89351 18.1553C3.11166 18.2029 3.16275 18.4909 2.97427 18.6106L2.92381 18.6426C1.83526 19.3342 1.8432 20.9256 2.93859 21.6062L4.20422 22.3926C4.55605 22.6112 5.01848 22.5033 5.23709 22.1514Z" fill="#FB6D3A"/>
<path d="M34.7495 22.4258C35.7356 21.4593 37.3184 21.4751 38.2849 22.4611L46.712 31.0586C47.6785 32.0446 47.6627 33.6275 46.6767 34.594L45.0698 36.169L43.463 37.744C42.477 38.7104 40.8942 38.6946 39.9277 37.7086L31.5005 29.1111C30.534 28.1251 30.5499 26.5423 31.5359 25.5758L34.7495 22.4258Z" fill="black"/>
<path fill-rule="evenodd" clip-rule="evenodd" d="M34.2246 21.8902C35.5064 20.6338 37.5641 20.6544 38.8205 21.9362L47.2477 30.5337C48.5041 31.8155 48.4835 33.8732 47.2017 35.1296L43.988 38.2796C42.7062 39.5361 40.6485 39.5155 39.3921 38.2336L30.9649 29.6362C29.7085 28.3543 29.7291 26.2967 31.0109 25.0402L34.2246 21.8902ZM37.7493 22.9862C37.0728 22.296 35.9648 22.2849 35.2746 22.9614L32.0609 26.1114C31.3707 26.788 31.3596 27.896 32.0361 28.5862L40.4633 37.1836C41.1398 37.8739 42.2478 37.885 42.938 37.2084L46.1517 34.0584C46.8419 33.3819 46.853 32.2739 46.1764 31.5837L37.7493 22.9862Z" fill="#FB6D3A"/>
<path d="M34.186 43.4714H17.5001H9.50009C8.9478 43.4714 8.49592 43.0195 8.53363 42.4685C9.0161 35.4185 14.6107 33.2706 19.2509 33.0108C19.8023 32.9799 20.2501 32.5352 20.2501 31.9829V29.1317C20.2501 28.8929 20.4011 28.6803 20.6266 28.6016C20.8506 28.5235 21.0995 28.5947 21.2484 28.7793L26.9499 35.8492C27.1397 36.0846 27.4259 36.2214 27.7283 36.2214H31.7501L31.6251 36.2214H32.5592C33.1551 36.2214 33.72 36.4872 34.1 36.9463L36.112 39.3775C37.4609 41.0074 36.3016 43.4714 34.186 43.4714Z" fill="black"/>
<path fill-rule="evenodd" clip-rule="evenodd" d="M21.0001 29.6662L26.3661 36.32C26.6983 36.732 27.1991 36.9715 27.7283 36.9715H31.6239C31.6243 36.9715 31.6247 36.9715 31.6251 36.9715H32.5592C32.9316 36.9715 33.2847 37.1376 33.5222 37.4245L35.5342 39.8557C36.4784 40.9966 35.6669 42.7215 34.186 42.7215H9.50006C9.35038 42.7215 9.27593 42.6063 9.28185 42.5198C9.508 39.2152 10.915 37.1228 12.7679 35.8044C14.6519 34.464 17.0559 33.8849 19.2928 33.7597C20.2149 33.708 21.0001 32.9593 21.0001 31.983V29.6662ZM31.7513 35.4715H32.5592C33.3786 35.4715 34.1553 35.8369 34.6777 36.4681L36.6898 38.8994C38.4433 41.0182 36.9363 44.2215 34.186 44.2215H9.50006C8.54518 44.2215 7.71586 43.4328 7.78535 42.4173C8.04168 38.6718 9.67327 36.1653 11.8983 34.5822C14.0923 33.0212 16.8056 32.3966 19.2089 32.262C19.3897 32.2519 19.5001 32.1112 19.5001 31.983V29.1317C19.5001 28.5739 19.8529 28.0771 20.3797 27.8935C20.9029 27.7111 21.4843 27.8772 21.8322 28.3085L27.5337 35.3784C27.5811 35.4372 27.6527 35.4715 27.7283 35.4715H31.7501C31.7505 35.4715 31.7509 35.4715 31.7513 35.4715Z" fill="#FB6D3A"/>
<path d="M8.59781 7.60155C3.46608 10.1761 9.36529 29.8825 16.6443 35.6961C16.9172 35.914 17.0728 36.2448 17.0469 36.593L16.9242 38.2448C16.8918 38.6806 17.1425 39.0838 17.558 39.2192C19.6968 39.9163 26.3616 41.6704 30.9808 38.2707C36.012 34.5679 35.9111 29.4573 35.8447 28.5047C35.8374 28.4003 35.8085 28.3014 35.7656 28.2058C34.9528 26.3937 34.086 23.2305 32.4382 20.6129C31.9118 19.7767 30.8088 19.5995 29.9637 20.1116L23.851 23.8163C23.4585 24.0542 22.9544 23.9943 22.6285 23.6711L14.5857 15.693C14.3598 15.4689 14.2538 15.1524 14.2895 14.8363C14.4059 13.8063 14.6092 11.3851 14.2264 9.47117C13.7571 7.12474 9.85433 6.97117 8.59781 7.60155Z" fill="black"/>
<path fill-rule="evenodd" clip-rule="evenodd" d="M9.99251 8.04569C9.49201 8.0799 9.12346 8.17659 8.93411 8.27159C8.50338 8.48768 8.13842 8.90509 7.8689 9.58538C7.59724 10.2711 7.44249 11.1788 7.41629 12.2775C7.36392 14.4734 7.82768 17.2783 8.687 20.2238C9.54424 23.1621 10.7831 26.1991 12.2508 28.8524C13.7242 31.5158 15.4008 33.7427 17.1123 35.1097C17.5649 35.4711 17.8403 36.036 17.7948 36.6483L17.6721 38.3C17.6634 38.4173 17.7271 38.4852 17.7904 38.5058C18.8254 38.8431 20.9535 39.4347 23.3693 39.5315C25.7912 39.6287 28.4173 39.2259 30.5363 37.6663C35.2599 34.1898 35.1559 29.4089 35.0965 28.5565C35.0965 28.5568 35.0965 28.5568 35.0965 28.5565L35.8446 28.5043L35.0965 28.5565C35.0965 28.5565 35.0965 28.5565 35.0965 28.5565C35.0963 28.5546 35.0943 28.5414 35.0813 28.5125L35.7292 28.2218L35.0813 28.5124C34.8182 27.9259 34.5424 27.1836 34.2475 26.3899C34.0772 25.9316 33.9006 25.4561 33.7163 24.9836C33.1978 23.654 32.5895 22.2607 31.8035 21.0122C31.5277 20.574 30.9022 20.4195 30.3525 20.7527L24.2398 24.4574C23.5528 24.8737 22.6706 24.7689 22.1003 24.2032L14.0575 16.2251C13.6623 15.8331 13.4838 15.2867 13.5442 14.7518C13.6601 13.7264 13.8489 11.4074 13.491 9.61794C13.3468 8.89712 12.6501 8.38657 11.5516 8.15338C11.0289 8.04244 10.4786 8.01247 9.99251 8.04569ZM11.863 6.68607C13.1473 6.95868 14.6367 7.69814 14.9618 9.32375C15.3695 11.3622 15.1517 13.8856 15.0348 14.9202C15.0238 15.0175 15.0573 15.1041 15.1138 15.1602L23.1567 23.1383C23.2381 23.2191 23.3642 23.2341 23.4623 23.1746L29.575 19.4699C30.7153 18.7788 32.2959 18.9788 33.0729 20.2131C33.9347 21.5821 34.5837 23.0792 35.1138 24.4386C35.3226 24.9741 35.5091 25.4769 35.6822 25.9433C35.9608 26.6945 36.2045 27.3513 36.4499 27.8986C36.5204 28.0557 36.5781 28.2412 36.5928 28.4522C36.6662 29.5051 36.764 34.9453 31.4254 38.8744C28.9251 40.7146 25.9092 41.1346 23.3092 41.0303C20.7031 40.9258 18.4294 40.2917 17.3255 39.9319C16.5578 39.6817 16.1202 38.9433 16.1763 38.1889L16.299 36.5371C16.3052 36.4529 16.2694 36.3561 16.1762 36.2818L16.6443 35.6957L16.1762 36.2817C14.2483 34.7419 12.4579 32.3255 10.9383 29.5784C9.41304 26.8212 8.133 23.6807 7.24703 20.6439C6.36314 17.6142 5.85936 14.6465 5.91672 12.2417C5.94538 11.04 6.11482 9.94038 6.47435 9.03288C6.83603 8.11999 7.40928 7.35839 8.26148 6.93085C8.70039 6.71066 9.29089 6.59015 9.89022 6.54918C10.504 6.50723 11.1942 6.54411 11.863 6.68607Z" fill="#FB6D3A"/>
<path fill-rule="evenodd" clip-rule="evenodd" d="M19.7969 36.3395C19.941 35.9511 20.3726 35.7531 20.7609 35.8972C21.6302 36.2196 22.0845 36.2814 22.9902 36.247C23.4041 36.2313 23.7524 36.5541 23.7681 36.968C23.7838 37.3819 23.461 37.7302 23.0471 37.7459C21.9577 37.7873 21.3055 37.6991 20.2392 37.3035C19.8509 37.1595 19.6528 36.7278 19.7969 36.3395Z" fill="#FB6D3A"/>
<path fill-rule="evenodd" clip-rule="evenodd" d="M11.9465 20.2659C12.3505 20.1745 12.7522 20.4278 12.8436 20.8318C13.7437 24.8081 14.9138 27.4552 17.5185 30.0608C17.8113 30.3538 17.8112 30.8287 17.5183 31.1215C17.2253 31.4143 16.7504 31.4142 16.4576 31.1213C13.5898 28.2523 12.3201 25.3133 11.3806 21.163C11.2892 20.759 11.5426 20.3574 11.9465 20.2659Z" fill="#FB6D3A"/>
</g>
<defs>
<clipPath id="clip0_4579_5420">
<rect width="50" height="50" fill="white" transform="translate(6.10352e-05 -0.00292969)"/>
</clipPath>
</defs>
</svg>
