<svg width="50" height="50" viewBox="0 0 50 50" fill="none" xmlns="http://www.w3.org/2000/svg">
<path fill-rule="evenodd" clip-rule="evenodd" d="M32.2501 12.0029C32.2501 9.10018 29.897 6.74707 26.9942 6.74707H26.4144C23.8319 6.74707 21.7384 8.84055 21.7384 11.423C21.7384 14.0054 23.8319 16.0989 26.4144 16.0989H26.8614C27.2756 16.0989 27.6114 15.7631 27.6114 15.3489C27.6114 14.9347 27.2756 14.5989 26.8614 14.5989H26.4144C24.6603 14.5989 23.2384 13.177 23.2384 11.423C23.2384 9.66898 24.6603 8.24707 26.4144 8.24707H26.9942C29.0685 8.24707 30.7501 9.92861 30.7501 12.0029V13.4971C30.7501 16.3966 28.3996 18.7471 25.5001 18.7471H6.50006C6.08585 18.7471 5.75006 19.0829 5.75006 19.4971C5.75006 19.9113 6.08585 20.2471 6.50006 20.2471H25.5001C29.228 20.2471 32.2501 17.225 32.2501 13.4971V12.0029Z" fill="#FB6D3A"/>
<path fill-rule="evenodd" clip-rule="evenodd" d="M36.7501 38.4894C36.7501 41.3931 34.3961 43.7471 31.4924 43.7471H30.9107C28.3282 43.7471 26.2348 41.6536 26.2348 39.0711C26.2348 36.4887 28.3282 34.3952 30.9107 34.3952H31.1996C31.6138 34.3952 31.9496 34.731 31.9496 35.1452C31.9496 35.5594 31.6138 35.8952 31.1996 35.8952H30.9107C29.1567 35.8952 27.7348 37.3171 27.7348 39.0711C27.7348 40.8252 29.1567 42.2471 30.9107 42.2471H31.4924C33.5677 42.2471 35.2501 40.5647 35.2501 38.4894V36.9971C35.2501 34.0976 32.8996 31.7471 30.0001 31.7471H7.50006C7.08585 31.7471 6.75006 31.4113 6.75006 30.9971C6.75006 30.5829 7.08585 30.2471 7.50006 30.2471H30.0001C33.728 30.2471 36.7501 33.2691 36.7501 36.9971V38.4894Z" fill="#FB6D3A"/>
<path fill-rule="evenodd" clip-rule="evenodd" d="M48.2501 15.9248C48.2501 12.2368 45.2603 9.24707 41.5723 9.24707H40.7156C37.5008 9.24707 34.8946 11.8532 34.8946 15.0681C34.8946 18.2829 37.5008 20.889 40.7156 20.889H41.1386C41.5528 20.889 41.8886 20.5533 41.8886 20.139C41.8886 19.7248 41.5528 19.389 41.1386 19.389H40.7156C38.3292 19.389 36.3946 17.4545 36.3946 15.0681C36.3946 12.6816 38.3292 10.7471 40.7156 10.7471H41.5723C44.4319 10.7471 46.7501 13.0652 46.7501 15.9248V17.7471C46.7501 21.6131 43.6161 24.7471 39.7501 24.7471H23.5001C23.0858 24.7471 22.7501 25.0829 22.7501 25.4971C22.7501 25.9113 23.0858 26.2471 23.5001 26.2471H39.7501C44.4445 26.2471 48.2501 22.4415 48.2501 17.7471V15.9248Z" fill="#FB6D3A"/>
<path fill-rule="evenodd" clip-rule="evenodd" d="M9.75006 25.4971C9.75006 25.0829 10.0858 24.7471 10.5001 24.7471L19.0001 24.7471C19.4143 24.7471 19.7501 25.0829 19.7501 25.4971C19.7501 25.9113 19.4143 26.2471 19.0001 26.2471L10.5001 26.2471C10.0858 26.2471 9.75006 25.9113 9.75006 25.4971Z" fill="#FB6D3A"/>
<path fill-rule="evenodd" clip-rule="evenodd" d="M1.75006 30.9971C1.75006 30.5829 2.08585 30.2471 2.50006 30.2471L3.50006 30.2471C3.91427 30.2471 4.25006 30.5829 4.25006 30.9971C4.25006 31.4113 3.91427 31.7471 3.50006 31.7471L2.50006 31.7471C2.08585 31.7471 1.75006 31.4113 1.75006 30.9971Z" fill="#FB6D3A"/>
</svg>
