<svg width="50" height="50" viewBox="0 0 50 50" fill="none" xmlns="http://www.w3.org/2000/svg">
<path d="M5.05273 10.7416C5.05273 9.52128 6.04203 8.53198 7.2624 8.53198H43.1058C44.3261 8.53198 45.3154 9.52128 45.3154 10.7416V32.623C45.3154 33.8433 44.3261 34.8326 43.1058 34.8326H7.2624C6.04203 34.8326 5.05273 33.8433 5.05273 32.623V10.7416Z" fill="white"/>
<path fill-rule="evenodd" clip-rule="evenodd" d="M4.21289 10.7417C4.21289 9.05761 5.57813 7.69238 7.26223 7.69238H43.1056C44.7897 7.69238 46.1549 9.05762 46.1549 10.7417V32.623C46.1549 34.3071 44.7897 35.6724 43.1056 35.6724H7.26223C5.57812 35.6724 4.21289 34.3071 4.21289 32.623V10.7417ZM7.26223 9.37173C6.5056 9.37173 5.89223 9.98509 5.89223 10.7417V32.623C5.89223 33.3796 6.5056 33.993 7.26223 33.993H43.1056C43.8622 33.993 44.4756 33.3797 44.4756 32.623V10.7417C44.4756 9.98509 43.8622 9.37173 43.1056 9.37173H7.26223Z" fill="black"/>
<path fill-rule="evenodd" clip-rule="evenodd" d="M39.4709 33.9932C39.9346 33.9932 40.3105 34.3691 40.3105 34.8328L40.3105 40.8273C40.3105 41.291 39.9346 41.667 39.4709 41.667C39.0071 41.667 38.6312 41.291 38.6312 40.8273L38.6312 34.8328C38.6312 34.3691 39.0071 33.9932 39.4709 33.9932Z" fill="black"/>
<path fill-rule="evenodd" clip-rule="evenodd" d="M29.7287 19.0569C30.1924 19.0569 30.5684 19.4328 30.5684 19.8966L30.5684 25.891C30.5684 26.3547 30.1924 26.7307 29.7287 26.7307C29.2649 26.7307 28.889 26.3547 28.889 25.891L28.889 19.8966C28.889 19.4328 29.2649 19.0569 29.7287 19.0569Z" fill="#FF6121"/>
<path fill-rule="evenodd" clip-rule="evenodd" d="M25.1834 35.6724C24.7197 35.6724 24.3438 35.2964 24.3438 34.8327L24.3438 17.2989C24.3438 16.8352 24.7197 16.4593 25.1834 16.4593C25.6472 16.4593 26.0231 16.8352 26.0231 17.2989L26.0231 34.8327C26.0231 35.2964 25.6472 35.6724 25.1834 35.6724Z" fill="black"/>
<path fill-rule="evenodd" clip-rule="evenodd" d="M4.21289 16.0001C4.21289 15.5363 4.58882 15.1604 5.05256 15.1604L45.3153 15.1604C45.779 15.1604 46.1549 15.5363 46.1549 16.0001C46.1549 16.4638 45.779 16.8397 45.3153 16.8397L5.05256 16.8397C4.58882 16.8397 4.21289 16.4638 4.21289 16.0001Z" fill="black"/>
<path fill-rule="evenodd" clip-rule="evenodd" d="M10.8967 33.9932C11.3604 33.9932 11.7363 34.3691 11.7363 34.8328L11.7363 40.8273C11.7363 41.291 11.3604 41.667 10.8967 41.667C10.4329 41.667 10.057 41.291 10.057 40.8273L10.057 34.8328C10.057 34.3691 10.4329 33.9932 10.8967 33.9932Z" fill="black"/>
<path fill-rule="evenodd" clip-rule="evenodd" d="M20.6388 19.0569C21.1026 19.0569 21.4785 19.4328 21.4785 19.8966L21.4785 25.891C21.4785 26.3547 21.1026 26.7307 20.6388 26.7307C20.1751 26.7307 19.7992 26.3547 19.7992 25.891L19.7992 19.8966C19.7992 19.4328 20.1751 19.0569 20.6388 19.0569Z" fill="#FF6121"/>
</svg>
