<svg width="38" height="33" viewBox="0 0 38 33" fill="none" xmlns="http://www.w3.org/2000/svg">
<path fill-rule="evenodd" clip-rule="evenodd" d="M6.04358 4.07134C9.40145 1.53399 13.9862 0 19 0C24.0138 0 28.5986 1.53399 31.9564 4.07134C35.3151 6.6093 37.5 10.2044 37.5 14.2729C37.5 18.3412 35.3152 21.9372 31.9566 24.476C28.5988 27.0142 24.0139 28.5491 19 28.5491C18.0602 28.5491 17.136 28.4958 16.2319 28.391C15.5018 28.8815 14.1176 29.8077 12.7705 30.6842C11.9506 31.2176 11.1358 31.7383 10.4875 32.1325C10.1649 32.3286 9.87119 32.501 9.63309 32.6297C9.51516 32.6935 9.3963 32.7545 9.28635 32.8041L9.28331 32.8055C9.22866 32.8301 9.09959 32.8883 8.94048 32.9278C8.92718 32.9317 8.91306 32.9356 8.89815 32.9396C8.82582 32.9586 8.72735 32.9797 8.61044 32.9913C8.39223 33.0129 8.00873 33.0104 7.61669 32.7898C7.06599 32.4798 6.91354 31.9571 6.87013 31.7176C6.84552 31.5818 6.84115 31.4643 6.84194 31.3828C6.84235 31.3404 6.8442 31.3035 6.84639 31.2735C6.84749 31.2584 6.8487 31.2447 6.84989 31.2327L6.85168 31.2158L6.85254 31.2082L6.85297 31.2047L6.85318 31.203L6.85328 31.2021C6.85333 31.2017 6.85338 31.2013 8.05736 31.3489L6.85338 31.2013L6.85541 31.1849L6.85788 31.1685C6.87762 31.038 6.9288 30.846 6.96704 30.7043C7.01472 30.5275 7.07854 30.3006 7.1526 30.0422C7.30103 29.5244 7.4955 28.8633 7.69549 28.1899C7.93034 27.399 8.1741 26.5868 8.36212 25.9622C3.71233 23.4413 0.5 19.2176 0.5 14.2729C0.5 10.2044 2.68489 6.6093 6.04358 4.07134ZM9.76948 29.7302C10.2774 29.4125 10.855 29.0417 11.4449 28.6579C13.0697 27.6007 14.7534 26.4675 15.2528 26.1313L15.6369 25.8727L16.0961 25.9353C17.0362 26.0637 18.0063 26.1297 19 26.1297C23.5336 26.1297 27.5923 24.7391 30.491 22.5479C33.389 20.3573 35.0739 17.4199 35.0739 14.2729C35.0739 11.1259 33.3891 8.18945 30.4912 5.99968C27.5925 3.80929 23.5338 2.41941 19 2.41941C14.4662 2.41941 10.4075 3.80929 7.50879 5.99968C4.61089 8.18945 2.9261 11.1259 2.9261 14.2729C2.9261 18.3314 5.75132 22.0737 10.3369 24.251L11.2771 24.6973L10.9403 25.8136C10.7776 26.3527 10.3886 27.6414 10.0217 28.8769C9.93517 29.1683 9.85002 29.4563 9.76948 29.7302ZM8.25978 30.6108C8.26008 30.6104 8.2664 30.6077 8.27789 30.6035C8.26523 30.6091 8.25948 30.6111 8.25978 30.6108Z" fill="white"/>
<path fill-rule="evenodd" clip-rule="evenodd" d="M31.6687 17.976C31.6324 18.2258 31.4941 18.45 31.2814 18.6063C31.1068 18.7304 30.9011 18.7966 30.6816 18.7966C30.3652 18.7966 30.0748 18.659 29.8847 18.4195L27.5457 15.4497L27.2 15.7793V17.8673C27.2 18.394 26.7523 18.8221 26.2025 18.8221C25.6545 18.8221 25.2051 18.394 25.2051 17.8673V11.3264C25.2051 10.7963 25.6545 10.3682 26.2025 10.3682C26.7523 10.3682 27.2 10.7963 27.2 11.3264V13.3821L29.9815 10.7147C30.1249 10.5771 30.322 10.5024 30.5364 10.5024C30.7836 10.5024 31.0342 10.6043 31.2209 10.7844C31.3973 10.9492 31.501 11.165 31.5148 11.3892C31.5304 11.6152 31.4509 11.8225 31.2953 11.972L29.022 14.15L31.4785 17.2676C31.6376 17.4714 31.705 17.7229 31.6687 17.976Z" fill="white"/>
<path fill-rule="evenodd" clip-rule="evenodd" d="M23.8611 18.6947H20.663C20.1357 18.6947 19.707 18.3005 19.707 17.8163V11.3264C19.707 10.7963 20.1634 10.3682 20.7252 10.3682C21.2853 10.3682 21.7434 10.7963 21.7434 11.3264V16.9431H23.8611C24.3901 16.9431 24.8188 17.3355 24.8188 17.8163C24.8188 18.3005 24.3901 18.6947 23.8611 18.6947Z" fill="white"/>
<path fill-rule="evenodd" clip-rule="evenodd" d="M18.8206 18.6914C18.6252 18.7781 18.4057 18.8222 18.1861 18.8222C17.7712 18.8222 17.4514 18.6574 17.3563 18.3992L16.8654 17.1624H13.8212L13.3302 18.4009C13.2317 18.6591 12.9136 18.8222 12.497 18.8222C12.2774 18.8222 12.0579 18.7781 11.8643 18.6897C11.5894 18.5691 11.3232 18.2327 11.6275 17.3323L14.0131 11.3146C14.1825 10.8576 14.6924 10.3836 15.3424 10.3683C15.9941 10.3836 16.5058 10.8576 16.6718 11.3146L19.0557 17.3306C19.3599 18.2327 19.0971 18.5708 18.8206 18.6914ZM10.441 17.9217C10.441 18.4262 9.99329 18.8357 9.4453 18.8357C8.89212 18.8357 8.44438 18.4262 8.44438 17.9217V12.2421H6.88856C6.35093 12.2421 5.91357 11.8225 5.91357 11.3043C5.91357 10.7912 6.35093 10.3682 6.88856 10.3682H11.9951C12.5362 10.3682 12.977 10.7912 12.977 11.3043C12.977 11.8225 12.5362 12.2421 11.9951 12.2421H10.441V17.9217ZM14.3459 15.4667H16.3374L15.3417 12.7518L14.3459 15.4667Z" fill="white"/>
</svg>
