<svg width="50" height="50" viewBox="0 0 50 50" fill="none" xmlns="http://www.w3.org/2000/svg">
<path d="M16.2789 18.5C16.9853 18.5 17.5579 17.9404 17.5579 17.25C17.5579 16.5596 16.9853 16 16.2789 16C15.5726 16 15 16.5596 15 17.25C15 17.9404 15.5726 18.5 16.2789 18.5Z" fill="white"/>
<path d="M33.25 21.5C33.9404 21.5 34.5 20.9404 34.5 20.25C34.5 19.5596 33.9404 19 33.25 19C32.5596 19 32 19.5596 32 20.25C32 20.9404 32.5596 21.5 33.25 21.5Z" fill="white"/>
<path d="M41.1447 22.9423C41.2594 22.6221 41.3333 22.2827 41.3333 21.9231V18.8462C41.3333 17.1471 39.9411 15.7692 38.2222 15.7692C36.8523 15.7692 35.5826 15.7692 34.3333 15.7692V14.2308H35.1111C36.829 14.2308 38.2222 12.8529 38.2222 11.1538C38.2222 9.45481 36.829 8.07692 35.1111 8.07692H32C31.4118 8.07692 30.8673 8.24808 30.3987 8.52885C30.4211 8.38077 30.4444 8.23173 30.4444 8.07692C30.4444 6.37788 29.0512 5 27.3333 5H24.2222C23.0419 5 22.0269 5.65769 21.5 6.61635C20.973 5.65769 19.959 5 18.7778 5H15.6667C13.9487 5 12.5555 6.37788 12.5555 8.07692C12.5555 9.77596 13.9487 11.1538 15.6667 11.1538V12.6923C14.4076 12.6923 13.1379 12.6923 11.7778 12.6923C10.0599 12.6923 8.66666 14.0702 8.66666 15.7692V20.0163C5.82486 22.2721 4 25.7308 4 29.6154C4 36.4106 9.57472 41.9192 16.4444 41.9231C18.4424 41.9231 20.3236 41.4481 21.9939 40.6154L21.1792 39.3058C20.4043 39.6769 19.5799 39.9596 18.7165 40.1413C18.7554 39.974 18.7807 39.801 18.7807 39.6221C18.7807 39.2558 18.6864 38.9135 18.5328 38.6058C19.3135 38.4279 20.0553 38.1519 20.7475 37.7933C20.7329 37.7712 20.2983 37.1096 20.1836 36.3558C19.0753 36.9644 17.8036 37.3144 16.4483 37.3144C12.1628 37.3106 8.67055 33.8615 8.67055 29.6221C8.67055 25.3827 12.156 21.9337 16.4415 21.9298H16.458C18.8254 21.9327 20.9439 22.9894 22.3682 24.6471C22.3682 24.6471 22.3682 24.6471 22.3682 24.6462C22.3682 24.6462 22.9642 23.8702 23.4542 23.5462C22.8912 22.9106 22.2437 22.351 21.5253 21.8875C22.1455 21.8058 22.7036 21.5481 23.1518 21.1596C23.6476 21.5452 24.1065 21.9731 24.5265 22.4356L24.5985 20.3365C24.4147 20.1788 24.228 20.025 24.0355 19.8779C24.1522 19.5548 24.2261 19.2135 24.2261 18.851V15.774C24.2261 14.075 22.8339 12.6971 21.115 12.6971C19.7451 12.6971 18.4754 12.6971 17.2261 12.6971V11.1587H18.7817C19.9629 11.1587 20.9769 10.501 21.5039 9.54231C22.0308 10.501 23.0458 11.1587 24.2261 11.1587H27.3372C27.9254 11.1587 28.4698 10.9875 28.9385 10.7067C28.9161 10.8548 28.8928 11.0038 28.8928 11.1587C28.8928 12.8577 30.286 14.2356 32.0039 14.2356H32.7816V15.774C31.5226 15.774 30.2529 15.774 28.8928 15.774C27.1748 15.774 25.7817 17.1519 25.7817 18.851V21.4654V21.4894V23.2154C25.7817 23.2154 25.4793 23.3683 25.3597 23.4702C25.3597 23.4702 25.3597 23.4712 25.3607 23.4712C24.966 23.8144 24.5946 24.1808 24.2475 24.5692C24.2475 24.5692 23.5718 25.3308 23.2286 25.8644C21.9015 27.8192 21.116 30.1635 21.116 32.6962C21.116 33.6587 21.2394 34.5904 21.4504 35.4894C21.4494 35.4904 21.4485 35.4913 21.4475 35.4913C21.4494 35.4913 21.4514 35.4913 21.4514 35.4913C21.4514 35.4913 21.7926 36.8558 21.9355 37.0577C21.9355 37.0577 21.9355 37.0577 21.9365 37.0577C22.1261 37.5519 22.338 38.0356 22.5879 38.4971C22.5879 38.4971 23.2121 39.6529 23.4017 39.7971C23.4046 39.7952 23.4065 39.7942 23.4094 39.7923C25.665 42.9356 29.3662 44.9942 33.5585 44.9971C40.4311 44.9971 46.0029 39.4865 46.0029 32.6894C46 28.7212 44.0964 25.1923 41.1447 22.9423ZM21.114 14.2375C21.9715 14.2375 22.6696 14.9279 22.6696 15.776V18.8529C22.6696 19.701 21.9715 20.3913 21.114 20.3913H16.4396C11.2975 20.3962 7.11403 24.5365 7.11403 29.6221C7.11403 34.7077 11.3004 38.8481 16.4474 38.8529C16.8761 38.8529 17.2251 39.1981 17.2251 39.6221C17.2251 40.0462 16.8761 40.3913 16.4483 40.3913C10.4439 40.3885 5.55847 35.5567 5.55847 29.6221C5.55847 26.3442 7.04694 23.2827 9.64277 21.2231L10.2251 20.7615V20.0231V15.776C10.2251 14.9279 10.9232 14.2375 11.7807 14.2375H21.114ZM18.7807 9.62212H17.2251V8.85288C17.2251 8.42788 16.8771 8.08365 16.4474 8.08365C16.0176 8.08365 15.6696 8.42788 15.6696 8.85288V9.62212C14.7255 9.62212 13.975 8.78654 14.1354 7.82404C14.2618 7.06731 14.9822 6.54519 15.7571 6.54519H18.6932C19.468 6.54519 20.1885 7.06731 20.3148 7.82308C20.4743 8.78654 19.7247 9.62212 18.7807 9.62212ZM27.3362 9.62212H24.2251C23.3676 9.62212 22.6696 8.93173 22.6696 8.08365C22.6696 7.23558 23.3676 6.54519 24.2251 6.54519H27.3362C28.1937 6.54519 28.8918 7.23558 28.8918 8.08365C28.8918 8.93173 28.1937 9.62212 27.3362 9.62212ZM32.0904 12.699C31.3155 12.699 30.5951 12.1769 30.4687 11.4202C30.3083 10.4577 31.0589 9.62212 32.0029 9.62212H35.0265C35.8014 9.62212 36.5218 10.1442 36.6472 10.9C36.8076 11.8625 36.0571 12.699 35.113 12.699H34.3353V11.9298C34.3353 11.5048 33.9872 11.1606 33.5575 11.1606C33.1278 11.1606 32.7797 11.5048 32.7797 11.9298V12.699H32.0904ZM33.5594 43.4683C27.555 43.4654 22.6696 38.6337 22.6696 32.699C22.6696 29.4212 24.158 26.3596 26.7539 24.3L27.3362 23.8385V23.1V18.8529C27.3362 18.0048 28.0343 17.3144 28.8918 17.3144H38.2251C39.0826 17.3144 39.7807 18.0048 39.7807 18.8529V21.9298C39.7807 22.7779 39.0826 23.4683 38.2251 23.4683H33.5507C28.4086 23.4731 24.2251 27.6135 24.2251 32.699C24.2251 37.7846 28.4115 41.925 33.5585 41.9298C33.9872 41.9298 34.3362 42.275 34.3362 42.699C34.3362 43.1231 33.9872 43.4683 33.5594 43.4683ZM41.3518 32.6558C41.3518 34.1279 40.9357 35.5038 40.2143 36.675C38.8503 38.901 36.3769 40.3913 33.5585 40.3913C33.5526 40.3913 33.5478 40.3913 33.5419 40.3913C33.538 40.3913 33.5341 40.3913 33.5303 40.3913C33.506 40.3913 33.4826 40.3894 33.4583 40.3894C33.3864 40.3885 33.3144 40.3865 33.2425 40.3837C29.0561 40.2337 25.7078 36.8317 25.7078 32.6548C25.7078 28.3827 29.2097 24.9192 33.5293 24.9192C37.8498 24.9192 41.3518 28.3827 41.3518 32.6558ZM35.8276 43.2183C35.8665 43.051 35.8918 42.8788 35.8918 42.7C35.8918 42.3346 35.7985 41.9933 35.6448 41.6856C39.7884 40.7452 42.8918 37.0798 42.8918 32.7C42.8918 29.4606 41.1904 26.6135 38.6296 24.9673C39.2566 24.8856 39.8205 24.625 40.2716 24.2317C42.8111 26.2048 44.4473 29.2654 44.4473 32.7C44.4473 37.8663 40.7441 42.1817 35.8276 43.2183Z" fill="white"/>
<path d="M33.5309 40.3916C33.5348 40.3916 33.5387 40.3916 33.5426 40.3916C33.5144 40.3916 33.4862 40.3906 33.459 40.3896C33.4823 40.3906 33.5066 40.3916 33.5309 40.3916Z" fill="white"/>
</svg>
