<svg width="50" height="50" viewBox="0 0 50 50" fill="none" xmlns="http://www.w3.org/2000/svg">
<path d="M7.00009 19.4971C7.00009 18.9448 7.44781 18.4971 8.00009 18.4971H28.66C28.8266 18.4971 28.9906 18.5387 29.137 18.6182L37.4771 23.1447C37.7994 23.3196 38.0001 23.6569 38.0001 24.0236V39.9971C38.0001 40.5494 37.5524 40.9971 37.0001 40.9971H14.2838C14.0768 40.9971 13.8749 40.9328 13.7059 40.8132L7.42226 36.3645C7.15748 36.177 7.00009 35.8727 7.00009 35.5483V19.4971Z" fill="black"/>
<path fill-rule="evenodd" clip-rule="evenodd" d="M8.50009 19.9971V35.2897L14.4429 39.4971H36.5001V24.3211L28.5331 19.9971H8.50009ZM8.00009 18.4971C7.44781 18.4971 7.00009 18.9448 7.00009 19.4971V35.5483C7.00009 35.8727 7.15748 36.177 7.42226 36.3645L13.7059 40.8132C13.8749 40.9328 14.0768 40.9971 14.2838 40.9971H37.0001C37.5524 40.9971 38.0001 40.5494 38.0001 39.9971V24.0236C38.0001 23.6569 37.7994 23.3196 37.4771 23.1447L29.137 18.6182C28.9906 18.5387 28.8266 18.4971 28.66 18.4971H8.00009Z" fill="#FB6D3A"/>
<path fill-rule="evenodd" clip-rule="evenodd" d="M17.2553 27.5459C17.2553 27.1317 17.5911 26.7959 18.0053 26.7959L23.2204 26.7959C23.6346 26.7959 23.9704 27.1317 23.9704 27.5459C23.9704 27.9601 23.6346 28.2959 23.2204 28.2959L18.0053 28.2959C17.5911 28.2959 17.2553 27.9601 17.2553 27.5459Z" fill="#FB6D3A"/>
<path fill-rule="evenodd" clip-rule="evenodd" d="M14.5001 22.7471C14.9143 22.7471 15.2501 23.0829 15.2501 23.4971L15.2501 39.7471C15.2501 40.1613 14.9143 40.4971 14.5001 40.4971C14.0859 40.4971 13.7501 40.1613 13.7501 39.7471L13.7501 23.4971C13.7501 23.0829 14.0859 22.7471 14.5001 22.7471Z" fill="#FB6D3A"/>
<path fill-rule="evenodd" clip-rule="evenodd" d="M38.7501 23.4971C38.7501 23.9113 38.4143 24.2471 38.0001 24.2471L14.5001 24.2471C14.0859 24.2471 13.7501 23.9113 13.7501 23.4971C13.7501 23.0829 14.0859 22.7471 14.5001 22.7471L38.0001 22.7471C38.4143 22.7471 38.7501 23.0829 38.7501 23.4971Z" fill="#FB6D3A"/>
<path d="M26.9207 21.0738C26.7189 20.4115 27.2095 19.7236 27.9019 19.7236H40.0513C40.7437 19.7236 41.2343 20.4115 41.0325 21.0738C40.5902 22.5253 39.974 24.8549 39.974 26.5685C39.974 28.2821 40.5902 30.6116 41.0325 32.0631C41.2343 32.7254 40.7437 33.4133 40.0513 33.4133H27.9019C27.2095 33.4133 26.7189 32.7254 26.9207 32.0631C27.363 30.6116 27.9792 28.2821 27.9792 26.5685C27.9792 24.8549 27.363 22.5253 26.9207 21.0738Z" fill="black"/>
<path fill-rule="evenodd" clip-rule="evenodd" d="M26.2033 21.2925C25.8605 20.1677 26.6856 18.9736 27.9019 18.9736H40.0513C41.2676 18.9736 42.0927 20.1677 41.7499 21.2925C41.3067 22.7468 40.724 24.9791 40.724 26.5685C40.724 28.1578 41.3067 30.3901 41.7499 31.8445C42.0927 32.9693 41.2676 34.1633 40.0513 34.1633H27.9019C26.6856 34.1633 25.8605 32.9693 26.2033 31.8445C26.6465 30.3901 27.2292 28.1578 27.2292 26.5685C27.2292 24.9791 26.6465 22.7468 26.2033 21.2925ZM27.9019 20.4736C27.7334 20.4736 27.5772 20.6553 27.6381 20.8552C28.0796 22.3039 28.7292 24.7306 28.7292 26.5685C28.7292 28.4063 28.0796 30.8331 27.6381 32.2818C27.5772 32.4816 27.7334 32.6633 27.9019 32.6633H40.0513C40.2198 32.6633 40.376 32.4816 40.3151 32.2818C39.8736 30.8331 39.224 28.4063 39.224 26.5685C39.224 24.7306 39.8736 22.3039 40.3151 20.8552C40.376 20.6553 40.2198 20.4736 40.0513 20.4736H27.9019Z" fill="#FB6D3A"/>
<path d="M24.5242 31.1533C24.5242 30.601 24.9719 30.1533 25.5242 30.1533H42.429C42.9813 30.1533 43.429 30.601 43.429 31.1533V42.843C43.429 43.3953 42.9813 43.843 42.429 43.843H25.5242C24.9719 43.843 24.5242 43.3953 24.5242 42.843V31.1533Z" fill="black"/>
<path fill-rule="evenodd" clip-rule="evenodd" d="M23.7742 31.1533C23.7742 30.1868 24.5577 29.4033 25.5242 29.4033H42.429C43.3955 29.4033 44.179 30.1868 44.179 31.1533V42.843C44.179 43.8095 43.3955 44.593 42.429 44.593H25.5242C24.5577 44.593 23.7742 43.8095 23.7742 42.843V31.1533ZM25.5242 30.9033C25.3861 30.9033 25.2742 31.0152 25.2742 31.1533V42.843C25.2742 42.9811 25.3861 43.093 25.5242 43.093H42.429C42.5671 43.093 42.679 42.9811 42.679 42.843V31.1533C42.679 31.0152 42.5671 30.9033 42.429 30.9033H25.5242Z" fill="#FB6D3A"/>
<path d="M24.5242 8.98926C24.5242 8.43697 24.9719 7.98926 25.5242 7.98926H42.429C42.9813 7.98926 43.429 8.43697 43.429 8.98926V20.679C43.429 21.2312 42.9813 21.679 42.429 21.679H25.5242C24.9719 21.679 24.5242 21.2312 24.5242 20.679V8.98926Z" fill="black"/>
<path fill-rule="evenodd" clip-rule="evenodd" d="M23.7742 8.98926C23.7742 8.02276 24.5577 7.23926 25.5242 7.23926H42.429C43.3955 7.23926 44.179 8.02276 44.179 8.98926V20.679C44.179 21.6455 43.3955 22.429 42.429 22.429H25.5242C24.5577 22.429 23.7742 21.6455 23.7742 20.679V8.98926ZM25.5242 8.73926C25.3861 8.73926 25.2742 8.85119 25.2742 8.98926V20.679C25.2742 20.817 25.3861 20.929 25.5242 20.929H42.429C42.5671 20.929 42.679 20.817 42.679 20.679V8.98926C42.679 8.85119 42.5671 8.73926 42.429 8.73926H25.5242Z" fill="#FB6D3A"/>
<path d="M30.3912 7.48926C30.3912 7.7654 30.6151 7.98926 30.8912 7.98926H36.4101C36.6863 7.98926 36.9101 7.7654 36.9101 7.48926V6.3817C36.9101 5.82941 36.4624 5.3817 35.9101 5.3817H31.3912C30.8389 5.3817 30.3912 5.82941 30.3912 6.3817V7.48926Z" fill="black"/>
<path fill-rule="evenodd" clip-rule="evenodd" d="M29.6412 7.48926C29.6412 8.17961 30.2008 8.73926 30.8912 8.73926H36.4101C37.1005 8.73926 37.6601 8.17961 37.6601 7.48926V6.3817C37.6601 5.4152 36.8766 4.6317 35.9101 4.6317H31.3912C30.4247 4.6317 29.6412 5.4152 29.6412 6.3817V7.48926ZM31.1412 7.23926V6.3817C31.1412 6.24362 31.2531 6.1317 31.3912 6.1317H35.9101C36.0482 6.1317 36.1601 6.24362 36.1601 6.3817V7.23926H31.1412Z" fill="#FB6D3A"/>
<path fill-rule="evenodd" clip-rule="evenodd" d="M25.7299 12.5527C25.7299 12.1385 26.0656 11.8027 26.4799 11.8027L36.2582 11.8027C36.6724 11.8027 37.0082 12.1385 37.0082 12.5527C37.0082 12.9669 36.6724 13.3027 36.2582 13.3027L26.4799 13.3027C26.0656 13.3027 25.7299 12.9669 25.7299 12.5527Z" fill="#FB6D3A"/>
<path fill-rule="evenodd" clip-rule="evenodd" d="M38.1158 12.5527C38.1158 12.1385 38.4516 11.8027 38.8658 11.8027L40.8215 11.8027C41.2357 11.8027 41.5715 12.1385 41.5715 12.5527C41.5715 12.9669 41.2357 13.3027 40.8215 13.3027L38.8658 13.3027C38.4516 13.3027 38.1158 12.9669 38.1158 12.5527Z" fill="#FB6D3A"/>
<path fill-rule="evenodd" clip-rule="evenodd" d="M15.1392 23.8898C14.9222 24.2426 14.4602 24.3528 14.1074 24.1358L7.66734 20.175C7.31451 19.958 7.2044 19.4961 7.42139 19.1433C7.63839 18.7904 8.10032 18.6803 8.45314 18.8973L14.8932 22.8581C15.246 23.0751 15.3562 23.537 15.1392 23.8898Z" fill="#FB6D3A"/>
</svg>
