<svg width="60" height="60" viewBox="0 0 60 60" fill="none" xmlns="http://www.w3.org/2000/svg">
<rect width="60" height="60" rx="16" fill="#001E36"/>
<path d="M13.8375 42.0773V15.6927C13.8375 15.5132 13.9144 15.4107 14.0938 15.4107C14.5294 15.4107 14.9394 15.4107 15.5288 15.385C16.1438 15.3594 16.7844 15.3594 17.4763 15.3338C18.1681 15.3081 18.9113 15.3081 19.7056 15.2825C20.5 15.2568 21.2688 15.2568 22.0375 15.2568C24.1388 15.2568 25.8813 15.5132 27.3163 16.0517C28.5975 16.4876 29.7763 17.2056 30.75 18.1543C31.57 18.9748 32.2106 19.9748 32.6206 21.0773C33.005 22.1543 33.21 23.2568 33.21 24.4107C33.21 26.6158 32.6975 28.4363 31.6725 29.8722C30.6475 31.3081 29.2125 32.385 27.5469 33.0004C25.8044 33.6414 23.8825 33.8722 21.7813 33.8722C21.1663 33.8722 20.7563 33.8722 20.5 33.8466C20.2438 33.8209 19.885 33.8209 19.3981 33.8209V42.0517C19.4238 42.2312 19.2956 42.385 19.1163 42.4107H14.145C13.94 42.4107 13.8375 42.3081 13.8375 42.0773ZM19.4238 20.3594V28.9748C19.7825 29.0004 20.1156 29.0261 20.4231 29.0261H21.7813C22.7806 29.0261 23.78 28.8722 24.7281 28.5645C25.5481 28.3338 26.2656 27.8466 26.8294 27.2056C27.3675 26.5645 27.6238 25.6927 27.6238 24.5645C27.6494 23.7697 27.4444 22.9748 27.0344 22.2825C26.5988 21.6158 25.9838 21.103 25.2406 20.8209C24.2925 20.4363 23.2675 20.2825 22.2169 20.3081C21.5506 20.3081 20.9613 20.3081 20.4744 20.3338C19.9619 20.3081 19.6031 20.3338 19.4238 20.3594Z" fill="#31A8FF"/>
<path d="M49.2 27.4111C48.4312 27.0008 47.6112 26.7188 46.74 26.5393C45.7919 26.3342 44.8437 26.206 43.87 26.206C43.3575 26.1803 42.8194 26.2572 42.3325 26.3854C41.9994 26.4624 41.7175 26.6419 41.5381 26.8983C41.41 27.1034 41.3331 27.3598 41.3331 27.5906C41.3331 27.8213 41.4356 28.0521 41.5894 28.2572C41.82 28.5393 42.1275 28.7701 42.4606 28.9495C43.05 29.2572 43.665 29.5393 44.28 29.7957C45.6637 30.2572 46.9962 30.8983 48.2262 31.6675C49.0719 32.206 49.7637 32.9239 50.2506 33.7957C50.6606 34.6162 50.8656 35.5136 50.84 36.4367C50.8656 37.6419 50.5069 38.847 49.8406 39.847C49.1231 40.8726 48.1237 41.6675 46.9706 42.129C45.715 42.6675 44.1775 42.9495 42.3325 42.9495C41.1537 42.9495 40.0006 42.847 38.8475 42.6162C37.9506 42.4624 37.0537 42.1803 36.2337 41.7957C36.0544 41.6931 35.9262 41.5136 35.9519 41.3085V36.847C35.9519 36.7701 35.9775 36.6675 36.0544 36.6162C36.1312 36.5649 36.2081 36.5906 36.285 36.6418C37.2844 37.2316 38.335 37.6419 39.4625 37.8983C40.4362 38.1547 41.4612 38.2829 42.4862 38.2829C43.5112 38.2829 44.1519 38.1547 44.6131 37.9239C45.0231 37.7444 45.305 37.3085 45.305 36.847C45.305 36.488 45.1 36.1547 44.69 35.8213C44.28 35.488 43.4344 35.1034 42.1787 34.6162C40.8719 34.1547 39.6675 33.5393 38.54 32.7701C37.7456 32.206 37.0794 31.4624 36.5925 30.5906C36.1825 29.7701 35.9775 28.8726 36.0031 27.9752C36.0031 26.8726 36.3106 25.8213 36.8744 24.8726C37.515 23.847 38.4631 23.0265 39.565 22.5136C40.7694 21.8983 42.2812 21.6162 44.1006 21.6162C45.1512 21.6162 46.2275 21.6931 47.2781 21.847C48.0469 21.9495 48.79 22.1547 49.4819 22.4367C49.5844 22.4624 49.6869 22.5649 49.7381 22.6675C49.7637 22.7701 49.7894 22.8726 49.7894 22.9752V27.1547C49.7894 27.2572 49.7381 27.3598 49.6612 27.4111C49.4306 27.4624 49.3025 27.4624 49.2 27.4111Z" fill="#31A8FF"/>
</svg>
