<svg width="80" height="80" viewBox="0 0 80 80" fill="none" xmlns="http://www.w3.org/2000/svg">
<path d="M5.83057 17.2204C5.83057 15.1236 7.53035 13.4238 9.62713 13.4238H70.3722C72.469 13.4238 74.1687 15.1236 74.1687 17.2204V43.7964C74.1687 45.8931 72.469 47.5929 70.3722 47.5929H9.62713C7.53035 47.5929 5.83057 45.8931 5.83057 43.7964V17.2204Z" fill="black"/>
<path fill-rule="evenodd" clip-rule="evenodd" d="M4.40674 17.2203C4.40674 14.3372 6.74394 12 9.62702 12H70.3721C73.2551 12 75.5923 14.3372 75.5923 17.2203V43.7962C75.5923 46.6793 73.2551 49.0165 70.3721 49.0165H9.62702C6.74394 49.0165 4.40674 46.6793 4.40674 43.7962V17.2203ZM9.62702 14.8474C8.31652 14.8474 7.25416 15.9098 7.25416 17.2203V43.7962C7.25416 45.1067 8.31653 46.1691 9.62702 46.1691H70.3721C71.6826 46.1691 72.7449 45.1067 72.7449 43.7962V17.2203C72.7449 15.9098 71.6826 14.8474 70.3721 14.8474H9.62702Z" fill="white"/>
<path d="M13.4236 45.695C13.4236 43.5982 15.1234 41.8984 17.2201 41.8984H62.7789C64.8757 41.8984 66.5755 43.5982 66.5755 45.695V49.4916C66.5755 51.5884 64.8757 53.2881 62.7789 53.2881H17.2202C15.1234 53.2881 13.4236 51.5884 13.4236 49.4916V45.695Z" fill="black"/>
<path fill-rule="evenodd" clip-rule="evenodd" d="M11.9998 45.6949C11.9998 42.8118 14.337 40.4746 17.22 40.4746H62.7788C65.6619 40.4746 67.9991 42.8118 67.9991 45.6949V49.4915C67.9991 52.3745 65.6619 54.7117 62.7788 54.7117H17.22C14.337 54.7117 11.9998 52.3745 11.9998 49.4915V45.6949ZM17.22 43.322C15.9095 43.322 14.8472 44.3844 14.8472 45.6949V49.4915C14.8472 50.8019 15.9095 51.8643 17.22 51.8643H62.7788C64.0893 51.8643 65.1517 50.8019 65.1517 49.4915V45.6949C65.1517 44.3844 64.0893 43.322 62.7788 43.322H17.22Z" fill="white"/>
<path fill-rule="evenodd" clip-rule="evenodd" d="M20.3513 47.5927C20.3513 46.8064 20.9887 46.1689 21.775 46.1689L44.5544 46.1689C45.3407 46.1689 45.9781 46.8064 45.9781 47.5927C45.9781 48.379 45.3407 49.0164 44.5544 49.0164L21.775 49.0164C20.9887 49.0164 20.3513 48.379 20.3513 47.5927Z" fill="white"/>
<path fill-rule="evenodd" clip-rule="evenodd" d="M51.1038 47.5927C51.1038 46.8064 51.7412 46.1689 52.5275 46.1689L58.2223 46.1689C59.0086 46.1689 59.646 46.8064 59.646 47.5927C59.646 48.379 59.0086 49.0164 58.2223 49.0164L52.5275 49.0164C51.7412 49.0164 51.1038 48.379 51.1038 47.5927Z" fill="white"/>
<path d="M14.9423 23.1049C14.9423 24.0485 14.1774 24.8134 13.2338 24.8134C12.2903 24.8134 11.5254 24.0485 11.5254 23.1049C11.5254 22.1614 12.2903 21.3965 13.2338 21.3965C14.1774 21.3965 14.9423 22.1614 14.9423 23.1049Z" fill="#EF7300"/>
<path d="M20.6371 23.1049C20.6371 24.0485 19.8722 24.8134 18.9287 24.8134C17.9851 24.8134 17.2202 24.0485 17.2202 23.1049C17.2202 22.1614 17.9851 21.3965 18.9287 21.3965C19.8722 21.3965 20.6371 22.1614 20.6371 23.1049Z" fill="#EF7300"/>
<path fill-rule="evenodd" clip-rule="evenodd" d="M21.0169 59.457C21.8032 59.457 22.4406 60.0944 22.4406 60.8807C22.4406 61.6977 22.3358 62.9684 22.016 64.2107C21.7143 65.383 21.1372 66.8717 19.9537 67.7287C19.3168 68.1899 18.4267 68.0475 17.9655 67.4106C17.5043 66.7738 17.6468 65.8836 18.2836 65.4225C18.6187 65.1798 18.9908 64.5411 19.2585 63.5009C19.5082 62.5308 19.5932 61.5038 19.5932 60.8807C19.5932 60.0944 20.2306 59.457 21.0169 59.457Z" fill="white"/>
<path fill-rule="evenodd" clip-rule="evenodd" d="M34.3048 59.457C35.0911 59.457 35.7285 60.0944 35.7285 60.8807C35.7285 61.6977 35.6236 62.9684 35.3039 64.2107C35.0021 65.383 34.4251 66.8717 33.2415 67.7287C32.6046 68.1899 31.7145 68.0475 31.2534 67.4106C30.7922 66.7738 30.9346 65.8836 31.5715 65.4225C31.9065 65.1798 32.2786 64.5411 32.5463 63.5009C32.796 62.5308 32.8811 61.5038 32.8811 60.8807C32.8811 60.0944 33.5185 59.457 34.3048 59.457Z" fill="white"/>
<path fill-rule="evenodd" clip-rule="evenodd" d="M58.982 59.457C58.1957 59.457 57.5583 60.0944 57.5583 60.8807C57.5583 61.8045 57.7922 63.1802 58.4755 64.5075C59.1723 65.861 60.3684 67.2171 62.2938 67.9143C63.0332 68.1819 63.8495 67.7996 64.1172 67.0603C64.3849 66.321 64.0026 65.5046 63.2632 65.2369C62.1515 64.8344 61.4493 64.0631 61.0071 63.2042C60.5514 62.319 60.4057 61.3971 60.4057 60.8807C60.4057 60.0944 59.7683 59.457 58.982 59.457Z" fill="white"/>
<path fill-rule="evenodd" clip-rule="evenodd" d="M45.6943 59.457C44.908 59.457 44.2705 60.0944 44.2705 60.8807C44.2705 61.6977 44.3754 62.9684 44.6951 64.2107C44.9969 65.383 45.574 66.8717 46.7575 67.7287C47.3944 68.1899 48.2845 68.0475 48.7457 67.4106C49.2068 66.7738 49.0644 65.8836 48.4276 65.4225C48.0925 65.1798 47.7204 64.5411 47.4527 63.5009C47.203 62.5308 47.118 61.5038 47.118 60.8807C47.118 60.0944 46.4806 59.457 45.6943 59.457Z" fill="white"/>
<path fill-rule="evenodd" clip-rule="evenodd" d="M56.1346 19.5928C56.9209 19.5928 57.5584 20.2302 57.5584 21.0165L57.5584 28.6096C57.5584 29.3959 56.9209 30.0333 56.1346 30.0333C55.3484 30.0333 54.7109 29.3959 54.7109 28.6096L54.7109 21.0165C54.7109 20.2302 55.3484 19.5928 56.1346 19.5928Z" fill="#EF7300"/>
<path fill-rule="evenodd" clip-rule="evenodd" d="M59.4565 21.0165C59.4565 20.2302 60.094 19.5928 60.8803 19.5928H64.6768C65.1152 19.5928 65.5292 19.7948 65.799 20.1403C66.0688 20.4859 66.1644 20.9365 66.058 21.3618L64.1597 28.9549C63.969 29.7177 63.1961 30.1815 62.4332 29.9908C61.6704 29.8001 61.2066 29.0271 61.3973 28.2643L62.8534 22.4402H60.8803C60.094 22.4402 59.4565 21.8028 59.4565 21.0165Z" fill="#EF7300"/>
</svg>
