<svg width="50" height="50" viewBox="0 0 50 50" fill="none" xmlns="http://www.w3.org/2000/svg">
<path fill-rule="evenodd" clip-rule="evenodd" d="M34.2017 15.7239C34.2792 15.5789 34.3216 15.4101 34.3202 15.2457C34.2406 6.45282 30.0183 4 24.8213 4C19.6209 4 15.3965 6.45604 15.3223 15.2631C15.321 15.4164 15.358 15.5745 15.4259 15.7119C18.4296 21.7897 19.6344 23.5 24.8213 23.5C24.8677 23.5 24.9137 23.4999 24.9595 23.4996C24.9965 23.4999 25.0337 23.5 25.0713 23.5C25.4325 23.5 25.7649 23.4874 26.0727 23.4602C30.1868 23.1728 31.2404 21.2684 34.2017 15.7239ZM26.0727 23.4602C28.8943 23.2108 29.6547 21.7375 31.7169 17.5578C31.7848 17.4202 31.8223 17.2667 31.8181 17.1133C31.7081 13.0298 28.7295 8.5 25.0713 8.5C21.4082 8.5 18.4266 13.0418 18.324 17.1296C18.3204 17.2725 18.353 17.4159 18.4124 17.546C20.5127 22.1438 21.3778 23.4729 24.9595 23.4996C25.3545 23.4972 25.7245 23.4845 26.0727 23.4602Z" fill="#1B1322"/>
<path fill-rule="evenodd" clip-rule="evenodd" d="M18.6797 6.85932C17.1563 8.38225 16.1085 10.9725 16.0723 15.2694C16.072 15.303 16.0813 15.3452 16.0983 15.3796L15.435 15.7074L16.0983 15.3797C17.2508 17.7116 18.0998 19.3113 18.965 20.4157C18.5717 19.6781 18.1728 18.8265 17.7302 17.8576C17.6284 17.6346 17.5675 17.3787 17.5743 17.1108C17.6296 14.9058 18.456 12.6007 19.7592 10.8363C21.0562 9.08036 22.9156 7.75 25.0713 7.75C27.2242 7.75 29.0815 9.07688 30.3782 10.8292C31.6811 12.59 32.5085 14.8907 32.5679 17.0931C32.5686 17.1206 32.5686 17.1481 32.568 17.1753C32.8676 16.6281 33.1889 16.0283 33.5402 15.3705C33.5599 15.3336 33.5705 15.2882 33.5702 15.2525C33.5314 10.9629 32.4829 8.37685 30.9598 6.85629C29.439 5.33797 27.3126 4.75 24.8213 4.75C22.3283 4.75 20.2008 5.33873 18.6797 6.85932ZM26.1317 24.2079C28.3265 24.0536 29.8088 23.4495 31.1126 22.0807C32.3475 20.7842 33.4029 18.8115 34.8633 16.0772C34.9984 15.8242 35.0728 15.5319 35.0701 15.239C35.0294 10.7357 33.9269 7.69884 32.0196 5.79476C30.1102 3.88844 27.5269 3.25 24.8213 3.25C22.1139 3.25 19.529 3.88929 17.6192 5.79849C15.7118 7.70535 14.6103 10.7466 14.5723 15.2568C14.57 15.5299 14.6347 15.8037 14.7535 16.0442C16.2384 19.0487 17.3508 21.1411 18.8044 22.4437C20.3276 23.8086 22.1451 24.25 24.8213 24.25C24.8675 24.25 24.9134 24.2499 24.959 24.2496C24.9962 24.2499 25.0336 24.25 25.0713 24.25C25.4469 24.25 25.7995 24.237 26.1317 24.2079ZM26.0134 22.7125C27.2566 22.6015 27.9598 22.2437 28.6133 21.4911C29.3353 20.6596 29.9952 19.3524 31.0443 17.226C31.064 17.1861 31.0689 17.1527 31.0684 17.1335C31.0177 15.2524 30.3008 13.2465 29.1724 11.7215C28.0377 10.188 26.5767 9.25 25.0713 9.25C23.564 9.25 22.101 10.1906 20.9658 11.7275C19.8368 13.2559 19.121 15.2656 19.0738 17.1484C19.0733 17.1663 19.0777 17.1972 19.0946 17.2343C20.1606 19.568 20.8479 20.908 21.6561 21.702C22.3885 22.4216 23.2743 22.7364 24.96 22.7496C25.3373 22.7472 25.6872 22.7351 26.0134 22.7125Z" fill="white"/>
<path d="M38.9627 40.0656L36.5938 43.3418C36.3036 43.7432 35.8596 43.7895 35.5434 43.4412C33.3216 40.9943 24.9431 31.6973 22.2224 27.6725C19.4964 23.6397 16.0519 17.2324 15.1786 15.5892C15.0439 15.3358 14.992 15.0157 15.0333 14.7005C15.3913 11.9684 15.8595 9.62293 17.3209 7.49997C17.3209 7.49997 22.6287 18.1015 25.7761 22.7576C28.423 26.6732 36.4249 35.5789 38.9029 38.3123C39.2929 38.7424 39.3207 39.5704 38.9627 40.0656Z" fill="#1B1322"/>
<path fill-rule="evenodd" clip-rule="evenodd" d="M17.8172 6.98862L17.3215 7.49993C17.8172 6.98862 17.8172 6.98856 17.8172 6.98862L17.8768 7.10716C17.9161 7.18536 17.9744 7.30091 18.0497 7.44976C18.2003 7.74747 18.4192 8.17835 18.6918 8.7101C19.2371 9.77377 19.9967 11.2402 20.8542 12.8513C22.5752 16.085 24.6699 19.8622 26.2162 22.1497C28.8249 26.0089 36.7817 34.8678 39.2783 37.6217C39.9607 38.3744 40.0084 39.8224 39.3833 40.6869L37.0145 43.9632C36.5114 44.6589 35.7295 44.7487 35.1696 44.132C32.967 41.7063 24.5428 32.3619 21.7836 28.2802C19.0293 24.2057 15.5648 17.7591 14.6937 16.1201C14.4553 15.6717 14.3639 15.1039 14.4365 14.5499C14.8006 11.7711 15.2968 9.2093 16.8907 6.89385L17.3996 6.15459L17.8172 6.98862ZM17.2682 8.88618C16.3081 10.6116 15.9365 12.5222 15.6314 14.8509C15.6214 14.9275 15.6337 14.9998 15.6648 15.0582C16.5403 16.7055 19.9646 23.0736 22.6625 27.0647C25.3447 31.0326 33.6775 40.2823 35.9185 42.7503C35.991 42.8302 36.0971 42.8274 36.1744 42.7204L38.5433 39.4442C38.6343 39.3183 38.6264 39.1103 38.5288 39.0027C36.0694 36.2898 28.0224 27.3374 25.3373 23.3653C23.7362 20.9968 21.6033 17.1452 19.8836 13.9141C19.0207 12.2928 18.2566 10.8179 17.7083 9.74824C17.5403 9.42041 17.3924 9.13057 17.2682 8.88618Z" fill="white"/>
<path d="M10.6802 40.0656L13.0491 43.3418C13.3392 43.7432 13.7883 43.7839 14.1045 43.4356C14.9944 42.4556 16.8621 40.3873 18.9583 38C20.9917 35.6841 24.9768 30.9003 25.0992 30.7534C25.1023 30.7496 25.1035 30.7481 25.106 30.7451L25.1078 30.7428C26.0513 29.5651 26.8571 28.5058 27.4204 27.6725C30.1465 23.6397 33.591 17.2323 34.4643 15.5892C34.599 15.3358 34.6503 15.0158 34.6118 14.6999C34.279 11.9681 34.0333 9.62277 32.572 7.49996C32.572 7.49996 27.0141 18.1015 23.8667 22.7575C21.2199 26.6732 13.218 35.5788 10.7399 38.3122C10.35 38.7424 10.3221 39.5704 10.6802 40.0656Z" fill="#1B1322"/>
<path fill-rule="evenodd" clip-rule="evenodd" d="M32.0837 6.97357L32.5716 7.5C32.0837 6.97357 32.0837 6.9735 32.0837 6.97357L32.0212 7.09239C31.98 7.1707 31.919 7.28636 31.8402 7.43532C31.6827 7.73325 31.4539 8.16438 31.1695 8.6964C30.6006 9.76058 29.8094 11.2277 28.9203 12.8397C27.1366 16.0735 24.9772 19.8565 23.4269 22.1498C20.8182 26.009 12.8615 34.8679 10.3648 37.6218C9.68245 38.3745 9.63476 39.8225 10.2598 40.687L12.6287 43.9632C13.1361 44.665 13.9234 44.738 14.4786 44.1265C15.3699 43.1448 17.2405 41.0735 19.34 38.6823C21.3808 36.358 25.3727 31.566 25.4929 31.4218C25.5002 31.413 25.5047 31.4073 25.5087 31.4024C25.5087 31.4023 25.5086 31.4025 25.5087 31.4024L25.5102 31.4005C26.4575 30.2181 27.2784 29.1399 27.8595 28.2803C30.6138 24.2058 34.0784 17.7592 34.9495 16.1202C35.1887 15.6702 35.2767 15.1059 35.2103 14.5604C35.1974 14.4547 35.1846 14.3491 35.1718 14.2436C34.8596 11.6634 34.5555 9.14999 33.0024 6.89393L32.5046 6.17074L32.0837 6.97357ZM32.6098 8.87751C33.4879 10.5269 33.7093 12.3468 33.9913 14.665C33.9984 14.7228 34.0055 14.781 34.0126 14.8395C34.0231 14.9259 34.0086 15.0014 33.9784 15.0583C33.1029 16.7056 29.6785 23.0737 26.9806 27.0647C26.4352 27.8717 25.6445 28.9122 24.7047 30.0852L24.7033 30.0869C24.5523 30.2682 20.5947 35.0184 18.5759 37.3177C16.4831 39.7012 14.6181 41.7664 13.7297 42.7448C13.6525 42.8299 13.5417 42.8214 13.4687 42.7205L11.0999 39.4443C11.0088 39.3184 11.0168 39.1104 11.1144 39.0028C13.5738 36.2899 21.6208 27.3375 24.3058 23.3654C25.903 21.0027 28.0961 17.1568 29.8783 13.9259C30.772 12.3054 31.567 10.8312 32.1386 9.7621C32.3193 9.42409 32.4777 9.1265 32.6098 8.87751Z" fill="white"/>
<path fill-rule="evenodd" clip-rule="evenodd" d="M28.9055 25.3692C28.557 25.1452 28.093 25.2461 27.869 25.5945C25.8597 28.7201 25.2798 29.4035 23.158 31.9038C22.933 32.1689 22.6906 32.4545 22.4274 32.7656C22.1598 33.0818 22.1992 33.5551 22.5155 33.8226C22.8317 34.0902 23.3049 34.0508 23.5724 33.7345C23.8324 33.4273 24.0725 33.1443 24.2962 32.8808C26.4419 30.3522 27.0681 29.6143 29.1308 26.4057C29.3548 26.0572 29.2539 25.5932 28.9055 25.3692Z" fill="white"/>
</svg>
