<svg width="50" height="50" viewBox="0 0 50 50" fill="none" xmlns="http://www.w3.org/2000/svg">
<path d="M28.926 9.07114L41.0104 9.00748L40.9468 21.092L18.0295 44.0093L6.00865 31.9884L28.926 9.07114Z" fill="black"/>
<path fill-rule="evenodd" clip-rule="evenodd" d="M41.5408 8.47726C41.6824 8.61888 41.7615 8.81126 41.7604 9.01154L41.6968 21.096C41.6957 21.2936 41.6168 21.4827 41.4771 21.6224L18.5598 44.5397C18.2669 44.8326 17.792 44.8326 17.4991 44.5397L5.47832 32.5189C5.18543 32.226 5.18543 31.7511 5.47832 31.4582L28.3956 8.54093C28.5353 8.40124 28.7245 8.32231 28.922 8.32127L41.0065 8.2576C41.2068 8.25655 41.3991 8.33564 41.5408 8.47726ZM29.2383 9.81962L7.06931 31.9886L18.0295 42.9487L40.1984 20.7798L40.2565 9.76157L29.2383 9.81962Z" fill="#FB6D3A"/>
<path d="M14.2165 31.851C14.6768 31.3907 15.105 31.1344 15.5012 31.0822C15.8934 31.0261 16.2674 31.1759 16.6231 31.5316L16.6934 31.602C16.7911 31.6997 16.8729 31.8055 16.9388 31.9194C17.0047 32.0333 17.0487 32.1574 17.0708 32.2916C17.093 32.4179 17.0894 32.5544 17.06 32.7011C17.0307 32.8399 16.9676 32.989 16.8708 33.1483C17.0224 33.0358 17.1757 32.9489 17.3307 32.8877C17.4857 32.8265 17.6422 32.799 17.8004 32.805C17.9586 32.8031 18.1144 32.8388 18.2678 32.9121C18.4213 32.9776 18.5742 33.0865 18.7266 33.2389L18.8204 33.3327C19.1761 33.6884 19.3416 34.078 19.3167 34.5015C19.288 34.9211 19.0395 35.3651 18.5711 35.8334L17.2141 37.1904C17.022 37.3825 16.8527 37.4815 16.7063 37.4872C16.5639 37.4889 16.4008 37.3978 16.2171 37.2141L13.0219 34.0189C12.8382 33.8352 12.7472 33.6721 12.7488 33.5297C12.7546 33.3833 12.8535 33.214 13.0456 33.0219L14.2165 31.851ZM16.8448 36.3167L17.5414 35.6202C17.7095 35.4521 17.8497 35.3001 17.9621 35.1643C18.0785 35.0245 18.1571 34.895 18.1981 34.7759C18.2392 34.6488 18.2406 34.5262 18.2025 34.408C18.1643 34.2898 18.0808 34.1662 17.9518 34.0372L17.8756 33.961C17.7779 33.8633 17.6759 33.7933 17.5696 33.7511C17.4633 33.7088 17.3467 33.7043 17.2197 33.7374C17.0927 33.7706 16.9495 33.8435 16.7899 33.9561C16.6304 34.0688 16.4485 34.2272 16.2444 34.4313L15.6019 35.0738L16.8448 36.3167ZM14.9922 34.4641L15.6166 33.8396C15.7928 33.6635 15.929 33.5116 16.0255 33.3838C16.122 33.2482 16.1808 33.1269 16.2019 33.0198C16.2269 32.9088 16.2163 32.8061 16.17 32.7117C16.1236 32.6173 16.0457 32.5154 15.9363 32.406L15.8835 32.3532C15.6959 32.1656 15.5007 32.1145 15.298 32.2C15.0954 32.2776 14.8319 32.4785 14.5077 32.8027L13.9193 33.3912L14.9922 34.4641Z" fill="#FB6D3A"/>
<path d="M18.1441 27.9234C18.5925 27.475 19.0482 27.2382 19.5112 27.2129C19.9704 27.1837 20.3836 27.3528 20.7511 27.7202L20.8566 27.8258C21.1263 28.0954 21.285 28.3862 21.3327 28.6981C21.3805 29.0021 21.3372 29.3111 21.203 29.6252L23.2669 30.1761C23.4207 30.2177 23.5226 30.2996 23.5725 30.4216C23.6265 30.5396 23.6289 30.6661 23.5799 30.8012C23.5308 30.9363 23.4524 31.046 23.3446 31.1303C23.2368 31.2147 23.106 31.232 22.9524 31.1825L20.5937 30.469C20.5776 30.4929 20.5575 30.5169 20.5335 30.5409C20.5095 30.5649 20.4875 30.5869 20.4675 30.6069L19.777 31.2974L21.1547 32.6752C21.2681 32.7886 21.3121 32.9087 21.2869 33.0355C21.2616 33.1624 21.197 33.2779 21.0929 33.382C20.9888 33.486 20.8734 33.5507 20.7465 33.5759C20.6196 33.6012 20.4995 33.5571 20.3862 33.4438L16.9916 30.0492C16.8079 29.8655 16.7168 29.7024 16.7185 29.56C16.7242 29.4136 16.8232 29.2443 17.0153 29.0522L18.1441 27.9234ZM19.1496 30.6701L19.8521 29.9676C20.1443 29.6754 20.3036 29.4184 20.33 29.1966C20.3564 28.9748 20.2738 28.7681 20.0823 28.5766L20.0061 28.5004C19.8107 28.3049 19.604 28.2184 19.3862 28.2408C19.1685 28.2552 18.9296 28.3926 18.6694 28.6528L17.9008 29.4213L19.1496 30.6701Z" fill="#FB6D3A"/>
<path d="M22.0127 23.9844C22.1168 23.8803 22.2303 23.8137 22.3533 23.7845C22.4763 23.7554 22.6342 23.7812 22.827 23.862L27.5785 25.9114C27.7358 25.9808 27.8336 26.0785 27.8716 26.2046C27.9097 26.3307 27.8943 26.4594 27.8255 26.5908C27.7567 26.7221 27.6605 26.8261 27.537 26.9027C27.4175 26.9753 27.2731 26.9711 27.104 26.8901L25.8177 26.3003L24.3046 27.8134L24.9119 29.1292C24.9812 29.2865 24.9815 29.423 24.9129 29.5385C24.8444 29.6461 24.7465 29.7323 24.6191 29.7971C24.4918 29.8619 24.369 29.8792 24.2507 29.849C24.1324 29.8187 24.0405 29.7269 23.9751 29.5734L21.8963 24.7926C21.8116 24.6038 21.7837 24.4479 21.8129 24.3249C21.8461 24.198 21.9127 24.0845 22.0127 23.9844ZM22.9388 24.9345C23.024 25.0837 23.0975 25.2213 23.1593 25.3471C23.2212 25.465 23.2946 25.6145 23.3794 25.7954L23.9113 26.9637L24.9681 25.907L23.8057 25.3691C23.6169 25.2843 23.4576 25.2091 23.3279 25.1434C23.2021 25.0737 23.0724 25.0041 22.9388 24.9345Z" fill="#FB6D3A"/>
<path d="M27.5814 18.4157C27.6735 18.3237 27.7809 18.267 27.9038 18.2458C28.0227 18.2206 28.135 18.2608 28.2405 18.3664L31.6644 21.7903C31.8482 21.974 31.9372 22.139 31.9315 22.2855C31.9298 22.4279 31.8328 22.5951 31.6407 22.7873C31.5686 22.8593 31.4987 22.9175 31.431 22.9618C31.3632 23.0061 31.2838 23.0348 31.1926 23.0477C31.0976 23.0568 30.983 23.0502 30.8488 23.0281C30.7145 23.006 30.543 22.9665 30.334 22.9096L27.2175 22.0628C27.052 22.0173 26.8924 21.9658 26.7388 21.9083C26.5853 21.8508 26.424 21.7737 26.2551 21.6768L29.2217 24.6434C29.3272 24.749 29.3694 24.8631 29.3482 24.986C29.323 25.105 29.2644 25.2105 29.1723 25.3025C29.0803 25.3946 28.9747 25.4532 28.8558 25.4784C28.7329 25.4996 28.6187 25.4575 28.5132 25.3519L25.0893 21.928C24.9056 21.7443 24.8146 21.5812 24.8163 21.4388C24.822 21.2924 24.9209 21.1232 25.113 20.931C25.1851 20.859 25.255 20.8008 25.3227 20.7565C25.3905 20.7121 25.4719 20.6855 25.5669 20.6764C25.6581 20.6635 25.7707 20.6681 25.905 20.6902C26.0392 20.7123 26.2107 20.7518 26.4197 20.8086L29.5362 21.6555C29.7018 21.701 29.8613 21.7525 30.0149 21.81C30.1685 21.8674 30.3297 21.9446 30.4986 22.0415L27.532 19.0749C27.4265 18.9693 27.3863 18.8571 27.4114 18.7381C27.4327 18.6153 27.4893 18.5078 27.5814 18.4157Z" fill="#FB6D3A"/>
<path d="M30.4428 15.6246C30.7551 15.3124 31.0644 15.0773 31.3708 14.9194C31.6774 14.7536 31.9908 14.6708 32.3112 14.6709C32.6276 14.6671 32.951 14.7503 33.2812 14.9204C33.6114 15.0905 33.9543 15.3534 34.31 15.7091L34.5269 15.926C34.8826 16.2817 35.1455 16.6246 35.3156 16.9548C35.4857 17.285 35.5708 17.6103 35.571 17.9307C35.5672 18.2471 35.4843 18.5606 35.3224 18.871C35.1606 19.1735 34.9236 19.4809 34.6114 19.7932L33.6206 20.7839C33.4285 20.976 33.2592 21.0749 33.1128 21.0806C32.9704 21.0823 32.8074 20.9913 32.6236 20.8076L29.4284 17.6124C29.2447 17.4287 29.1537 17.2656 29.1554 17.1232C29.1611 16.9768 29.26 16.8075 29.4521 16.6154L30.4428 15.6246ZM33.2396 19.8985L33.8761 19.262C34.0963 19.0419 34.2589 18.8323 34.3642 18.6333C34.4734 18.4303 34.5213 18.226 34.5079 18.0205C34.4985 17.811 34.4279 17.5963 34.2961 17.3763C34.1603 17.1525 33.9595 16.9077 33.6938 16.6419L33.5941 16.5422C33.3322 16.2804 33.0894 16.0815 32.8655 15.9458C32.6417 15.81 32.425 15.7375 32.2155 15.7281C32.01 15.7147 31.8057 15.7626 31.6027 15.8719C31.4037 15.9771 31.1941 16.1397 30.974 16.3599L30.3375 16.9964L33.2396 19.8985Z" fill="#FB6D3A"/>
<path d="M38 12.7471C38 13.1613 37.6642 13.4971 37.25 13.4971C36.8358 13.4971 36.5 13.1613 36.5 12.7471C36.5 12.3329 36.8358 11.9971 37.25 11.9971C37.6642 11.9971 38 12.3329 38 12.7471Z" fill="#FB6D3A"/>
</svg>
