<svg width="70" height="70" viewBox="0 0 70 70" fill="none" xmlns="http://www.w3.org/2000/svg">
<mask id="path-1-inside-1_4579_6654" fill="white">
<rect x="12.6001" y="22.3975" width="44.8" height="35" rx="1"/>
</mask>
<rect x="12.6001" y="22.3975" width="44.8" height="35" rx="1" stroke="#49C3FF" stroke-width="5" stroke-linecap="round" mask="url(#path-1-inside-1_4579_6654)"/>
<path d="M35 23.7969V55.9969" stroke="#49C3FF" stroke-width="2.5"/>
<path d="M56 40.5967L12.6 40.5967" stroke="#49C3FF" stroke-width="2.5"/>
<path fill-rule="evenodd" clip-rule="evenodd" d="M39.1895 15.1845C38.3184 16.0556 37.8002 17.4035 37.5674 18.9839C37.4365 19.8724 37.4101 20.7391 37.4276 21.4684C38.157 21.4859 39.0236 21.4595 39.9121 21.3286C41.4926 21.0959 42.8404 20.5777 43.7115 19.7065C45.0011 18.4169 45.2152 17.333 45.1673 16.5915C45.1128 15.7479 44.6939 15.0158 44.2871 14.609C43.8802 14.2021 43.1481 13.7832 42.3045 13.7287C41.563 13.6809 40.4791 13.8949 39.1895 15.1845ZM35.0922 23.3329C34.9728 23.6303 34.7 23.8426 34.3653 23.8783C32.5333 24.0733 27.5216 24.3054 24.7009 21.4847C21.2045 17.9883 22.6167 14.3617 24.1254 12.8516C25.6341 11.3415 29.262 9.9307 32.7585 13.4272C34.1744 14.8431 34.8211 16.8111 35.0894 18.6519C35.3567 16.8081 36.0031 14.8353 37.4217 13.4167C40.9182 9.92026 44.4979 11.2842 46.0548 12.8412C47.6118 14.3982 48.9758 17.9778 45.4793 21.4743C42.6586 24.295 37.647 24.0629 35.8149 23.8678C35.4841 23.8326 35.2138 23.6248 35.0922 23.3329ZM30.9907 15.1949C31.8619 16.0661 32.3801 17.4139 32.6128 18.9944C32.7437 19.8829 32.7701 20.7495 32.7526 21.4788C32.0233 21.4963 31.1566 21.4699 30.2681 21.3391C28.6877 21.1063 27.3398 20.5881 26.4687 19.717C25.1906 18.4388 24.9788 17.35 25.0304 16.5935C25.0894 15.7295 25.5172 14.9957 25.894 14.6186C26.2695 14.2428 27.0023 13.815 27.8665 13.7562C28.6232 13.7046 29.7125 13.9167 30.9907 15.1949Z" fill="#49C3FF"/>
</svg>
