<svg width="80" height="80" viewBox="0 0 80 80" fill="none" xmlns="http://www.w3.org/2000/svg">
<path d="M20.948 11.8311C20.948 9.75675 22.6296 8.0752 24.7039 8.0752H60.3846C62.4589 8.0752 64.1405 9.75675 64.1405 11.8311V60.6573C64.1405 62.7317 62.4589 64.4132 60.3846 64.4132H24.7039C22.6296 64.4132 20.948 62.7317 20.948 60.6573V11.8311Z" fill="black"/>
<path fill-rule="evenodd" clip-rule="evenodd" d="M19.5396 11.8313C19.5396 8.97914 21.8517 6.66699 24.7039 6.66699H60.3846C63.2368 6.66699 65.5489 8.97914 65.5489 11.8313V60.6576C65.5489 63.5098 63.2368 65.8219 60.3846 65.8219H24.7039C21.8517 65.8219 19.5396 63.5098 19.5396 60.6576V11.8313ZM24.7039 9.48389C23.4074 9.48389 22.3565 10.5349 22.3565 11.8313V60.6576C22.3565 61.954 23.4074 63.005 24.7039 63.005H60.3846C61.6811 63.005 62.732 61.954 62.732 60.6576V11.8313C62.732 10.5349 61.6811 9.48389 60.3846 9.48389H24.7039Z" fill="white"/>
<path fill-rule="evenodd" clip-rule="evenodd" d="M50.5254 13.7097C50.5254 14.4876 49.8948 15.1182 49.1169 15.1182L20.9479 15.1182C20.1701 15.1182 19.5395 14.4876 19.5395 13.7097C19.5395 12.9318 20.1701 12.3013 20.9479 12.3013L49.1169 12.3013C49.8948 12.3013 50.5254 12.9318 50.5254 13.7097Z" fill="white"/>
<path fill-rule="evenodd" clip-rule="evenodd" d="M59.915 13.7097C59.915 14.4876 59.2845 15.1182 58.5066 15.1182L54.7507 15.1182C53.9729 15.1182 53.3423 14.4876 53.3423 13.7097C53.3423 12.9318 53.9729 12.3013 54.7507 12.3013L58.5066 12.3013C59.2845 12.3013 59.915 12.9318 59.915 13.7097Z" fill="#EF7300"/>
<path d="M17.1929 34.3662C17.1929 33.3291 18.0337 32.4883 19.0708 32.4883H21.8877C22.9249 32.4883 23.7656 33.3291 23.7656 34.3662V40C23.7656 41.0372 22.9249 41.878 21.8877 41.878H19.0708C18.0337 41.878 17.1929 41.0372 17.1929 40V34.3662Z" fill="black"/>
<path fill-rule="evenodd" clip-rule="evenodd" d="M15.7842 34.3665C15.7842 32.5514 17.2555 31.0801 19.0706 31.0801H21.8875C23.7025 31.0801 25.1738 32.5514 25.1738 34.3665V40.0003C25.1738 41.8153 23.7025 43.2866 21.8875 43.2866H19.0706C17.2555 43.2866 15.7842 41.8153 15.7842 40.0003V34.3665ZM19.0706 33.897C18.8113 33.897 18.6011 34.1072 18.6011 34.3665V40.0003C18.6011 40.2596 18.8113 40.4697 19.0706 40.4697H21.8875C22.1468 40.4697 22.3569 40.2596 22.3569 40.0003V34.3665C22.3569 34.1072 22.1468 33.897 21.8875 33.897H19.0706Z" fill="white"/>
<path d="M27.606 67.4561C27.606 66.4189 28.4467 65.5781 29.4839 65.5781H31.3666C32.4038 65.5781 33.2446 66.4189 33.2446 67.4561V70.0474C33.2446 71.0846 32.4038 71.9253 31.3666 71.9253H29.4839C28.4467 71.9253 27.606 71.0845 27.606 70.0474V67.4561Z" fill="black"/>
<path fill-rule="evenodd" clip-rule="evenodd" d="M26.1975 67.4563C26.1975 65.6413 27.6689 64.1699 29.4839 64.1699H31.3666C33.1816 64.1699 34.653 65.6413 34.653 67.4563V70.0476C34.653 71.8627 33.1816 73.334 31.3666 73.334H29.4839C27.6689 73.334 26.1975 71.8627 26.1975 70.0476V67.4563ZM29.4839 66.9868C29.2246 66.9868 29.0144 67.197 29.0144 67.4563V70.0476C29.0144 70.3069 29.2246 70.5171 29.4839 70.5171H31.3666C31.6259 70.5171 31.8361 70.3069 31.8361 70.0476V67.4563C31.8361 67.197 31.6259 66.9868 31.3666 66.9868H29.4839Z" fill="white"/>
<path d="M54.188 67.4561C54.188 66.4189 55.0288 65.5781 56.0659 65.5781H57.9487C58.9858 65.5781 59.8266 66.4189 59.8266 67.4561V70.0474C59.8266 71.0846 58.9858 71.9253 57.9487 71.9253H56.0659C55.0288 71.9253 54.188 71.0845 54.188 70.0474V67.4561Z" fill="black"/>
<path fill-rule="evenodd" clip-rule="evenodd" d="M52.7798 67.4563C52.7798 65.6413 54.2512 64.1699 56.0662 64.1699H57.9489C59.7639 64.1699 61.2353 65.6413 61.2353 67.4563V70.0476C61.2353 71.8627 59.7639 73.334 57.9489 73.334H56.0662C54.2511 73.334 52.7798 71.8627 52.7798 70.0476V67.4563ZM56.0662 66.9868C55.8069 66.9868 55.5967 67.197 55.5967 67.4563V70.0476C55.5967 70.3069 55.8069 70.5171 56.0662 70.5171H57.9489C58.2082 70.5171 58.4184 70.3069 58.4184 70.0476V67.4563C58.4184 67.197 58.2082 66.9868 57.9489 66.9868H56.0662Z" fill="white"/>
<path d="M28.46 23.0986C28.46 21.0243 30.1415 19.3428 32.2158 19.3428H52.8731C54.9474 19.3428 56.629 21.0243 56.629 23.0986V55.0235C56.629 57.0978 54.9474 58.7794 52.8731 58.7794H32.2158C30.1415 58.7794 28.46 57.0978 28.46 55.0235V23.0986Z" fill="black"/>
<path fill-rule="evenodd" clip-rule="evenodd" d="M27.0515 23.0989C27.0515 20.2467 29.3637 17.9346 32.2158 17.9346H52.8731C55.7253 17.9346 58.0374 20.2467 58.0374 23.0989V55.0238C58.0374 57.8759 55.7253 60.1881 52.8731 60.1881H32.2158C29.3637 60.1881 27.0515 57.8759 27.0515 55.0238V23.0989ZM32.2158 20.7515C30.9194 20.7515 29.8684 21.8024 29.8684 23.0989V55.0238C29.8684 56.3202 30.9194 57.3712 32.2158 57.3712H52.8731C54.1695 57.3712 55.2205 56.3202 55.2205 55.0238V23.0989C55.2205 21.8024 54.1695 20.7515 52.8731 20.7515H32.2158Z" fill="white"/>
<path d="M40.6667 41.8784L42.5447 40.9395L44.4226 41.8784V45.3995C44.4226 46.5663 43.5818 47.5122 42.5447 47.5122C41.5075 47.5122 40.6667 46.5663 40.6667 45.3995V41.8784Z" fill="#EF7300"/>
<path d="M39.7278 32.4883C39.7278 33.5254 38.887 34.3662 37.8499 34.3662C36.8127 34.3662 35.9719 33.5254 35.9719 32.4883C35.9719 31.4511 36.8127 30.6104 37.8499 30.6104C38.887 30.6104 39.7278 31.4511 39.7278 32.4883Z" fill="white"/>
<path d="M49.1174 32.4883C49.1174 33.5254 48.2767 34.3662 47.2395 34.3662C46.2024 34.3662 45.3616 33.5254 45.3616 32.4883C45.3616 31.4511 46.2024 30.6104 47.2395 30.6104C48.2767 30.6104 49.1174 31.4511 49.1174 32.4883Z" fill="white"/>
<path d="M43.6784 39.3171C43.1745 40.2276 41.9148 40.2276 41.4109 39.3171L40.8441 38.2928C40.3402 37.3823 40.97 36.2441 41.9778 36.2441L43.1115 36.2441C44.1193 36.2441 44.7491 37.3823 44.2453 38.2928L43.6784 39.3171Z" fill="white"/>
<path fill-rule="evenodd" clip-rule="evenodd" d="M34.2844 39.2963C34.5383 38.9833 34.9498 38.9833 35.2037 39.2963L35.4268 39.5713C37.2038 41.7622 40.0849 41.7622 41.862 39.5713L42.085 39.2963C42.3389 38.9833 42.7505 38.9833 43.0044 39.2963L43.2274 39.5713C45.0045 41.7622 47.8856 41.7622 49.6626 39.5713L49.8857 39.2963C50.1396 38.9833 50.5511 38.9833 50.805 39.2963C51.0589 39.6093 51.0589 40.1167 50.805 40.4297L50.5819 40.7047C48.3745 43.4263 44.8418 43.5184 42.5447 40.9809C40.2476 43.5184 36.7149 43.4263 34.5075 40.7047L34.2844 40.4297C34.0305 40.1167 34.0305 39.6093 34.2844 39.2963Z" fill="white"/>
</svg>
