<svg width="70" height="70" viewBox="0 0 70 70" fill="none" xmlns="http://www.w3.org/2000/svg">
<rect x="23.0461" y="38.1416" width="2.5" height="10.0675" rx="1.25" fill="#49C3FF"/>
<rect x="29.3379" y="28.0742" width="2.5" height="20.135" rx="1.25" fill="#49C3FF"/>
<rect x="35.6299" y="31.8506" width="2.5" height="16.3597" rx="1.25" fill="#49C3FF"/>
<rect x="41.9189" y="25.5586" width="2.5" height="16.3597" rx="1.25" fill="#49C3FF"/>
<circle cx="24.5" cy="31.4971" r="1.5" fill="#49C3FF"/>
<circle cx="30.2793" cy="23.3563" r="1.57305" fill="#49C3FF"/>
<circle cx="36.574" cy="25.8719" r="1.57305" fill="#49C3FF"/>
<circle cx="42.8658" cy="20.8387" r="1.57305" fill="#49C3FF"/>
<path fill-rule="evenodd" clip-rule="evenodd" d="M16.7361 12.6982C16.7361 12.146 17.1838 11.6982 17.7361 11.6982H48.4893C49.0416 11.6982 49.4893 12.146 49.4893 12.6982V34.6249C49.4893 35.1772 49.937 35.6249 50.4893 35.6249H50.9893C51.5416 35.6249 51.9893 35.1772 51.9893 34.6249V11.6982V10.1982C51.9893 9.64596 51.5416 9.19824 50.9893 9.19824H49.4893H16.7361H15.2361C14.6838 9.19824 14.2361 9.64596 14.2361 10.1982V11.6982V57.0358V58.5358C14.2361 59.0881 14.6838 59.5358 15.2361 59.5358H16.7361H33.3717C33.924 59.5358 34.3717 59.0881 34.3717 58.5358V58.0358C34.3717 57.4836 33.924 57.0358 33.3717 57.0358H17.7361C17.1838 57.0358 16.7361 56.5881 16.7361 56.0359V12.6982Z" fill="#49C3FF"/>
<ellipse cx="43.8087" cy="48.2098" rx="11.9552" ry="11.326" fill="black"/>
<path d="M51.9754 48.2745C51.9754 52.7322 48.3107 56.3732 43.7562 56.3732C39.2018 56.3732 35.5371 52.7322 35.5371 48.2745C35.5371 43.8167 39.2018 40.1758 43.7562 40.1758C48.3107 40.1758 51.9754 43.8167 51.9754 48.2745Z" fill="black" stroke="#49C3FF" stroke-width="2.5"/>
<path d="M49.4712 54.5029L55.7634 60.7951" stroke="#49C3FF" stroke-width="2.5" stroke-linecap="round"/>
</svg>
