<svg width="50" height="50" viewBox="0 0 50 50" fill="none" xmlns="http://www.w3.org/2000/svg">
<path d="M28.9259 9.07407L41.0104 9.01041L40.9467 21.0949L18.0294 44.0122L6.00862 31.9914L28.9259 9.07407Z" fill="#1B1322"/>
<path fill-rule="evenodd" clip-rule="evenodd" d="M41.5407 8.48019C41.6824 8.62181 41.7615 8.81419 41.7604 9.01447L41.6967 21.099C41.6957 21.2965 41.6168 21.4856 41.4771 21.6253L18.5598 44.5426C18.2669 44.8355 17.792 44.8355 17.4991 44.5426L5.47829 32.5218C5.1854 32.2289 5.1854 31.7541 5.47829 31.4612L28.3956 8.54386C28.5353 8.40417 28.7244 8.32524 28.922 8.3242L41.0065 8.26053C41.2067 8.25948 41.3991 8.33857 41.5407 8.48019ZM29.2382 9.82255L7.06928 31.9915L18.0294 42.9516L40.1984 20.7827L40.2564 9.7645L29.2382 9.82255Z" fill="white"/>
<path d="M14.2164 31.8539C14.6767 31.3936 15.105 31.1374 15.5011 31.0852C15.8934 31.0291 16.2673 31.1789 16.623 31.5345L16.6934 31.6049C16.7911 31.7026 16.8729 31.8084 16.9387 31.9223C17.0046 32.0363 17.0486 32.1603 17.0708 32.2945C17.093 32.4208 17.0894 32.5573 17.0599 32.704C17.0306 32.8428 16.9675 32.9919 16.8707 33.1512C17.0223 33.0387 17.1756 32.9518 17.3306 32.8907C17.4856 32.8295 17.6422 32.8019 17.8003 32.8079C17.9585 32.806 18.1143 32.8418 18.2677 32.9151C18.4212 32.9805 18.5741 33.0894 18.7266 33.2418L18.8204 33.3357C19.1761 33.6913 19.3415 34.0809 19.3167 34.5044C19.2879 34.924 19.0394 35.368 18.5711 35.8363L17.2141 37.1933C17.0219 37.3855 16.8527 37.4844 16.7062 37.4901C16.5638 37.4918 16.4008 37.4008 16.2171 37.2171L13.0218 34.0218C12.8381 33.8381 12.7471 33.675 12.7488 33.5326C12.7545 33.3862 12.8534 33.2169 13.0456 33.0248L14.2164 31.8539ZM16.8448 36.3197L17.5413 35.6232C17.7094 35.455 17.8497 35.3031 17.962 35.1673C18.0784 35.0274 18.1571 34.898 18.198 34.7788C18.2391 34.6518 18.2406 34.5291 18.2024 34.4109C18.1643 34.2927 18.0807 34.1691 17.9517 34.0401L17.8755 33.9639C17.7778 33.8662 17.6758 33.7962 17.5695 33.754C17.4632 33.7118 17.3466 33.7072 17.2196 33.7404C17.0927 33.7735 16.9494 33.8464 16.7899 33.9591C16.6303 34.0717 16.4485 34.2301 16.2443 34.4343L15.6019 35.0767L16.8448 36.3197ZM14.9921 34.467L15.6166 33.8425C15.7927 33.6664 15.929 33.5145 16.0254 33.3868C16.122 33.2511 16.1808 33.1298 16.2018 33.0228C16.2269 32.9117 16.2162 32.809 16.1699 32.7146C16.1236 32.6203 16.0457 32.5184 15.9362 32.4089L15.8835 32.3562C15.6959 32.1685 15.5007 32.1175 15.2979 32.203C15.0953 32.2805 14.8319 32.4814 14.5076 32.8057L13.9192 33.3941L14.9921 34.467Z" fill="white"/>
<path d="M18.1441 27.9263C18.5924 27.478 19.0481 27.2411 19.5112 27.2158C19.9703 27.1866 20.3836 27.3557 20.751 27.7232L20.8565 27.8287C21.1262 28.0984 21.2849 28.3892 21.3326 28.7011C21.3804 29.005 21.3372 29.3141 21.2029 29.6281L23.2669 30.179C23.4206 30.2207 23.5225 30.3025 23.5725 30.4245C23.6264 30.5425 23.6289 30.6691 23.5798 30.8041C23.5307 30.9392 23.4523 31.0489 23.3445 31.1333C23.2367 31.2176 23.106 31.235 22.9523 31.1854L20.5936 30.4719C20.5775 30.4958 20.5575 30.5198 20.5334 30.5438C20.5094 30.5678 20.4874 30.5899 20.4674 30.6099L19.7769 31.3004L21.1547 32.6782C21.268 32.7915 21.3121 32.9116 21.2868 33.0385C21.2616 33.1653 21.1969 33.2808 21.0928 33.3849C20.9888 33.489 20.8733 33.5536 20.7464 33.5789C20.6196 33.6041 20.4995 33.5601 20.3861 33.4467L16.9915 30.0521C16.8078 29.8684 16.7168 29.7053 16.7185 29.5629C16.7242 29.4165 16.8231 29.2472 17.0152 29.0551L18.1441 27.9263ZM19.1496 30.673L19.8521 29.9705C20.1443 29.6783 20.3036 29.4213 20.33 29.1995C20.3563 28.9777 20.2738 28.771 20.0822 28.5795L20.006 28.5033C19.8106 28.3079 19.604 28.2213 19.3862 28.2437C19.1685 28.2582 18.9295 28.3955 18.6693 28.6557L17.9008 29.4242L19.1496 30.673Z" fill="white"/>
<path d="M22.0127 23.9873C22.1168 23.8832 22.2303 23.8166 22.3532 23.7875C22.4762 23.7583 22.6341 23.7841 22.8269 23.8649L27.5784 25.9144C27.7358 25.9837 27.8335 26.0814 27.8715 26.2075C27.9096 26.3336 27.8942 26.4624 27.8254 26.5937C27.7566 26.725 27.6604 26.829 27.5369 26.9056C27.4174 26.9783 27.2731 26.9741 27.104 26.893L25.8177 26.3032L24.3045 27.8163L24.9118 29.1321C24.9811 29.2895 24.9815 29.4259 24.9129 29.5414C24.8443 29.649 24.7464 29.7352 24.6191 29.8C24.4917 29.8648 24.3689 29.8821 24.2506 29.8519C24.1323 29.8217 24.0405 29.7298 23.9751 29.5763L21.8963 24.7956C21.8115 24.6067 21.7837 24.4508 21.8128 24.3279C21.846 24.2009 21.9126 24.0874 22.0127 23.9873ZM22.9387 24.9374C23.024 25.0867 23.0975 25.2242 23.1593 25.3501C23.2211 25.468 23.2945 25.6174 23.3794 25.7983L23.9113 26.9667L24.968 25.9099L23.8057 25.372C23.6168 25.2872 23.4575 25.212 23.3278 25.1463C23.2021 25.0766 23.0724 25.007 22.9387 24.9374Z" fill="white"/>
<path d="M27.5813 18.4187C27.6734 18.3266 27.7809 18.27 27.9037 18.2487C28.0227 18.2236 28.1349 18.2638 28.2405 18.3693L31.6644 21.7932C31.8481 21.9769 31.9371 22.142 31.9314 22.2884C31.9297 22.4308 31.8328 22.5981 31.6406 22.7902C31.5686 22.8623 31.4987 22.9204 31.4309 22.9648C31.3631 23.0091 31.2837 23.0377 31.1926 23.0507C31.0975 23.0597 30.9829 23.0532 30.8487 23.031C30.7145 23.0089 30.5429 22.9694 30.334 22.9126L27.2175 22.0657C27.0519 22.0203 26.8923 21.9688 26.7388 21.9113C26.5852 21.8538 26.4239 21.7766 26.255 21.6797L29.2217 24.6463C29.3272 24.7519 29.3693 24.8661 29.3481 24.9889C29.3229 25.1079 29.2643 25.2134 29.1723 25.3055C29.0802 25.3975 28.9747 25.4562 28.8557 25.4813C28.7329 25.5025 28.6187 25.4604 28.5131 25.3549L25.0892 21.9309C24.9055 21.7472 24.8145 21.5842 24.8162 21.4418C24.8219 21.2954 24.9208 21.1261 25.113 20.9339C25.185 20.8619 25.2549 20.8037 25.3227 20.7594C25.3905 20.7151 25.4719 20.6884 25.5669 20.6794C25.658 20.6664 25.7707 20.671 25.9049 20.6931C26.0391 20.7153 26.2107 20.7547 26.4196 20.8116L29.5361 21.6584C29.7017 21.7039 29.8613 21.7554 30.0148 21.8129C30.1684 21.8704 30.3296 21.9476 30.4986 22.0444L27.5319 19.0778C27.4264 18.9723 27.3862 18.86 27.4114 18.7411C27.4326 18.6182 27.4893 18.5107 27.5813 18.4187Z" fill="white"/>
<path d="M30.4428 15.6276C30.755 15.3153 31.0643 15.0803 31.3708 14.9224C31.6773 14.7565 31.9908 14.6737 32.3111 14.6738C32.6276 14.6701 32.9509 14.7532 33.2811 14.9233C33.6113 15.0934 33.9543 15.3563 34.31 15.712L34.5269 15.9289C34.8826 16.2846 35.1455 16.6275 35.3156 16.9577C35.4856 17.288 35.5708 17.6132 35.5709 17.9336C35.5671 18.2501 35.4843 18.5635 35.3224 18.874C35.1606 19.1765 34.9235 19.4839 34.6113 19.7961L33.6206 20.7868C33.4284 20.9789 33.2592 21.0779 33.1128 21.0836C32.9703 21.0853 32.8073 20.9943 32.6236 20.8106L29.4283 17.6153C29.2446 17.4316 29.1536 17.2685 29.1553 17.1261C29.161 16.9797 29.2599 16.8104 29.4521 16.6183L30.4428 15.6276ZM33.2396 19.9014L33.876 19.265C34.0962 19.0448 34.2589 18.8352 34.3641 18.6362C34.4733 18.4332 34.5212 18.2289 34.5079 18.0234C34.4985 17.8139 34.4279 17.5992 34.296 17.3793C34.1603 17.1554 33.9595 16.9106 33.6937 16.6448L33.594 16.5452C33.3322 16.2833 33.0893 16.0845 32.8655 15.9487C32.6416 15.813 32.425 15.7404 32.2155 15.731C32.0099 15.7176 31.8057 15.7656 31.6027 15.8748C31.4037 15.98 31.1941 16.1427 30.9739 16.3628L30.3374 16.9993L33.2396 19.9014Z" fill="white"/>
<path d="M38 12.75C38 13.1642 37.6642 13.5 37.25 13.5C36.8358 13.5 36.5 13.1642 36.5 12.75C36.5 12.3358 36.8358 12 37.25 12C37.6642 12 38 12.3358 38 12.75Z" fill="white"/>
</svg>
