<svg width="50" height="50" viewBox="0 0 50 50" fill="none" xmlns="http://www.w3.org/2000/svg">
<path d="M14.6152 6.38452C14.6152 5.83224 15.0629 5.38452 15.6152 5.38452H34.3845C34.9368 5.38452 35.3845 5.83224 35.3845 6.38452V40.5384C35.3845 41.0907 34.9368 41.5384 34.3845 41.5384H15.6152C15.0629 41.5384 14.6152 41.0907 14.6152 40.5384V6.38452Z" fill="#1B1322"/>
<path fill-rule="evenodd" clip-rule="evenodd" d="M13.8652 6.38452C13.8652 5.41802 14.6487 4.63452 15.6152 4.63452H34.3845C35.351 4.63452 36.1345 5.41802 36.1345 6.38452V40.5384C36.1345 41.5049 35.351 42.2884 34.3845 42.2884H15.6152C14.6487 42.2884 13.8652 41.5049 13.8652 40.5384V6.38452ZM15.6152 6.13452C15.4772 6.13452 15.3652 6.24645 15.3652 6.38452V40.5384C15.3652 40.6764 15.4772 40.7884 15.6152 40.7884H34.3845C34.5225 40.7884 34.6345 40.6764 34.6345 40.5384V6.38452C34.6345 6.24645 34.5225 6.13452 34.3845 6.13452H15.6152Z" fill="white"/>
<path fill-rule="evenodd" clip-rule="evenodd" d="M18.4609 10.019C18.8752 10.019 19.2109 10.3548 19.2109 10.769L19.2109 15.3844C19.2109 15.7986 18.8752 16.1344 18.4609 16.1344C18.0467 16.1344 17.7109 15.7986 17.7109 15.3844L17.7109 10.769C17.7109 10.3548 18.0467 10.019 18.4609 10.019Z" fill="white"/>
<path fill-rule="evenodd" clip-rule="evenodd" d="M32.2891 20.769C32.2891 21.1833 31.9533 21.519 31.5391 21.519H14.616C14.2018 21.519 13.866 21.1833 13.866 20.769C13.866 20.3548 14.2018 20.019 14.616 20.019H31.5391C31.9533 20.019 32.2891 20.3548 32.2891 20.769Z" fill="white"/>
<path fill-rule="evenodd" clip-rule="evenodd" d="M18.4609 23.8652C18.8752 23.8652 19.2109 24.201 19.2109 24.6152L19.2109 29.2306C19.2109 29.6448 18.8752 29.9806 18.4609 29.9806C18.0467 29.9806 17.7109 29.6448 17.7109 29.2306L17.7109 24.6152C17.7109 24.201 18.0467 23.8652 18.4609 23.8652Z" fill="white"/>
</svg>
