<svg width="50" height="50" viewBox="0 0 50 50" fill="none" xmlns="http://www.w3.org/2000/svg">
<path fill-rule="evenodd" clip-rule="evenodd" d="M13.7569 12.543L17.5 10.2343L15.3586 6.5535C15.0921 6.11702 14.6543 5.87634 14.2006 5.83872V5.83641L14.1687 5.83641C14.106 5.83253 14.043 5.83252 13.9803 5.83641L6.87081 5.83641C5.65637 5.83641 4.67188 6.8209 4.67188 8.03534C4.67188 9.24977 5.65637 10.2343 6.87081 10.2343L12.2762 10.2343L13.7569 12.543Z" fill="white"/>
<path fill-rule="evenodd" clip-rule="evenodd" d="M14.1687 5.83641L14.2006 5.83641V5.83872C14.6543 5.87634 15.0921 6.11702 15.3586 6.5535L17.5 10.0615L13.5 12.5L12.2762 10.2343L6.87081 10.2343C5.65637 10.2343 4.67188 9.24977 4.67188 8.03534C4.67188 6.8209 5.65637 5.83641 6.87081 5.83641L13.9803 5.83641C14.043 5.83252 14.106 5.83253 14.1687 5.83641ZM14.3084 10.0431L15.1794 9.50587L13.9718 7.52758L6.87081 7.52758C6.59038 7.52758 6.36305 7.75491 6.36305 8.03534C6.36305 8.31576 6.59038 8.5431 6.87081 8.5431L13.2201 8.5431L14.3084 10.0431Z" fill="black"/>
<path fill-rule="evenodd" clip-rule="evenodd" d="M28.6782 36.5217C27.6049 37.1532 27.2467 38.5352 27.8782 39.6086L27.9653 39.7566C28.1998 40.1553 28.5379 40.4553 28.9253 40.6426L28.964 42.4227C28.9854 43.4071 29.8008 44.1877 30.7851 44.1663L44.3654 43.8709C45.0217 43.8567 45.5421 43.3131 45.5278 42.6568C45.4564 39.3756 42.7386 36.7735 39.4574 36.8449L35.5742 36.9293C35.6493 36.4351 35.5614 35.9128 35.2881 35.4484L35.201 35.3003C34.5696 34.227 33.1875 33.8688 32.1142 34.5002L28.6782 36.5217Z" fill="white"/>
<path fill-rule="evenodd" clip-rule="evenodd" d="M29.6614 39.12L30.5935 39.5707L30.6548 42.386C30.6559 42.4366 30.6978 42.4767 30.7484 42.4756L43.7967 42.1917C43.5022 40.0865 41.6716 38.4883 39.4941 38.5356L33.5999 38.6638L33.9023 36.6752C33.9211 36.5511 33.8996 36.4234 33.8305 36.3059L33.7434 36.1579C33.5856 35.8895 33.24 35.8 32.9717 35.9579L29.5358 37.9793C29.2675 38.1372 29.1779 38.4827 29.3358 38.751L29.4229 38.8991C29.4827 39.0008 29.5656 39.0737 29.6614 39.12ZM35.5574 36.1544C35.5094 35.912 35.4205 35.6734 35.2881 35.4484L35.201 35.3003C34.5696 34.227 33.1875 33.8688 32.1142 34.5002L28.6782 36.5217C27.6049 37.1532 27.2467 38.5352 27.8782 39.6086L27.9653 39.7566C28.1998 40.1553 28.5379 40.4553 28.9253 40.6426L28.964 42.4227C28.9854 43.4071 29.8008 44.1877 30.7851 44.1663L44.3654 43.8709C45.0217 43.8567 45.5421 43.3131 45.5278 42.6568C45.4564 39.3756 42.7386 36.7735 39.4574 36.8449L35.5742 36.9293C35.6129 36.6746 35.6083 36.4123 35.5574 36.1544Z" fill="black"/>
<path d="M13.5002 13.9999C13.1002 12.3999 14.416 11.06 15.9994 10.5C16.9202 10.1743 17.785 10.1419 18.5003 10.5C19.4994 11 27.5003 21 28.5003 23C29.5003 25 28.5177 27.1385 27.0003 28.5C25.5182 29.8298 23.5003 29.5 22.5003 28.9999C21.6059 28.5527 14.0002 15.9999 13.5002 13.9999Z" fill="white"/>
<path fill-rule="evenodd" clip-rule="evenodd" d="M14.9225 15.749L21.7768 26.8615C22.6243 28.2356 24.3788 28.7382 25.8253 28.0213C28.1324 26.8779 28.8213 23.9125 27.2547 21.8691L19.9212 12.3042C19.0257 11.1362 17.4219 10.7777 16.1143 11.4533C14.5424 12.2653 13.9937 14.2432 14.9225 15.749ZM26.5763 29.5366C29.8375 27.9203 30.8113 23.7286 28.5968 20.8401L21.2633 11.2752C19.8695 9.45732 17.3733 8.89934 15.3381 9.95075C12.8915 11.2147 12.0375 14.2931 13.4831 16.6368L20.3374 27.7493C21.6435 29.8668 24.3472 30.6413 26.5763 29.5366Z" fill="black"/>
<path fill-rule="evenodd" clip-rule="evenodd" d="M35.7861 38.1211L30.0689 41.4562L29.2168 39.9954L34.934 36.6603L35.7861 38.1211Z" fill="black"/>
<path fill-rule="evenodd" clip-rule="evenodd" d="M17.5055 13.4653C17.8941 13.2063 18.4191 13.3113 18.6781 13.6999L20.933 17.0822C21.1921 17.4708 21.0871 17.9958 20.6985 18.2548C20.3099 18.5139 19.7849 18.4089 19.5259 18.0203L17.271 14.638C17.012 14.2494 17.117 13.7244 17.5055 13.4653Z" fill="#EF7300"/>
<path d="M24.5605 29.3794L28.2763 27.3114L32.6341 35.1416L28.9183 37.2096L24.5605 29.3794Z" fill="white"/>
<path fill-rule="evenodd" clip-rule="evenodd" d="M27.6951 29.3516L26.6007 29.9606L29.4995 35.1694L30.5939 34.5604L27.6951 29.3516ZM24.5605 29.3794L28.9183 37.2096L32.6341 35.1416L28.2763 27.3114L24.5605 29.3794Z" fill="black"/>
</svg>
