<svg width="50" height="50" viewBox="0 0 50 50" fill="none" xmlns="http://www.w3.org/2000/svg">
<path d="M3.64453 10.763C3.64453 9.4525 4.70689 8.39014 6.01738 8.39014H43.983C45.2935 8.39014 46.3559 9.4525 46.3559 10.763V27.373C46.3559 28.6835 45.2935 29.7458 43.983 29.7458H6.01739C4.7069 29.7458 3.64453 28.6835 3.64453 27.373V10.763Z" fill="white"/>
<path fill-rule="evenodd" clip-rule="evenodd" d="M2.75391 10.7629C2.75391 8.96099 4.21465 7.50024 6.01658 7.50024H43.9822C45.7842 7.50024 47.2449 8.96099 47.2449 10.7629V27.3729C47.2449 29.1748 45.7842 30.6356 43.9822 30.6356H6.01658C4.21466 30.6356 2.75391 29.1748 2.75391 27.3729V10.7629ZM6.01658 9.27988C5.19752 9.27988 4.53355 9.94386 4.53355 10.7629V27.3729C4.53355 28.1919 5.19752 28.8559 6.01658 28.8559H43.9822C44.8013 28.8559 45.4653 28.1919 45.4653 27.3729V10.7629C45.4653 9.94386 44.8013 9.27988 43.9822 9.27988H6.01658Z" fill="black"/>
<path d="M8.38867 28.5594C8.38867 27.2489 9.45103 26.1865 10.7615 26.1865H39.2358C40.5463 26.1865 41.6086 27.2489 41.6086 28.5594V30.9322C41.6086 32.2427 40.5463 33.3051 39.2358 33.3051H10.7615C9.45104 33.3051 8.38867 32.2427 8.38867 30.9322V28.5594Z" fill="white"/>
<path fill-rule="evenodd" clip-rule="evenodd" d="M7.5 28.5593C7.5 26.7574 8.96075 25.2966 10.7627 25.2966H39.2369C41.0388 25.2966 42.4996 26.7574 42.4996 28.5593V30.9322C42.4996 32.7341 41.0388 34.1948 39.2369 34.1948H10.7627C8.96075 34.1948 7.5 32.7341 7.5 30.9322V28.5593ZM10.7627 27.0763C9.94362 27.0763 9.27964 27.7402 9.27964 28.5593V30.9322C9.27964 31.7512 9.94362 32.4152 10.7627 32.4152H39.2369C40.056 32.4152 40.7199 31.7512 40.7199 30.9322V28.5593C40.7199 27.7402 40.056 27.0763 39.2369 27.0763H10.7627Z" fill="black"/>
<path fill-rule="evenodd" clip-rule="evenodd" d="M12.7187 29.7458C12.7187 29.2543 13.1171 28.856 13.6086 28.856L27.8457 28.856C28.3371 28.856 28.7355 29.2543 28.7355 29.7458C28.7355 30.2372 28.3371 30.6356 27.8457 30.6356L13.6086 30.6356C13.1171 30.6356 12.7187 30.2372 12.7187 29.7458Z" fill="black"/>
<path fill-rule="evenodd" clip-rule="evenodd" d="M31.9395 29.7458C31.9395 29.2543 32.3378 28.856 32.8293 28.856L36.3886 28.856C36.88 28.856 37.2784 29.2543 37.2784 29.7458C37.2784 30.2372 36.88 30.6356 36.3886 30.6356L32.8293 30.6356C32.3378 30.6356 31.9395 30.2372 31.9395 29.7458Z" fill="black"/>
<path d="M9.33869 14.4408C9.33869 15.0306 8.86063 15.5086 8.27091 15.5086C7.68119 15.5086 7.20312 15.0306 7.20312 14.4408C7.20312 13.8511 7.68119 13.373 8.27091 13.373C8.86063 13.373 9.33869 13.8511 9.33869 14.4408Z" fill="#EF7300"/>
<path d="M12.8973 14.4408C12.8973 15.0306 12.4192 15.5086 11.8295 15.5086C11.2398 15.5086 10.7617 15.0306 10.7617 14.4408C10.7617 13.8511 11.2398 13.373 11.8295 13.373C12.4192 13.373 12.8973 13.8511 12.8973 14.4408Z" fill="#EF7300"/>
<path fill-rule="evenodd" clip-rule="evenodd" d="M13.1349 37.1609C13.6263 37.1609 14.0247 37.5593 14.0247 38.0507C14.0247 38.5613 13.9592 39.3555 13.7594 40.1319C13.5708 40.8646 13.2101 41.795 12.4704 42.3307C12.0723 42.6189 11.516 42.5299 11.2278 42.1319C10.9395 41.7338 11.0286 41.1775 11.4266 40.8893C11.636 40.7376 11.8686 40.3384 12.0359 39.6883C12.192 39.082 12.2451 38.4401 12.2451 38.0507C12.2451 37.5593 12.6435 37.1609 13.1349 37.1609Z" fill="black"/>
<path fill-rule="evenodd" clip-rule="evenodd" d="M21.4396 37.1609C21.931 37.1609 22.3294 37.5593 22.3294 38.0507C22.3294 38.5613 22.2639 39.3555 22.064 40.1319C21.8754 40.8646 21.5148 41.795 20.7751 42.3307C20.377 42.6189 19.8207 42.5299 19.5325 42.1319C19.2442 41.7338 19.3332 41.1775 19.7313 40.8893C19.9407 40.7376 20.1732 40.3384 20.3406 39.6883C20.4966 39.082 20.5498 38.4401 20.5498 38.0507C20.5498 37.5593 20.9482 37.1609 21.4396 37.1609Z" fill="black"/>
<path fill-rule="evenodd" clip-rule="evenodd" d="M36.864 37.1609C36.3726 37.1609 35.9742 37.5593 35.9742 38.0507C35.9742 38.6281 36.1204 39.4879 36.5475 40.3174C36.983 41.1634 37.7305 42.0109 38.934 42.4467C39.396 42.614 39.9063 42.375 40.0736 41.9129C40.2409 41.4508 40.0019 40.9406 39.5398 40.7733C38.845 40.5217 38.4061 40.0397 38.1298 39.5029C37.8449 38.9496 37.7539 38.3734 37.7539 38.0507C37.7539 37.5593 37.3555 37.1609 36.864 37.1609Z" fill="black"/>
<path fill-rule="evenodd" clip-rule="evenodd" d="M28.5585 37.1609C28.067 37.1609 27.6686 37.5593 27.6686 38.0507C27.6686 38.5613 27.7342 39.3555 27.934 40.1319C28.1226 40.8646 28.4833 41.795 29.223 42.3307C29.621 42.6189 30.1774 42.5299 30.4656 42.1319C30.7538 41.7338 30.6648 41.1775 30.2668 40.8893C30.0573 40.7376 29.8248 40.3384 29.6575 39.6883C29.5014 39.082 29.4483 38.4401 29.4483 38.0507C29.4483 37.5593 29.0499 37.1609 28.5585 37.1609Z" fill="black"/>
<path fill-rule="evenodd" clip-rule="evenodd" d="M35.0832 12.2458C35.5746 12.2458 35.973 12.6442 35.973 13.1357L35.973 17.8814C35.973 18.3728 35.5746 18.7712 35.0832 18.7712C34.5917 18.7712 34.1934 18.3728 34.1934 17.8814L34.1934 13.1357C34.1934 12.6442 34.5917 12.2458 35.0832 12.2458Z" fill="#EF7300"/>
<path fill-rule="evenodd" clip-rule="evenodd" d="M37.1602 13.1357C37.1602 12.6442 37.5585 12.2458 38.05 12.2458H40.4228C40.6968 12.2458 40.9556 12.3721 41.1242 12.5881C41.2928 12.804 41.3525 13.0857 41.2861 13.3515L40.0997 18.0972C39.9805 18.574 39.4974 18.8638 39.0206 18.7446C38.5438 18.6254 38.254 18.1423 38.3732 17.6656L39.2832 14.0255H38.05C37.5585 14.0255 37.1602 13.6271 37.1602 13.1357Z" fill="#EF7300"/>
</svg>
