<svg width="71" height="70" viewBox="0 0 71 70" fill="none" xmlns="http://www.w3.org/2000/svg">
<path d="M23.3359 25.8975C24.3248 25.8975 25.1264 25.114 25.1264 24.1475C25.1264 23.181 24.3248 22.3975 23.3359 22.3975C22.347 22.3975 21.5454 23.181 21.5454 24.1475C21.5454 25.114 22.347 25.8975 23.3359 25.8975Z" fill="#49C3FF"/>
<path d="M47.0952 30.0977C48.0617 30.0977 48.8452 29.3142 48.8452 28.3477C48.8452 27.3812 48.0617 26.5977 47.0952 26.5977C46.1287 26.5977 45.3452 27.3812 45.3452 28.3477C45.3452 29.3142 46.1287 30.0977 47.0952 30.0977Z" fill="#49C3FF"/>
<path d="M58.1481 32.1163C58.3087 31.668 58.4121 31.1928 58.4121 30.6894V26.3817C58.4121 24.003 56.463 22.074 54.0566 22.074C52.1388 22.074 50.3612 22.074 48.6121 22.074V19.9201H49.701C52.1061 19.9201 54.0566 17.9911 54.0566 15.6125C54.0566 13.2338 52.1061 11.3048 49.701 11.3048H45.3455C44.522 11.3048 43.7598 11.5444 43.1037 11.9375C43.135 11.7301 43.1677 11.5215 43.1677 11.3048C43.1677 8.92611 41.2172 6.99707 38.8122 6.99707H34.4566C32.8042 6.99707 31.3832 7.91784 30.6455 9.25995C29.9078 7.91784 28.4881 6.99707 26.8344 6.99707H22.4788C20.0737 6.99707 18.1233 8.92611 18.1233 11.3048C18.1233 13.6834 20.0737 15.6125 22.4788 15.6125V17.7663C20.7162 17.7663 18.9386 17.7663 17.0344 17.7663C14.6293 17.7663 12.6788 19.6953 12.6788 22.074V28.02C8.70031 31.178 6.14551 36.0201 6.14551 41.4586C6.14551 50.9719 13.9501 58.684 23.5677 58.6894C26.3648 58.6894 28.9985 58.0244 31.3369 56.8586L30.1963 55.0252C29.1115 55.5448 27.9573 55.9405 26.7486 56.195C26.8031 55.9607 26.8385 55.7184 26.8385 55.468C26.8385 54.9552 26.7064 54.4759 26.4914 54.0452C27.5844 53.7961 28.6229 53.4098 29.592 52.9076C29.5716 52.8767 28.9632 51.9505 28.8025 50.8951C27.2509 51.7473 25.4706 52.2373 23.5732 52.2373C17.5734 52.2319 12.6843 47.4032 12.6843 41.468C12.6843 35.5328 17.5639 30.7042 23.5636 30.6988H23.5868C26.9011 30.7028 29.8669 32.1823 31.861 34.503C31.861 34.503 31.861 34.503 31.861 34.5017C31.861 34.5017 32.6953 33.4153 33.3813 32.9617C32.5932 32.0719 31.6867 31.2884 30.6809 30.6396C31.5493 30.5251 32.3305 30.1644 32.958 29.6205C33.6522 30.1603 34.2946 30.7594 34.8826 31.4069L34.9833 28.4682C34.7261 28.2475 34.4648 28.0321 34.1953 27.8261C34.3586 27.3738 34.462 26.8959 34.462 26.3884V22.0807C34.462 19.7021 32.5129 17.773 30.1065 17.773C28.1887 17.773 26.4111 17.773 24.6621 17.773V15.6192H26.8398C28.4936 15.6192 29.9132 14.6984 30.6509 13.3563C31.3887 14.6984 32.8097 15.6192 34.462 15.6192H38.8176C39.6411 15.6192 40.4033 15.3796 41.0593 14.9865C41.028 15.1938 40.9954 15.4025 40.9954 15.6192C40.9954 17.9978 42.9458 19.9269 45.3509 19.9269H46.4398V22.0807C44.6772 22.0807 42.8996 22.0807 40.9954 22.0807C38.5903 22.0807 36.6398 24.0098 36.6398 26.3884V30.0486V30.0823V32.4986C36.6398 32.4986 36.2165 32.7126 36.0491 32.8553C36.0491 32.8553 36.0491 32.8567 36.0505 32.8567C35.4979 33.3373 34.9779 33.8501 34.492 34.394C34.492 34.394 33.546 35.4601 33.0655 36.2073C31.2076 38.944 30.1079 42.2259 30.1079 45.7717C30.1079 47.1192 30.2807 48.4236 30.5761 49.6823C30.5747 49.6836 30.5734 49.685 30.572 49.685C30.5747 49.685 30.5774 49.685 30.5774 49.685C30.5774 49.685 31.0552 51.5951 31.2553 51.8778C31.2553 51.8778 31.2553 51.8778 31.2566 51.8778C31.522 52.5698 31.8188 53.2469 32.1686 53.893C32.1686 53.893 33.0424 55.5111 33.3078 55.713C33.3119 55.7103 33.3146 55.709 33.3187 55.7063C36.4765 60.1069 41.6582 62.989 47.5273 62.993C57.149 62.993 64.9496 55.2782 64.9496 45.7623C64.9455 40.2067 62.2804 35.2663 58.1481 32.1163ZM30.1051 19.9296C31.3056 19.9296 32.2829 20.8961 32.2829 22.0834V26.3911C32.2829 27.5784 31.3056 28.545 30.1051 28.545H23.5609C16.362 28.5517 10.5051 34.3482 10.5051 41.468C10.5051 48.5878 16.3661 54.3844 23.5718 54.3911C24.1721 54.3911 24.6607 54.8744 24.6607 55.468C24.6607 56.0617 24.1721 56.545 23.5732 56.545C15.1669 56.5409 8.32737 49.7765 8.32737 41.468C8.32737 36.879 10.4112 32.5928 14.0454 29.7094L14.8607 29.0632V28.0294V22.0834C14.8607 20.8961 15.838 19.9296 17.0385 19.9296H30.1051ZM26.8385 13.468H24.6607V12.3911C24.6607 11.7961 24.1734 11.3142 23.5718 11.3142C22.9702 11.3142 22.4829 11.7961 22.4829 12.3911V13.468C21.1613 13.468 20.1105 12.2982 20.3351 10.9507C20.512 9.8913 21.5206 9.16034 22.6054 9.16034H26.716C27.8008 9.16034 28.8094 9.8913 28.9863 10.9494C29.2095 12.2982 28.1601 13.468 26.8385 13.468ZM38.8162 13.468H34.4607C33.2602 13.468 32.2829 12.5015 32.2829 11.3142C32.2829 10.1269 33.2602 9.16034 34.4607 9.16034H38.8162C40.0167 9.16034 40.994 10.1269 40.994 11.3142C40.994 12.5015 40.0167 13.468 38.8162 13.468ZM45.4721 17.7757C44.3873 17.7757 43.3787 17.0448 43.2017 15.9853C42.9771 14.6378 44.0279 13.468 45.3496 13.468H49.5826C50.6674 13.468 51.676 14.199 51.8516 15.2571C52.0762 16.6046 51.0254 17.7757 49.7038 17.7757H48.6149V16.6988C48.6149 16.1038 48.1276 15.6219 47.526 15.6219C46.9244 15.6219 46.4371 16.1038 46.4371 16.6988V17.7757H45.4721ZM47.5287 60.8526C39.1225 60.8486 32.2829 54.0842 32.2829 45.7757C32.2829 41.1867 34.3668 36.9005 38.0009 34.0171L38.8162 33.3709V32.3371V26.3911C38.8162 25.2038 39.7935 24.2373 40.994 24.2373H54.0607C55.2612 24.2373 56.2384 25.2038 56.2384 26.3911V30.6988C56.2384 31.8861 55.2612 32.8526 54.0607 32.8526H47.5165C40.3175 32.8594 34.4607 38.6559 34.4607 45.7757C34.4607 52.8955 40.3216 58.6921 47.5273 58.6988C48.1276 58.6988 48.6162 59.1821 48.6162 59.7757C48.6162 60.3694 48.1276 60.8526 47.5287 60.8526ZM58.438 45.7151C58.438 47.7761 57.8554 49.7025 56.8455 51.3421C54.9359 54.4584 51.4732 56.545 47.5273 56.545C47.5192 56.545 47.5124 56.545 47.5042 56.545C47.4988 56.545 47.4933 56.545 47.4879 56.545C47.4538 56.545 47.4212 56.5423 47.3871 56.5423C47.2864 56.5409 47.1857 56.5382 47.085 56.5342C41.224 56.3242 36.5364 51.5615 36.5364 45.7138C36.5364 39.7328 41.4391 34.884 47.4865 34.884C53.5353 34.884 58.438 39.7328 58.438 45.7151ZM50.7042 60.5027C50.7586 60.2684 50.794 60.0275 50.794 59.7771C50.794 59.2655 50.6633 58.7877 50.4483 58.3569C56.2493 57.0403 60.594 51.9088 60.594 45.7771C60.594 41.2419 58.2121 37.2559 54.6269 34.9513C55.5048 34.8369 56.2943 34.4721 56.9258 33.9215C60.481 36.6838 62.7718 40.9686 62.7718 45.7771C62.7718 53.01 57.5873 59.0515 50.7042 60.5027Z" fill="#49C3FF"/>
<path d="M47.4879 56.5447C47.4934 56.5447 47.4988 56.5447 47.5043 56.5447C47.4648 56.5447 47.4253 56.5433 47.3872 56.542C47.4199 56.5433 47.4539 56.5447 47.4879 56.5447Z" fill="#49C3FF"/>
</svg>
