<svg width="50" height="50" viewBox="0 0 50 50" fill="none" xmlns="http://www.w3.org/2000/svg">
<path fill-rule="evenodd" clip-rule="evenodd" d="M6.94237 33.8428C6.94237 33.4286 7.27815 33.0928 7.69237 33.0928L24.6154 33.0928C25.0297 33.0928 25.3654 33.4286 25.3654 33.8428C25.3654 34.257 25.0297 34.5928 24.6154 34.5928L7.69237 34.5928C7.27815 34.5928 6.94237 34.257 6.94237 33.8428Z" fill="#FB6D3A"/>
<path fill-rule="evenodd" clip-rule="evenodd" d="M27.7116 33.8428C27.7116 33.4286 28.0474 33.0928 28.4616 33.0928L32.3078 33.0928C32.722 33.0928 33.0578 33.4286 33.0578 33.8428C33.0578 34.257 32.722 34.5928 32.3078 34.5928L28.4616 34.5928C28.0474 34.5928 27.7116 34.257 27.7116 33.8428Z" fill="#FB6D3A"/>
<path fill-rule="evenodd" clip-rule="evenodd" d="M35.2581 14.6123C35.2581 15.0265 34.9223 15.3623 34.5081 15.3623L26.9231 15.3623C26.5089 15.3623 26.1731 15.0265 26.1731 14.6123C26.1731 14.1981 26.5089 13.8623 26.9231 13.8623L34.5081 13.8623C34.9223 13.8623 35.2581 14.1981 35.2581 14.6123Z" fill="#FB6D3A"/>
<path d="M4.61545 38.2058C4.61545 37.6535 5.06316 37.2058 5.61545 37.2058H36.6026C37.2262 37.2058 37.6976 36.6414 37.5867 36.0278L31.9787 5.01887C31.7595 3.80701 33.4983 3.34766 33.9062 4.50965L45.3282 37.045C45.3656 37.1514 45.3847 37.2634 45.3847 37.3762V42.8426C45.3847 43.3949 44.937 43.8426 44.3847 43.8426H5.61545C5.06316 43.8426 4.61545 43.3949 4.61545 42.8426V38.2058Z" fill="black"/>
<path fill-rule="evenodd" clip-rule="evenodd" d="M31.2406 5.15265C30.8571 3.03197 33.9 2.22798 34.6139 4.26153L46.0359 36.7969C46.1013 36.9831 46.1347 37.1791 46.1347 37.3765V42.8429C46.1347 43.8094 45.3512 44.5929 44.3847 44.5929H5.61545C4.64895 44.5929 3.86545 43.8094 3.86545 42.8429V38.2061C3.86545 37.2396 4.64895 36.4561 5.61545 36.4561H36.6026C36.7585 36.4561 36.8764 36.315 36.8486 36.1616L31.2406 5.15265ZM32.7417 4.69891C32.7233 4.72484 32.6967 4.77514 32.7167 4.88571L38.3247 35.8947C38.5189 36.9684 37.6938 37.9561 36.6026 37.9561H5.61545C5.47738 37.9561 5.36545 38.068 5.36545 38.2061V42.8429C5.36545 42.981 5.47738 43.0929 5.61545 43.0929H44.3847C44.5228 43.0929 44.6347 42.981 44.6347 42.8429V37.3765C44.6347 37.3483 44.6299 37.3203 44.6206 37.2937L33.1986 4.75839C33.1614 4.65238 33.1134 4.6218 33.0846 4.60834C33.0431 4.58894 32.9765 4.579 32.8989 4.5995C32.8212 4.62 32.7682 4.66155 32.7417 4.69891Z" fill="#FB6D3A"/>
</svg>
