<svg width="50" height="50" viewBox="0 0 50 50" fill="none" xmlns="http://www.w3.org/2000/svg">
<path d="M25.0255 14.9585L32.5837 20.0115V30.1174L25.0255 35.1704L17.4673 30.1174V20.0115L25.0255 14.9585Z" fill="black"/>
<path fill-rule="evenodd" clip-rule="evenodd" d="M25.0255 10.8398C25.4397 10.8398 25.7755 11.1756 25.7755 11.5898V14.5577L32.4899 19.0466L34.8269 16.7203C35.1204 16.4281 35.5953 16.4292 35.8875 16.7227C36.1798 17.0163 36.1787 17.4912 35.8851 17.7834L33.3337 20.3231V29.8057L35.8851 32.3454C36.1787 32.6377 36.1798 33.1125 35.8875 33.4061C35.5953 33.6997 35.1204 33.7007 34.8269 33.4085L32.4899 31.0823L25.7755 35.5711L25.7755 38.539C25.7755 38.9532 25.4397 39.289 25.0255 39.289C24.6113 39.289 24.2755 38.9532 24.2755 38.539L24.2755 35.5711L17.5611 31.0823L15.2241 33.4085C14.9305 33.7008 14.4557 33.6997 14.1634 33.4061C13.8712 33.1125 13.8723 32.6377 14.1659 32.3454L16.7173 29.8057V20.3231L14.1659 17.7834C13.8723 17.4912 13.8712 17.0163 14.1635 16.7227C14.4557 16.4292 14.9305 16.4281 15.2241 16.7203L17.5611 19.0466L24.2755 14.5577V11.5898C24.2755 11.1756 24.6113 10.8398 25.0255 10.8398ZM25.0255 15.8607L18.2173 20.4122V29.7166L25.0255 34.2682L31.8337 29.7166V20.4122L25.0255 15.8607Z" fill="#FB6D3A"/>
<path d="M26.8221 9.79368C26.8221 10.7859 26.0177 11.5903 25.0255 11.5903C24.0333 11.5903 23.2289 10.7859 23.2289 9.79368C23.2289 8.80144 24.0333 7.99707 25.0255 7.99707C26.0177 7.99707 26.8221 8.80144 26.8221 9.79368Z" fill="black"/>
<path fill-rule="evenodd" clip-rule="evenodd" d="M25.0255 8.74707C24.4475 8.74707 23.9789 9.21565 23.9789 9.79368C23.9789 10.3717 24.4475 10.8403 25.0255 10.8403C25.6035 10.8403 26.0721 10.3717 26.0721 9.79368C26.0721 9.21565 25.6035 8.74707 25.0255 8.74707ZM22.4789 9.79368C22.4789 8.38723 23.619 7.24707 25.0255 7.24707C26.4319 7.24707 27.5721 8.38723 27.5721 9.79368C27.5721 11.2001 26.4319 12.3403 25.0255 12.3403C23.619 12.3403 22.4789 11.2001 22.4789 9.79368Z" fill="#FB6D3A"/>
<path d="M26.8221 40.3357C26.8221 41.3279 26.0177 42.1323 25.0255 42.1323C24.0333 42.1323 23.2289 41.3279 23.2289 40.3357C23.2289 39.3434 24.0333 38.5391 25.0255 38.5391C26.0177 38.5391 26.8221 39.3434 26.8221 40.3357Z" fill="black"/>
<path fill-rule="evenodd" clip-rule="evenodd" d="M25.0255 39.2891C24.4475 39.2891 23.9789 39.7576 23.9789 40.3357C23.9789 40.9137 24.4475 41.3823 25.0255 41.3823C25.6035 41.3823 26.0721 40.9137 26.0721 40.3357C26.0721 39.7576 25.6035 39.2891 25.0255 39.2891ZM22.4789 40.3357C22.4789 38.9292 23.619 37.7891 25.0255 37.7891C26.4319 37.7891 27.5721 38.9292 27.5721 40.3357C27.5721 41.7421 26.4319 42.8823 25.0255 42.8823C23.619 42.8823 22.4789 41.7421 22.4789 40.3357Z" fill="#FB6D3A"/>
<path d="M38.5001 16.0818C38.5001 17.074 37.6957 17.8784 36.7035 17.8784C35.7112 17.8784 34.9068 17.074 34.9068 16.0818C34.9068 15.0895 35.7112 14.2852 36.7035 14.2852C37.6957 14.2852 38.5001 15.0895 38.5001 16.0818Z" fill="black"/>
<path fill-rule="evenodd" clip-rule="evenodd" d="M36.7035 15.0352C36.1254 15.0352 35.6568 15.5037 35.6568 16.0818C35.6568 16.6598 36.1254 17.1284 36.7035 17.1284C37.2815 17.1284 37.7501 16.6598 37.7501 16.0818C37.7501 15.5037 37.2815 15.0352 36.7035 15.0352ZM34.1568 16.0818C34.1568 14.6753 35.297 13.5352 36.7035 13.5352C38.1099 13.5352 39.2501 14.6753 39.2501 16.0818C39.2501 17.4882 38.1099 18.6284 36.7035 18.6284C35.297 18.6284 34.1568 17.4882 34.1568 16.0818Z" fill="#FB6D3A"/>
<path d="M28.0001 20.7471C28.0001 21.9897 26.9927 22.9971 25.7501 22.9971C24.5074 22.9971 23.5001 21.9897 23.5001 20.7471C23.5001 19.5044 24.5074 18.4971 25.7501 18.4971C26.9927 18.4971 28.0001 19.5044 28.0001 20.7471Z" fill="black"/>
<path fill-rule="evenodd" clip-rule="evenodd" d="M25.7501 19.2471C24.9216 19.2471 24.2501 19.9186 24.2501 20.7471C24.2501 21.5755 24.9216 22.2471 25.7501 22.2471C26.5785 22.2471 27.2501 21.5755 27.2501 20.7471C27.2501 19.9186 26.5785 19.2471 25.7501 19.2471ZM22.7501 20.7471C22.7501 19.0902 24.0932 17.7471 25.7501 17.7471C27.4069 17.7471 28.7501 19.0902 28.7501 20.7471C28.7501 22.4039 27.4069 23.7471 25.7501 23.7471C24.0932 23.7471 22.7501 22.4039 22.7501 20.7471Z" fill="#FB6D3A"/>
<path d="M27.0001 29.9971C27.0001 30.5494 26.5523 30.9971 26.0001 30.9971C25.4478 30.9971 25.0001 30.5494 25.0001 29.9971C25.0001 29.4448 25.4478 28.9971 26.0001 28.9971C26.5523 28.9971 27.0001 29.4448 27.0001 29.9971Z" fill="black"/>
<path fill-rule="evenodd" clip-rule="evenodd" d="M26.0001 29.7471C25.862 29.7471 25.7501 29.859 25.7501 29.9971C25.7501 30.1351 25.862 30.2471 26.0001 30.2471C26.1381 30.2471 26.2501 30.1351 26.2501 29.9971C26.2501 29.859 26.1381 29.7471 26.0001 29.7471ZM24.2501 29.9971C24.2501 29.0306 25.0336 28.2471 26.0001 28.2471C26.9666 28.2471 27.7501 29.0306 27.7501 29.9971C27.7501 30.9636 26.9666 31.7471 26.0001 31.7471C25.0336 31.7471 24.2501 30.9636 24.2501 29.9971Z" fill="#FB6D3A"/>
<path d="M23.0001 29.2471C23.0001 29.9374 22.4404 30.4971 21.7501 30.4971C21.0597 30.4971 20.5001 29.9374 20.5001 29.2471C20.5001 28.5567 21.0597 27.9971 21.7501 27.9971C22.4404 27.9971 23.0001 28.5567 23.0001 29.2471Z" fill="black"/>
<path fill-rule="evenodd" clip-rule="evenodd" d="M21.7501 28.7471C21.4739 28.7471 21.2501 28.9709 21.2501 29.2471C21.2501 29.5232 21.4739 29.7471 21.7501 29.7471C22.0262 29.7471 22.2501 29.5232 22.2501 29.2471C22.2501 28.9709 22.0262 28.7471 21.7501 28.7471ZM19.7501 29.2471C19.7501 28.1425 20.6455 27.2471 21.7501 27.2471C22.8546 27.2471 23.7501 28.1425 23.7501 29.2471C23.7501 30.3516 22.8546 31.2471 21.7501 31.2471C20.6455 31.2471 19.7501 30.3516 19.7501 29.2471Z" fill="#FB6D3A"/>
<path d="M15.5933 16.0818C15.5933 17.074 14.7889 17.8784 13.7967 17.8784C12.8044 17.8784 12.0001 17.074 12.0001 16.0818C12.0001 15.0895 12.8044 14.2852 13.7967 14.2852C14.7889 14.2852 15.5933 15.0895 15.5933 16.0818Z" fill="black"/>
<path fill-rule="evenodd" clip-rule="evenodd" d="M13.7967 15.0352C13.2186 15.0352 12.7501 15.5037 12.7501 16.0818C12.7501 16.6598 13.2186 17.1284 13.7967 17.1284C14.3747 17.1284 14.8433 16.6598 14.8433 16.0818C14.8433 15.5037 14.3747 15.0352 13.7967 15.0352ZM11.2501 16.0818C11.2501 14.6753 12.3902 13.5352 13.7967 13.5352C15.2031 13.5352 16.3433 14.6753 16.3433 16.0818C16.3433 17.4882 15.2031 18.6284 13.7967 18.6284C12.3902 18.6284 11.2501 17.4882 11.2501 16.0818Z" fill="#FB6D3A"/>
<path d="M38.5001 34.0476C38.5001 35.0398 37.6957 35.8442 36.7035 35.8442C35.7112 35.8442 34.9068 35.0398 34.9068 34.0476C34.9068 33.0553 35.7112 32.251 36.7035 32.251C37.6957 32.251 38.5001 33.0553 38.5001 34.0476Z" fill="black"/>
<path fill-rule="evenodd" clip-rule="evenodd" d="M36.7035 33.001C36.1254 33.001 35.6568 33.4696 35.6568 34.0476C35.6568 34.6256 36.1254 35.0942 36.7035 35.0942C37.2815 35.0942 37.7501 34.6256 37.7501 34.0476C37.7501 33.4696 37.2815 33.001 36.7035 33.001ZM34.1568 34.0476C34.1568 32.6411 35.297 31.501 36.7035 31.501C38.1099 31.501 39.2501 32.6411 39.2501 34.0476C39.2501 35.454 38.1099 36.5942 36.7035 36.5942C35.297 36.5942 34.1568 35.454 34.1568 34.0476Z" fill="#FB6D3A"/>
<path d="M15.5933 34.0476C15.5933 35.0398 14.7889 35.8442 13.7967 35.8442C12.8044 35.8442 12.0001 35.0398 12.0001 34.0476C12.0001 33.0553 12.8044 32.251 13.7967 32.251C14.7889 32.251 15.5933 33.0553 15.5933 34.0476Z" fill="black"/>
<path fill-rule="evenodd" clip-rule="evenodd" d="M13.7967 33.001C13.2186 33.001 12.7501 33.4696 12.7501 34.0476C12.7501 34.6256 13.2186 35.0942 13.7967 35.0942C14.3747 35.0942 14.8433 34.6256 14.8433 34.0476C14.8433 33.4696 14.3747 33.001 13.7967 33.001ZM11.2501 34.0476C11.2501 32.6411 12.3902 31.501 13.7967 31.501C15.2031 31.501 16.3433 32.6411 16.3433 34.0476C16.3433 35.454 15.2031 36.5942 13.7967 36.5942C12.3902 36.5942 11.2501 35.454 11.2501 34.0476Z" fill="#FB6D3A"/>
<path fill-rule="evenodd" clip-rule="evenodd" d="M6.27337 20.3116C6.37585 19.9103 6.78427 19.668 7.18561 19.7705L8.70611 20.1588C9.10745 20.2612 9.34972 20.6697 9.24724 21.071C9.14476 21.4723 8.73634 21.7146 8.335 21.6121L6.8145 21.2239C6.41316 21.1214 6.17089 20.713 6.27337 20.3116ZM10.8349 21.4764C10.9374 21.0751 11.3458 20.8328 11.7471 20.9353L14.7881 21.7118C15.1895 21.8143 15.4317 22.2227 15.3293 22.624C15.2268 23.0254 14.8184 23.2676 14.417 23.1651L11.376 22.3886C10.9747 22.2862 10.7324 21.8777 10.8349 21.4764ZM16.9169 23.0294C17.0194 22.6281 17.4278 22.3858 17.8291 22.4883L20.8701 23.2648C21.2715 23.3673 21.5138 23.7757 21.4113 24.177C21.3088 24.5784 20.9004 24.8206 20.499 24.7182L17.458 23.9416C17.0567 23.8392 16.8144 23.4307 16.9169 23.0294ZM22.9989 24.5824C23.1014 24.1811 23.5098 23.9388 23.9112 24.0413L26.9522 24.8178C27.3535 24.9203 27.5958 25.3287 27.4933 25.73C27.3908 26.1314 26.9824 26.3736 26.5811 26.2712L23.54 25.4947C23.1387 25.3922 22.8964 24.9838 22.9989 24.5824ZM29.0809 26.1354C29.1834 25.7341 29.5918 25.4918 29.9932 25.5943L33.0342 26.3708C33.4355 26.4733 33.6778 26.8817 33.5753 27.283C33.4728 27.6844 33.0644 27.9266 32.6631 27.8242L29.6221 27.0477C29.2207 26.9452 28.9785 26.5368 29.0809 26.1354ZM35.163 27.6884C35.2654 27.2871 35.6739 27.0448 36.0752 27.1473L39.1162 27.9238C39.5175 28.0263 39.7598 28.4347 39.6573 28.836C39.5549 29.2374 39.1464 29.4797 38.7451 29.3772L35.7041 28.6007C35.3027 28.4982 35.0605 28.0898 35.163 27.6884ZM41.245 29.2414C41.3475 28.8401 41.7559 28.5978 42.1572 28.7003L43.6777 29.0886C44.0791 29.191 44.3213 29.5995 44.2188 30.0008C44.1164 30.4021 43.7079 30.6444 43.3066 30.5419L41.7861 30.1537C41.3848 30.0512 41.1425 29.6428 41.245 29.2414Z" fill="#FB6D3A"/>
</svg>
