<svg width="51" height="50" viewBox="0 0 51 50" fill="none" xmlns="http://www.w3.org/2000/svg">
<mask id="path-1-inside-1_4296_1823" fill="white">
<rect x="11.5586" y="25" width="28" height="16" rx="1"/>
</mask>
<rect x="11.5586" y="25" width="28" height="16" rx="1" stroke="white" stroke-width="3" mask="url(#path-1-inside-1_4296_1823)"/>
<mask id="path-2-inside-2_4296_1823" fill="white">
<rect x="18.5586" y="9" width="14" height="14" rx="1"/>
</mask>
<rect x="18.5586" y="9" width="14" height="14" rx="1" stroke="white" stroke-width="3" mask="url(#path-2-inside-2_4296_1823)"/>
<mask id="path-3-inside-3_4296_1823" fill="white">
<rect x="21.5586" y="25" width="8" height="8" rx="1"/>
</mask>
<rect x="21.5586" y="25" width="8" height="8" rx="1" stroke="white" stroke-width="3" mask="url(#path-3-inside-3_4296_1823)"/>
<path d="M47.0889 18.5303C47.3818 18.2374 47.3818 17.7626 47.0889 17.4697C46.796 17.1768 46.3212 17.1768 46.0283 17.4697L47.0889 18.5303ZM39.0889 26.5303L47.0889 18.5303L46.0283 17.4697L38.0283 25.4697L39.0889 26.5303Z" fill="white"/>
<path d="M30.845 33.583H35.7253" stroke="white" stroke-width="1.5" stroke-linecap="round"/>
<path d="M32.3992 36.24H35.7258" stroke="white" stroke-width="1.5" stroke-linecap="round"/>
<path d="M4.55859 18L11.5586 26" stroke="white" stroke-width="1.5" stroke-linecap="round"/>
<path d="M25.4808 12C25.8808 12 26.2401 12.0484 26.5586 12.1451C26.8771 12.2349 27.1475 12.3661 27.3697 12.5389C27.5919 12.7047 27.7623 12.905 27.8808 13.1399C27.9993 13.3748 28.0586 13.6339 28.0586 13.9171V14.0311C28.0586 14.1969 28.0364 14.3558 27.9919 14.5078C27.9549 14.6528 27.8845 14.8014 27.7808 14.9534C27.6845 15.1054 27.5475 15.2677 27.3697 15.4404C27.1993 15.6131 26.9845 15.81 26.7253 16.0311C26.5623 16.1693 26.4327 16.2902 26.3364 16.3938C26.2401 16.4905 26.166 16.5838 26.1141 16.6736C26.0623 16.7565 26.029 16.8428 26.0141 16.9326C25.9993 17.0155 25.9919 17.1123 25.9919 17.2228C25.9919 17.3817 25.9253 17.506 25.7919 17.5959C25.666 17.6857 25.5179 17.7306 25.3475 17.7306C25.1623 17.7306 25.003 17.6891 24.8697 17.6062C24.7364 17.5164 24.6697 17.3782 24.6697 17.1917C24.6697 17.0121 24.6808 16.8497 24.703 16.7047C24.7253 16.5596 24.766 16.4214 24.8253 16.2902C24.8919 16.152 24.9845 16.0173 25.103 15.886C25.229 15.7478 25.3919 15.5959 25.5919 15.4301C25.8216 15.2435 26.003 15.0881 26.1364 14.9637C26.2771 14.8325 26.3845 14.715 26.4586 14.6114C26.5327 14.5078 26.5808 14.4145 26.603 14.3316C26.6253 14.2418 26.6364 14.1451 26.6364 14.0415V13.9896C26.6364 13.8791 26.6141 13.7755 26.5697 13.6788C26.5253 13.582 26.4549 13.4957 26.3586 13.4197C26.2697 13.3437 26.1475 13.285 25.9919 13.2435C25.8438 13.1952 25.6586 13.171 25.4364 13.171C25.1401 13.171 24.8808 13.2124 24.6586 13.2953C24.4364 13.3782 24.2253 13.4853 24.0253 13.6166C23.8771 13.7133 23.729 13.7478 23.5808 13.7202C23.4401 13.6857 23.3179 13.6028 23.2141 13.4715C23.1104 13.3471 23.0586 13.209 23.0586 13.057C23.066 12.8981 23.1438 12.7668 23.2919 12.6632C23.566 12.4629 23.8808 12.304 24.2364 12.1865C24.5993 12.0622 25.0141 12 25.4808 12ZM25.3364 18.4249C25.5734 18.4249 25.7734 18.5009 25.9364 18.6528C26.0993 18.8048 26.1808 18.9914 26.1808 19.2124C26.1808 19.4335 26.0993 19.62 25.9364 19.772C25.7734 19.924 25.5734 20 25.3364 20C25.0993 20 24.8993 19.924 24.7364 19.772C24.5734 19.62 24.4919 19.4335 24.4919 19.2124C24.4919 18.9914 24.5734 18.8048 24.7364 18.6528C24.8993 18.5009 25.0993 18.4249 25.3364 18.4249Z" fill="white"/>
</svg>
