<svg width="50" height="50" viewBox="0 0 50 50" fill="none" xmlns="http://www.w3.org/2000/svg">
<path d="M10 5C10 4.44772 10.4477 4 11 4H39C39.5523 4 40 4.44772 40 5V45.5C40 46.0523 39.5523 46.5 39 46.5H11C10.4477 46.5 10 46.0523 10 45.5V5Z" fill="#1B1322"/>
<path fill-rule="evenodd" clip-rule="evenodd" d="M9.25 5C9.25 4.0335 10.0335 3.25 11 3.25H39C39.9665 3.25 40.75 4.0335 40.75 5V45.5C40.75 46.4665 39.9665 47.25 39 47.25H11C10.0335 47.25 9.25 46.4665 9.25 45.5V5ZM11 4.75C10.8619 4.75 10.75 4.86193 10.75 5V45.5C10.75 45.6381 10.8619 45.75 11 45.75H39C39.1381 45.75 39.25 45.6381 39.25 45.5V5C39.25 4.86193 39.1381 4.75 39 4.75H11Z" fill="white"/>
<path fill-rule="evenodd" clip-rule="evenodd" d="M40.75 36C40.75 36.4142 40.4142 36.75 40 36.75H10C9.58578 36.75 9.25 36.4142 9.25 36C9.25 35.5858 9.58578 35.25 10 35.25H40C40.4142 35.25 40.75 35.5858 40.75 36Z" fill="white"/>
<path fill-rule="evenodd" clip-rule="evenodd" d="M40.75 43C40.75 43.4142 40.4142 43.75 40 43.75H10C9.58578 43.75 9.25 43.4142 9.25 43C9.25 42.5858 9.58578 42.25 10 42.25H40C40.4142 42.25 40.75 42.5858 40.75 43Z" fill="white"/>
<path fill-rule="evenodd" clip-rule="evenodd" d="M40.75 39.5C40.75 39.9142 40.4142 40.25 40 40.25H10C9.58578 40.25 9.25 39.9142 9.25 39.5C9.25 39.0858 9.58578 38.75 10 38.75H40C40.4142 38.75 40.75 39.0858 40.75 39.5Z" fill="white"/>
<path fill-rule="evenodd" clip-rule="evenodd" d="M27.75 22.5C27.75 22.9142 27.4142 23.25 27 23.25H23C22.5858 23.25 22.25 22.9142 22.25 22.5C22.25 22.0858 22.5858 21.75 23 21.75H27C27.4142 21.75 27.75 22.0858 27.75 22.5Z" fill="white"/>
<path d="M13 8C13 7.44772 13.4477 7 14 7H36C36.5523 7 37 7.44772 37 8V18C37 18.5523 36.5523 19 36 19H14C13.4477 19 13 18.5523 13 18V8Z" fill="#1B1322"/>
<path fill-rule="evenodd" clip-rule="evenodd" d="M12.25 8C12.25 7.0335 13.0335 6.25 14 6.25H36C36.9665 6.25 37.75 7.0335 37.75 8V18C37.75 18.9665 36.9665 19.75 36 19.75H14C13.0335 19.75 12.25 18.9665 12.25 18V8ZM14 7.75C13.8619 7.75 13.75 7.86193 13.75 8V18C13.75 18.1381 13.8619 18.25 14 18.25H36C36.1381 18.25 36.25 18.1381 36.25 18V8C36.25 7.86193 36.1381 7.75 36 7.75H14Z" fill="white"/>
<path fill-rule="evenodd" clip-rule="evenodd" d="M15.25 10C15.25 9.58579 15.5858 9.25 16 9.25H34C34.4142 9.25 34.75 9.58579 34.75 10C34.75 10.4142 34.4142 10.75 34 10.75H16C15.5858 10.75 15.25 10.4142 15.25 10Z" fill="white"/>
<path fill-rule="evenodd" clip-rule="evenodd" d="M15.25 13C15.25 12.5858 15.5858 12.25 16 12.25H34C34.4142 12.25 34.75 12.5858 34.75 13C34.75 13.4142 34.4142 13.75 34 13.75H16C15.5858 13.75 15.25 13.4142 15.25 13Z" fill="white"/>
<path fill-rule="evenodd" clip-rule="evenodd" d="M15.25 16C15.25 15.5858 15.5858 15.25 16 15.25H27.5C27.9142 15.25 28.25 15.5858 28.25 16C28.25 16.4142 27.9142 16.75 27.5 16.75H16C15.5858 16.75 15.25 16.4142 15.25 16Z" fill="white"/>
<path fill-rule="evenodd" clip-rule="evenodd" d="M30.25 16C30.25 15.5858 30.5858 15.25 31 15.25L34 15.25C34.4142 15.25 34.75 15.5858 34.75 16C34.75 16.4142 34.4142 16.75 34 16.75L31 16.75C30.5858 16.75 30.25 16.4142 30.25 16Z" fill="white"/>
</svg>
