<svg width="71" height="70" viewBox="0 0 71 70" fill="none" xmlns="http://www.w3.org/2000/svg">
<path d="M20.6332 30.7822H14.7867C13.977 30.7822 13.3274 31.449 13.3274 32.2587V55.921C13.3274 56.7402 13.9864 57.3975 14.7867 57.3975H20.6332C21.4428 57.3975 22.0925 56.7307 22.0925 55.921V32.2587C22.1019 31.449 21.4428 30.7822 20.6332 30.7822Z" stroke="#49C3FF" stroke-width="2.5" stroke-miterlimit="10"/>
<path d="M58.0764 34.7066C57.8222 32.4109 55.7039 30.782 53.4161 30.782H42.0243C42.994 29.0292 43.5119 24.0662 43.493 22.0372C43.4554 18.6841 40.7063 15.9883 37.3923 15.9883H36.1872C35.3776 15.9883 34.728 16.6456 34.728 17.4648C34.728 20.8846 33.4099 27.0573 30.9338 29.5722C29.4347 31.089 28.126 31.7424 26.5143 32.5449C26.1761 32.7133 25.9629 33.0589 25.9629 33.4367V54.2984C25.9629 54.7272 26.2355 55.1082 26.6411 55.2474C29.4061 56.1964 32.8966 57.3972 38.0231 57.3972H47.5884C50.7423 57.3972 53.1901 54.4442 51.9757 51.3292C53.8398 50.8148 55.2049 49.0907 55.2049 47.0521C55.2049 46.4711 55.0919 45.9281 54.8942 45.4137C58.0293 44.5468 59.1873 40.6317 57.0031 38.174C57.7845 37.2786 58.227 36.0402 58.0764 34.7066Z" stroke="#49C3FF" stroke-width="2.5" stroke-miterlimit="10"/>
<path d="M23.1274 9.87891L28.7435 12.7201" stroke="#49C3FF" stroke-width="2.5" stroke-miterlimit="10" stroke-linecap="round"/>
<path d="M30.1465 4.19727L32.9545 8.45903" stroke="#49C3FF" stroke-width="2.5" stroke-miterlimit="10" stroke-linecap="round"/>
<path d="M52.6116 9.87891L46.9956 12.7201" stroke="#49C3FF" stroke-width="2.5" stroke-miterlimit="10" stroke-linecap="round"/>
<path d="M44.1874 4.19727L41.3794 8.45903" stroke="#49C3FF" stroke-width="2.5" stroke-miterlimit="10" stroke-linecap="round"/>
</svg>
