<svg width="71" height="70" viewBox="0 0 71 70" fill="none" xmlns="http://www.w3.org/2000/svg">
<path d="M15.5225 43.5469V11.0469H55.0225V43.5469H15.5225Z" stroke="#49C3FF" stroke-width="2.5"/>
<path d="M12.7227 57.5469V32.5636L34.5238 40.2581C35.0084 40.4292 35.5369 40.4292 36.0215 40.2581L57.8227 32.5636V57.5469H12.7227ZM58.1559 32.446C58.1556 32.4461 58.1554 32.4462 58.1551 32.4463L58.1559 32.446Z" fill="black" stroke="#49C3FF" stroke-width="2.5"/>
<path d="M35.2726 36.3975L12.8726 57.7559H57.6726L35.2726 36.3975Z" fill="black" stroke="#49C3FF" stroke-width="2.5" stroke-linecap="round" stroke-linejoin="round"/>
<path d="M25.2748 17.1214C25.4465 17.1214 25.5996 17.17 25.734 17.267C25.8684 17.3566 25.9356 17.5022 25.9356 17.7038V24.2446C25.9356 24.5956 25.8647 24.8382 25.7228 24.9726C25.5884 25.107 25.342 25.1742 24.9836 25.1742C24.8492 25.1742 24.7297 25.163 24.6252 25.1406C24.5207 25.1182 24.4199 25.0697 24.3228 24.995C24.2257 24.9129 24.1249 24.7972 24.0204 24.6478C23.9159 24.4985 23.7927 24.2969 23.6508 24.043L21.534 20.2574C21.422 20.0558 21.3212 19.8542 21.2316 19.6526C21.142 19.451 21.0636 19.2233 20.9964 18.9694V24.6366C20.9964 24.8382 20.9292 24.9876 20.7948 25.0846C20.6604 25.1742 20.5073 25.219 20.3356 25.219C20.1639 25.219 20.0108 25.1742 19.8764 25.0846C19.742 24.9876 19.6748 24.8382 19.6748 24.6366V18.0958C19.6748 17.7449 19.742 17.5022 19.8764 17.3678C20.0183 17.2334 20.2684 17.1662 20.6268 17.1662C20.7612 17.1662 20.8807 17.1774 20.9852 17.1998C21.0897 17.2222 21.1905 17.2745 21.2876 17.3566C21.3847 17.4313 21.4855 17.5433 21.59 17.6926C21.6945 17.842 21.8177 18.0436 21.9596 18.2974L24.0764 22.083C24.1884 22.2846 24.2892 22.4862 24.3788 22.6878C24.4684 22.8894 24.5468 23.1172 24.614 23.371V17.7038C24.614 17.5022 24.6812 17.3566 24.8156 17.267C24.95 17.17 25.1031 17.1214 25.2748 17.1214Z" fill="#49C3FF"/>
<path d="M32.5179 17.1886C32.6896 17.1886 32.8128 17.2484 32.8875 17.3678C32.9696 17.4798 33.0107 17.618 33.0107 17.7822C33.0107 17.939 32.9696 18.0772 32.8875 18.1966C32.8128 18.3161 32.6896 18.3758 32.5179 18.3758H29.1691V20.4926H32.2939C32.4581 20.4926 32.5776 20.5524 32.6523 20.6718C32.7344 20.7838 32.7755 20.9182 32.7755 21.075C32.7755 21.2318 32.7344 21.37 32.6523 21.4894C32.5776 21.6014 32.4581 21.6574 32.2939 21.6574H29.1691V23.9646H32.5963C32.768 23.9646 32.8912 24.0244 32.9659 24.1438C33.048 24.2633 33.0891 24.4014 33.0891 24.5582C33.0891 24.7225 33.048 24.8644 32.9659 24.9838C32.8912 25.0958 32.768 25.1518 32.5963 25.1518H28.6987C28.3403 25.1518 28.0901 25.0846 27.9483 24.9502C27.8139 24.8158 27.7467 24.5732 27.7467 24.2222V18.1182C27.7467 17.7673 27.8139 17.5246 27.9483 17.3902C28.0901 17.2558 28.3403 17.1886 28.6987 17.1886H32.5179Z" fill="#49C3FF"/>
<path d="M39.2535 17.1214C39.4253 17.1214 39.5933 17.1737 39.7575 17.2782C39.9218 17.3753 40.0375 17.547 40.1047 17.7934L41.5607 23.0574L42.9831 17.6142C43.0354 17.4126 43.1362 17.2745 43.2855 17.1998C43.4423 17.1252 43.6141 17.1065 43.8007 17.1438C43.9949 17.1812 44.133 17.2745 44.2151 17.4238C44.3047 17.5657 44.3197 17.7374 44.2599 17.939L42.4119 24.547C42.3447 24.7934 42.229 24.9689 42.0647 25.0734C41.9005 25.1705 41.7325 25.219 41.5607 25.219C41.389 25.219 41.221 25.1705 41.0567 25.0734C40.8925 24.9689 40.7767 24.786 40.7095 24.5246L39.2423 19.0478L37.7079 24.547C37.6407 24.7934 37.5213 24.9689 37.3495 25.0734C37.1853 25.1705 37.0173 25.219 36.8455 25.219C36.6663 25.219 36.4946 25.1705 36.3303 25.0734C36.1661 24.9689 36.0503 24.7897 35.9831 24.5358L34.1799 18.0062C34.1202 17.7897 34.1351 17.6068 34.2247 17.4574C34.3218 17.3081 34.4711 17.2073 34.6727 17.155C34.8594 17.1102 35.0349 17.114 35.1991 17.1662C35.3709 17.2185 35.4866 17.3604 35.5463 17.5918L36.9239 23.0686L38.3911 17.7934C38.4583 17.547 38.5741 17.3753 38.7383 17.2782C38.9026 17.1737 39.0743 17.1214 39.2535 17.1214Z" fill="#49C3FF"/>
<path d="M48.3612 17.0654C49.1676 17.0654 49.8434 17.2036 50.3884 17.4798C50.5527 17.562 50.6572 17.6852 50.702 17.8494C50.7468 18.0137 50.7244 18.178 50.6348 18.3422C50.5452 18.514 50.4295 18.6222 50.2876 18.667C50.1458 18.7044 49.9964 18.6894 49.8396 18.6222C49.6007 18.5177 49.373 18.4468 49.1564 18.4094C48.9399 18.3646 48.6823 18.3422 48.3836 18.3422C48.1372 18.3422 47.9207 18.3721 47.734 18.4318C47.5548 18.4841 47.4018 18.5588 47.2748 18.6558C47.1479 18.7454 47.0508 18.85 46.9836 18.9694C46.9239 19.0814 46.894 19.1972 46.894 19.3166V19.3838C46.894 19.5257 46.9164 19.6489 46.9612 19.7534C47.0135 19.858 47.0994 19.955 47.2188 20.0446C47.3458 20.1268 47.5175 20.2052 47.734 20.2798C47.9506 20.347 48.2306 20.4142 48.574 20.4814C49.5074 20.6756 50.1756 20.963 50.5788 21.3438C50.982 21.7246 51.1836 22.2137 51.1836 22.811V22.9118C51.1836 23.6809 50.9335 24.267 50.4332 24.6702C49.933 25.0734 49.1938 25.275 48.2156 25.275C47.7527 25.275 47.301 25.219 46.8604 25.107C46.4274 24.9876 46.0615 24.8345 45.7628 24.6478C45.5836 24.5358 45.4828 24.394 45.4604 24.2222C45.438 24.043 45.4791 23.875 45.5836 23.7182C45.6882 23.554 45.8151 23.4532 45.9644 23.4158C46.1138 23.3785 46.2743 23.4084 46.446 23.5054C46.7074 23.6548 46.9948 23.7742 47.3084 23.8638C47.622 23.946 47.9468 23.987 48.2828 23.987C48.798 23.987 49.1714 23.8974 49.4028 23.7182C49.6343 23.5316 49.75 23.3001 49.75 23.0238V22.9454C49.75 22.6318 49.6268 22.3892 49.3804 22.2174C49.1415 22.0382 48.7532 21.8964 48.2156 21.7918C47.7452 21.7022 47.3383 21.5977 46.9948 21.4782C46.6514 21.3588 46.3639 21.2094 46.1324 21.0302C45.9084 20.8436 45.7404 20.6233 45.6284 20.3694C45.5239 20.1081 45.4716 19.7908 45.4716 19.4174V19.339C45.4716 19.0254 45.5314 18.7305 45.6508 18.4542C45.7778 18.178 45.9644 17.939 46.2108 17.7374C46.4572 17.5284 46.7596 17.3641 47.118 17.2446C47.4764 17.1252 47.8908 17.0654 48.3612 17.0654Z" fill="#49C3FF"/>
</svg>
