<svg width="50" height="50" viewBox="0 0 50 50" fill="none" xmlns="http://www.w3.org/2000/svg">
<path d="M6.1539 11.7666C6.1539 11.2143 6.60162 10.7666 7.1539 10.7666H42.8462C43.3985 10.7666 43.8462 11.2143 43.8462 11.7666V35.9205C43.8462 36.4727 43.3985 36.9204 42.8462 36.9204H7.1539C6.60162 36.9204 6.1539 36.4727 6.1539 35.9204V11.7666Z" fill="black"/>
<path fill-rule="evenodd" clip-rule="evenodd" d="M5.4039 11.7666C5.4039 10.8001 6.1874 10.0166 7.1539 10.0166H42.8462C43.8127 10.0166 44.5962 10.8001 44.5962 11.7666V35.9205C44.5962 36.8869 43.8127 37.6704 42.8462 37.6704H7.1539C6.1874 37.6704 5.4039 36.8869 5.4039 35.9204V11.7666ZM7.1539 11.5166C7.01583 11.5166 6.9039 11.6285 6.9039 11.7666V35.9204C6.9039 36.0585 7.01583 36.1704 7.1539 36.1704H42.8462C42.9843 36.1704 43.0962 36.0585 43.0962 35.9205V11.7666C43.0962 11.6285 42.9843 11.5166 42.8462 11.5166H7.1539Z" fill="#FB6D3A"/>
<path fill-rule="evenodd" clip-rule="evenodd" d="M20.9852 18.1115C21.198 18.4668 21.0826 18.9275 20.7273 19.1403L14.8855 22.6403C14.5302 22.8532 14.0696 22.7378 13.8567 22.3824C13.6438 22.0271 13.7593 21.5665 14.1146 21.3536L19.9563 17.8536C20.3116 17.6407 20.7723 17.7562 20.9852 18.1115Z" fill="#FB6D3A"/>
<path fill-rule="evenodd" clip-rule="evenodd" d="M35.7568 17.6087C35.9715 17.9629 35.8585 18.4241 35.5043 18.6389L14.8889 31.1389C14.5347 31.3536 14.0735 31.2406 13.8587 30.8864C13.644 30.5322 13.757 30.071 14.1112 29.8562L34.7266 17.3562C35.0808 17.1415 35.542 17.2545 35.7568 17.6087Z" fill="#FB6D3A"/>
<path fill-rule="evenodd" clip-rule="evenodd" d="M25.6113 29.8906C25.3942 29.5378 25.5042 29.0759 25.857 28.8588L35.607 22.8588C35.9598 22.6417 36.4217 22.7517 36.6388 23.1045C36.8559 23.4572 36.7459 23.9192 36.3931 24.1363L26.6431 30.1363C26.2904 30.3534 25.8284 30.2434 25.6113 29.8906Z" fill="#FB6D3A"/>
<path fill-rule="evenodd" clip-rule="evenodd" d="M26.3143 15.122C26.5214 15.4807 26.3985 15.9394 26.0398 16.1465L23.3751 17.6849C23.0163 17.8921 22.5576 17.7691 22.3505 17.4104C22.1434 17.0517 22.2663 16.593 22.6251 16.3859L25.2898 14.8474C25.6485 14.6403 26.1072 14.7632 26.3143 15.122Z" fill="#FB6D3A"/>
<path fill-rule="evenodd" clip-rule="evenodd" d="M23.4737 31.1209C23.6816 31.4791 23.5598 31.9381 23.2016 32.1461L21.8766 32.9153C21.5184 33.1233 21.0594 33.0015 20.8515 32.6433C20.6435 32.285 20.7653 31.8261 21.1235 31.6181L22.4485 30.8489C22.8067 30.6409 23.2657 30.7627 23.4737 31.1209Z" fill="#FB6D3A"/>
<path fill-rule="evenodd" clip-rule="evenodd" d="M11.7445 36.199C12.1428 36.3128 12.3734 36.7279 12.2596 37.1262L10.7212 42.5108C10.6074 42.909 10.1923 43.1397 9.794 43.0259C9.39572 42.9121 9.1651 42.497 9.2789 42.0987L10.8174 36.7141C10.9312 36.3158 11.3463 36.0852 11.7445 36.199ZM38.2555 36.199C38.6538 36.0852 39.0689 36.3158 39.1827 36.7141L40.7212 42.0987C40.835 42.497 40.6044 42.9121 40.2061 43.0259C39.8078 43.1397 39.3927 42.909 39.2789 42.5108L37.7404 37.1262C37.6266 36.7279 37.8573 36.3128 38.2555 36.199Z" fill="#FB6D3A"/>
</svg>
