<svg width="50" height="50" viewBox="0 0 50 50" fill="none" xmlns="http://www.w3.org/2000/svg">
<path d="M37.85 11.1514H20.7653C20.0354 11.1514 19.3421 11.4703 18.8671 12.0244L12.6923 19.2283L6.32485 21.3508C5.30399 21.6911 4.61542 22.6464 4.61542 23.7225V32.1129C4.61542 33.4936 5.73471 34.6129 7.11542 34.6129H42.8107C43.4737 34.6129 44.1096 34.3495 44.5784 33.8807L45.4216 33.0374C45.8905 32.5686 46.1539 31.9327 46.1539 31.2697V19.1498C46.1539 18.4633 45.8716 17.807 45.3732 17.3349L39.5694 11.8365C39.105 11.3966 38.4897 11.1514 37.85 11.1514Z" fill="black"/>
<path fill-rule="evenodd" clip-rule="evenodd" d="M18.2977 11.5363C18.9151 10.8159 19.8165 10.4014 20.7653 10.4014H37.85C38.6816 10.4014 39.4815 10.7201 40.0852 11.292L45.889 16.7904C46.5369 17.4042 46.9039 18.2573 46.9039 19.1498V31.2697C46.9039 32.1316 46.5615 32.9583 45.952 33.5678L45.1087 34.411C44.4993 35.0205 43.6726 35.3629 42.8107 35.3629H7.11542C5.3205 35.3629 3.86542 33.9078 3.86542 32.1129V23.7225C3.86542 22.3236 4.76057 21.0816 6.08768 20.6393L12.2581 18.5825L18.2977 11.5363ZM20.7653 11.9014C20.2544 11.9014 19.769 12.1246 19.4366 12.5125L13.1266 19.8741L6.56202 22.0623C5.84742 22.3005 5.36542 22.9692 5.36542 23.7225V32.1129C5.36542 33.0794 6.14892 33.8629 7.11542 33.8629H42.8107C43.2748 33.8629 43.7199 33.6785 44.0481 33.3503L44.8913 32.5071C45.2195 32.1789 45.4039 31.7338 45.4039 31.2697V19.1498C45.4039 18.6692 45.2063 18.2098 44.8574 17.8794L39.0536 12.381C38.7285 12.073 38.2978 11.9014 37.85 11.9014H20.7653Z" fill="#FB6D3A"/>
<path d="M19.2308 34.9974C19.2308 37.334 17.3366 39.2281 15.0001 39.2281C12.6635 39.2281 10.7693 37.334 10.7693 34.9974C10.7693 32.6608 12.6635 30.7666 15.0001 30.7666C17.3366 30.7666 19.2308 32.6608 19.2308 34.9974Z" fill="black"/>
<path fill-rule="evenodd" clip-rule="evenodd" d="M15.0001 31.5166C13.0777 31.5166 11.5193 33.075 11.5193 34.9974C11.5193 36.9197 13.0777 38.4781 15.0001 38.4781C16.9224 38.4781 18.4808 36.9197 18.4808 34.9974C18.4808 33.075 16.9224 31.5166 15.0001 31.5166ZM10.0193 34.9974C10.0193 32.2466 12.2493 30.0166 15.0001 30.0166C17.7509 30.0166 19.9808 32.2466 19.9808 34.9974C19.9808 37.7482 17.7509 39.9781 15.0001 39.9781C12.2493 39.9781 10.0193 37.7482 10.0193 34.9974Z" fill="#FB6D3A"/>
<path d="M40.7693 34.9974C40.7693 37.334 38.8751 39.2281 36.5385 39.2281C34.2019 39.2281 32.3077 37.334 32.3077 34.9974C32.3077 32.6608 34.2019 30.7666 36.5385 30.7666C38.8751 30.7666 40.7693 32.6608 40.7693 34.9974Z" fill="black"/>
<path fill-rule="evenodd" clip-rule="evenodd" d="M36.5385 31.5166C34.6161 31.5166 33.0577 33.075 33.0577 34.9974C33.0577 36.9197 34.6161 38.4781 36.5385 38.4781C38.4609 38.4781 40.0193 36.9197 40.0193 34.9974C40.0193 33.075 38.4609 31.5166 36.5385 31.5166ZM31.5577 34.9974C31.5577 32.2466 33.7877 30.0166 36.5385 30.0166C39.2893 30.0166 41.5193 32.2466 41.5193 34.9974C41.5193 37.7482 39.2893 39.9781 36.5385 39.9781C33.7877 39.9781 31.5577 37.7482 31.5577 34.9974Z" fill="#FB6D3A"/>
<path fill-rule="evenodd" clip-rule="evenodd" d="M27.7324 16.2491C27.9047 15.7422 28.3806 15.4014 28.9159 15.4014H33.6511C34.4913 15.4014 35.0922 16.2136 34.8464 17.017L33.8984 20.116H36.6707C37.7106 20.116 38.2958 21.3118 37.6578 22.1329L31.4871 30.0752C30.7567 31.0153 29.25 30.4988 29.25 29.3082V23.9733H26.8519C25.9956 23.9733 25.3929 23.1318 25.6684 22.321L27.7324 16.2491ZM29.0949 16.9014L27.201 22.4733H29.5C30.1904 22.4733 30.75 23.033 30.75 23.7233V28.579L36.1599 21.616H33.5605C32.7203 21.616 32.1194 20.8037 32.3652 20.0003L33.3132 16.9014H29.0949Z" fill="#FB6D3A"/>
<path fill-rule="evenodd" clip-rule="evenodd" d="M46.1539 28.4395C46.1539 28.8537 45.8181 29.1895 45.4039 29.1895L41.5193 29.1895C41.105 29.1895 40.7693 28.8537 40.7693 28.4395C40.7693 28.0252 41.105 27.6895 41.5193 27.6895L45.4039 27.6895C45.8181 27.6895 46.1539 28.0252 46.1539 28.4395Z" fill="#FB6D3A"/>
<path fill-rule="evenodd" clip-rule="evenodd" d="M10.0001 28.4395C10.0001 28.8537 9.66427 29.1895 9.25006 29.1895L5.36545 29.1895C4.95123 29.1895 4.61545 28.8537 4.61545 28.4395C4.61544 28.0252 4.95123 27.6895 5.36544 27.6895L9.25006 27.6895C9.66427 27.6895 10.0001 28.0252 10.0001 28.4395Z" fill="#FB6D3A"/>
<path fill-rule="evenodd" clip-rule="evenodd" d="M24.6154 28.4395C24.6154 28.8537 24.2796 29.1895 23.8654 29.1895H12.2885C11.8743 29.1895 11.5385 28.8537 11.5385 28.4395C11.5385 28.0252 11.8743 27.6895 12.2885 27.6895H23.8654C24.2796 27.6895 24.6154 28.0252 24.6154 28.4395Z" fill="#FB6D3A"/>
</svg>
