<svg width="33" height="33" viewBox="0 0 33 33" fill="none" xmlns="http://www.w3.org/2000/svg">
<path fill-rule="evenodd" clip-rule="evenodd" d="M13.7026 0.5H19.2974C21.3342 0.499988 22.9523 0.499979 24.2568 0.608308C25.5922 0.719208 26.7275 0.95106 27.7636 1.48929C29.3685 2.32295 30.6771 3.63149 31.5107 5.23636C32.0489 6.27249 32.2808 7.4078 32.3917 8.74322C32.5 10.0477 32.5 11.6658 32.5 13.7026V19.2974C32.5 21.3341 32.5 22.9523 32.3917 24.2568C32.2808 25.5922 32.0489 26.7275 31.5107 27.7636C30.6771 29.3685 29.3685 30.6771 27.7636 31.5107C26.7275 32.0489 25.5922 32.2808 24.2568 32.3917C22.9523 32.5 21.3341 32.5 19.2974 32.5H13.7026C11.6658 32.5 10.0477 32.5 8.74322 32.3917C7.4078 32.2808 6.27249 32.0489 5.23636 31.5107C3.63149 30.6771 2.32295 29.3685 1.48929 27.7636C0.95106 26.7275 0.719208 25.5922 0.608308 24.2568C0.499979 22.9523 0.499988 21.3342 0.5 19.2974V13.7026C0.499988 11.6658 0.499979 10.0477 0.608308 8.74322C0.719208 7.4078 0.95106 6.27249 1.48929 5.23636C2.32295 3.63149 3.63149 2.32295 5.23636 1.48929C6.27249 0.95106 7.4078 0.719208 8.74322 0.608308C10.0477 0.499979 11.6658 0.499988 13.7026 0.5ZM8.982 3.48366C7.82823 3.57947 7.12204 3.76105 6.56638 4.04969C5.48849 4.60961 4.60961 5.48849 4.04969 6.56638C3.76105 7.12204 3.57947 7.82823 3.48366 8.982C3.38641 10.153 3.38525 11.6514 3.38525 13.7669V19.2331C3.38525 21.3486 3.38641 22.847 3.48366 24.018C3.57947 25.1718 3.76105 25.878 4.04969 26.4336C4.60961 27.5115 5.48849 28.3904 6.56638 28.9503C7.12204 29.2389 7.82823 29.4205 8.982 29.5163C10.153 29.6136 11.6514 29.6148 13.7669 29.6148H19.2331C21.3486 29.6148 22.847 29.6136 24.018 29.5163C25.1718 29.4205 25.878 29.2389 26.4336 28.9503C27.5115 28.3904 28.3904 27.5115 28.9503 26.4336C29.2389 25.878 29.4205 25.1718 29.5163 24.018C29.6136 22.847 29.6148 21.3486 29.6148 19.2331V13.7669C29.6148 11.6514 29.6136 10.153 29.5163 8.982C29.4205 7.82823 29.2389 7.12204 28.9503 6.56638C28.3904 5.48849 27.5115 4.60961 26.4336 4.04969C25.878 3.76105 25.1718 3.57947 24.018 3.48366C22.847 3.38641 21.3486 3.38525 19.2331 3.38525H13.7669C11.6514 3.38525 10.153 3.38641 8.982 3.48366Z" fill="white"/>
<path fill-rule="evenodd" clip-rule="evenodd" d="M16.5 11.2539C13.6028 11.2539 11.2541 13.6026 11.2541 16.4998C11.2541 19.397 13.6028 21.7457 16.5 21.7457C19.3973 21.7457 21.7459 19.397 21.7459 16.4998C21.7459 13.6026 19.3973 11.2539 16.5 11.2539ZM8.3689 16.4998C8.3689 12.0091 12.0093 8.36865 16.5 8.36865C20.9908 8.36865 24.6312 12.0091 24.6312 16.4998C24.6312 20.9905 20.9908 24.6309 16.5 24.6309C12.0093 24.6309 8.3689 20.9905 8.3689 16.4998Z" fill="white"/>
<path d="M27.1231 7.84465C27.1231 8.93112 26.2424 9.81187 25.1559 9.81187C24.0695 9.81187 23.1887 8.93112 23.1887 7.84465C23.1887 6.75819 24.0695 5.87744 25.1559 5.87744C26.2424 5.87744 27.1231 6.75819 27.1231 7.84465Z" fill="white"/>
</svg>
