<svg width="80" height="80" viewBox="0 0 80 80" fill="none" xmlns="http://www.w3.org/2000/svg">
<path d="M18.3606 16.077C18.3606 13.9041 20.1221 12.1426 22.295 12.1426H57.7049C59.8778 12.1426 61.6393 13.9041 61.6393 16.077V65.2573C61.6393 67.4303 59.8778 69.1918 57.7049 69.1918H22.295C20.1221 69.1918 18.3606 67.4303 18.3606 65.2573V16.077Z" fill="black"/>
<path fill-rule="evenodd" clip-rule="evenodd" d="M16.8853 16.0768C16.8853 13.0891 19.3073 10.667 22.2951 10.667H57.7049C60.6927 10.667 63.1148 13.0891 63.1148 16.0768V65.2572C63.1148 68.2449 60.6927 70.667 57.7049 70.667H22.2951C19.3073 70.667 16.8853 68.2449 16.8853 65.2572V16.0768ZM22.2951 13.6178C20.937 13.6178 19.8361 14.7188 19.8361 16.0768V65.2572C19.8361 66.6152 20.937 67.7162 22.2951 67.7162H57.7049C59.063 67.7162 60.1639 66.6152 60.1639 65.2572V16.0768C60.1639 14.7188 59.063 13.6178 57.7049 13.6178H22.2951Z" fill="white"/>
<path fill-rule="evenodd" clip-rule="evenodd" d="M55.7377 27.3883L18.3607 27.3883C17.5458 27.3883 16.8853 26.7278 16.8853 25.9129C16.8853 25.0981 17.5458 24.4375 18.3607 24.4375L55.7377 24.4375C56.5526 24.4375 57.2131 25.0981 57.2131 25.9129C57.2131 26.7278 56.5526 27.3883 55.7377 27.3883Z" fill="white"/>
<path d="M27.2132 19.0278C27.2132 20.1142 26.3325 20.995 25.246 20.995C24.1596 20.995 23.2788 20.1142 23.2788 19.0278C23.2788 17.9413 24.1596 17.0605 25.246 17.0605C26.3325 17.0605 27.2132 17.9413 27.2132 19.0278Z" fill="#EF7300"/>
<path d="M34.0985 19.0278C34.0985 20.1142 33.2177 20.995 32.1313 20.995C31.0448 20.995 30.1641 20.1142 30.1641 19.0278C30.1641 17.9413 31.0448 17.0605 32.1313 17.0605C33.2177 17.0605 34.0985 17.9413 34.0985 19.0278Z" fill="#EF7300"/>
<path d="M56.7213 19.0278C56.7213 20.1142 55.8405 20.995 54.7541 20.995C53.6676 20.995 52.7869 20.1142 52.7869 19.0278C52.7869 17.9413 53.6676 17.0605 54.7541 17.0605C55.8405 17.0605 56.7213 17.9413 56.7213 19.0278Z" fill="#EF7300"/>
<path d="M53.7705 48.5359C53.7705 55.5979 48.0457 61.3228 40.9837 61.3228C33.9217 61.3228 28.1968 55.5979 28.1968 48.5359C28.1968 41.4739 33.9217 35.749 40.9837 35.749C48.0457 35.749 53.7705 41.4739 53.7705 48.5359Z" fill="black"/>
<path fill-rule="evenodd" clip-rule="evenodd" d="M40.9837 58.372C46.416 58.372 50.8197 53.9682 50.8197 48.5359C50.8197 43.1036 46.416 38.6998 40.9837 38.6998C35.5514 38.6998 31.1476 43.1036 31.1476 48.5359C31.1476 53.9682 35.5514 58.372 40.9837 58.372ZM40.9837 61.3228C48.0457 61.3228 53.7705 55.5979 53.7705 48.5359C53.7705 41.4739 48.0457 35.749 40.9837 35.749C33.9217 35.749 28.1968 41.4739 28.1968 48.5359C28.1968 55.5979 33.9217 61.3228 40.9837 61.3228Z" fill="white"/>
<path fill-rule="evenodd" clip-rule="evenodd" d="M35.579 49.2165C35.4192 49.3415 35.2528 49.4717 35.0693 49.6017C34.6414 49.9048 34.0569 49.7918 33.7638 49.3493C33.4707 48.9068 33.58 48.3023 34.0079 47.9992C34.0738 47.9525 34.1591 47.8847 34.2617 47.8031C34.7259 47.434 35.5449 46.7826 36.5324 46.5269C37.8804 46.1779 39.4498 46.5094 41.2843 48.0457C42.7817 49.2997 43.7985 49.3581 44.4867 49.1875C45.0976 49.0361 45.5362 48.7149 46.0176 48.3622C46.1875 48.2378 46.3627 48.1094 46.5527 47.9833C46.9891 47.6935 47.5701 47.8244 47.8504 48.2757C48.1306 48.727 48.004 49.3278 47.5676 49.6176C47.4927 49.6674 47.3972 49.7383 47.2834 49.8229C46.7842 50.1938 45.9331 50.8263 44.9245 51.0763C43.5479 51.4175 41.9472 51.1002 40.1022 49.5552L40.1022 49.5552C38.5946 48.2926 37.6172 48.2483 36.9887 48.4111C36.4209 48.5581 36.0263 48.8667 35.579 49.2165Z" fill="#EF7300"/>
</svg>
