<svg width="50" height="50" viewBox="0 0 50 50" fill="none" xmlns="http://www.w3.org/2000/svg">
<path d="M37.8498 11.1538H20.7651C20.0353 11.1538 19.3419 11.4727 18.8669 12.0268L12.6922 19.2307L6.32466 21.3532C5.30381 21.6935 4.61523 22.6489 4.61523 23.7249V32.1153C4.61523 33.4961 5.73453 34.6153 7.11524 34.6153H42.8105C43.4735 34.6153 44.1094 34.352 44.5782 33.8831L45.4215 33.0399C45.8903 32.571 46.1537 31.9352 46.1537 31.2721V19.1522C46.1537 18.4657 45.8714 17.8095 45.3731 17.3373L39.5692 11.8389C39.1048 11.399 38.4895 11.1538 37.8498 11.1538Z" fill="#1B1322"/>
<path fill-rule="evenodd" clip-rule="evenodd" d="M18.2975 11.5387C18.9149 10.8184 19.8163 10.4038 20.7651 10.4038H37.8498C38.6814 10.4038 39.4813 10.7226 40.085 11.2945L45.8889 16.7929C46.5367 17.4066 46.9037 18.2598 46.9037 19.1522V31.2721C46.9037 32.1341 46.5613 32.9607 45.9518 33.5702L45.1086 34.4134C44.4991 35.0229 43.6724 35.3653 42.8105 35.3653H7.11524C5.32031 35.3653 3.86523 33.9103 3.86523 32.1153V23.7249C3.86523 22.326 4.76038 21.0841 6.08749 20.6417L12.2579 18.5849L18.2975 11.5387ZM20.7651 11.9038C20.2542 11.9038 19.7688 12.127 19.4364 12.5149L13.1264 19.8766L6.56184 22.0647C5.84724 22.3029 5.36523 22.9717 5.36523 23.7249V32.1153C5.36523 33.0818 6.14874 33.8653 7.11524 33.8653H42.8105C43.2746 33.8653 43.7197 33.681 44.0479 33.3528L44.8911 32.5096C45.2193 32.1814 45.4037 31.7363 45.4037 31.2721V19.1522C45.4037 18.6717 45.2061 18.2123 44.8573 17.8818L39.0534 12.3834C38.7283 12.0754 38.2976 11.9038 37.8498 11.9038H20.7651Z" fill="white"/>
<path d="M19.2311 35.0001C19.2311 37.3366 17.3369 39.2308 15.0003 39.2308C12.6637 39.2308 10.7695 37.3366 10.7695 35.0001C10.7695 32.6635 12.6637 30.7693 15.0003 30.7693C17.3369 30.7693 19.2311 32.6635 19.2311 35.0001Z" fill="#1B1322"/>
<path fill-rule="evenodd" clip-rule="evenodd" d="M15.0003 31.5193C13.0779 31.5193 11.5195 33.0777 11.5195 35.0001C11.5195 36.9224 13.0779 38.4808 15.0003 38.4808C16.9227 38.4808 18.4811 36.9224 18.4811 35.0001C18.4811 33.0777 16.9227 31.5193 15.0003 31.5193ZM10.0195 35.0001C10.0195 32.2493 12.2495 30.0193 15.0003 30.0193C17.7511 30.0193 19.9811 32.2493 19.9811 35.0001C19.9811 37.7509 17.7511 39.9808 15.0003 39.9808C12.2495 39.9808 10.0195 37.7509 10.0195 35.0001Z" fill="white"/>
<path d="M40.7682 35.0001C40.7682 37.3366 38.874 39.2308 36.5374 39.2308C34.2008 39.2308 32.3066 37.3366 32.3066 35.0001C32.3066 32.6635 34.2008 30.7693 36.5374 30.7693C38.874 30.7693 40.7682 32.6635 40.7682 35.0001Z" fill="#1B1322"/>
<path fill-rule="evenodd" clip-rule="evenodd" d="M36.5374 31.5193C34.615 31.5193 33.0566 33.0777 33.0566 35.0001C33.0566 36.9224 34.615 38.4808 36.5374 38.4808C38.4598 38.4808 40.0182 36.9224 40.0182 35.0001C40.0182 33.0777 38.4598 31.5193 36.5374 31.5193ZM31.5566 35.0001C31.5566 32.2493 33.7866 30.0193 36.5374 30.0193C39.2882 30.0193 41.5182 32.2493 41.5182 35.0001C41.5182 37.7509 39.2882 39.9808 36.5374 39.9808C33.7866 39.9808 31.5566 37.7509 31.5566 35.0001Z" fill="white"/>
<path fill-rule="evenodd" clip-rule="evenodd" d="M27.733 16.2515C27.9053 15.7447 28.3812 15.4038 28.9165 15.4038H33.6517C34.4919 15.4038 35.0928 16.2161 34.8471 17.0195L33.899 20.1184H36.6713C37.7112 20.1184 38.2964 21.3142 37.6584 22.1354L31.4877 30.0776C30.7573 31.0177 29.2506 30.5012 29.2506 29.3107V23.9758H26.8525C25.9962 23.9758 25.3935 23.1342 25.6691 22.3235L27.733 16.2515ZM29.0956 16.9038L27.2016 22.4758H29.5006C30.191 22.4758 30.7506 23.0354 30.7506 23.7258V28.5814L36.1605 21.6184H33.5611C32.7209 21.6184 32.12 20.8062 32.3658 20.0028L33.3138 16.9038H29.0956Z" fill="white"/>
<path fill-rule="evenodd" clip-rule="evenodd" d="M46.1543 28.4424C46.1543 28.8566 45.8185 29.1924 45.4043 29.1924L41.5197 29.1924C41.1055 29.1924 40.7697 28.8566 40.7697 28.4424C40.7697 28.0282 41.1055 27.6924 41.5197 27.6924L45.4043 27.6924C45.8185 27.6924 46.1543 28.0282 46.1543 28.4424Z" fill="white"/>
<path fill-rule="evenodd" clip-rule="evenodd" d="M10 28.4424C10 28.8566 9.66421 29.1924 9.25 29.1924L5.36538 29.1924C4.95117 29.1924 4.61538 28.8566 4.61538 28.4424C4.61538 28.0282 4.95117 27.6924 5.36538 27.6924L9.25 27.6924C9.66421 27.6924 10 28.0282 10 28.4424Z" fill="white"/>
<path fill-rule="evenodd" clip-rule="evenodd" d="M24.6152 28.4424C24.6152 28.8566 24.2794 29.1924 23.8652 29.1924H12.2883C11.8741 29.1924 11.5383 28.8566 11.5383 28.4424C11.5383 28.0282 11.8741 27.6924 12.2883 27.6924H23.8652C24.2794 27.6924 24.6152 28.0282 24.6152 28.4424Z" fill="white"/>
</svg>
