<svg width="50" height="50" viewBox="0 0 50 50" fill="none" xmlns="http://www.w3.org/2000/svg">
<path d="M25.0258 14.9619L32.584 20.0149V30.1208L25.0258 35.1738L17.4676 30.1208V20.0149L25.0258 14.9619Z" fill="#1B1322"/>
<path fill-rule="evenodd" clip-rule="evenodd" d="M25.0258 10.8433C25.44 10.8433 25.7758 11.179 25.7758 11.5933V14.5611L32.4903 19.05L34.8272 16.7237C35.1208 16.4315 35.5957 16.4326 35.8879 16.7262C36.1801 17.0197 36.179 17.4946 35.8854 17.7868L33.3341 20.3265V29.8091L35.8854 32.3489C36.179 32.6411 36.1801 33.116 35.8879 33.4095C35.5957 33.7031 35.1208 33.7042 34.8272 33.4119L32.4903 31.0857L25.7758 35.5745L25.7758 38.5424C25.7758 38.9566 25.4401 39.2924 25.0258 39.2924C24.6116 39.2924 24.2758 38.9566 24.2758 38.5424L24.2758 35.5745L17.5614 31.0857L15.2244 33.4119C14.9309 33.7042 14.456 33.7031 14.1638 33.4095C13.8715 33.1159 13.8726 32.6411 14.1662 32.3489L16.7176 29.8091V20.3265L14.1662 17.7868C13.8727 17.4946 13.8716 17.0197 14.1638 16.7262C14.456 16.4326 14.9309 16.4315 15.2244 16.7237L17.5614 19.05L24.2758 14.5611V11.5933C24.2758 11.179 24.6116 10.8433 25.0258 10.8433ZM25.0258 15.8641L18.2176 20.4156V29.72L25.0258 34.2716L31.8341 29.72V20.4156L25.0258 15.8641Z" fill="white"/>
<path d="M26.8217 9.79661C26.8217 10.7889 26.0174 11.5932 25.0251 11.5932C24.0329 11.5932 23.2285 10.7889 23.2285 9.79661C23.2285 8.80437 24.0329 8 25.0251 8C26.0174 8 26.8217 8.80437 26.8217 9.79661Z" fill="#1B1322"/>
<path fill-rule="evenodd" clip-rule="evenodd" d="M25.0251 8.75C24.4471 8.75 23.9785 9.21858 23.9785 9.79661C23.9785 10.3746 24.4471 10.8432 25.0251 10.8432C25.6032 10.8432 26.0717 10.3746 26.0717 9.79661C26.0717 9.21858 25.6032 8.75 25.0251 8.75ZM22.4785 9.79661C22.4785 8.39016 23.6187 7.25 25.0251 7.25C26.4316 7.25 27.5717 8.39016 27.5717 9.79661C27.5717 11.2031 26.4316 12.3432 25.0251 12.3432C23.6187 12.3432 22.4785 11.2031 22.4785 9.79661Z" fill="white"/>
<path d="M26.8217 40.3391C26.8217 41.3313 26.0174 42.1357 25.0251 42.1357C24.0329 42.1357 23.2285 41.3313 23.2285 40.3391C23.2285 39.3469 24.0329 38.5425 25.0251 38.5425C26.0174 38.5425 26.8217 39.3469 26.8217 40.3391Z" fill="#1B1322"/>
<path fill-rule="evenodd" clip-rule="evenodd" d="M25.0251 39.2925C24.4471 39.2925 23.9785 39.7611 23.9785 40.3391C23.9785 40.9171 24.4471 41.3857 25.0251 41.3857C25.6032 41.3857 26.0717 40.9171 26.0717 40.3391C26.0717 39.7611 25.6032 39.2925 25.0251 39.2925ZM22.4785 40.3391C22.4785 38.9326 23.6187 37.7925 25.0251 37.7925C26.4316 37.7925 27.5717 38.9326 27.5717 40.3391C27.5717 41.7455 26.4316 42.8857 25.0251 42.8857C23.6187 42.8857 22.4785 41.7455 22.4785 40.3391Z" fill="white"/>
<path d="M38.4995 16.0847C38.4995 17.0769 37.6951 17.8813 36.7029 17.8813C35.7106 17.8813 34.9062 17.0769 34.9062 16.0847C34.9062 15.0925 35.7106 14.2881 36.7029 14.2881C37.6951 14.2881 38.4995 15.0925 38.4995 16.0847Z" fill="#1B1322"/>
<path fill-rule="evenodd" clip-rule="evenodd" d="M36.7029 15.0381C36.1248 15.0381 35.6563 15.5067 35.6563 16.0847C35.6563 16.6627 36.1248 17.1313 36.7029 17.1313C37.2809 17.1313 37.7495 16.6627 37.7495 16.0847C37.7495 15.5067 37.2809 15.0381 36.7029 15.0381ZM34.1562 16.0847C34.1562 14.6782 35.2964 13.5381 36.7029 13.5381C38.1093 13.5381 39.2495 14.6782 39.2495 16.0847C39.2495 17.4912 38.1093 18.6313 36.7029 18.6313C35.2964 18.6313 34.1562 17.4912 34.1562 16.0847Z" fill="white"/>
<path d="M28 20.75C28 21.9926 26.9926 23 25.75 23C24.5074 23 23.5 21.9926 23.5 20.75C23.5 19.5074 24.5074 18.5 25.75 18.5C26.9926 18.5 28 19.5074 28 20.75Z" fill="#1B1322"/>
<path fill-rule="evenodd" clip-rule="evenodd" d="M25.75 19.25C24.9216 19.25 24.25 19.9216 24.25 20.75C24.25 21.5784 24.9216 22.25 25.75 22.25C26.5784 22.25 27.25 21.5784 27.25 20.75C27.25 19.9216 26.5784 19.25 25.75 19.25ZM22.75 20.75C22.75 19.0931 24.0931 17.75 25.75 17.75C27.4069 17.75 28.75 19.0931 28.75 20.75C28.75 22.4069 27.4069 23.75 25.75 23.75C24.0931 23.75 22.75 22.4069 22.75 20.75Z" fill="white"/>
<path d="M27 30C27 30.5523 26.5523 31 26 31C25.4477 31 25 30.5523 25 30C25 29.4477 25.4477 29 26 29C26.5523 29 27 29.4477 27 30Z" fill="#1B1322"/>
<path fill-rule="evenodd" clip-rule="evenodd" d="M26 29.75C25.8619 29.75 25.75 29.8619 25.75 30C25.75 30.1381 25.8619 30.25 26 30.25C26.1381 30.25 26.25 30.1381 26.25 30C26.25 29.8619 26.1381 29.75 26 29.75ZM24.25 30C24.25 29.0335 25.0335 28.25 26 28.25C26.9665 28.25 27.75 29.0335 27.75 30C27.75 30.9665 26.9665 31.75 26 31.75C25.0335 31.75 24.25 30.9665 24.25 30Z" fill="white"/>
<path d="M23 29.25C23 29.9404 22.4404 30.5 21.75 30.5C21.0596 30.5 20.5 29.9404 20.5 29.25C20.5 28.5596 21.0596 28 21.75 28C22.4404 28 23 28.5596 23 29.25Z" fill="#1B1322"/>
<path fill-rule="evenodd" clip-rule="evenodd" d="M21.75 28.75C21.4739 28.75 21.25 28.9739 21.25 29.25C21.25 29.5261 21.4739 29.75 21.75 29.75C22.0261 29.75 22.25 29.5261 22.25 29.25C22.25 28.9739 22.0261 28.75 21.75 28.75ZM19.75 29.25C19.75 28.1454 20.6454 27.25 21.75 27.25C22.8546 27.25 23.75 28.1454 23.75 29.25C23.75 30.3546 22.8546 31.25 21.75 31.25C20.6454 31.25 19.75 30.3546 19.75 29.25Z" fill="white"/>
<path d="M15.5932 16.0847C15.5932 17.0769 14.7889 17.8813 13.7966 17.8813C12.8044 17.8813 12 17.0769 12 16.0847C12 15.0925 12.8044 14.2881 13.7966 14.2881C14.7889 14.2881 15.5932 15.0925 15.5932 16.0847Z" fill="#1B1322"/>
<path fill-rule="evenodd" clip-rule="evenodd" d="M13.7966 15.0381C13.2186 15.0381 12.75 15.5067 12.75 16.0847C12.75 16.6627 13.2186 17.1313 13.7966 17.1313C14.3746 17.1313 14.8432 16.6627 14.8432 16.0847C14.8432 15.5067 14.3746 15.0381 13.7966 15.0381ZM11.25 16.0847C11.25 14.6782 12.3902 13.5381 13.7966 13.5381C15.2031 13.5381 16.3432 14.6782 16.3432 16.0847C16.3432 17.4912 15.2031 18.6313 13.7966 18.6313C12.3902 18.6313 11.25 17.4912 11.25 16.0847Z" fill="white"/>
<path d="M38.4995 34.0508C38.4995 35.043 37.6951 35.8474 36.7029 35.8474C35.7106 35.8474 34.9062 35.043 34.9062 34.0508C34.9062 33.0585 35.7106 32.2542 36.7029 32.2542C37.6951 32.2542 38.4995 33.0585 38.4995 34.0508Z" fill="#1B1322"/>
<path fill-rule="evenodd" clip-rule="evenodd" d="M36.7029 33.0042C36.1248 33.0042 35.6563 33.4727 35.6563 34.0508C35.6563 34.6288 36.1248 35.0974 36.7029 35.0974C37.2809 35.0974 37.7495 34.6288 37.7495 34.0508C37.7495 33.4727 37.2809 33.0042 36.7029 33.0042ZM34.1562 34.0508C34.1562 32.6443 35.2964 31.5042 36.7029 31.5042C38.1093 31.5042 39.2495 32.6443 39.2495 34.0508C39.2495 35.4572 38.1093 36.5974 36.7029 36.5974C35.2964 36.5974 34.1562 35.4572 34.1562 34.0508Z" fill="white"/>
<path d="M15.5932 34.0508C15.5932 35.043 14.7889 35.8474 13.7966 35.8474C12.8044 35.8474 12 35.043 12 34.0508C12 33.0585 12.8044 32.2542 13.7966 32.2542C14.7889 32.2542 15.5932 33.0585 15.5932 34.0508Z" fill="#1B1322"/>
<path fill-rule="evenodd" clip-rule="evenodd" d="M13.7966 33.0042C13.2186 33.0042 12.75 33.4727 12.75 34.0508C12.75 34.6288 13.2186 35.0974 13.7966 35.0974C14.3746 35.0974 14.8432 34.6288 14.8432 34.0508C14.8432 33.4727 14.3746 33.0042 13.7966 33.0042ZM11.25 34.0508C11.25 32.6443 12.3902 31.5042 13.7966 31.5042C15.2031 31.5042 16.3432 32.6443 16.3432 34.0508C16.3432 35.4572 15.2031 36.5974 13.7966 36.5974C12.3902 36.5974 11.25 35.4572 11.25 34.0508Z" fill="white"/>
<path fill-rule="evenodd" clip-rule="evenodd" d="M6.27343 20.3143C6.37591 19.913 6.78433 19.6707 7.18567 19.7732L8.70617 20.1615C9.10751 20.2639 9.34978 20.6724 9.2473 21.0737C9.14482 21.475 8.7364 21.7173 8.33506 21.6148L6.81456 21.2266C6.41322 21.1241 6.17095 20.7157 6.27343 20.3143ZM10.8349 21.4791C10.9374 21.0777 11.3458 20.8355 11.7472 20.938L14.7882 21.7145C15.1895 21.8169 15.4318 22.2254 15.3293 22.6267C15.2268 23.028 14.8184 23.2703 14.4171 23.1678L11.3761 22.3913C10.9747 22.2888 10.7325 21.8804 10.8349 21.4791ZM16.917 23.0321C17.0194 22.6308 17.4279 22.3885 17.8292 22.491L20.8702 23.2675C21.2715 23.3699 21.5138 23.7784 21.4113 24.1797C21.3089 24.581 20.9004 24.8233 20.4991 24.7208L17.4581 23.9443C17.0568 23.8419 16.8145 23.4334 16.917 23.0321ZM22.999 24.5851C23.1015 24.1838 23.5099 23.9415 23.9112 24.044L26.9522 24.8205C27.3536 24.923 27.5958 25.3314 27.4934 25.7327C27.3909 26.1341 26.9825 26.3763 26.5811 26.2738L23.5401 25.4973C23.1388 25.3949 22.8965 24.9864 22.999 24.5851ZM29.081 26.1381C29.1835 25.7368 29.5919 25.4945 29.9932 25.597L33.0342 26.3735C33.4356 26.476 33.6779 26.8844 33.5754 27.2857C33.4729 27.6871 33.0645 27.9293 32.6631 27.8269L29.6221 27.0503C29.2208 26.9479 28.9785 26.5394 29.081 26.1381ZM35.163 27.6911C35.2655 27.2898 35.6739 27.0475 36.0753 27.15L39.1163 27.9265C39.5176 28.029 39.7599 28.4374 39.6574 28.8387C39.5549 29.2401 39.1465 29.4823 38.7452 29.3799L35.7041 28.6034C35.3028 28.5009 35.0605 28.0925 35.163 27.6911ZM41.245 29.2441C41.3475 28.8428 41.7559 28.6005 42.1573 28.703L43.6778 29.0912C44.0791 29.1937 44.3214 29.6022 44.2189 30.0035C44.1164 30.4048 43.708 30.6471 43.3067 30.5446L41.7862 30.1564C41.3848 30.0539 41.1426 29.6455 41.245 29.2441Z" fill="white"/>
</svg>
