<svg width="50" height="50" viewBox="0 0 50 50" fill="none" xmlns="http://www.w3.org/2000/svg">
<mask id="path-1-inside-1_4296_1956" fill="white">
<rect x="9" y="16" width="32" height="25" rx="1"/>
</mask>
<rect x="9" y="16" width="32" height="25" rx="1" stroke="white" stroke-width="3" stroke-linecap="round" mask="url(#path-1-inside-1_4296_1956)"/>
<path d="M25 17V40" stroke="white" stroke-width="1.5"/>
<path d="M40 29L9 29" stroke="white" stroke-width="1.5"/>
<path fill-rule="evenodd" clip-rule="evenodd" d="M27.7902 10.6457C27.1398 11.2961 26.7582 12.2632 26.5757 13.3618C26.4394 14.1818 26.4289 14.9867 26.4575 15.6124C27.0832 15.641 27.8882 15.6305 28.7081 15.4943C29.8068 15.3117 30.7738 14.9302 31.4243 14.2798C32.3978 13.3062 32.5872 12.4537 32.5472 11.8343C32.5033 11.1537 32.1684 10.5677 31.8354 10.2346C31.5023 9.90151 30.9163 9.56669 30.2357 9.52276C29.6163 9.48277 28.7638 9.67211 27.7902 10.6457ZM25.0656 16.5523C24.9465 16.8423 24.6768 17.0473 24.347 17.0771C22.9045 17.2077 19.5632 17.2679 17.6433 15.3479C15.1458 12.8504 16.1545 10.26 17.2322 9.18138C18.3098 8.10274 20.9012 7.095 23.3987 9.59248C24.41 10.6039 24.8719 12.0096 25.0635 13.3244C25.2545 12.0074 25.7162 10.5983 26.7295 9.58503C29.227 7.08754 31.7839 8.0618 32.896 9.17393C34.0082 10.2861 34.9824 12.8429 32.4849 15.3404C30.5649 17.2604 27.2237 17.2002 25.7812 17.0697C25.4542 17.0401 25.1864 16.8383 25.0656 16.5523ZM22.338 10.6531C22.9884 11.3036 23.37 12.2706 23.5525 13.3693C23.6888 14.1893 23.6992 14.9942 23.6707 15.6199C23.045 15.6485 22.24 15.638 21.42 15.5017C20.3214 15.3192 19.3543 14.9376 18.7039 14.2872C17.7372 13.3205 17.5506 12.4637 17.5935 11.8347C17.6409 11.1411 17.981 10.5541 18.2933 10.2416C18.6048 9.92978 19.1912 9.58967 19.8849 9.54242C20.5141 9.49955 21.3713 9.68641 22.338 10.6531Z" fill="white"/>
</svg>
