<svg width="60" height="60" viewBox="0 0 60 60" fill="none" xmlns="http://www.w3.org/2000/svg">
<rect width="60" height="60" rx="16" fill="#2D2E37"/>
<circle cx="37.125" cy="29.625" r="7.125" fill="#19BCFE"/>
<path d="M15 29.625C15 25.69 18.19 22.5 22.125 22.5H30V36.75H22.125C18.19 36.75 15 33.56 15 29.625Z" fill="#A25AFF"/>
<path d="M15 15.375C15 11.44 18.19 8.25 22.125 8.25H30V22.5H22.125C18.19 22.5 15 19.31 15 15.375Z" fill="#F14E1C"/>
<path d="M45 15.375C45 19.31 41.81 22.5 37.875 22.5L30 22.5L30 8.25L37.875 8.25C41.81 8.25 45 11.44 45 15.375Z" fill="#FF7362"/>
<path d="M15.75 43.875C15.75 39.94 18.94 36.75 22.875 36.75H30V43.875C30 47.81 26.81 51 22.875 51C18.94 51 15.75 47.81 15.75 43.875Z" fill="#0ACF84"/>
</svg>
