<svg width="50" height="50" viewBox="0 0 50 50" fill="none" xmlns="http://www.w3.org/2000/svg">
<path d="M13.3594 6.89053C13.3594 5.46174 14.5176 4.30347 15.9464 4.30347H34.0559C35.4847 4.30347 36.643 5.46174 36.643 6.89053V43.1094C36.643 44.5382 35.4847 45.6965 34.0559 45.6965H15.9464C14.5176 45.6965 13.3594 44.5382 13.3594 43.1094V6.89053Z" fill="white"/>
<path fill-rule="evenodd" clip-rule="evenodd" d="M12.3887 6.89047C12.3887 4.92587 13.9813 3.33325 15.9459 3.33325H34.0553C36.0199 3.33325 37.6126 4.92587 37.6126 6.89047V43.1094C37.6126 45.074 36.0199 46.6666 34.0553 46.6666H15.9459C13.9813 46.6666 12.3887 45.074 12.3887 43.1094V6.89047ZM15.9459 5.27355C15.0529 5.27355 14.329 5.99747 14.329 6.89047V43.1094C14.329 44.0024 15.0529 44.7263 15.9459 44.7263H34.0553C34.9483 44.7263 35.6723 44.0024 35.6723 43.1094V6.89047C35.6723 5.99747 34.9483 5.27355 34.0553 5.27355H15.9459Z" fill="black"/>
<path fill-rule="evenodd" clip-rule="evenodd" d="M18.5338 8.50732C19.0696 8.50732 19.5039 8.94167 19.5039 9.47747L19.5039 15.9451C19.5039 16.4809 19.0696 16.9153 18.5338 16.9153C17.998 16.9153 17.5636 16.4809 17.5636 15.9451L17.5636 9.47747C17.5636 8.94167 17.998 8.50732 18.5338 8.50732Z" fill="#EF7300"/>
<path fill-rule="evenodd" clip-rule="evenodd" d="M32.4375 21.1192C32.4375 21.655 32.0031 22.0894 31.4674 22.0894L13.3579 22.0894C12.8221 22.0894 12.3877 21.655 12.3877 21.1192C12.3877 20.5834 12.8221 20.1491 13.3579 20.1491L31.4674 20.1491C32.0031 20.1491 32.4375 20.5834 32.4375 21.1192Z" fill="black"/>
<path fill-rule="evenodd" clip-rule="evenodd" d="M18.5338 25.3232C19.0696 25.3232 19.5039 25.7576 19.5039 26.2934V32.7611C19.5039 33.2969 19.0696 33.7312 18.5338 33.7312C17.998 33.7312 17.5636 33.2969 17.5636 32.7611V26.2934C17.5636 25.7576 17.998 25.3232 18.5338 25.3232Z" fill="#EF7300"/>
</svg>
