<svg width="50" height="50" viewBox="0 0 50 50" fill="none" xmlns="http://www.w3.org/2000/svg">
<path d="M9.5 23C9.5 22.4477 9.94772 22 10.5 22H39.5C40.0523 22 40.5 22.4477 40.5 23V29.3125V40.5C40.5 41.0523 40.0523 41.5 39.5 41.5H10.5C9.94772 41.5 9.5 41.0523 9.5 40.5V23Z" fill="#1B1322"/>
<path fill-rule="evenodd" clip-rule="evenodd" d="M8.75 23C8.75 22.0335 9.5335 21.25 10.5 21.25H39.5C40.4665 21.25 41.25 22.0335 41.25 23V40.5C41.25 41.4665 40.4665 42.25 39.5 42.25H10.5C9.5335 42.25 8.75 41.4665 8.75 40.5V23ZM10.5 22.75C10.3619 22.75 10.25 22.8619 10.25 23V40.5C10.25 40.6381 10.3619 40.75 10.5 40.75H39.5C39.6381 40.75 39.75 40.6381 39.75 40.5V23C39.75 22.8619 39.6381 22.75 39.5 22.75H10.5Z" fill="white"/>
<path d="M43.5 21C43.5 21.5523 43.0523 22 42.5 22L7 22C6.44771 22 6 21.5523 6 21L6 9.5C6 8.94771 6.44771 8.5 7 8.5L42.5 8.5C43.0523 8.5 43.5 8.94771 43.5 9.5L43.5 21Z" fill="#1B1322"/>
<path fill-rule="evenodd" clip-rule="evenodd" d="M44.25 21C44.25 21.9665 43.4665 22.75 42.5 22.75L7 22.75C6.0335 22.75 5.25 21.9665 5.25 21L5.25 9.5C5.25 8.5335 6.0335 7.75 7 7.75L42.5 7.75C43.4665 7.75 44.25 8.5335 44.25 9.5L44.25 21ZM42.5 21.25C42.6381 21.25 42.75 21.1381 42.75 21L42.75 9.5C42.75 9.36193 42.6381 9.25 42.5 9.25L7 9.25C6.86193 9.25 6.75 9.36193 6.75 9.5L6.75 21C6.75 21.1381 6.86193 21.25 7 21.25L42.5 21.25Z" fill="white"/>
<path d="M36.5 17.5C36.5 18.0523 36.0523 18.5 35.5 18.5L15 18.5C14.4477 18.5 14 18.0523 14 17.5L14 12.5C14 11.9477 14.4477 11.5 15 11.5L35.5 11.5C36.0523 11.5 36.5 11.9477 36.5 12.5L36.5 17.5Z" fill="#1B1322"/>
<path fill-rule="evenodd" clip-rule="evenodd" d="M37.25 17.5C37.25 18.4665 36.4665 19.25 35.5 19.25L15 19.25C14.0335 19.25 13.25 18.4665 13.25 17.5L13.25 12.5C13.25 11.5335 14.0335 10.75 15 10.75L35.5 10.75C36.4665 10.75 37.25 11.5335 37.25 12.5L37.25 17.5ZM35.5 17.75C35.6381 17.75 35.75 17.6381 35.75 17.5L35.75 12.5C35.75 12.3619 35.6381 12.25 35.5 12.25L15 12.25C14.8619 12.25 14.75 12.3619 14.75 12.5L14.75 17.5C14.75 17.6381 14.8619 17.75 15 17.75L35.5 17.75Z" fill="white"/>
<path d="M33 40.5C33 41.0523 32.5523 41.5 32 41.5L18.5 41.5C17.9477 41.5 17.5 41.0523 17.5 40.5L17.5 27.5C17.5 26.9477 17.9477 26.5 18.5 26.5L32 26.5C32.5523 26.5 33 26.9477 33 27.5L33 40.5Z" fill="#1B1322"/>
<path fill-rule="evenodd" clip-rule="evenodd" d="M33.75 40.5C33.75 41.4665 32.9665 42.25 32 42.25L18.5 42.25C17.5335 42.25 16.75 41.4665 16.75 40.5L16.75 27.5C16.75 26.5335 17.5335 25.75 18.5 25.75L32 25.75C32.9665 25.75 33.75 26.5335 33.75 27.5L33.75 40.5ZM32 40.75C32.1381 40.75 32.25 40.6381 32.25 40.5L32.25 27.5C32.25 27.3619 32.1381 27.25 32 27.25L18.5 27.25C18.3619 27.25 18.25 27.3619 18.25 27.5L18.25 40.5C18.25 40.6381 18.3619 40.75 18.5 40.75L32 40.75Z" fill="white"/>
<path fill-rule="evenodd" clip-rule="evenodd" d="M31.0302 29.4697C31.3231 29.7626 31.3231 30.2374 31.0302 30.5303L25.5302 36.0303C25.2373 36.3232 24.7624 36.3232 24.4696 36.0303C24.1767 35.7374 24.1767 35.2626 24.4696 34.9697L29.9696 29.4697C30.2624 29.1768 30.7373 29.1768 31.0302 29.4697Z" fill="white"/>
<path fill-rule="evenodd" clip-rule="evenodd" d="M24.0302 36.4697C24.3231 36.7626 24.3231 37.2374 24.0302 37.5303L22.0302 39.5303C21.7373 39.8232 21.2624 39.8232 20.9696 39.5303C20.6767 39.2374 20.6767 38.7626 20.9696 38.4697L22.9696 36.4697C23.2624 36.1768 23.7373 36.1768 24.0302 36.4697Z" fill="white"/>
<path fill-rule="evenodd" clip-rule="evenodd" d="M26.5302 30.4697C26.8231 30.7626 26.8231 31.2374 26.5302 31.5303L21.5302 36.5303C21.2373 36.8232 20.7624 36.8232 20.4696 36.5303C20.1767 36.2374 20.1767 35.7626 20.4696 35.4697L25.4696 30.4697C25.7624 30.1768 26.2373 30.1768 26.5302 30.4697Z" fill="white"/>
</svg>
