<svg width="51" height="50" viewBox="0 0 51 50" fill="none" xmlns="http://www.w3.org/2000/svg">
<path d="M14.777 21.9893H10.6009C10.0226 21.9893 9.55859 22.4656 9.55859 23.0439V39.9455C9.55859 40.5307 10.0293 41.0002 10.6009 41.0002H14.777C15.3553 41.0002 15.8194 40.5239 15.8194 39.9455V23.0439C15.8261 22.4656 15.3553 21.9893 14.777 21.9893Z" stroke="white" stroke-width="1.5" stroke-miterlimit="10"/>
<path d="M41.5222 24.7921C41.3406 23.1523 39.8275 21.9888 38.1934 21.9888H30.0564C30.7491 20.7368 31.119 17.1918 31.1055 15.7425C31.0786 13.3475 29.115 11.4219 26.7479 11.4219H25.8871C25.3088 11.4219 24.8447 11.8914 24.8447 12.4765C24.8447 14.9192 23.9033 19.3283 22.1347 21.1247C21.1131 22.1583 20.2154 22.6306 19.1354 23.1695C18.7974 23.3382 18.584 23.6833 18.584 24.0611V38.5813C18.584 39.0101 18.8566 39.3917 19.2623 39.5306C21.2064 40.1967 23.6554 40.9997 27.1984 40.9997H34.0308C36.2836 40.9997 38.032 38.8904 37.1645 36.6654C38.496 36.298 39.4711 35.0664 39.4711 33.6103C39.4711 33.1953 39.3904 32.8074 39.2492 32.44C41.4886 31.8208 42.3157 29.0243 40.7556 27.2688C41.3137 26.6292 41.6298 25.7447 41.5222 24.7921Z" stroke="white" stroke-width="1.5" stroke-miterlimit="10"/>
<path d="M16.5586 7.05859L20.57 9.08801" stroke="white" stroke-width="1.5" stroke-miterlimit="10" stroke-linecap="round"/>
<path d="M21.5723 3L23.578 6.04412" stroke="white" stroke-width="1.5" stroke-miterlimit="10" stroke-linecap="round"/>
<path d="M37.6189 7.05859L33.6074 9.08801" stroke="white" stroke-width="1.5" stroke-miterlimit="10" stroke-linecap="round"/>
<path d="M31.6014 3L29.5957 6.04412" stroke="white" stroke-width="1.5" stroke-miterlimit="10" stroke-linecap="round"/>
</svg>
