<svg width="50" height="50" viewBox="0 0 50 50" fill="none" xmlns="http://www.w3.org/2000/svg">
<path d="M7 19.5C7 18.9477 7.44772 18.5 8 18.5H28.6599C28.8265 18.5 28.9905 18.5416 29.1369 18.6211L37.477 23.1477C37.7993 23.3226 38 23.6599 38 24.0266V40C38 40.5523 37.5523 41 37 41H14.2837C14.0767 41 13.8748 40.9358 13.7058 40.8162L7.42217 36.3674C7.15739 36.1799 7 35.8757 7 35.5512V19.5Z" fill="#1B1322"/>
<path fill-rule="evenodd" clip-rule="evenodd" d="M8.5 20V35.2926L14.4428 39.5H36.5V24.3241L28.533 20H8.5ZM8 18.5C7.44772 18.5 7 18.9477 7 19.5V35.5512C7 35.8757 7.15739 36.1799 7.42217 36.3674L13.7058 40.8162C13.8748 40.9358 14.0767 41 14.2837 41H37C37.5523 41 38 40.5523 38 40V24.0266C38 23.6599 37.7993 23.3226 37.477 23.1477L29.1369 18.6211C28.9905 18.5416 28.8265 18.5 28.6599 18.5H8Z" fill="white"/>
<path fill-rule="evenodd" clip-rule="evenodd" d="M17.2559 27.5488C17.2559 27.1346 17.5916 26.7988 18.0059 26.7988L23.221 26.7988C23.6352 26.7988 23.971 27.1346 23.971 27.5488C23.971 27.963 23.6352 28.2988 23.221 28.2988L18.0059 28.2988C17.5916 28.2988 17.2559 27.963 17.2559 27.5488Z" fill="white"/>
<path fill-rule="evenodd" clip-rule="evenodd" d="M14.5 22.75C14.9142 22.75 15.25 23.0858 15.25 23.5L15.25 39.75C15.25 40.1642 14.9142 40.5 14.5 40.5C14.0858 40.5 13.75 40.1642 13.75 39.75L13.75 23.5C13.75 23.0858 14.0858 22.75 14.5 22.75Z" fill="white"/>
<path fill-rule="evenodd" clip-rule="evenodd" d="M38.75 23.5C38.75 23.9142 38.4142 24.25 38 24.25L14.5 24.25C14.0858 24.25 13.75 23.9142 13.75 23.5C13.75 23.0858 14.0858 22.75 14.5 22.75L38 22.75C38.4142 22.75 38.75 23.0858 38.75 23.5Z" fill="white"/>
<path d="M26.9208 21.0763C26.7189 20.414 27.2096 19.7261 27.902 19.7261H40.0514C40.7438 19.7261 41.2344 20.414 41.0326 21.0763C40.5902 22.5278 39.9741 24.8573 39.9741 26.5709C39.9741 28.2845 40.5902 30.6141 41.0326 32.0656C41.2344 32.7279 40.7438 33.4158 40.0514 33.4158H27.902C27.2096 33.4158 26.7189 32.7279 26.9208 32.0656C27.3631 30.6141 27.9793 28.2845 27.9793 26.5709C27.9793 24.8573 27.3631 22.5278 26.9208 21.0763Z" fill="#1B1322"/>
<path fill-rule="evenodd" clip-rule="evenodd" d="M26.2031 21.2949C25.8603 20.1702 26.6854 18.9761 27.9017 18.9761H40.0511C41.2674 18.9761 42.0925 20.1702 41.7498 21.2949C41.3066 22.7493 40.7238 24.9816 40.7238 26.5709C40.7238 28.1603 41.3066 30.3926 41.7498 31.847C42.0925 32.9717 41.2674 34.1658 40.0511 34.1658H27.9017C26.6854 34.1658 25.8603 32.9717 26.2031 31.847C26.6463 30.3926 27.229 28.1603 27.229 26.5709C27.229 24.9816 26.6463 22.7493 26.2031 21.2949ZM27.9017 20.4761C27.7332 20.4761 27.577 20.6578 27.638 20.8576C28.0794 22.3063 28.729 24.7331 28.729 26.5709C28.729 28.4088 28.0794 30.8355 27.638 32.2842C27.577 32.4841 27.7332 32.6658 27.9017 32.6658H40.0511C40.2196 32.6658 40.3758 32.4841 40.3149 32.2842C39.8734 30.8355 39.2238 28.4088 39.2238 26.5709C39.2238 24.7331 39.8734 22.3063 40.3149 20.8576C40.3758 20.6578 40.2196 20.4761 40.0511 20.4761H27.9017Z" fill="white"/>
<path d="M24.5234 31.1562C24.5234 30.604 24.9712 30.1562 25.5234 30.1562H42.4283C42.9805 30.1562 43.4283 30.604 43.4283 31.1562V42.8459C43.4283 43.3982 42.9805 43.8459 42.4283 43.8459H25.5234C24.9712 43.8459 24.5234 43.3982 24.5234 42.8459V31.1562Z" fill="#1B1322"/>
<path fill-rule="evenodd" clip-rule="evenodd" d="M23.7734 31.1562C23.7734 30.1898 24.5569 29.4062 25.5234 29.4062H42.4283C43.3948 29.4062 44.1783 30.1898 44.1783 31.1562V42.8459C44.1783 43.8124 43.3948 44.5959 42.4283 44.5959H25.5234C24.5569 44.5959 23.7734 43.8124 23.7734 42.8459V31.1562ZM25.5234 30.9062C25.3854 30.9062 25.2734 31.0182 25.2734 31.1562V42.8459C25.2734 42.984 25.3854 43.0959 25.5234 43.0959H42.4283C42.5663 43.0959 42.6783 42.984 42.6783 42.8459V31.1562C42.6783 31.0182 42.5663 30.9062 42.4283 30.9062H25.5234Z" fill="white"/>
<path d="M24.5234 8.99219C24.5234 8.4399 24.9712 7.99219 25.5234 7.99219H42.4283C42.9805 7.99219 43.4283 8.4399 43.4283 8.99219V20.6819C43.4283 21.2342 42.9805 21.6819 42.4283 21.6819H25.5234C24.9712 21.6819 24.5234 21.2342 24.5234 20.6819V8.99219Z" fill="#1B1322"/>
<path fill-rule="evenodd" clip-rule="evenodd" d="M23.7734 8.99219C23.7734 8.02569 24.5569 7.24219 25.5234 7.24219H42.4283C43.3948 7.24219 44.1783 8.02569 44.1783 8.99219V20.6819C44.1783 21.6484 43.3948 22.4319 42.4283 22.4319H25.5234C24.5569 22.4319 23.7734 21.6484 23.7734 20.6819V8.99219ZM25.5234 8.74219C25.3854 8.74219 25.2734 8.85412 25.2734 8.99219V20.6819C25.2734 20.82 25.3854 20.9319 25.5234 20.9319H42.4283C42.5663 20.9319 42.6783 20.82 42.6783 20.6819V8.99219C42.6783 8.85412 42.5663 8.74219 42.4283 8.74219H25.5234Z" fill="white"/>
<path d="M30.3906 7.49219C30.3906 7.76833 30.6145 7.99219 30.8906 7.99219H36.4095C36.6857 7.99219 36.9095 7.76833 36.9095 7.49219V6.38463C36.9095 5.83234 36.4618 5.38463 35.9095 5.38463H31.3906C30.8383 5.38463 30.3906 5.83234 30.3906 6.38463V7.49219Z" fill="#1B1322"/>
<path fill-rule="evenodd" clip-rule="evenodd" d="M29.6406 7.49219C29.6406 8.18254 30.2003 8.74219 30.8906 8.74219H36.4095C37.0999 8.74219 37.6595 8.18254 37.6595 7.49219V6.38463C37.6595 5.41813 36.876 4.63463 35.9095 4.63463H31.3906C30.4241 4.63463 29.6406 5.41813 29.6406 6.38463V7.49219ZM31.1406 7.24219V6.38463C31.1406 6.24655 31.2526 6.13463 31.3906 6.13463H35.9095C36.0476 6.13463 36.1595 6.24655 36.1595 6.38463V7.24219H31.1406Z" fill="white"/>
<path fill-rule="evenodd" clip-rule="evenodd" d="M25.7305 12.5554C25.7305 12.1412 26.0663 11.8054 26.4805 11.8054L36.2588 11.8054C36.673 11.8054 37.0088 12.1412 37.0088 12.5554C37.0088 12.9696 36.673 13.3054 36.2588 13.3054L26.4805 13.3054C26.0663 13.3054 25.7305 12.9696 25.7305 12.5554Z" fill="white"/>
<path fill-rule="evenodd" clip-rule="evenodd" d="M38.1152 12.5554C38.1152 12.1412 38.451 11.8054 38.8652 11.8054L40.8209 11.8054C41.2351 11.8054 41.5709 12.1412 41.5709 12.5554C41.5709 12.9696 41.2351 13.3054 40.8209 13.3054L38.8652 13.3054C38.451 13.3054 38.1152 12.9696 38.1152 12.5554Z" fill="white"/>
<path fill-rule="evenodd" clip-rule="evenodd" d="M15.1384 23.8927C14.9214 24.2456 14.4595 24.3557 14.1067 24.1387L7.66658 20.178C7.31375 19.961 7.20364 19.499 7.42063 19.1462C7.63762 18.7934 8.09955 18.6833 8.45238 18.9003L14.8925 22.861C15.2453 23.078 15.3554 23.5399 15.1384 23.8927Z" fill="white"/>
</svg>
