<svg width="50" height="50" viewBox="0 0 50 50" fill="none" xmlns="http://www.w3.org/2000/svg">
<path d="M10.75 8C10.75 7.86193 10.8619 7.75 11 7.75H39C39.1381 7.75 39.25 7.86193 39.25 8V31C39.25 31.1381 39.1381 31.25 39 31.25H11C10.8619 31.25 10.75 31.1381 10.75 31V8Z" stroke="white" stroke-width="1.5"/>
<path d="M8.75 23.4134C8.75 23.2409 8.92055 23.1202 9.08321 23.1776L24.4176 28.5898C24.7945 28.7228 25.2055 28.7228 25.5824 28.5898L40.9168 23.1776C41.0794 23.1202 41.25 23.2409 41.25 23.4134V41C41.25 41.1381 41.1381 41.25 41 41.25H9C8.86193 41.25 8.75 41.1381 8.75 41V23.4134Z" fill="#212A6A" stroke="white" stroke-width="1.5"/>
<path d="M25 26L9 41.256H41L25 26Z" fill="#212A6A" stroke="white" stroke-width="1.5" stroke-linecap="round" stroke-linejoin="round"/>
<path d="M17.8594 12.2319C17.982 12.2319 18.0914 12.2666 18.1874 12.3359C18.2834 12.3999 18.3314 12.5039 18.3314 12.6479V17.3199C18.3314 17.5706 18.2807 17.7439 18.1794 17.8399C18.0834 17.9359 17.9074 17.9839 17.6514 17.9839C17.5554 17.9839 17.47 17.9759 17.3954 17.9599C17.3207 17.9439 17.2487 17.9092 17.1794 17.8559C17.11 17.7972 17.038 17.7146 16.9634 17.6079C16.8887 17.5012 16.8007 17.3572 16.6994 17.1759L15.1874 14.4719C15.1074 14.3279 15.0354 14.1839 14.9714 14.0399C14.9074 13.8959 14.8514 13.7332 14.8034 13.5519V17.5999C14.8034 17.7439 14.7554 17.8506 14.6594 17.9199C14.5634 17.9839 14.454 18.0159 14.3314 18.0159C14.2087 18.0159 14.0994 17.9839 14.0034 17.9199C13.9074 17.8506 13.8594 17.7439 13.8594 17.5999V12.9279C13.8594 12.6772 13.9074 12.5039 14.0034 12.4079C14.1047 12.3119 14.2834 12.2639 14.5394 12.2639C14.6354 12.2639 14.7207 12.2719 14.7954 12.2879C14.87 12.3039 14.942 12.3412 15.0114 12.3999C15.0807 12.4532 15.1527 12.5332 15.2274 12.6399C15.302 12.7466 15.39 12.8906 15.4914 13.0719L17.0034 15.7759C17.0834 15.9199 17.1554 16.0639 17.2194 16.2079C17.2834 16.3519 17.3394 16.5146 17.3874 16.6959V12.6479C17.3874 12.5039 17.4354 12.3999 17.5314 12.3359C17.6274 12.2666 17.7367 12.2319 17.8594 12.2319Z" fill="white"/>
<path d="M23.033 12.2799C23.1557 12.2799 23.2437 12.3226 23.297 12.4079C23.3557 12.4879 23.385 12.5866 23.385 12.7039C23.385 12.8159 23.3557 12.9146 23.297 12.9999C23.2437 13.0852 23.1557 13.1279 23.033 13.1279H20.641V14.6399H22.873C22.9903 14.6399 23.0757 14.6826 23.129 14.7679C23.1877 14.8479 23.217 14.9439 23.217 15.0559C23.217 15.1679 23.1877 15.2666 23.129 15.3519C23.0757 15.4319 22.9903 15.4719 22.873 15.4719H20.641V17.1199H23.089C23.2117 17.1199 23.2997 17.1626 23.353 17.2479C23.4117 17.3332 23.441 17.4319 23.441 17.5439C23.441 17.6612 23.4117 17.7626 23.353 17.8479C23.2997 17.9279 23.2117 17.9679 23.089 17.9679H20.305C20.049 17.9679 19.8703 17.9199 19.769 17.8239C19.673 17.7279 19.625 17.5546 19.625 17.3039V12.9439C19.625 12.6932 19.673 12.5199 19.769 12.4239C19.8703 12.3279 20.049 12.2799 20.305 12.2799H23.033Z" fill="white"/>
<path d="M27.8442 12.2319C27.9669 12.2319 28.0869 12.2692 28.2042 12.3439C28.3215 12.4132 28.4042 12.5359 28.4522 12.7119L29.4922 16.4719L30.5082 12.5839C30.5455 12.4399 30.6175 12.3412 30.7242 12.2879C30.8362 12.2346 30.9589 12.2212 31.0922 12.2479C31.2309 12.2746 31.3295 12.3412 31.3882 12.4479C31.4522 12.5492 31.4629 12.6719 31.4202 12.8159L30.1002 17.5359C30.0522 17.7119 29.9695 17.8372 29.8522 17.9119C29.7349 17.9812 29.6149 18.0159 29.4922 18.0159C29.3695 18.0159 29.2495 17.9812 29.1322 17.9119C29.0149 17.8372 28.9322 17.7066 28.8842 17.5199L27.8362 13.6079L26.7402 17.5359C26.6922 17.7119 26.6069 17.8372 26.4842 17.9119C26.3669 17.9812 26.2469 18.0159 26.1242 18.0159C25.9962 18.0159 25.8735 17.9812 25.7562 17.9119C25.6389 17.8372 25.5562 17.7092 25.5082 17.5279L24.2202 12.8639C24.1775 12.7092 24.1882 12.5786 24.2522 12.4719C24.3215 12.3652 24.4282 12.2932 24.5722 12.2559C24.7055 12.2239 24.8309 12.2266 24.9482 12.2639C25.0709 12.3012 25.1535 12.4026 25.1962 12.5679L26.1802 16.4799L27.2282 12.7119C27.2762 12.5359 27.3589 12.4132 27.4762 12.3439C27.5935 12.2692 27.7162 12.2319 27.8442 12.2319Z" fill="white"/>
<path d="M34.3497 12.1919C34.9257 12.1919 35.4084 12.2906 35.7977 12.4879C35.915 12.5466 35.9897 12.6346 36.0217 12.7519C36.0537 12.8692 36.0377 12.9866 35.9737 13.1039C35.9097 13.2266 35.827 13.3039 35.7257 13.3359C35.6244 13.3626 35.5177 13.3519 35.4057 13.3039C35.235 13.2292 35.0724 13.1786 34.9177 13.1519C34.763 13.1199 34.579 13.1039 34.3657 13.1039C34.1897 13.1039 34.035 13.1252 33.9017 13.1679C33.7737 13.2052 33.6644 13.2586 33.5737 13.3279C33.483 13.3919 33.4137 13.4666 33.3657 13.5519C33.323 13.6319 33.3017 13.7146 33.3017 13.7999V13.8479C33.3017 13.9492 33.3177 14.0372 33.3497 14.1119C33.387 14.1866 33.4484 14.2559 33.5337 14.3199C33.6244 14.3786 33.747 14.4346 33.9017 14.4879C34.0564 14.5359 34.2564 14.5839 34.5017 14.6319C35.1684 14.7706 35.6457 14.9759 35.9337 15.2479C36.2217 15.5199 36.3657 15.8692 36.3657 16.2959V16.3679C36.3657 16.9172 36.187 17.3359 35.8297 17.6239C35.4724 17.9119 34.9444 18.0559 34.2457 18.0559C33.915 18.0559 33.5924 18.0159 33.2777 17.9359C32.9684 17.8506 32.707 17.7412 32.4937 17.6079C32.3657 17.5279 32.2937 17.4266 32.2777 17.3039C32.2617 17.1759 32.291 17.0559 32.3657 16.9439C32.4404 16.8266 32.531 16.7546 32.6377 16.7279C32.7444 16.7012 32.859 16.7226 32.9817 16.7919C33.1684 16.8986 33.3737 16.9839 33.5977 17.0479C33.8217 17.1066 34.0537 17.1359 34.2937 17.1359C34.6617 17.1359 34.9284 17.0719 35.0937 16.9439C35.259 16.8106 35.3417 16.6452 35.3417 16.4479V16.3919C35.3417 16.1679 35.2537 15.9946 35.0777 15.8719C34.907 15.7439 34.6297 15.6426 34.2457 15.5679C33.9097 15.5039 33.619 15.4292 33.3737 15.3439C33.1284 15.2586 32.923 15.1519 32.7577 15.0239C32.5977 14.8906 32.4777 14.7332 32.3977 14.5519C32.323 14.3652 32.2857 14.1386 32.2857 13.8719V13.8159C32.2857 13.5919 32.3284 13.3812 32.4137 13.1839C32.5044 12.9866 32.6377 12.8159 32.8137 12.6719C32.9897 12.5226 33.2057 12.4052 33.4617 12.3199C33.7177 12.2346 34.0137 12.1919 34.3497 12.1919Z" fill="white"/>
</svg>
