<svg width="50" height="50" viewBox="0 0 50 50" fill="none" xmlns="http://www.w3.org/2000/svg">
<path d="M11.4746 10.0479C11.4746 8.68981 12.5755 7.58887 13.9336 7.58887H36.0648C37.4228 7.58887 38.5238 8.68981 38.5238 10.0479V40.7856C38.5238 42.1437 37.4228 43.2446 36.0648 43.2446H13.9336C12.5755 43.2446 11.4746 42.1437 11.4746 40.7856V10.0479Z" fill="white"/>
<path fill-rule="evenodd" clip-rule="evenodd" d="M10.5527 10.0479C10.5527 8.18054 12.0665 6.66675 13.9339 6.66675H36.065C37.9324 6.66675 39.4462 8.18054 39.4462 10.0479V40.7856C39.4462 42.653 37.9324 44.1667 36.065 44.1667H13.9339C12.0665 44.1667 10.5527 42.653 10.5527 40.7856V10.0479ZM13.9339 8.51101C13.0851 8.51101 12.397 9.1991 12.397 10.0479V40.7856C12.397 41.6344 13.0851 42.3225 13.9339 42.3225H36.065C36.9138 42.3225 37.6019 41.6344 37.6019 40.7856V10.0479C37.6019 9.1991 36.9138 8.51101 36.065 8.51101H13.9339Z" fill="black"/>
<path fill-rule="evenodd" clip-rule="evenodd" d="M34.8355 17.1175L11.4749 17.1175C10.9656 17.1175 10.5527 16.7046 10.5527 16.1953C10.5527 15.686 10.9656 15.2732 11.4749 15.2732L34.8355 15.2732C35.3448 15.2732 35.7577 15.686 35.7577 16.1953C35.7577 16.7046 35.3448 17.1175 34.8355 17.1175Z" fill="black"/>
<path d="M17.0078 11.8921C17.0078 12.5711 16.4574 13.1216 15.7783 13.1216C15.0993 13.1216 14.5488 12.5711 14.5488 11.8921C14.5488 11.2131 15.0993 10.6626 15.7783 10.6626C16.4574 10.6626 17.0078 11.2131 17.0078 11.8921Z" fill="#EF7300"/>
<path d="M21.3106 11.8921C21.3106 12.5711 20.7601 13.1216 20.0811 13.1216C19.402 13.1216 18.8516 12.5711 18.8516 11.8921C18.8516 11.2131 19.402 10.6626 20.0811 10.6626C20.7601 10.6626 21.3106 11.2131 21.3106 11.8921Z" fill="#EF7300"/>
<path d="M35.4512 11.8921C35.4512 12.5711 34.9007 13.1216 34.2217 13.1216C33.5427 13.1216 32.9922 12.5711 32.9922 11.8921C32.9922 11.2131 33.5427 10.6626 34.2217 10.6626C34.9007 10.6626 35.4512 11.2131 35.4512 11.8921Z" fill="#EF7300"/>
<path d="M33.6067 30.3348C33.6067 34.7486 30.0286 38.3266 25.6149 38.3266C21.2011 38.3266 17.623 34.7486 17.623 30.3348C17.623 25.9211 21.2011 22.343 25.6149 22.343C30.0286 22.343 33.6067 25.9211 33.6067 30.3348Z" fill="white"/>
<path fill-rule="evenodd" clip-rule="evenodd" d="M25.6149 36.4824C29.01 36.4824 31.7624 33.73 31.7624 30.3348C31.7624 26.9396 29.01 24.1873 25.6149 24.1873C22.2197 24.1873 19.4673 26.9396 19.4673 30.3348C19.4673 33.73 22.2197 36.4824 25.6149 36.4824ZM25.6149 38.3266C30.0286 38.3266 33.6067 34.7486 33.6067 30.3348C33.6067 25.9211 30.0286 22.343 25.6149 22.343C21.2011 22.343 17.623 25.9211 17.623 30.3348C17.623 34.7486 21.2011 38.3266 25.6149 38.3266Z" fill="black"/>
<path fill-rule="evenodd" clip-rule="evenodd" d="M22.2373 30.7601C22.1374 30.8382 22.0334 30.9196 21.9187 31.0008C21.6513 31.1902 21.2859 31.1196 21.1028 30.843C20.9196 30.5665 20.9879 30.1887 21.2553 29.9993C21.2965 29.9701 21.3498 29.9277 21.414 29.8767C21.7041 29.646 22.2159 29.2389 22.8332 29.0791C23.6757 28.8609 24.6565 29.0681 25.8031 30.0283C26.739 30.8121 27.3744 30.8486 27.8046 30.742C28.1864 30.6473 28.4605 30.4465 28.7614 30.2261C28.8676 30.1484 28.9771 30.0682 29.0958 29.9893C29.3686 29.8082 29.7317 29.89 29.9069 30.1721C30.082 30.4541 30.0029 30.8296 29.7301 31.0108C29.6833 31.0419 29.6236 31.0862 29.5525 31.1391C29.2406 31.3709 28.7086 31.7662 28.0782 31.9225C27.2179 32.1357 26.2174 31.9374 25.0643 30.9718L25.0643 30.9717C24.122 30.1826 23.5111 30.1549 23.1183 30.2567C22.7635 30.3486 22.5168 30.5415 22.2373 30.7601Z" fill="#EF7300"/>
</svg>
