<svg width="80" height="80" viewBox="0 0 80 80" fill="none" xmlns="http://www.w3.org/2000/svg">
<path fill-rule="evenodd" clip-rule="evenodd" d="M47.0106 60.7463L52.9996 57.0523L24.5738 10.486C24.1475 9.78762 23.4469 9.40253 22.7211 9.34234V9.33864L22.67 9.33864C22.5697 9.33244 22.469 9.33243 22.3685 9.33864L10.9934 9.33864C9.05029 9.33864 7.4751 10.9138 7.4751 12.8569C7.4751 14.8 9.05029 16.3752 10.9934 16.3752L19.6421 16.3752L47.0106 60.7463Z" fill="black"/>
<path fill-rule="evenodd" clip-rule="evenodd" d="M22.67 9.33864L22.7211 9.33864V9.34234C23.4469 9.40253 24.1475 9.78762 24.5738 10.486L52.9996 57.0523L47.0106 60.7463L19.6421 16.3752L10.9934 16.3752C9.05029 16.3752 7.4751 14.8 7.4751 12.8569C7.4751 10.9138 9.05029 9.33864 10.9934 9.33864L22.3685 9.33864C22.469 9.33243 22.5697 9.33244 22.67 9.33864ZM47.8931 57.0228L49.2867 56.1632L22.355 12.0445L10.9934 12.0445C10.5447 12.0445 10.181 12.4082 10.181 12.8569C10.181 13.3056 10.5447 13.6693 10.9934 13.6693H21.1523L47.8931 57.0228Z" fill="white"/>
<path fill-rule="evenodd" clip-rule="evenodd" d="M45.8834 58.4353C44.1661 59.4456 43.5929 61.6569 44.6033 63.3743L44.7427 63.6112C45.1179 64.249 45.6589 64.7291 46.2787 65.0287L46.3407 67.877C46.3749 69.452 47.6795 70.701 49.2545 70.6667L70.9829 70.1941C72.0329 70.1712 72.8656 69.3015 72.8427 68.2515C72.7286 63.0016 68.38 58.8382 63.13 58.9524L56.917 59.0875C57.0372 58.2967 56.8965 57.4611 56.4593 56.718L56.3199 56.4811C55.3095 54.7637 53.0983 54.1906 51.3809 55.201L45.8834 58.4353Z" fill="black"/>
<path fill-rule="evenodd" clip-rule="evenodd" d="M47.4565 62.5926L48.9479 63.3137L49.0459 67.8181C49.0476 67.8991 49.1147 67.9633 49.1956 67.9615L70.073 67.5074C69.6018 64.139 66.6728 61.5818 63.1889 61.6576L53.7582 61.8627L54.2418 58.6809C54.272 58.4823 54.2377 58.278 54.1271 58.0901L53.9877 57.8532C53.7351 57.4238 53.1823 57.2806 52.753 57.5332L47.2555 60.7674C46.8262 61.02 46.6829 61.5729 46.9355 62.0022L47.0749 62.2391C47.1706 62.4019 47.3032 62.5185 47.4565 62.5926ZM56.89 57.8477C56.8133 57.4598 56.6711 57.078 56.4593 56.718L56.3199 56.4811C55.3095 54.7637 53.0983 54.1906 51.3809 55.201L45.8834 58.4353C44.1661 59.4456 43.5929 61.6569 44.6033 63.3743L44.7427 63.6112C45.1179 64.249 45.6589 64.7291 46.2787 65.0287L46.3407 67.877C46.3749 69.452 47.6795 70.701 49.2545 70.6667L70.9829 70.1941C72.0329 70.1712 72.8656 69.3015 72.8427 68.2515C72.7286 63.0016 68.38 58.8382 63.13 58.9524L56.917 59.0875C56.9789 58.6799 56.9716 58.2603 56.89 57.8477Z" fill="white"/>
<path fill-rule="evenodd" clip-rule="evenodd" d="M42.5214 47.2575C47.7393 44.6715 49.2975 37.9647 45.7541 33.3432L34.0206 18.0394C31.7905 15.1307 27.7966 14.238 24.5403 15.9202C20.6258 17.9425 19.2593 22.8679 21.5723 26.618L32.5391 44.3979C34.6288 47.7859 38.9548 49.0251 42.5214 47.2575Z" fill="black"/>
<path fill-rule="evenodd" clip-rule="evenodd" d="M23.8753 25.1984L34.8421 42.9784C36.1982 45.1769 39.0054 45.9811 41.3198 44.834C45.0111 43.0046 46.1135 38.26 43.6068 34.9906L31.8732 19.6868C30.4404 17.818 27.8744 17.2444 25.7822 18.3252C23.2672 19.6245 22.3892 22.7891 23.8753 25.1984ZM42.5214 47.2585C47.7393 44.6725 49.2975 37.9657 45.7541 33.3442L34.0206 18.0404C31.7905 15.1317 27.7967 14.2389 24.5403 15.9212C20.6258 17.9435 19.2593 22.8689 21.5723 26.6189L32.5391 44.3989C34.6288 47.7869 38.9548 49.0261 42.5214 47.2585Z" fill="white"/>
<path fill-rule="evenodd" clip-rule="evenodd" d="M57.2571 60.9944L48.1095 66.3304L46.7461 63.9932L55.8936 58.6571L57.2571 60.9944Z" fill="white"/>
<path fill-rule="evenodd" clip-rule="evenodd" d="M27.6026 22.2274C28.2243 21.8129 29.0643 21.9809 29.4788 22.6026L33.0866 28.0143C33.5011 28.6361 33.3331 29.476 32.7114 29.8905C32.0897 30.305 31.2497 30.137 30.8352 29.5153L27.2274 24.1036C26.8129 23.4818 26.9809 22.6418 27.6026 22.2274Z" fill="#EF7300"/>
</svg>
