<svg width="50" height="50" viewBox="0 0 50 50" fill="none" xmlns="http://www.w3.org/2000/svg">
<path d="M12.0098 18.9527H9.49674C7.47114 18.9527 6.66641 20.5925 6.66641 22.6164L6.66602 24.832C6.66602 26.8559 7.47074 28.4998 9.49634 28.4998H11.075C11.6303 28.4998 12.0792 28.0474 12.075 27.4921L12.0098 18.9527ZM12.0098 18.9527C14.1664 12.5001 18.3331 9.16675 24.9997 9.16675C31.6664 9.16675 35.8331 12.5001 37.9298 18.9148M24.9997 37.4998C34.5831 37.4998 37.9294 33.5778 37.9294 28.4998M37.9294 28.4998H40.5023C42.524 28.4998 43.3327 26.8599 43.3327 24.832L43.3331 22.6164C43.3331 20.5925 42.5244 18.9527 40.5027 18.9527H37.9458C37.9405 18.94 37.9351 18.9274 37.9298 18.9148M37.9294 28.4998L37.9298 18.9148" stroke="white" stroke-width="1.5" stroke-miterlimit="10"/>
<path d="M21.25 21.4998C21.9404 21.4998 22.5 20.9401 22.5 20.2498C22.5 19.5594 21.9404 18.9998 21.25 18.9998C20.5596 18.9998 20 19.5594 20 20.2498C20 20.9401 20.5596 21.4998 21.25 21.4998Z" fill="white"/>
<path d="M29 21.4998C29.6904 21.4998 30.25 20.9401 30.25 20.2498C30.25 19.5594 29.6904 18.9998 29 18.9998C28.3096 18.9998 27.75 19.5594 27.75 20.2498C27.75 20.9401 28.3096 21.4998 29 21.4998Z" fill="white"/>
<path d="M19 26.4998C22.5 29.1664 27 29.1664 31 26.4998" stroke="white" stroke-width="1.5" stroke-linecap="round"/>
<circle cx="25" cy="36.9998" r="3" fill="#212A6A" stroke="white" stroke-width="1.5"/>
</svg>
