<svg width="50" height="50" viewBox="0 0 50 50" fill="none" xmlns="http://www.w3.org/2000/svg">
<path d="M2.30774 7.91992C2.30774 7.36764 2.75545 6.91992 3.30774 6.91992H47.4616C48.0139 6.91992 48.4616 7.36764 48.4616 7.91992V28.9968C48.4616 29.5491 48.0139 29.9968 47.4616 29.9968H3.30774C2.75546 29.9968 2.30774 29.5491 2.30774 28.9968V7.91992Z" fill="black"/>
<path fill-rule="evenodd" clip-rule="evenodd" d="M1.55774 7.91992C1.55774 6.95342 2.34124 6.16992 3.30774 6.16992H47.4616C48.4281 6.16992 49.2116 6.95342 49.2116 7.91992V28.9968C49.2116 29.9633 48.4281 30.7469 47.4616 30.7469H3.30774C2.34124 30.7469 1.55774 29.9633 1.55774 28.9968V7.91992ZM3.30774 7.66992C3.16967 7.66992 3.05774 7.78185 3.05774 7.91992V28.9968C3.05774 29.1349 3.16967 29.2468 3.30774 29.2468H47.4616C47.5997 29.2468 47.7116 29.1349 47.7116 28.9968V7.91992C47.7116 7.78185 47.5997 7.66992 47.4616 7.66992H3.30774Z" fill="#FB6D3A"/>
<path d="M7.69238 27.1504C7.69238 26.5981 8.1401 26.1504 8.69238 26.1504H42.077C42.6293 26.1504 43.077 26.5981 43.077 27.1504V32.0735C43.077 32.6258 42.6293 33.0735 42.077 33.0735H8.69238C8.1401 33.0735 7.69238 32.6258 7.69238 32.0735V27.1504Z" fill="black"/>
<path fill-rule="evenodd" clip-rule="evenodd" d="M6.94238 27.1504C6.94238 26.1839 7.72589 25.4004 8.69238 25.4004H42.077C43.0435 25.4004 43.827 26.1839 43.827 27.1504V32.0735C43.827 33.04 43.0435 33.8235 42.077 33.8235H8.69238C7.72588 33.8235 6.94238 33.04 6.94238 32.0735V27.1504ZM8.69238 26.9004C8.55431 26.9004 8.44238 27.0123 8.44238 27.1504V32.0735C8.44238 32.2115 8.55431 32.3235 8.69238 32.3235H42.077C42.2151 32.3235 42.327 32.2115 42.327 32.0735V27.1504C42.327 27.0123 42.2151 26.9004 42.077 26.9004H8.69238Z" fill="#FB6D3A"/>
<path fill-rule="evenodd" clip-rule="evenodd" d="M12.327 29.9971C12.327 29.5829 12.6628 29.2471 13.077 29.2471L28.4616 29.2471C28.8758 29.2471 29.2116 29.5829 29.2116 29.9971C29.2116 30.4113 28.8758 30.7471 28.4616 30.7471L13.077 30.7471C12.6628 30.7471 12.327 30.4113 12.327 29.9971Z" fill="#FB6D3A"/>
<path fill-rule="evenodd" clip-rule="evenodd" d="M33.0962 29.9971C33.0962 29.5829 33.432 29.2471 33.8462 29.2471L37.6923 29.2471C38.1066 29.2471 38.4423 29.5829 38.4423 29.9971C38.4423 30.4113 38.1066 30.7471 37.6923 30.7471L33.8462 30.7471C33.432 30.7471 33.0962 30.4113 33.0962 29.9971Z" fill="#FB6D3A"/>
<path d="M8.46156 13.4585C8.46156 14.0958 7.94497 14.6124 7.30772 14.6124C6.67046 14.6124 6.15387 14.0958 6.15387 13.4585C6.15387 12.8213 6.67046 12.3047 7.30772 12.3047C7.94497 12.3047 8.46156 12.8213 8.46156 13.4585Z" fill="#FB6D3A"/>
<path d="M12.3078 13.4585C12.3078 14.0958 11.7912 14.6124 11.1539 14.6124C10.5167 14.6124 10.0001 14.0958 10.0001 13.4585C10.0001 12.8213 10.5167 12.3047 11.1539 12.3047C11.7912 12.3047 12.3078 12.8213 12.3078 13.4585Z" fill="#FB6D3A"/>
<path fill-rule="evenodd" clip-rule="evenodd" d="M13.077 37.708C13.4912 37.708 13.827 38.0438 13.827 38.458C13.827 39.1199 13.6992 40.1444 13.3151 41.1393C12.9326 42.13 12.2563 43.1883 11.0953 43.7488C10.7223 43.9289 10.2739 43.7725 10.0939 43.3995C9.91378 43.0264 10.0702 42.5781 10.4432 42.398C11.1284 42.0672 11.606 41.4014 11.9158 40.599C12.224 39.8008 12.327 38.9632 12.327 38.458C12.327 38.0438 12.6628 37.708 13.077 37.708Z" fill="#FB6D3A"/>
<path fill-rule="evenodd" clip-rule="evenodd" d="M18.4616 37.708C18.8758 37.708 19.2116 38.0438 19.2116 38.458C19.2116 39.1199 19.0839 40.1444 18.6997 41.1393C18.3172 42.13 17.641 43.1883 16.48 43.7488C16.107 43.9289 15.6586 43.7725 15.4785 43.3995C15.2984 43.0264 15.4548 42.5781 15.8279 42.398C16.513 42.0672 16.9906 41.4014 17.3004 40.599C17.6086 39.8008 17.7116 38.9632 17.7116 38.458C17.7116 38.0438 18.0474 37.708 18.4616 37.708Z" fill="#FB6D3A"/>
<path fill-rule="evenodd" clip-rule="evenodd" d="M23.8462 37.708C24.2604 37.708 24.5962 38.0438 24.5962 38.458C24.5962 39.0926 24.514 40.0879 24.2648 41.0561C24.0251 41.9875 23.5865 43.0734 22.7476 43.6808C22.4121 43.9238 21.9432 43.8488 21.7003 43.5133C21.4573 43.1778 21.5324 42.7089 21.8679 42.4659C22.2597 42.1821 22.5904 41.5439 22.8122 40.6822C23.0245 39.8573 23.0962 38.9905 23.0962 38.458C23.0962 38.0438 23.432 37.708 23.8462 37.708Z" fill="#FB6D3A"/>
<path fill-rule="evenodd" clip-rule="evenodd" d="M38.4616 37.708C38.0474 37.708 37.7116 38.0438 37.7116 38.458C37.7116 39.1199 37.8394 40.1444 38.2235 41.1393C38.606 42.13 39.2823 43.1883 40.4432 43.7488C40.8163 43.9289 41.2646 43.7725 41.4447 43.3995C41.6248 43.0264 41.4684 42.5781 41.0954 42.398C40.4102 42.0672 39.9326 41.4014 39.6228 40.599C39.3146 39.8008 39.2116 38.9632 39.2116 38.458C39.2116 38.0438 38.8758 37.708 38.4616 37.708Z" fill="#FB6D3A"/>
<path fill-rule="evenodd" clip-rule="evenodd" d="M33.077 37.708C32.6627 37.708 32.327 38.0438 32.327 38.458C32.327 39.1199 32.4547 40.1444 32.8388 41.1393C33.2213 42.13 33.8976 43.1883 35.0586 43.7488C35.4316 43.9289 35.88 43.7725 36.0601 43.3995C36.2401 43.0264 36.0837 42.5781 35.7107 42.398C35.0255 42.0672 34.548 41.4014 34.2382 40.599C33.93 39.8008 33.827 38.9632 33.827 38.458C33.827 38.0438 33.4912 37.708 33.077 37.708Z" fill="#FB6D3A"/>
<path fill-rule="evenodd" clip-rule="evenodd" d="M27.6924 37.708C27.2782 37.708 26.9424 38.0438 26.9424 38.458C26.9424 39.0926 27.0245 40.0879 27.2737 41.0561C27.5135 41.9875 27.9521 43.0734 28.791 43.6808C29.1264 43.9238 29.5954 43.8488 29.8383 43.5133C30.0812 43.1778 30.0062 42.7089 29.6707 42.4659C29.2788 42.1821 28.9482 41.5439 28.7264 40.6822C28.5141 39.8573 28.4424 38.9905 28.4424 38.458C28.4424 38.0438 28.1066 37.708 27.6924 37.708Z" fill="#FB6D3A"/>
<path fill-rule="evenodd" clip-rule="evenodd" d="M38.4616 10.7852C38.8758 10.7852 39.2116 11.1209 39.2116 11.5352V15.3813C39.2116 15.7955 38.8758 16.1313 38.4616 16.1313C38.0474 16.1313 37.7116 15.7955 37.7116 15.3813V11.5352C37.7116 11.1209 38.0474 10.7852 38.4616 10.7852Z" fill="#FB6D3A"/>
<path fill-rule="evenodd" clip-rule="evenodd" d="M40.0193 11.5352C40.0193 11.1209 40.3551 10.7852 40.7693 10.7852H43.077C43.3141 10.7852 43.5372 10.8973 43.6787 11.0875C43.8202 11.2777 43.8635 11.5236 43.7954 11.7507L42.6415 15.5968C42.5225 15.9936 42.1044 16.2187 41.7076 16.0997C41.3109 15.9807 41.0857 15.5625 41.2048 15.1658L42.069 12.2852H40.7693C40.3551 12.2852 40.0193 11.9494 40.0193 11.5352Z" fill="#FB6D3A"/>
</svg>
