<svg width="71" height="70" viewBox="0 0 71 70" fill="none" xmlns="http://www.w3.org/2000/svg">
<mask id="path-1-inside-1_4579_6521" fill="white">
<rect x="16.218" y="34.9971" width="39.2" height="22.4" rx="1"/>
</mask>
<rect x="16.218" y="34.9971" width="39.2" height="22.4" rx="1" stroke="#49C3FF" stroke-width="5" mask="url(#path-1-inside-1_4579_6521)"/>
<mask id="path-2-inside-2_4579_6521" fill="white">
<rect x="26.0181" y="12.5967" width="19.6" height="19.6" rx="1"/>
</mask>
<rect x="26.0181" y="12.5967" width="19.6" height="19.6" rx="1" stroke="#49C3FF" stroke-width="5" mask="url(#path-2-inside-2_4579_6521)"/>
<mask id="path-3-inside-3_4579_6521" fill="white">
<rect x="30.218" y="34.9971" width="11.2" height="11.2" rx="1"/>
</mask>
<rect x="30.218" y="34.9971" width="11.2" height="11.2" rx="1" stroke="#49C3FF" stroke-width="5" mask="url(#path-3-inside-3_4579_6521)"/>
<path d="M66.1019 26.0811C66.5901 25.593 66.5901 24.8015 66.1019 24.3134C65.6138 23.8252 64.8223 23.8252 64.3342 24.3134L66.1019 26.0811ZM54.9019 37.2811L66.1019 26.0811L64.3342 24.3134L53.1342 35.5134L54.9019 37.2811Z" fill="#49C3FF"/>
<path d="M43.2193 47.0129H50.0517" stroke="#49C3FF" stroke-width="2.5" stroke-linecap="round"/>
<path d="M45.3943 50.7329H50.0515" stroke="#49C3FF" stroke-width="2.5" stroke-linecap="round"/>
<path d="M6.41802 25.1973L16.218 36.3973" stroke="#49C3FF" stroke-width="2.5" stroke-linecap="round"/>
<path d="M35.7092 16.7969C36.2692 16.7969 36.7722 16.8646 37.2181 17C37.664 17.1257 38.0426 17.3095 38.3537 17.5513C38.6648 17.7834 38.9033 18.0639 39.0692 18.3927C39.2352 18.7216 39.3181 19.0843 39.3181 19.4808V19.6404C39.3181 19.8725 39.287 20.095 39.2248 20.3078C39.1729 20.5109 39.0744 20.7188 38.9292 20.9316C38.7944 21.1444 38.6026 21.3717 38.3537 21.6135C38.1152 21.8553 37.8144 22.1309 37.4514 22.4404C37.2233 22.6338 37.0418 22.8031 36.907 22.9482C36.7722 23.0836 36.6685 23.2141 36.5959 23.3399C36.5233 23.4559 36.4766 23.5768 36.4559 23.7026C36.4352 23.8186 36.4248 23.954 36.4248 24.1088C36.4248 24.3312 36.3314 24.5053 36.1448 24.6311C35.9685 24.7568 35.7611 24.8197 35.5226 24.8197C35.2633 24.8197 35.0403 24.7616 34.8537 24.6456C34.667 24.5198 34.5737 24.3264 34.5737 24.0653C34.5737 23.8138 34.5892 23.5865 34.6203 23.3834C34.6514 23.1803 34.7085 22.9869 34.7914 22.8031C34.8848 22.6097 35.0144 22.4211 35.1803 22.2373C35.3566 22.0439 35.5848 21.8311 35.8648 21.5989C36.1863 21.3378 36.4403 21.1202 36.627 20.9461C36.824 20.7623 36.9744 20.5979 37.0781 20.4528C37.1818 20.3078 37.2492 20.1772 37.2803 20.0611C37.3114 19.9354 37.327 19.8 37.327 19.6549V19.5824C37.327 19.4276 37.2959 19.2825 37.2337 19.1471C37.1714 19.0117 37.0729 18.8908 36.9381 18.7844C36.8137 18.678 36.6426 18.5958 36.4248 18.5378C36.2174 18.4701 35.9581 18.4363 35.647 18.4363C35.2322 18.4363 34.8692 18.4943 34.5581 18.6103C34.247 18.7264 33.9514 18.8763 33.6714 19.0601C33.464 19.1955 33.2566 19.2439 33.0492 19.2052C32.8522 19.1568 32.6811 19.0407 32.5359 18.857C32.3907 18.6829 32.3181 18.4894 32.3181 18.2767C32.3285 18.0542 32.4374 17.8704 32.6448 17.7254C33.0285 17.4449 33.4692 17.2224 33.967 17.058C34.4752 16.8839 35.0559 16.7969 35.7092 16.7969ZM35.507 25.7917C35.8389 25.7917 36.1189 25.8981 36.347 26.1109C36.5752 26.3236 36.6892 26.5848 36.6892 26.8943C36.6892 27.2038 36.5752 27.4649 36.347 27.6777C36.1189 27.8905 35.8389 27.9969 35.507 27.9969C35.1752 27.9969 34.8952 27.8905 34.667 27.6777C34.4389 27.4649 34.3248 27.2038 34.3248 26.8943C34.3248 26.5848 34.4389 26.3236 34.667 26.1109C34.8952 25.8981 35.1752 25.7917 35.507 25.7917Z" fill="#49C3FF"/>
</svg>
