<svg width="50" height="50" viewBox="0 0 50 50" fill="none" xmlns="http://www.w3.org/2000/svg">
<path d="M10.0001 7.15137C10.0001 6.59908 10.4478 6.15137 11.0001 6.15137H39.0001C39.5523 6.15137 40.0001 6.59908 40.0001 7.15137V42.8437C40.0001 43.396 39.5523 43.8437 39.0001 43.8437H11.0001C10.4478 43.8437 10.0001 43.396 10.0001 42.8437V7.15137Z" fill="black"/>
<path fill-rule="evenodd" clip-rule="evenodd" d="M9.25006 7.15137C9.25006 6.18487 10.0336 5.40137 11.0001 5.40137H39.0001C39.9666 5.40137 40.7501 6.18487 40.7501 7.15137V42.8437C40.7501 43.8102 39.9666 44.5937 39.0001 44.5937H11.0001C10.0336 44.5937 9.25006 43.8102 9.25006 42.8437V7.15137ZM11.0001 6.90137C10.862 6.90137 10.7501 7.0133 10.7501 7.15137V42.8437C10.7501 42.9817 10.862 43.0937 11.0001 43.0937H39.0001C39.1381 43.0937 39.2501 42.9817 39.2501 42.8437V7.15137C39.2501 7.0133 39.1381 6.90137 39.0001 6.90137H11.0001Z" fill="#FB6D3A"/>
<path fill-rule="evenodd" clip-rule="evenodd" d="M10.0001 15.4014C10.0001 14.9872 10.3358 14.6514 10.7501 14.6514H36.1731C36.5874 14.6514 36.9231 14.9872 36.9231 15.4014C36.9231 15.8156 36.5874 16.1514 36.1731 16.1514H10.7501C10.3358 16.1514 10.0001 15.8156 10.0001 15.4014Z" fill="#FB6D3A"/>
<path d="M15.3847 11.1509C15.3847 11.7882 14.8681 12.3048 14.2308 12.3048C13.5936 12.3048 13.077 11.7882 13.077 11.1509C13.077 10.5137 13.5936 9.99707 14.2308 9.99707C14.8681 9.99707 15.3847 10.5137 15.3847 11.1509Z" fill="#FB6D3A"/>
<path d="M21.5385 11.1509C21.5385 11.7882 21.0219 12.3048 20.3847 12.3048C19.7474 12.3048 19.2308 11.7882 19.2308 11.1509C19.2308 10.5137 19.7474 9.99707 20.3847 9.99707C21.0219 9.99707 21.5385 10.5137 21.5385 11.1509Z" fill="#FB6D3A"/>
<path d="M36.9231 11.1509C36.9231 11.7882 36.4065 12.3048 35.7693 12.3048C35.132 12.3048 34.6154 11.7882 34.6154 11.1509C34.6154 10.5137 35.132 9.99707 35.7693 9.99707C36.4065 9.99707 36.9231 10.5137 36.9231 11.1509Z" fill="#FB6D3A"/>
<path d="M33.8462 29.9977C33.8462 34.6709 29.8856 38.4592 25.0001 38.4592C20.1145 38.4592 16.1539 34.6709 16.1539 29.9977C16.1539 25.3245 20.1145 21.5361 25.0001 21.5361C29.8856 21.5361 33.8462 25.3245 33.8462 29.9977Z" fill="black"/>
<path fill-rule="evenodd" clip-rule="evenodd" d="M25.0001 36.9592C29.1208 36.9592 32.3462 33.7803 32.3462 29.9977C32.3462 26.2151 29.1208 23.0361 25.0001 23.0361C20.8793 23.0361 17.6539 26.2151 17.6539 29.9977C17.6539 33.7803 20.8793 36.9592 25.0001 36.9592ZM25.0001 38.4592C29.8856 38.4592 33.8462 34.6709 33.8462 29.9977C33.8462 25.3245 29.8856 21.5361 25.0001 21.5361C20.1145 21.5361 16.1539 25.3245 16.1539 29.9977C16.1539 34.6709 20.1145 38.4592 25.0001 38.4592Z" fill="#FB6D3A"/>
<path fill-rule="evenodd" clip-rule="evenodd" d="M21.0123 30.5505C20.8902 30.6416 20.7631 30.7366 20.6229 30.8313C20.296 31.0524 19.8496 30.97 19.6257 30.6473C19.4018 30.3246 19.4852 29.8839 19.8121 29.6629C19.8625 29.6288 19.9276 29.5794 20.006 29.5199C20.3606 29.2507 20.9862 28.7758 21.7406 28.5893C22.7703 28.3348 23.9691 28.5766 25.3705 29.6968C26.5144 30.6112 27.2911 30.6537 27.8168 30.5293C28.2835 30.4189 28.6185 30.1847 28.9862 29.9276C29.116 29.8368 29.2498 29.7433 29.395 29.6513C29.7283 29.4399 30.1721 29.5354 30.3862 29.8645C30.6003 30.1936 30.5036 30.6317 30.1702 30.843C30.113 30.8792 30.0401 30.931 29.9531 30.9927C29.5718 31.2631 28.9216 31.7243 28.1512 31.9066C27.0997 32.1554 25.8769 31.924 24.4675 30.7975L24.4675 30.7974C23.3158 29.8768 22.5692 29.8445 22.0891 29.9632C21.6554 30.0704 21.354 30.2954 21.0123 30.5505Z" fill="#FB6D3A"/>
</svg>
