<svg width="50" height="50" viewBox="0 0 50 50" fill="none" xmlns="http://www.w3.org/2000/svg">
<path d="M14.6154 6.38184C14.6154 5.82955 15.0632 5.38184 15.6154 5.38184H34.3847C34.937 5.38184 35.3847 5.82955 35.3847 6.38184V40.5357C35.3847 41.088 34.937 41.5357 34.3847 41.5357H15.6154C15.0632 41.5357 14.6154 41.088 14.6154 40.5357V6.38184Z" fill="black"/>
<path fill-rule="evenodd" clip-rule="evenodd" d="M13.8654 6.38184C13.8654 5.41534 14.6489 4.63184 15.6154 4.63184H34.3847C35.3512 4.63184 36.1347 5.41534 36.1347 6.38184V40.5357C36.1347 41.5022 35.3512 42.2857 34.3847 42.2857H15.6154C14.649 42.2857 13.8654 41.5022 13.8654 40.5357V6.38184ZM15.6154 6.13184C15.4774 6.13184 15.3654 6.24376 15.3654 6.38184V40.5357C15.3654 40.6738 15.4774 40.7857 15.6154 40.7857H34.3847C34.5228 40.7857 34.6347 40.6738 34.6347 40.5357V6.38184C34.6347 6.24376 34.5228 6.13184 34.3847 6.13184H15.6154Z" fill="#FB6D3A"/>
<path fill-rule="evenodd" clip-rule="evenodd" d="M18.4616 10.0166C18.8758 10.0166 19.2116 10.3524 19.2116 10.7666L19.2116 15.382C19.2116 15.7962 18.8758 16.132 18.4616 16.132C18.0474 16.132 17.7116 15.7962 17.7116 15.382L17.7116 10.7666C17.7116 10.3524 18.0474 10.0166 18.4616 10.0166Z" fill="#FB6D3A"/>
<path fill-rule="evenodd" clip-rule="evenodd" d="M32.2885 20.7666C32.2885 21.1808 31.9527 21.5166 31.5385 21.5166H14.6154C14.2012 21.5166 13.8654 21.1808 13.8654 20.7666C13.8654 20.3524 14.2012 20.0166 14.6154 20.0166H31.5385C31.9527 20.0166 32.2885 20.3524 32.2885 20.7666Z" fill="#FB6D3A"/>
<path fill-rule="evenodd" clip-rule="evenodd" d="M18.4616 23.8623C18.8758 23.8623 19.2116 24.1981 19.2116 24.6123L19.2116 29.2277C19.2116 29.6419 18.8758 29.9777 18.4616 29.9777C18.0474 29.9777 17.7116 29.6419 17.7116 29.2277L17.7116 24.6123C17.7116 24.1981 18.0474 23.8623 18.4616 23.8623Z" fill="#FB6D3A"/>
</svg>
