<svg width="50" height="50" viewBox="0 0 50 50" fill="none" xmlns="http://www.w3.org/2000/svg">
<path d="M13.0938 7.39454C13.0938 6.09809 14.1447 5.04712 15.4412 5.04712H37.7416C39.0381 5.04712 40.0891 6.09809 40.0891 7.39454V37.911C40.0891 39.2074 39.0381 40.2584 37.7416 40.2584H15.4412C14.1447 40.2584 13.0938 39.2074 13.0938 37.911V7.39454Z" fill="white"/>
<path fill-rule="evenodd" clip-rule="evenodd" d="M12.2129 7.39445C12.2129 5.61184 13.658 4.16675 15.4406 4.16675H37.7411C39.5237 4.16675 40.9688 5.61184 40.9688 7.39445V37.9109C40.9688 39.6935 39.5237 41.1386 37.7411 41.1386H15.4406C13.658 41.1386 12.2129 39.6935 12.2129 37.9109V7.39445ZM15.4406 5.92731C14.6303 5.92731 13.9735 6.58417 13.9735 7.39445V37.9109C13.9735 38.7211 14.6303 39.378 15.4406 39.378H37.7411C38.5513 39.378 39.2082 38.7211 39.2082 37.9109V7.39445C39.2082 6.58417 38.5513 5.92731 37.7411 5.92731H15.4406Z" fill="black"/>
<path fill-rule="evenodd" clip-rule="evenodd" d="M31.5781 8.5682C31.5781 9.05437 31.184 9.44849 30.6978 9.44849L13.0922 9.44849C12.606 9.44849 12.2119 9.05437 12.2119 8.5682C12.2119 8.08204 12.606 7.68792 13.0922 7.68792L30.6978 7.68792C31.184 7.68792 31.5781 8.08204 31.5781 8.5682Z" fill="black"/>
<path fill-rule="evenodd" clip-rule="evenodd" d="M37.4473 8.5682C37.4473 9.05437 37.0532 9.44849 36.567 9.44849L34.2196 9.44849C33.7334 9.44849 33.3393 9.05437 33.3393 8.5682C33.3393 8.08204 33.7334 7.68792 34.2196 7.68792L36.567 7.68792C37.0532 7.68792 37.4473 8.08204 37.4473 8.5682Z" fill="#EF7300"/>
<path d="M10.7461 21.4791C10.7461 20.8309 11.2716 20.3054 11.9198 20.3054H13.6804C14.3286 20.3054 14.8541 20.8309 14.8541 21.4791V25.0003C14.8541 25.6485 14.3286 26.174 13.6804 26.174H11.9198C11.2716 26.174 10.7461 25.6485 10.7461 25.0003V21.4791Z" fill="white"/>
<path fill-rule="evenodd" clip-rule="evenodd" d="M9.86523 21.479C9.86523 20.3447 10.7848 19.425 11.9192 19.425H13.6798C14.8142 19.425 15.7338 20.3447 15.7338 21.479V25.0002C15.7338 26.1346 14.8142 27.0542 13.6798 27.0542H11.9192C10.7848 27.0542 9.86523 26.1346 9.86523 25.0002V21.479ZM11.9192 21.1856C11.7572 21.1856 11.6258 21.317 11.6258 21.479V25.0002C11.6258 25.1622 11.7572 25.2936 11.9192 25.2936H13.6798C13.8418 25.2936 13.9732 25.1622 13.9732 25.0002V21.479C13.9732 21.317 13.8418 21.1856 13.6798 21.1856H11.9192Z" fill="black"/>
<path d="M17.2539 42.1598C17.2539 41.5116 17.7794 40.9861 18.4276 40.9861H19.6043C20.2525 40.9861 20.778 41.5116 20.778 42.1598V43.7794C20.778 44.4276 20.2525 44.9531 19.6043 44.9531H18.4276C17.7794 44.9531 17.2539 44.4276 17.2539 43.7794V42.1598Z" fill="white"/>
<path fill-rule="evenodd" clip-rule="evenodd" d="M16.373 42.1597C16.373 41.0253 17.2927 40.1057 18.427 40.1057H19.6037C20.7381 40.1057 21.6577 41.0253 21.6577 42.1597V43.7793C21.6577 44.9137 20.7381 45.8333 19.6037 45.8333H18.427C17.2926 45.8333 16.373 44.9137 16.373 43.7793V42.1597ZM18.427 41.8663C18.265 41.8663 18.1336 41.9976 18.1336 42.1597V43.7793C18.1336 43.9413 18.265 44.0727 18.427 44.0727H19.6037C19.7658 44.0727 19.8972 43.9413 19.8972 43.7793V42.1597C19.8972 41.9976 19.7658 41.8663 19.6037 41.8663H18.427Z" fill="black"/>
<path d="M33.8691 42.16C33.8691 41.5118 34.3946 40.9863 35.0428 40.9863H36.2196C36.8678 40.9863 37.3933 41.5118 37.3933 42.16V43.7796C37.3933 44.4278 36.8678 44.9533 36.2196 44.9533H35.0428C34.3946 44.9533 33.8691 44.4278 33.8691 43.7796V42.16Z" fill="white"/>
<path fill-rule="evenodd" clip-rule="evenodd" d="M32.9883 42.1599C32.9883 41.0256 33.9079 40.106 35.0423 40.106H36.219C37.3534 40.106 38.273 41.0256 38.273 42.1599V43.7795C38.273 44.9139 37.3534 45.8335 36.219 45.8335H35.0423C33.9079 45.8335 32.9883 44.9139 32.9883 43.7795V42.1599ZM35.0423 41.8665C34.8802 41.8665 34.7488 41.9979 34.7488 42.1599V43.7795C34.7488 43.9416 34.8802 44.073 35.0423 44.073H36.219C36.381 44.073 36.5124 43.9416 36.5124 43.7795V42.1599C36.5124 41.9979 36.381 41.8665 36.219 41.8665H35.0423Z" fill="black"/>
<path d="M17.7871 14.4368C17.7871 13.1403 18.8381 12.0894 20.1345 12.0894H33.0453C34.3418 12.0894 35.3927 13.1403 35.3927 14.4368V34.3898C35.3927 35.6863 34.3418 36.7372 33.0453 36.7372H20.1345C18.8381 36.7372 17.7871 35.6863 17.7871 34.3898V14.4368Z" fill="white"/>
<path fill-rule="evenodd" clip-rule="evenodd" d="M16.9082 14.4367C16.9082 12.6541 18.3533 11.209 20.1359 11.209H33.0467C34.8293 11.209 36.2744 12.6541 36.2744 14.4367V34.3897C36.2744 36.1723 34.8293 37.6174 33.0467 37.6174H20.1359C18.3533 37.6174 16.9082 36.1723 16.9082 34.3897V14.4367ZM20.1359 12.9695C19.3256 12.9695 18.6688 13.6264 18.6688 14.4367V34.3897C18.6688 35.2 19.3256 35.8569 20.1359 35.8569H33.0467C33.857 35.8569 34.5138 35.2 34.5138 34.3897V14.4367C34.5138 13.6264 33.857 12.9695 33.0467 12.9695H20.1359Z" fill="black"/>
<path d="M25.416 26.1738L26.5897 25.5869L27.7634 26.1738V28.3745C27.7634 29.1037 27.2379 29.6949 26.5897 29.6949C25.9415 29.6949 25.416 29.1037 25.416 28.3745V26.1738Z" fill="#EF7300"/>
<path d="M24.8298 20.3053C24.8298 20.9535 24.3044 21.479 23.6561 21.479C23.0079 21.479 22.4824 20.9535 22.4824 20.3053C22.4824 19.6571 23.0079 19.1316 23.6561 19.1316C24.3044 19.1316 24.8298 19.6571 24.8298 20.3053Z" fill="black"/>
<path d="M30.699 20.3053C30.699 20.9535 30.1735 21.479 29.5253 21.479C28.877 21.479 28.3516 20.9535 28.3516 20.3053C28.3516 19.6571 28.877 19.1316 29.5253 19.1316C30.1735 19.1316 30.699 19.6571 30.699 20.3053Z" fill="black"/>
<path d="M27.2985 24.5734C26.9836 25.1425 26.1963 25.1425 25.8814 24.5734L25.5271 23.9332C25.2122 23.3642 25.6058 22.6528 26.2357 22.6528L26.9443 22.6528C27.5741 22.6528 27.9678 23.3642 27.6528 23.9332L27.2985 24.5734Z" fill="black"/>
<path fill-rule="evenodd" clip-rule="evenodd" d="M21.4276 24.56C21.5863 24.3644 21.8435 24.3644 22.0022 24.56L22.1416 24.7319C23.2522 26.1013 25.0529 26.1013 26.1636 24.7319L26.303 24.56C26.4617 24.3644 26.7189 24.3644 26.8776 24.56L27.017 24.7319C28.1276 26.1013 29.9283 26.1013 31.039 24.7319L31.1784 24.56C31.3371 24.3644 31.5943 24.3644 31.753 24.56C31.9116 24.7557 31.9116 25.0728 31.753 25.2684L31.6136 25.4403C30.2339 27.1413 28.026 27.1989 26.5903 25.6129C25.1546 27.1989 22.9467 27.1413 21.567 25.4403L21.4276 25.2684C21.2689 25.0728 21.2689 24.7557 21.4276 24.56Z" fill="black"/>
</svg>
