<svg width="50" height="50" viewBox="0 0 50 50" fill="none" xmlns="http://www.w3.org/2000/svg">
<path fill-rule="evenodd" clip-rule="evenodd" d="M41.1725 20.4972C41.1664 20.9114 41.4972 21.2521 41.9113 21.2583L43.4012 21.2804C43.5854 21.2831 43.7035 21.4774 43.6211 21.6422L43.5944 21.6957C42.8953 23.0936 44.2401 24.6371 45.7206 24.136L46.2317 23.963C46.3965 23.9072 46.5665 24.0328 46.5617 24.2068L46.5213 25.6674C46.5099 26.0815 46.8362 26.4264 47.2503 26.4379C47.6643 26.4494 48.0093 26.123 48.0207 25.7089L48.0612 24.2482C48.0949 23.0304 46.9048 22.1516 45.7508 22.5422L45.2397 22.7152C45.0282 22.7868 44.8361 22.5663 44.936 22.3666L44.9627 22.3131C45.5395 21.1596 44.713 19.7997 43.4235 19.7806L41.9336 19.7585C41.5194 19.7523 41.1787 20.0831 41.1725 20.4972Z" fill="white"/>
<path fill-rule="evenodd" clip-rule="evenodd" d="M5.23648 22.1544C5.4551 21.8025 5.34711 21.3401 4.99528 21.1215L3.72964 20.3351C3.57316 20.2378 3.57203 20.0105 3.72753 19.9117L3.77799 19.8796C5.09729 19.0415 4.73971 17.0259 3.21262 16.6927L2.68546 16.5777C2.51541 16.5406 2.43437 16.3454 2.52811 16.1988L3.31517 14.9676C3.53827 14.6186 3.43622 14.1549 3.08722 13.9318C2.73823 13.7087 2.27445 13.8107 2.05135 14.1597L1.26429 15.3909C0.608077 16.4174 1.17541 17.7836 2.36574 18.0432L2.8929 18.1582C3.11105 18.2058 3.16214 18.4938 2.97366 18.6135L2.9232 18.6456C1.83465 19.3371 1.84259 20.9285 2.93798 21.6091L4.20361 22.3956C4.55544 22.6142 5.01787 22.5062 5.23648 22.1544Z" fill="white"/>
<path d="M34.7498 22.4292C35.7358 21.4627 37.3187 21.4785 38.2851 22.4646L46.7123 31.062C47.6788 32.0481 47.6629 33.6309 46.6769 34.5974L45.0701 36.1724L43.4633 37.7474C42.4772 38.7139 40.8944 38.698 39.9279 37.712L31.5008 29.1145C30.5343 28.1285 30.5501 26.5457 31.5361 25.5792L34.7498 22.4292Z" fill="#1B1322"/>
<path fill-rule="evenodd" clip-rule="evenodd" d="M34.2239 21.8936C35.5058 20.6372 37.5635 20.6578 38.8199 21.9396L47.2471 30.5371C48.5035 31.8189 48.4829 33.8766 47.2011 35.1331L43.9874 38.283C42.7056 39.5395 40.6479 39.5189 39.3915 38.2371L30.9643 29.6396C29.7079 28.3578 29.7285 26.3001 31.0103 25.0436L34.2239 21.8936ZM37.7487 22.9896C37.0721 22.2994 35.9642 22.2883 35.2739 22.9649L32.0603 26.1148C31.3701 26.7914 31.359 27.8994 32.0355 28.5896L40.4627 37.1871C41.1392 37.8773 42.2472 37.8884 42.9374 37.2118L46.1511 34.0618C46.8413 33.3853 46.8524 32.2773 46.1758 31.5871L37.7487 22.9896Z" fill="white"/>
<path d="M34.1866 43.4741H17.5007H9.5007C8.94841 43.4741 8.49653 43.0222 8.53424 42.4712C9.01671 35.4211 14.6113 33.2732 19.2515 33.0135C19.8029 32.9826 20.2507 32.5379 20.2507 31.9856V29.1344C20.2507 28.8956 20.4018 28.6829 20.6272 28.6043C20.8512 28.5262 21.1001 28.5973 21.249 28.782L26.9505 35.8519C27.1403 36.0873 27.4265 36.2241 27.7289 36.2241H31.7507L31.6257 36.2241H32.5598C33.1557 36.2241 33.7206 36.4899 34.1006 36.949L36.1126 39.3802C37.4615 41.01 36.3023 43.4741 34.1866 43.4741Z" fill="#1B1322"/>
<path fill-rule="evenodd" clip-rule="evenodd" d="M20.9993 29.6689L26.3653 36.3227C26.6975 36.7347 27.1983 36.9741 27.7275 36.9741H31.6231C31.6235 36.9741 31.6239 36.9741 31.6243 36.9741H32.5584C32.9308 36.9741 33.2839 37.1402 33.5214 37.4272L35.5334 39.8584C36.4776 40.9993 35.6661 42.7241 34.1852 42.7241H9.49927C9.34959 42.7241 9.27513 42.609 9.28106 42.5224C9.50721 39.2179 10.9142 37.1255 12.7671 35.8071C14.6511 34.4667 17.0551 33.8876 19.292 33.7624C20.2141 33.7107 20.9993 32.962 20.9993 31.9856V29.6689ZM31.7505 35.4741H32.5584C33.3778 35.4741 34.1545 35.8396 34.677 36.4708L36.689 38.9021C38.4425 41.0209 36.9355 44.2241 34.1852 44.2241H9.49927C8.54438 44.2241 7.71507 43.4355 7.78456 42.42C8.04089 38.6745 9.67248 36.168 11.8975 34.5849C14.0915 33.0239 16.8049 32.3992 19.2081 32.2647C19.3889 32.2546 19.4993 32.1139 19.4993 31.9856V29.1344C19.4993 28.5766 19.8522 28.0798 20.3789 27.8962C20.9021 27.7137 21.4835 27.8799 21.8314 28.3112L27.5329 35.3811C27.5803 35.4399 27.6519 35.4741 27.7275 35.4741H31.7493C31.7497 35.4741 31.7501 35.4741 31.7505 35.4741Z" fill="white"/>
<path d="M8.59726 7.60448C3.46553 10.179 9.36474 29.8854 16.6438 35.699C16.9166 35.9169 17.0722 36.2477 17.0464 36.596L16.9237 38.2477C16.8913 38.6836 17.1419 39.0867 17.5574 39.2221C19.6963 39.9193 26.361 41.6733 30.9803 38.2736C36.0114 34.5708 35.9105 29.4602 35.8441 28.5076C35.8368 28.4032 35.8079 28.3043 35.7651 28.2088C34.9523 26.3966 34.0855 23.2335 32.4377 20.6159C31.9113 19.7797 30.8082 19.6024 29.9632 20.1146L23.8505 23.8192C23.4579 24.0572 22.9538 23.9973 22.6279 23.674L14.5851 15.6959C14.3592 15.4719 14.2532 15.1554 14.289 14.8392C14.4053 13.8092 14.6087 11.388 14.2259 9.4741C13.7565 7.12767 9.85378 6.9741 8.59726 7.60448Z" fill="#1B1322"/>
<path fill-rule="evenodd" clip-rule="evenodd" d="M9.99287 8.04887C9.49237 8.08308 9.12383 8.17976 8.93448 8.27476C8.50375 8.49085 8.13878 8.90826 7.86926 9.58855C7.5976 10.2742 7.44286 11.182 7.41666 12.2806C7.36428 14.4766 7.82805 17.2815 8.68737 20.2269C9.54461 23.1653 10.7835 26.2023 12.2512 28.8555C13.7245 31.519 15.4011 33.7459 17.1127 35.1129C17.5653 35.4743 17.8407 36.0392 17.7952 36.6514L17.6725 38.3032C17.6638 38.4204 17.7274 38.4883 17.7907 38.509C18.8257 38.8463 20.9539 39.4378 23.3697 39.5347C25.7916 39.6318 28.4177 39.229 30.5366 37.6695C35.2603 34.193 35.1563 29.4121 35.0968 28.5597C35.0968 28.56 35.0969 28.56 35.0968 28.5597L35.845 28.5075L35.0968 28.5597C35.0968 28.5597 35.0968 28.5597 35.0968 28.5597C35.0966 28.5578 35.0947 28.5446 35.0817 28.5156L35.7296 28.225L35.0817 28.5156C34.8186 27.9291 34.5428 27.1868 34.2479 26.393C34.0776 25.9347 33.9009 25.4593 33.7167 24.9867C33.1982 23.6571 32.5899 22.2639 31.8039 21.0153C31.5281 20.5772 30.9026 20.4227 30.3528 20.7559L24.2401 24.4606C23.5532 24.8769 22.671 24.7721 22.1007 24.2064L14.0578 16.2283C13.6627 15.8363 13.4842 15.2898 13.5446 14.7549C13.6605 13.7296 13.8492 11.4106 13.4913 9.62111C13.3472 8.90029 12.6505 8.38974 11.5519 8.15655C11.0293 8.04562 10.4789 8.01565 9.99287 8.04887ZM11.8634 6.68925C13.1477 6.96186 14.6371 7.70132 14.9622 9.32692C15.3699 11.3654 15.152 13.8887 15.0351 14.9233C15.0241 15.0207 15.0576 15.1072 15.1142 15.1634L23.157 23.1415C23.2385 23.2223 23.3645 23.2372 23.4627 23.1778L29.5754 19.4731C30.7157 18.782 32.2963 18.9819 33.0733 20.2162C33.9351 21.5852 34.5841 23.0824 35.1142 24.4418C35.323 24.9773 35.5095 25.4801 35.6825 25.9465C35.9612 26.6977 36.2049 27.3545 36.4503 27.9018C36.5208 28.0589 36.5785 28.2444 36.5932 28.4553C36.6666 29.5082 36.7643 34.9485 31.4258 38.8776C28.9255 40.7178 25.9095 41.1378 23.3096 41.0335C20.7034 40.929 18.4298 40.2949 17.3259 39.9351C16.5582 39.6849 16.1206 38.9465 16.1766 38.1921L16.2993 36.5403C16.3056 36.4561 16.2697 36.3593 16.1766 36.2849L16.6447 35.6989L16.1766 36.2849C14.2487 34.7451 12.4582 32.3287 10.9386 29.5816C9.4134 26.8244 8.13337 23.6838 7.2474 20.6471C6.3635 17.6174 5.85973 14.6496 5.91708 12.2449C5.94574 11.0432 6.11518 9.94355 6.47472 9.03605C6.8364 8.12316 7.40965 7.36157 8.26185 6.93403C8.70076 6.71383 9.29126 6.59332 9.89059 6.55236C10.5044 6.51041 11.1946 6.54728 11.8634 6.68925Z" fill="white"/>
<path fill-rule="evenodd" clip-rule="evenodd" d="M19.7962 36.3427C19.9402 35.9543 20.3718 35.7563 20.7602 35.9003C21.6294 36.2228 22.0838 36.2846 22.9894 36.2502C23.4033 36.2345 23.7516 36.5573 23.7673 36.9712C23.7831 37.3851 23.4603 37.7334 23.0464 37.7491C21.957 37.7905 21.3047 37.7022 20.2385 37.3067C19.8501 37.1626 19.6521 36.731 19.7962 36.3427Z" fill="white"/>
<path fill-rule="evenodd" clip-rule="evenodd" d="M11.9474 20.2686C12.3514 20.1772 12.753 20.4305 12.8445 20.8345C13.7445 24.8108 14.9147 27.4578 17.5193 30.0635C17.8122 30.3565 17.8121 30.8313 17.5191 31.1242C17.2262 31.417 16.7513 31.4169 16.4585 31.124C13.5906 28.255 12.3209 25.316 11.3815 21.1657C11.29 20.7617 11.5434 20.36 11.9474 20.2686Z" fill="white"/>
</svg>
