<svg width="50" height="50" viewBox="0 0 50 50" fill="none" xmlns="http://www.w3.org/2000/svg">
<path d="M6.92188 36.3848C6.92188 35.8325 7.36959 35.3848 7.92188 35.3848H11.3065C11.8588 35.3848 12.3065 35.8325 12.3065 36.3848V40.5386C12.3065 41.0909 11.8588 41.5386 11.3065 41.5386H7.92188C7.36959 41.5386 6.92188 41.0909 6.92188 40.5386V36.3848Z" fill="#1B1322"/>
<path fill-rule="evenodd" clip-rule="evenodd" d="M6.17188 36.3848C6.17188 35.4183 6.95538 34.6348 7.92188 34.6348H11.3065C12.273 34.6348 13.0565 35.4183 13.0565 36.3848V40.5386C13.0565 41.5051 12.273 42.2886 11.3065 42.2886H7.92188C6.95538 42.2886 6.17188 41.5051 6.17188 40.5386V36.3848ZM7.92188 36.1348C7.78381 36.1348 7.67188 36.2467 7.67188 36.3848V40.5386C7.67188 40.6767 7.7838 40.7886 7.92188 40.7886H11.3065C11.4446 40.7886 11.5565 40.6767 11.5565 40.5386V36.3848C11.5565 36.2467 11.4446 36.1348 11.3065 36.1348H7.92188Z" fill="white"/>
<path d="M37.6914 36.3848C37.6914 35.8325 38.1391 35.3848 38.6914 35.3848H42.076C42.6283 35.3848 43.076 35.8325 43.076 36.3848V40.5386C43.076 41.0909 42.6283 41.5386 42.076 41.5386H38.6914C38.1391 41.5386 37.6914 41.0909 37.6914 40.5386V36.3848Z" fill="#1B1322"/>
<path fill-rule="evenodd" clip-rule="evenodd" d="M36.9414 36.3848C36.9414 35.4183 37.7249 34.6348 38.6914 34.6348H42.076C43.0425 34.6348 43.826 35.4183 43.826 36.3848V40.5386C43.826 41.5051 43.0425 42.2886 42.076 42.2886H38.6914C37.7249 42.2886 36.9414 41.5051 36.9414 40.5386V36.3848ZM38.6914 36.1348C38.5533 36.1348 38.4414 36.2467 38.4414 36.3848V40.5386C38.4414 40.6767 38.5533 40.7886 38.6914 40.7886H42.076C42.2141 40.7886 42.326 40.6767 42.326 40.5386V36.3848C42.326 36.2467 42.2141 36.1348 42.076 36.1348H38.6914Z" fill="white"/>
<path d="M3.07617 26.3462C3.07617 24.9655 4.19546 23.8462 5.57617 23.8462H44.4223C45.803 23.8462 46.9223 24.9655 46.9223 26.3462V36.6923C46.9223 37.2446 46.4746 37.6923 45.9223 37.6923H4.07617C3.52389 37.6923 3.07617 37.2446 3.07617 36.6923V26.3462Z" fill="#1B1322"/>
<path fill-rule="evenodd" clip-rule="evenodd" d="M2.32617 26.3462C2.32617 24.5513 3.78125 23.0962 5.57617 23.0962H44.4223C46.2173 23.0962 47.6723 24.5513 47.6723 26.3462V36.6923C47.6723 37.6588 46.8888 38.4423 45.9223 38.4423H4.07617C3.10967 38.4423 2.32617 37.6588 2.32617 36.6923V26.3462ZM5.57617 24.5962C4.60967 24.5962 3.82617 25.3797 3.82617 26.3462V36.6923C3.82617 36.8304 3.9381 36.9423 4.07617 36.9423H45.9223C46.0604 36.9423 46.1723 36.8304 46.1723 36.6923V26.3462C46.1723 25.3797 45.3888 24.5962 44.4223 24.5962H5.57617Z" fill="white"/>
<path fill-rule="evenodd" clip-rule="evenodd" d="M47.6484 33.9163C47.6484 34.3305 47.3127 34.6663 46.8984 34.6663L20.7912 34.6663C20.377 34.6663 20.0412 34.3305 20.0412 33.9163C20.0412 33.502 20.377 33.1663 20.7912 33.1663L46.8984 33.1663C47.3127 33.1663 47.6484 33.502 47.6484 33.9163Z" fill="white"/>
<path fill-rule="evenodd" clip-rule="evenodd" d="M17.8125 33.9163C17.8125 34.3305 17.4767 34.6663 17.0625 34.6663H7.73849C7.32428 34.6663 6.98849 34.3305 6.98849 33.9163C6.98849 33.502 7.32428 33.1663 7.73849 33.1663H17.0625C17.4767 33.1663 17.8125 33.502 17.8125 33.9163Z" fill="white"/>
<path d="M7.69141 14.0386C7.69141 12.6579 8.81069 11.5386 10.1914 11.5386H40.576C41.9567 11.5386 43.076 12.6579 43.076 14.0386V23.8463H7.69141V14.0386Z" fill="#1B1322"/>
<path fill-rule="evenodd" clip-rule="evenodd" d="M6.94141 14.0386C6.94141 12.2437 8.39648 10.7886 10.1914 10.7886H40.576C42.3709 10.7886 43.826 12.2436 43.826 14.0386V24.5963H6.94141V14.0386ZM10.1914 12.2886C9.22491 12.2886 8.44141 13.0721 8.44141 14.0386V23.0963H42.326V14.0386C42.326 13.0721 41.5425 12.2886 40.576 12.2886H10.1914Z" fill="white"/>
<path d="M12.3066 17.9231C12.3066 17.3708 12.7544 16.9231 13.3066 16.9231H24.3836C24.9359 16.9231 25.3836 17.3708 25.3836 17.9231V23.8462H12.3066V17.9231Z" fill="#1B1322"/>
<path fill-rule="evenodd" clip-rule="evenodd" d="M11.5566 17.9231C11.5566 16.9566 12.3401 16.1731 13.3066 16.1731H24.3836C25.3501 16.1731 26.1336 16.9566 26.1336 17.9231V24.5962H11.5566V17.9231ZM13.3066 17.6731C13.1686 17.6731 13.0566 17.785 13.0566 17.9231V23.0962H24.6336V17.9231C24.6336 17.785 24.5216 17.6731 24.3836 17.6731H13.3066Z" fill="white"/>
<path d="M25.3848 17.9231C25.3848 17.3708 25.8325 16.9231 26.3848 16.9231H37.4617C38.014 16.9231 38.4617 17.3708 38.4617 17.9231V23.8462H25.3848V17.9231Z" fill="#1B1322"/>
<path fill-rule="evenodd" clip-rule="evenodd" d="M24.6348 17.9231C24.6348 16.9566 25.4183 16.1731 26.3848 16.1731H37.4617C38.4282 16.1731 39.2117 16.9566 39.2117 17.9231V24.5962H24.6348V17.9231ZM26.3848 17.6731C26.2467 17.6731 26.1348 17.785 26.1348 17.9231V23.0962H37.7117V17.9231C37.7117 17.785 37.5998 17.6731 37.4617 17.6731H26.3848Z" fill="white"/>
</svg>
