<svg width="50" height="50" viewBox="0 0 50 50" fill="none" xmlns="http://www.w3.org/2000/svg">
<mask id="path-1-inside-1_4296_1950" fill="white">
<rect x="10" y="7" width="30" height="36" rx="1"/>
</mask>
<rect x="10" y="7" width="30" height="36" rx="1" stroke="white" stroke-width="3" mask="url(#path-1-inside-1_4296_1950)"/>
<rect x="4" y="23" width="42" height="16" rx="1" fill="#212A6A"/>
<mask id="path-3-inside-2_4296_1950" fill="white">
<rect x="4" y="24" width="42" height="14" rx="1"/>
</mask>
<rect x="4" y="24" width="42" height="14" rx="1" fill="#212A6A" stroke="white" stroke-width="3" mask="url(#path-3-inside-2_4296_1950)"/>
<path d="M9.43167 28C9.82847 28 10.1735 28.04 10.4668 28.1199C10.7601 28.1999 11.0073 28.3038 11.2086 28.4317C11.3409 28.517 11.4128 28.6209 11.4243 28.7435C11.4358 28.8661 11.4013 28.9807 11.3207 29.0873C11.246 29.1885 11.1482 29.2551 11.0275 29.2871C10.9067 29.3191 10.7859 29.3004 10.6652 29.2312C10.4812 29.1299 10.2943 29.0579 10.1045 29.0153C9.91472 28.9673 9.68183 28.9434 9.4058 28.9434C8.9285 28.9434 8.56046 29.0899 8.30168 29.3831C8.04291 29.6709 7.91352 30.1585 7.91352 30.8461V31.0139C7.91352 31.6855 8.03716 32.1705 8.28443 32.4689C8.53171 32.7621 8.90837 32.9086 9.41442 32.9086C9.70195 32.9086 9.9521 32.8793 10.1649 32.8207C10.3834 32.7568 10.5933 32.6635 10.7946 32.5409C10.9096 32.4663 11.0303 32.4396 11.1569 32.461C11.2834 32.4769 11.3897 32.5409 11.476 32.6528C11.5623 32.7647 11.5968 32.8873 11.5795 33.0206C11.5623 33.1538 11.4846 33.2657 11.3466 33.3563C11.0993 33.5216 10.8089 33.6468 10.4754 33.7321C10.1476 33.8174 9.78534 33.86 9.38855 33.86C8.98025 33.86 8.61509 33.8067 8.29306 33.7001C7.97678 33.5935 7.7065 33.4283 7.48223 33.2044C7.2637 32.9806 7.09406 32.6955 6.9733 32.349C6.85829 31.9973 6.80078 31.5789 6.80078 31.0939V30.7661C6.80078 30.2811 6.85829 29.8654 6.9733 29.519C7.09406 29.1672 7.26658 28.8794 7.49085 28.6556C7.71512 28.4317 7.99115 28.2665 8.31894 28.1599C8.64672 28.0533 9.01763 28 9.43167 28Z" fill="white"/>
<path d="M14.9799 28.04C15.1294 28.04 15.2588 28.072 15.368 28.1359C15.4773 28.1999 15.5722 28.3251 15.6527 28.5117L17.5935 33.1485C17.6568 33.303 17.6568 33.4363 17.5935 33.5482C17.5303 33.6601 17.4267 33.7374 17.283 33.7801C17.1392 33.8227 16.9954 33.828 16.8517 33.796C16.7137 33.7641 16.613 33.6628 16.5498 33.4923L16.0495 32.2131H13.8758L13.3668 33.5242C13.3036 33.6788 13.2058 33.7721 13.0735 33.804C12.947 33.8307 12.8148 33.8227 12.6768 33.7801C12.5387 33.7374 12.4381 33.6655 12.3749 33.5642C12.3116 33.4629 12.3116 33.3377 12.3749 33.1885L14.3157 28.5117C14.3904 28.3251 14.4824 28.1999 14.5917 28.1359C14.7067 28.072 14.8361 28.04 14.9799 28.04ZM14.9626 29.3191C14.9166 29.479 14.8706 29.6229 14.8246 29.7508C14.7843 29.8734 14.7297 30.0253 14.6607 30.2065L14.2035 31.3657H15.7217L15.2731 30.2065C15.1984 30.02 15.138 29.8601 15.092 29.7268C15.0518 29.5936 15.0086 29.4577 14.9626 29.3191Z" fill="white"/>
<path d="M19.1067 28.04C19.2563 28.04 19.3856 28.0746 19.4949 28.1439C19.6042 28.2132 19.6588 28.3251 19.6588 28.4797V31.4137C19.6588 31.6961 19.6847 31.936 19.7364 32.1332C19.7882 32.325 19.8658 32.4823 19.9693 32.6049C20.0786 32.7221 20.2166 32.8074 20.3834 32.8607C20.5501 32.9086 20.7457 32.9326 20.9699 32.9326C21.1942 32.9326 21.3897 32.9086 21.5565 32.8607C21.7233 32.8074 21.8584 32.7221 21.9619 32.6049C22.0712 32.4823 22.1517 32.325 22.2034 32.1332C22.2552 31.936 22.2811 31.6961 22.2811 31.4137V28.4797C22.2811 28.3251 22.3357 28.2132 22.445 28.1439C22.5542 28.0746 22.6836 28.04 22.8331 28.04C22.9826 28.04 23.112 28.0746 23.2213 28.1439C23.3305 28.2132 23.3852 28.3251 23.3852 28.4797V31.3977C23.3852 31.872 23.3305 32.2664 23.2213 32.5809C23.1178 32.8953 22.9625 33.1485 22.7555 33.3404C22.5542 33.5269 22.3041 33.6601 22.005 33.7401C21.706 33.82 21.361 33.86 20.9699 33.86C20.5789 33.86 20.2339 33.82 19.9348 33.7401C19.6358 33.6601 19.3828 33.5269 19.1758 33.3404C18.9745 33.1485 18.8192 32.8953 18.71 32.5809C18.6064 32.2664 18.5547 31.872 18.5547 31.3977V28.4797C18.5547 28.3251 18.6093 28.2132 18.7186 28.1439C18.8278 28.0746 18.9572 28.04 19.1067 28.04Z" fill="white"/>
<path d="M28.4769 28.0879C28.6092 28.0879 28.707 28.1306 28.7702 28.2159C28.8335 28.3011 28.8651 28.4024 28.8651 28.5196C28.8651 28.6369 28.8335 28.7382 28.7702 28.8234C28.707 28.9087 28.6092 28.9514 28.4769 28.9514H26.9933V33.3803C26.9933 33.5349 26.9387 33.6468 26.8294 33.7161C26.7201 33.7854 26.5907 33.82 26.4412 33.82C26.2917 33.82 26.1623 33.7854 26.0531 33.7161C25.9438 33.6468 25.8892 33.5349 25.8892 33.3803V28.9514H24.3969C24.2646 28.9514 24.1669 28.9087 24.1036 28.8234C24.0404 28.7382 24.0087 28.6369 24.0087 28.5196C24.0087 28.4024 24.0404 28.3011 24.1036 28.2159C24.1669 28.1306 24.2646 28.0879 24.3969 28.0879H28.4769Z" fill="white"/>
<path d="M30.1529 28.04C30.3024 28.04 30.4318 28.0746 30.541 28.1439C30.6503 28.2132 30.7049 28.3251 30.7049 28.4797V33.3803C30.7049 33.5349 30.6503 33.6468 30.541 33.7161C30.4318 33.7854 30.3024 33.82 30.1529 33.82C30.0033 33.82 29.874 33.7854 29.7647 33.7161C29.6554 33.6468 29.6008 33.5349 29.6008 33.3803V28.4797C29.6008 28.3251 29.6554 28.2132 29.7647 28.1439C29.874 28.0746 30.0033 28.04 30.1529 28.04Z" fill="white"/>
<path d="M34.5093 28C34.9291 28 35.3028 28.0533 35.6306 28.1599C35.9584 28.2665 36.2344 28.4317 36.4587 28.6556C36.683 28.8794 36.8526 29.1672 36.9676 29.519C37.0884 29.8654 37.1488 30.2811 37.1488 30.7661V31.0939C37.1488 31.5789 37.0884 31.9973 36.9676 32.349C36.8526 32.6955 36.683 32.9806 36.4587 33.2044C36.2344 33.4283 35.9584 33.5935 35.6306 33.7001C35.3028 33.8067 34.9291 33.86 34.5093 33.86C34.0895 33.86 33.7157 33.8067 33.3879 33.7001C33.0601 33.5935 32.7841 33.4283 32.5598 33.2044C32.3355 32.9806 32.163 32.6955 32.0423 32.349C31.9273 31.9973 31.8697 31.5789 31.8697 31.0939V30.7661C31.8697 30.2811 31.9273 29.8654 32.0423 29.519C32.163 29.1672 32.3355 28.8794 32.5598 28.6556C32.7841 28.4317 33.0601 28.2665 33.3879 28.1599C33.7157 28.0533 34.0895 28 34.5093 28ZM34.5093 28.9354C34.2562 28.9354 34.0348 28.9673 33.8451 29.0313C33.6553 29.0953 33.4943 29.2018 33.362 29.3511C33.2355 29.495 33.1406 29.6895 33.0774 29.9347C33.0141 30.1798 32.9825 30.4836 32.9825 30.8461V31.0139C32.9825 31.3764 33.0141 31.6802 33.0774 31.9253C33.1406 32.1705 33.2355 32.3677 33.362 32.5169C33.4943 32.6608 33.6553 32.7647 33.8451 32.8287C34.0348 32.8927 34.2562 32.9246 34.5093 32.9246C34.7623 32.9246 34.9837 32.8927 35.1735 32.8287C35.3632 32.7647 35.5214 32.6608 35.6479 32.5169C35.7801 32.3677 35.8779 32.1705 35.9412 31.9253C36.0044 31.6802 36.036 31.3764 36.036 31.0139V30.8461C36.036 30.4836 36.0044 30.1798 35.9412 29.9347C35.8779 29.6895 35.7801 29.495 35.6479 29.3511C35.5214 29.2018 35.3632 29.0953 35.1735 29.0313C34.9837 28.9673 34.7623 28.9354 34.5093 28.9354Z" fill="white"/>
<path d="M42.6239 28.04C42.7561 28.04 42.874 28.0746 42.9775 28.1439C43.081 28.2079 43.1328 28.3118 43.1328 28.4557V33.1245C43.1328 33.375 43.0782 33.5482 42.9689 33.6441C42.8654 33.7401 42.6756 33.788 42.3996 33.788C42.2961 33.788 42.2041 33.7801 42.1236 33.7641C42.043 33.7481 41.9654 33.7134 41.8907 33.6601C41.8159 33.6015 41.7383 33.5189 41.6578 33.4123C41.5772 33.3057 41.4824 33.1618 41.3731 32.9806L39.7428 30.2784C39.6566 30.1345 39.5789 29.9906 39.5099 29.8467C39.4409 29.7028 39.3805 29.5403 39.3288 29.3591V33.4043C39.3288 33.5482 39.277 33.6548 39.1735 33.7241C39.07 33.788 38.9521 33.82 38.8198 33.82C38.6876 33.82 38.5697 33.788 38.4662 33.7241C38.3627 33.6548 38.3109 33.5482 38.3109 33.4043V28.7355C38.3109 28.485 38.3627 28.3118 38.4662 28.2159C38.5754 28.1199 38.7681 28.072 39.0441 28.072C39.1476 28.072 39.2396 28.0799 39.3201 28.0959C39.4007 28.1119 39.4783 28.1492 39.553 28.2079C39.6278 28.2612 39.7054 28.3411 39.7859 28.4477C39.8665 28.5543 39.9613 28.6982 40.0706 28.8794L41.7009 31.5816C41.7871 31.7255 41.8648 31.8694 41.9338 32.0133C42.0028 32.1572 42.0632 32.3197 42.1149 32.5009V28.4557C42.1149 28.3118 42.1667 28.2079 42.2702 28.1439C42.3737 28.0746 42.4916 28.04 42.6239 28.04Z" fill="white"/>
<path d="M25 20.0808C25.2807 20.0808 25.5175 20.1734 25.7105 20.3586C25.9035 20.5438 26 20.771 26 21.0404C26 21.3098 25.9035 21.537 25.7105 21.7222C25.5175 21.9074 25.2807 22 25 22C24.7193 22 24.4825 21.9074 24.2895 21.7222C24.0965 21.537 24 21.3098 24 21.0404C24 20.771 24.0965 20.5438 24.2895 20.3586C24.4825 20.1734 24.7193 20.0808 25 20.0808ZM25 12C25.2807 12 25.5044 12.0589 25.6711 12.1768C25.8465 12.2946 25.9298 12.4924 25.9211 12.7702L25.7105 18.5404C25.7018 18.8013 25.6228 18.9823 25.4737 19.0833C25.3333 19.1843 25.1754 19.2348 25 19.2348C24.8246 19.2348 24.6623 19.1843 24.5132 19.0833C24.3728 18.9823 24.2982 18.8013 24.2895 18.5404L24.0789 12.7702C24.0702 12.4924 24.1491 12.2946 24.3158 12.1768C24.4912 12.0589 24.7193 12 25 12Z" fill="white"/>
</svg>
