<svg width="50" height="50" viewBox="0 0 50 50" fill="none" xmlns="http://www.w3.org/2000/svg">
<path d="M6.1543 11.7693C6.1543 11.217 6.60201 10.7693 7.1543 10.7693H42.8466C43.3989 10.7693 43.8466 11.217 43.8466 11.7693V35.9231C43.8466 36.4754 43.3989 36.9231 42.8466 36.9231H7.1543C6.60201 36.9231 6.1543 36.4754 6.1543 35.9231V11.7693Z" fill="#1B1322"/>
<path fill-rule="evenodd" clip-rule="evenodd" d="M5.4043 11.7693C5.4043 10.8028 6.1878 10.0193 7.1543 10.0193H42.8466C43.8131 10.0193 44.5966 10.8028 44.5966 11.7693V35.9231C44.5966 36.8896 43.8131 37.6731 42.8466 37.6731H7.1543C6.1878 37.6731 5.4043 36.8896 5.4043 35.9231V11.7693ZM7.1543 11.5193C7.01622 11.5193 6.9043 11.6312 6.9043 11.7693V35.9231C6.9043 36.0612 7.01623 36.1731 7.1543 36.1731H42.8466C42.9847 36.1731 43.0966 36.0612 43.0966 35.9231V11.7693C43.0966 11.6312 42.9847 11.5193 42.8466 11.5193H7.1543Z" fill="white"/>
<path fill-rule="evenodd" clip-rule="evenodd" d="M20.9856 18.1147C21.1985 18.47 21.083 18.9306 20.7277 19.1435L14.886 22.6435C14.5307 22.8564 14.07 22.7409 13.8572 22.3856C13.6443 22.0303 13.7597 21.5697 14.1151 21.3568L19.9568 17.8568C20.3121 17.6439 20.7727 17.7594 20.9856 18.1147Z" fill="white"/>
<path fill-rule="evenodd" clip-rule="evenodd" d="M35.7576 17.6114C35.9724 17.9656 35.8594 18.4268 35.5052 18.6415L14.8898 31.1415C14.5356 31.3563 14.0744 31.2433 13.8596 30.8891C13.6448 30.5349 13.7579 30.0737 14.1121 29.8589L34.7274 17.3589C35.0816 17.1441 35.5429 17.2572 35.7576 17.6114Z" fill="white"/>
<path fill-rule="evenodd" clip-rule="evenodd" d="M25.6123 29.8933C25.3952 29.5405 25.5052 29.0786 25.858 28.8615L35.608 22.8615C35.9607 22.6444 36.4227 22.7544 36.6398 23.1072C36.8569 23.4599 36.7469 23.9219 36.3941 24.139L26.6441 30.139C26.2914 30.3561 25.8294 30.2461 25.6123 29.8933Z" fill="white"/>
<path fill-rule="evenodd" clip-rule="evenodd" d="M26.3145 15.1251C26.5216 15.4839 26.3987 15.9426 26.0399 16.1497L23.3752 17.6881C23.0165 17.8952 22.5578 17.7723 22.3507 17.4136C22.1436 17.0549 22.2665 16.5962 22.6252 16.3891L25.2899 14.8506C25.6487 14.6435 26.1073 14.7664 26.3145 15.1251Z" fill="white"/>
<path fill-rule="evenodd" clip-rule="evenodd" d="M23.475 31.1236C23.683 31.4818 23.5612 31.9408 23.2029 32.1488L21.878 32.918C21.5197 33.126 21.0608 33.0042 20.8528 32.646C20.6448 32.2877 20.7666 31.8287 21.1248 31.6208L22.4498 30.8515C22.808 30.6436 23.267 30.7654 23.475 31.1236Z" fill="white"/>
<path fill-rule="evenodd" clip-rule="evenodd" d="M11.7447 36.2019C12.143 36.3157 12.3736 36.7308 12.2598 37.1291L10.7213 42.5137C10.6075 42.912 10.1924 43.1426 9.79415 43.0288C9.39588 42.915 9.16526 42.4999 9.27905 42.1016L10.8175 36.717C10.9313 36.3187 11.3464 36.0881 11.7447 36.2019ZM38.2557 36.2019C38.654 36.0881 39.0691 36.3187 39.1829 36.717L40.7213 42.1016C40.8351 42.4999 40.6045 42.915 40.2062 43.0288C39.808 43.1426 39.3928 42.912 39.2791 42.5137L37.7406 37.1291C37.6268 36.7308 37.8574 36.3157 38.2557 36.2019Z" fill="white"/>
</svg>
