<svg width="71" height="70" viewBox="0 0 71 70" fill="none" xmlns="http://www.w3.org/2000/svg">
<mask id="path-1-inside-1_4579_6648" fill="white">
<rect x="14.0908" y="9.79688" width="42" height="50.4" rx="1"/>
</mask>
<rect x="14.0908" y="9.79688" width="42" height="50.4" rx="1" stroke="#49C3FF" stroke-width="5" mask="url(#path-1-inside-1_4579_6648)"/>
<rect x="6" y="30.9971" width="58" height="25" rx="1" fill="black"/>
<mask id="path-3-inside-2_4579_6648" fill="white">
<rect x="5.69092" y="33.5967" width="58.8" height="19.6" rx="1"/>
</mask>
<rect x="5.69092" y="33.5967" width="58.8" height="19.6" rx="1" fill="black" stroke="#49C3FF" stroke-width="5" mask="url(#path-3-inside-2_4579_6648)"/>
<path d="M13.2951 39.1973C13.8506 39.1973 14.3336 39.2532 14.7442 39.3652C15.1548 39.4771 15.501 39.6226 15.7828 39.8017C15.9679 39.921 16.0686 40.0665 16.0847 40.2382C16.1008 40.4098 16.0525 40.5702 15.9398 40.7194C15.8351 40.8612 15.6982 40.9545 15.5292 40.9992C15.3601 41.044 15.191 41.0179 15.022 40.9209C14.7643 40.7791 14.5027 40.6784 14.237 40.6187C13.9713 40.5515 13.6453 40.518 13.2588 40.518C12.5906 40.518 12.0754 40.7232 11.7131 41.1335C11.3508 41.5365 11.1697 42.2192 11.1697 43.1817V43.4168C11.1697 44.3569 11.3427 45.0359 11.6889 45.4538C12.0351 45.8642 12.5624 46.0694 13.2709 46.0694C13.6735 46.0694 14.0237 46.0283 14.3215 45.9463C14.6275 45.8567 14.9213 45.7261 15.2031 45.5545C15.3641 45.4501 15.5332 45.4128 15.7103 45.4426C15.8874 45.465 16.0364 45.5545 16.1571 45.7112C16.2779 45.8679 16.3262 46.0395 16.302 46.2261C16.2779 46.4126 16.1692 46.5693 15.976 46.6961C15.6298 46.9275 15.2232 47.1028 14.7563 47.2222C14.2974 47.3416 13.7902 47.4013 13.2347 47.4013C12.6631 47.4013 12.1519 47.3266 11.701 47.1774C11.2582 47.0282 10.8798 46.7969 10.5658 46.4835C10.2599 46.1701 10.0224 45.7709 9.85334 45.2859C9.69232 44.7934 9.61182 44.2077 9.61182 43.5287V43.0698C9.61182 42.3908 9.69232 41.8088 9.85334 41.3238C10.0224 40.8314 10.2639 40.4284 10.5779 40.115C10.8919 39.8017 11.2783 39.5703 11.7372 39.4211C12.1961 39.2719 12.7154 39.1973 13.2951 39.1973Z" fill="#49C3FF"/>
<path d="M21.0625 39.2532C21.2719 39.2532 21.453 39.298 21.606 39.3875C21.7589 39.4771 21.8918 39.6524 22.0045 39.9136L24.7216 46.4051C24.8102 46.6215 24.8102 46.8081 24.7216 46.9648C24.6331 47.1215 24.4882 47.2296 24.2869 47.2893C24.0856 47.349 23.8843 47.3565 23.6831 47.3117C23.4899 47.267 23.349 47.1252 23.2604 46.8864L22.56 45.0956H19.5168L18.8043 46.9312C18.7157 47.1476 18.5789 47.2781 18.3937 47.3229C18.2166 47.3602 18.0314 47.349 17.8382 47.2893C17.645 47.2296 17.5041 47.1289 17.4155 46.9871C17.327 46.8454 17.327 46.67 17.4155 46.4611L20.1327 39.9136C20.2373 39.6524 20.3661 39.4771 20.5191 39.3875C20.6801 39.298 20.8613 39.2532 21.0625 39.2532ZM21.0384 41.044C20.974 41.2679 20.9096 41.4693 20.8452 41.6484C20.7888 41.82 20.7123 42.0327 20.6157 42.2864L19.9757 43.9092H22.1011L21.4731 42.2864C21.3685 42.0252 21.2839 41.8014 21.2195 41.6148C21.1632 41.4283 21.1028 41.238 21.0384 41.044Z" fill="#49C3FF"/>
<path d="M26.8402 39.2532C27.0495 39.2532 27.2306 39.3017 27.3836 39.3987C27.5366 39.4957 27.613 39.6524 27.613 39.8688V43.9764C27.613 44.3719 27.6493 44.7076 27.7217 44.9837C27.7942 45.2523 27.9029 45.4724 28.0478 45.6441C28.2008 45.8082 28.394 45.9276 28.6274 46.0022C28.8609 46.0694 29.1346 46.103 29.4486 46.103C29.7626 46.103 30.0363 46.0694 30.2698 46.0022C30.5033 45.9276 30.6925 45.8082 30.8374 45.6441C30.9904 45.4724 31.1031 45.2523 31.1755 44.9837C31.248 44.7076 31.2842 44.3719 31.2842 43.9764V39.8688C31.2842 39.6524 31.3607 39.4957 31.5137 39.3987C31.6666 39.3017 31.8478 39.2532 32.0571 39.2532C32.2664 39.2532 32.4476 39.3017 32.6005 39.3987C32.7535 39.4957 32.83 39.6524 32.83 39.8688V43.954C32.83 44.6181 32.7535 45.1703 32.6005 45.6105C32.4556 46.0507 32.2382 46.4051 31.9484 46.6738C31.6666 46.9349 31.3164 47.1215 30.8978 47.2334C30.4791 47.3453 29.9961 47.4013 29.4486 47.4013C28.9012 47.4013 28.4181 47.3453 27.9995 47.2334C27.5808 47.1215 27.2266 46.9349 26.9368 46.6738C26.655 46.4051 26.4376 46.0507 26.2847 45.6105C26.1397 45.1703 26.0673 44.6181 26.0673 43.954V39.8688C26.0673 39.6524 26.1438 39.4957 26.2967 39.3987C26.4497 39.3017 26.6308 39.2532 26.8402 39.2532Z" fill="#49C3FF"/>
<path d="M39.9584 39.3204C40.1436 39.3204 40.2805 39.3801 40.369 39.4995C40.4576 39.6188 40.5019 39.7606 40.5019 39.9248C40.5019 40.0889 40.4576 40.2307 40.369 40.3501C40.2805 40.4695 40.1436 40.5292 39.9584 40.5292H37.8813V46.7297C37.8813 46.9461 37.8048 47.1028 37.6519 47.1998C37.4989 47.2968 37.3178 47.3453 37.1084 47.3453C36.8991 47.3453 36.718 47.2968 36.565 47.1998C36.4121 47.1028 36.3356 46.9461 36.3356 46.7297V40.5292H34.2464C34.0612 40.5292 33.9244 40.4695 33.8358 40.3501C33.7472 40.2307 33.703 40.0889 33.703 39.9248C33.703 39.7606 33.7472 39.6188 33.8358 39.4995C33.9244 39.3801 34.0612 39.3204 34.2464 39.3204H39.9584Z" fill="#49C3FF"/>
<path d="M42.3047 39.2532C42.514 39.2532 42.6952 39.3017 42.8482 39.3987C43.0011 39.4957 43.0776 39.6524 43.0776 39.8688V46.7297C43.0776 46.9461 43.0011 47.1028 42.8482 47.1998C42.6952 47.2968 42.514 47.3453 42.3047 47.3453C42.0954 47.3453 41.9143 47.2968 41.7613 47.1998C41.6083 47.1028 41.5318 46.9461 41.5318 46.7297V39.8688C41.5318 39.6524 41.6083 39.4957 41.7613 39.3987C41.9143 39.3017 42.0954 39.2532 42.3047 39.2532Z" fill="#49C3FF"/>
<path d="M48.4037 39.1973C48.9914 39.1973 49.5147 39.2719 49.9736 39.4211C50.4325 39.5703 50.8189 39.8017 51.1329 40.115C51.4469 40.4284 51.6844 40.8314 51.8454 41.3238C52.0145 41.8088 52.099 42.3908 52.099 43.0698V43.5287C52.099 44.2077 52.0145 44.7934 51.8454 45.2859C51.6844 45.7709 51.4469 46.1701 51.1329 46.4835C50.8189 46.7969 50.4325 47.0282 49.9736 47.1774C49.5147 47.3266 48.9914 47.4013 48.4037 47.4013C47.816 47.4013 47.2927 47.3266 46.8338 47.1774C46.3749 47.0282 45.9884 46.7969 45.6745 46.4835C45.3605 46.1701 45.119 45.7709 44.9499 45.2859C44.7889 44.7934 44.7084 44.2077 44.7084 43.5287V43.0698C44.7084 42.3908 44.7889 41.8088 44.9499 41.3238C45.119 40.8314 45.3605 40.4284 45.6745 40.115C45.9884 39.8017 46.3749 39.5703 46.8338 39.4211C47.2927 39.2719 47.816 39.1973 48.4037 39.1973ZM48.4037 40.5068C48.0495 40.5068 47.7395 40.5515 47.4738 40.6411C47.2081 40.7306 46.9827 40.8799 46.7976 41.0888C46.6204 41.2902 46.4876 41.5626 46.399 41.9058C46.3105 42.249 46.2662 42.6744 46.2662 43.1817V43.4168C46.2662 43.9242 46.3105 44.3495 46.399 44.6927C46.4876 45.0359 46.6204 45.312 46.7976 45.5209C46.9827 45.7224 47.2081 45.8679 47.4738 45.9575C47.7395 46.047 48.0495 46.0918 48.4037 46.0918C48.7579 46.0918 49.0679 46.047 49.3336 45.9575C49.5992 45.8679 49.8206 45.7224 49.9977 45.5209C50.1829 45.312 50.3198 45.0359 50.4083 44.6927C50.4969 44.3495 50.5412 43.9242 50.5412 43.4168V43.1817C50.5412 42.6744 50.4969 42.249 50.4083 41.9058C50.3198 41.5626 50.1829 41.2902 49.9977 41.0888C49.8206 40.8799 49.5992 40.7306 49.3336 40.6411C49.0679 40.5515 48.7579 40.5068 48.4037 40.5068Z" fill="#49C3FF"/>
<path d="M59.7641 39.2532C59.9493 39.2532 60.1143 39.3017 60.2593 39.3987C60.4042 39.4883 60.4766 39.6338 60.4766 39.8352V46.3716C60.4766 46.7223 60.4001 46.9648 60.2472 47.0991C60.1023 47.2334 59.8366 47.3005 59.4501 47.3005C59.3052 47.3005 59.1764 47.2893 59.0637 47.267C58.951 47.2446 58.8423 47.1961 58.7376 47.1215C58.633 47.0394 58.5243 46.9237 58.4116 46.7745C58.2989 46.6253 58.166 46.4238 58.0131 46.1701L55.7307 42.3871C55.6099 42.1856 55.5012 41.9842 55.4046 41.7827C55.308 41.5812 55.2235 41.3537 55.151 41.1V46.7633C55.151 46.9648 55.0785 47.114 54.9336 47.211C54.7887 47.3005 54.6237 47.3453 54.4385 47.3453C54.2533 47.3453 54.0883 47.3005 53.9434 47.211C53.7985 47.114 53.726 46.9648 53.726 46.7633V40.227C53.726 39.8763 53.7985 39.6338 53.9434 39.4995C54.0963 39.3652 54.366 39.298 54.7525 39.298C54.8974 39.298 55.0262 39.3092 55.1389 39.3316C55.2516 39.354 55.3603 39.4062 55.465 39.4883C55.5696 39.5629 55.6783 39.6748 55.791 39.824C55.9038 39.9733 56.0366 40.1747 56.1896 40.4284L58.472 44.2114C58.5927 44.4129 58.7014 44.6144 58.798 44.8158C58.8946 45.0173 58.9792 45.2449 59.0516 45.4986V39.8352C59.0516 39.6338 59.1241 39.4883 59.269 39.3987C59.4139 39.3017 59.579 39.2532 59.7641 39.2532Z" fill="#49C3FF"/>
<path d="M35.0909 28.11C35.4839 28.11 35.8155 28.2396 36.0857 28.4989C36.3558 28.7582 36.4909 29.0763 36.4909 29.4534C36.4909 29.8305 36.3558 30.1487 36.0857 30.408C35.8155 30.6672 35.4839 30.7969 35.0909 30.7969C34.6979 30.7969 34.3664 30.6672 34.0962 30.408C33.826 30.1487 33.6909 29.8305 33.6909 29.4534C33.6909 29.0763 33.826 28.7582 34.0962 28.4989C34.3664 28.2396 34.6979 28.11 35.0909 28.11ZM35.0909 16.7969C35.4839 16.7969 35.7971 16.8794 36.0304 17.0443C36.276 17.2093 36.3927 17.4863 36.3804 17.8752L36.0857 25.9534C36.0734 26.3188 35.9628 26.5721 35.7541 26.7135C35.5576 26.855 35.3365 26.9257 35.0909 26.9257C34.8453 26.9257 34.6181 26.855 34.4093 26.7135C34.2128 26.5721 34.1085 26.3188 34.0962 25.9534L33.8014 17.8752C33.7892 17.4863 33.8997 17.2093 34.133 17.0443C34.3786 16.8794 34.6979 16.7969 35.0909 16.7969Z" fill="#49C3FF"/>
</svg>
