<svg width="534" height="118" viewBox="0 0 534 118" fill="none" xmlns="http://www.w3.org/2000/svg">
<path d="M127.77 57.3529C126.208 57.392 123.454 57.5482 119.51 57.8216L113.886 58.2902C110.8 58.5246 108.379 59.3643 106.622 60.8093C104.864 62.2153 103.985 64.129 103.985 66.5504C103.985 68.1127 104.376 69.4405 105.157 70.5341C105.977 71.6276 107.11 72.4673 108.555 73.0532C110.039 73.639 111.699 73.9319 113.534 73.9319C116.151 73.9319 118.475 73.4242 120.506 72.4088C122.537 71.3543 124.118 69.9287 125.251 68.1322C126.384 66.2966 126.95 64.2852 126.95 62.0981L126.833 41.5355C126.833 39.7389 126.442 38.2158 125.661 36.966C124.919 35.6772 123.767 34.7203 122.205 34.0954C120.681 33.4315 118.865 33.0995 116.756 33.0995C113.827 33.0995 111.445 33.7244 109.609 34.9742C107.774 36.1849 106.622 37.9033 106.153 40.1295H89.6324C90.023 36.3801 91.3313 33.0214 93.5575 30.0532C95.8227 27.0459 98.9471 24.6831 102.931 22.9646C106.953 21.2462 111.699 20.387 117.166 20.387C122.087 20.387 126.579 21.1485 130.641 22.6717C134.702 24.1949 137.963 26.5772 140.424 29.8188C142.924 33.0214 144.173 37.0636 144.173 41.9455V84.8284H127.711V76.0409H127.243C126.188 78.0327 124.802 79.7707 123.083 81.2548C121.365 82.7389 119.295 83.9106 116.874 84.7698C114.491 85.59 111.718 86 108.555 86C104.454 86 100.822 85.2775 97.6583 83.8325C94.4948 82.3874 91.9953 80.2394 90.1597 77.3883C88.3241 74.5373 87.4062 71.1004 87.4062 67.0777C87.4062 60.4383 89.5934 55.6149 93.9676 52.6077C98.3808 49.6004 104.083 47.882 111.074 47.4524C112.245 47.3352 115.858 47.1399 121.912 46.8665L127.653 46.6322L127.77 57.3529Z" fill="white"/>
<path d="M0 84.8283L29.2916 0H51.9046L81.2548 84.8283H62.3324L40.9496 19.1567H40.2466L18.8052 84.8283H0ZM63.1526 51.4946V65.2616H17.8678V51.4946H63.1526Z" fill="white"/>
<path d="M511.278 69.866H487.135V36.3015H511.278V69.866ZM492.465 65.458H505.833V40.6231H492.465V65.458ZM525.367 82.802H519.921V31.1732H525.367V82.802ZM533.693 56.0657H524.128V51.3983H533.693V56.0657Z" fill="white"/>
<path d="M472.893 83.7816H466.574V23.3799H472.893V83.7816ZM482.607 52.2866H471.448V46.9423H482.607V52.2866ZM433.365 63.9838C439.37 64.0062 444.479 63.883 448.692 63.6141C452.927 63.3227 457.207 62.7849 461.532 62.0007L462.171 67.2106C457.734 67.9949 453.331 68.5439 448.961 68.8576C444.614 69.1713 439.415 69.3394 433.365 69.3618H428.491V63.9838H433.365ZM455.885 50.9758H434.81V66.1014H428.491V45.7994H449.566V34.035H428.356V28.8251H455.885V50.9758Z" fill="white"/>
<path d="M411.92 84.617H404.659V15.5865H411.92V84.617ZM423.021 48.3155H410.268V42.2845H423.021V48.3155ZM366.783 61.4532C373.288 61.4532 378.973 61.2868 383.839 60.9538C388.705 60.5953 393.609 59.9679 398.552 59.0715L399.435 65.2946C394.416 66.191 389.447 66.7928 384.53 67.1001C379.639 67.3818 373.723 67.5227 366.783 67.5227H361.213V61.4532H366.783ZM393.404 28.1864H368.473V64.2959H361.213V22.1938H393.404V28.1864Z" fill="white"/>
<path d="M354.461 45.0024H340.33V38.1742H354.461V45.0024ZM342.447 85.1933H334.28V7.79333H342.447V85.1933ZM293.267 63.3692H285.1V15.3561H293.267V63.3692ZM291.452 58.9612C297.531 58.9612 303.538 58.6875 309.473 58.1401C315.408 57.5927 321.43 56.6851 327.538 55.4175L328.532 62.332C322.337 63.5997 316.201 64.4928 310.122 65.0114C304.071 65.53 297.848 65.7893 291.452 65.7893H285.1V58.9612H291.452Z" fill="white"/>
<path d="M264.476 86H255.401V0H264.476V86ZM277.825 41.9676H262.123V34.3808H277.825V41.9676ZM241.956 9.12339C241.956 17.7346 240.611 25.7856 237.922 33.2764C235.265 40.7352 231.008 47.6177 225.149 53.9241C219.323 60.1984 211.816 65.6084 202.629 70.1541L197.539 63.0475C205.446 59.078 212.024 54.5003 217.274 49.3144C222.524 44.0964 226.462 38.2862 229.087 31.8839C231.712 25.4495 233.024 18.3908 233.024 10.708V9.12339H241.956ZM237.634 16.7102H201.765V9.12339H237.634V16.7102Z" fill="white"/>
<path d="M104.987 118C102.863 118 101.365 116.403 101.365 114.132C101.365 111.877 102.863 110.28 104.987 110.28C105.908 110.28 106.863 110.724 107.489 111.712V106.329H108.674V117.885H107.489V116.551C106.847 117.539 105.908 118 104.987 118ZM102.55 114.132C102.55 115.778 103.571 116.93 105.036 116.93C106.336 116.93 107.489 115.679 107.489 114.132C107.489 112.617 106.336 111.35 105.036 111.35C103.571 111.35 102.55 112.502 102.55 114.132Z" fill="white"/>
<path d="M96.5322 117.885V110.296H97.7174V111.63C98.2277 110.774 99.2812 110.181 100.368 110.214V111.383C98.9684 111.35 97.7174 112.551 97.7174 113.983V117.885H96.5322Z" fill="white"/>
<path d="M90.9204 118C88.8134 118 87.3154 116.403 87.3154 114.165C87.3154 111.926 88.8134 110.313 90.9204 110.313C91.7599 110.313 92.6981 110.774 93.373 111.728V110.296H94.5582V117.885H93.373V116.568C92.6817 117.605 91.7763 118 90.9204 118ZM88.5006 114.165C88.5006 115.778 89.5047 116.93 90.9368 116.93C92.2208 116.93 93.373 115.778 93.3895 114.165C93.373 112.568 92.2208 111.383 90.9368 111.383C89.5047 111.383 88.5006 112.535 88.5006 114.165Z" fill="white"/>
<path d="M81.7103 118C79.5868 118 78.0889 116.403 78.0889 114.132C78.0889 111.877 79.5868 110.28 81.7103 110.28C82.6321 110.28 83.5868 110.724 84.2123 111.712V106.329H85.3975V117.885H84.2123V116.551C83.5703 117.539 82.6321 118 81.7103 118ZM79.2741 114.132C79.2741 115.778 80.2946 116.93 81.7596 116.93C83.0601 116.93 84.2123 115.679 84.2123 114.132C84.2123 112.617 83.0601 111.35 81.7596 111.35C80.2946 111.35 79.2741 112.502 79.2741 114.132Z" fill="white"/>
<path d="M75.0024 113.424C75.0024 112.206 74.2452 111.366 73.1588 111.366C71.8748 111.366 70.986 112.354 70.986 113.424V117.885H69.8008V110.296H70.986V111.432C71.5127 110.757 72.4016 110.296 73.1588 110.296C74.9366 110.296 76.1876 111.547 76.1876 113.325V117.885H75.0024V113.424Z" fill="white"/>
<path d="M64.4612 117.967C62.3378 117.967 60.8398 116.37 60.8398 114.132C60.8398 111.893 62.3378 110.296 64.4612 110.296C66.7987 110.296 67.5065 112.173 67.5723 112.37C68.0333 113.588 67.8686 114.675 67.8686 114.675H62.0744C62.2719 115.975 63.2596 116.897 64.4612 116.897C66.0909 116.897 66.667 115.844 66.7658 115.695L67.6876 116.222C67.309 117.062 66.239 117.967 64.4612 117.967ZM62.0744 113.621L66.6999 113.605C66.5682 112.337 65.9756 111.366 64.4612 111.366C63.2431 111.366 62.2719 112.272 62.0744 113.621Z" fill="white"/>
<path d="M56.8497 117.885V111.35H55.4834V110.296H56.8497V107.679H58.0348V110.296H59.8291V111.35H58.0348V117.885H56.8497Z" fill="white"/>
<path d="M50.9427 117.967C48.8192 117.967 47.3213 116.37 47.3213 114.132C47.3213 111.893 48.8192 110.296 50.9427 110.296C53.2801 110.296 53.9879 112.173 54.0538 112.37C54.5147 113.588 54.3501 114.675 54.3501 114.675H48.5559C48.7534 115.975 49.741 116.897 50.9427 116.897C52.5723 116.897 53.1484 115.844 53.2472 115.695L54.169 116.222C53.7904 117.062 52.7205 117.967 50.9427 117.967ZM48.5559 113.621L53.1814 113.605C53.0497 112.337 52.4571 111.366 50.9427 111.366C49.7246 111.366 48.7534 112.272 48.5559 113.621Z" fill="white"/>
<path d="M42.4873 117.885V110.296H43.6725V111.63C44.1828 110.774 45.2363 110.181 46.3227 110.214V111.383C44.9235 111.35 43.6725 112.551 43.6725 113.983V117.885H42.4873Z" fill="white"/>
<path d="M36.9947 111.893C38.4597 111.893 39.4803 110.889 39.4803 109.473C39.4803 108.058 38.4432 107.053 36.9782 107.053H34.114L34.1305 111.893H36.9947ZM32.9453 117.885V106H37.0276C39.1511 106 40.6325 107.432 40.6325 109.473C40.6325 111.514 39.1511 112.946 37.0276 112.946H34.1305V117.885H32.9453Z" fill="white"/>
</svg>
