<svg width="521" height="119" viewBox="0 0 521 119" fill="none" xmlns="http://www.w3.org/2000/svg">
<path d="M104.708 84.9999C90.019 84.9999 80.6523 74.0367 80.6523 58.4967C80.6523 42.9566 90.019 31.9934 104.708 31.9934C109.072 31.9934 114.926 33.59 118.545 38.4862V31.887H134.723V84.8935H118.545V78.6136C114.926 83.4033 109.072 84.9999 104.708 84.9999ZM96.831 58.4967C96.831 67.0118 100.663 71.908 107.262 71.908C113.542 71.908 118.438 66.2667 118.545 58.4967C118.438 50.7266 113.542 45.0854 107.262 45.0854C100.663 45.0854 96.831 49.9816 96.831 58.4967Z" fill="white"/>
<path d="M49.3876 4L78.4454 84.6806H61.2023L53.9645 64.4572H24.6938L17.2431 84.6806H0L29.8029 4H49.3876ZM29.8029 50.6202H48.9619L39.5952 24.1169L29.8029 50.6202Z" fill="white"/>
<path d="M472.708 37.54H497.428V72.22H472.708V37.54ZM478.468 67.48H491.668V42.28H478.468V67.48ZM505.948 85.48V32.38H511.888V53.14H520.168V58.06H511.888V85.48H505.948Z" fill="white"/>
<path d="M451.136 24.24H457.926V48.46H467.586V54.2H457.926V86.33H451.136V24.24ZM412.356 35.44V29.91H440.566V52.73H419.286V65.89C429.576 65.82 437.346 65.47 446.166 63.86L446.796 69.46C437.276 71.14 428.946 71.63 417.536 71.63H412.496V47.2H433.706V35.44H412.356Z" fill="white"/>
<path d="M387.305 16.16H395.225V43.44H406.265V50H395.225V87.12H387.305V16.16ZM343.305 69.76V23.04H376.265V29.36H351.145V63.12C362.825 63.04 371.465 62.64 381.385 60.8L382.185 67.36C371.385 69.36 361.945 69.76 348.985 69.76H343.305Z" fill="white"/>
<path d="M314.873 8.08008H323.783V39.3101H335.843V46.6901H323.783V87.8201H314.873V8.08008ZM265.013 67.8401V15.9101H273.743V60.5501C284.723 60.4601 296.153 59.4701 308.303 57.0401L309.293 64.3301C295.883 67.1201 283.463 67.8401 271.493 67.8401H265.013Z" fill="white"/>
<path d="M233.6 0H243.5V35.2H257V43.3H243.5V88.6H233.6V0ZM175 64.8C196.8 53.7 208.6 37.9 210.5 17.4H179.4V9.4H220.4C220.4 35.1 209.4 57.8 180.5 72.3L175 64.8Z" fill="white"/>
<path d="M91.4532 105.145V106.297H84.7032V110.869H90.5352V112.021H84.7032V116.989H91.4532V118.141H83.4072V105.145H91.4532Z" fill="white"/>
<path d="M80.9798 105.145V106.297H77.0918V118.141H75.7958V106.297H71.9258V105.145H80.9798Z" fill="white"/>
<path d="M67.8037 105.145H69.0997V118.141H67.8037V105.145Z" fill="white"/>
<path d="M60.0414 118.267C56.9994 118.267 55.2354 116.125 55.2354 113.083V105.145H56.5314V113.101C56.5314 115.459 57.7734 117.115 60.0414 117.115C62.3094 117.115 63.5514 115.459 63.5514 113.101V105.145H64.8474V113.083C64.8474 116.125 63.0834 118.267 60.0414 118.267Z" fill="white"/>
<path d="M45.116 114.739C45.764 116.053 46.934 117.115 48.392 117.133C50.174 117.169 51.344 116.233 51.344 114.757C51.344 111.247 44.576 112.723 44.576 108.187C44.576 106.135 46.34 104.965 48.608 105.001C50.462 105.037 51.812 105.991 52.406 107.809L51.218 108.223C50.876 106.999 49.868 106.171 48.59 106.153C47.042 106.135 45.872 106.873 45.872 108.205C45.872 111.661 52.64 110.203 52.64 114.775C52.64 116.899 50.966 118.339 48.374 118.285C46.484 118.249 45.062 117.205 44 115.333L45.116 114.739Z" fill="white"/>
</svg>
