<svg width="475" height="118" viewBox="0 0 475 118" fill="none" xmlns="http://www.w3.org/2000/svg">
<path d="M97.0734 83.9213C93.4423 83.9213 90.2189 83.1432 87.403 81.5871C84.6611 79.9568 82.5122 77.7337 80.956 74.9178C79.4739 72.1019 78.7329 68.9155 78.7329 65.3585C78.7329 58.7634 81.5859 53.6502 87.2918 50.0192C92.9977 46.3141 102.075 43.7945 114.525 42.4607C114.451 40.3858 114.08 38.5703 113.413 37.0141C112.746 35.3839 111.635 34.0871 110.078 33.1237C108.596 32.1604 106.559 31.6787 103.965 31.6787C101.075 31.6787 98.222 32.2345 95.4061 33.346C92.5902 34.4576 89.7372 35.9026 86.8472 37.6811L81.0672 26.7879C83.5126 25.2318 86.1062 23.8609 88.848 22.6752C91.5898 21.4896 94.4798 20.5262 97.518 19.7852C100.556 18.9701 103.706 18.5625 106.966 18.5625C112.227 18.5625 116.637 19.5999 120.194 21.6748C123.75 23.7497 126.418 26.825 128.197 30.9006C129.975 34.9763 130.864 40.0153 130.864 46.0176V82.3651H117.526L116.414 75.6959H115.858C113.191 78.0672 110.301 80.0309 107.188 81.5871C104.076 83.1432 100.704 83.9213 97.0734 83.9213ZM102.52 71.1385C104.817 71.1385 106.892 70.6198 108.745 69.5824C110.671 68.4708 112.598 66.9517 114.525 65.0251V52.5758C109.486 53.1686 105.484 54.0208 102.52 55.1323C99.5558 56.2439 97.4439 57.5777 96.1842 59.1339C94.9244 60.6159 94.2945 62.2832 94.2945 64.1358C94.2945 66.5812 95.0356 68.3597 96.5176 69.4712C98.0738 70.5828 100.075 71.1385 102.52 71.1385Z" fill="white"/>
<path d="M0 82.3654L26.3436 0H45.7956L72.1392 82.3654H54.7991L43.1279 39.4598C41.8682 35.1619 40.6455 30.7157 39.4598 26.1213C38.3483 21.4528 37.1626 16.9325 35.9029 12.5605H35.4583C34.4208 17.0066 33.2722 21.5269 32.0125 26.1213C30.8268 30.7157 29.6412 35.1619 28.4555 39.4598L16.6732 82.3654H0ZM16.3397 61.2461V48.4633H55.4661V61.2461H16.3397Z" fill="white"/>
<path d="M99.8028 117.823V108.046H102.857C103.524 108.046 104.111 108.135 104.618 108.313C105.134 108.482 105.538 108.766 105.832 109.166C106.125 109.566 106.272 110.104 106.272 110.78C106.272 111.429 106.125 111.972 105.832 112.408C105.538 112.834 105.134 113.155 104.618 113.368C104.111 113.572 103.524 113.675 102.857 113.675H101.03V117.823H99.8028ZM101.03 112.688H102.671C103.435 112.688 104.022 112.532 104.431 112.221C104.84 111.901 105.045 111.421 105.045 110.78C105.045 110.14 104.84 109.691 104.431 109.433C104.022 109.175 103.435 109.046 102.671 109.046H101.03V112.688ZM105.165 117.823L102.604 113.355L103.578 112.701L106.552 117.823H105.165Z" fill="white"/>
<path d="M91.1796 117.823V108.046H92.4068V112.954H92.4334L96.5284 108.046H97.9289L94.8611 111.754L98.3958 117.823H97.0219L94.0874 112.728L92.4068 114.729V117.823H91.1796Z" fill="white"/>
<path d="M83.7314 117.997C83.2245 117.997 82.731 117.903 82.2508 117.716C81.7795 117.521 81.3749 117.281 81.037 116.996L81.6239 116.182C81.944 116.44 82.273 116.649 82.6109 116.809C82.9488 116.969 83.3357 117.049 83.7714 117.049C84.2516 117.049 84.6073 116.943 84.8385 116.729C85.0786 116.507 85.1986 116.236 85.1986 115.916C85.1986 115.667 85.1141 115.462 84.9452 115.302C84.7851 115.133 84.5761 114.991 84.3183 114.875C84.0693 114.751 83.8114 114.64 83.5446 114.542C83.2067 114.408 82.8733 114.262 82.5442 114.102C82.2241 113.933 81.9573 113.719 81.7439 113.461C81.5394 113.195 81.4371 112.857 81.4371 112.448C81.4371 112.056 81.535 111.71 81.7306 111.407C81.9262 111.096 82.2108 110.852 82.5843 110.674C82.9577 110.487 83.4068 110.394 83.9315 110.394C84.3761 110.394 84.7896 110.474 85.1719 110.634C85.5632 110.794 85.8967 110.989 86.1723 111.221L85.5854 111.981C85.3364 111.803 85.0786 111.652 84.8118 111.527C84.5539 111.403 84.2649 111.341 83.9448 111.341C83.4824 111.341 83.14 111.447 82.9177 111.661C82.7043 111.865 82.5976 112.11 82.5976 112.394C82.5976 112.617 82.6687 112.803 82.811 112.955C82.9622 113.106 83.1578 113.235 83.3979 113.341C83.638 113.439 83.8914 113.541 84.1582 113.648C84.425 113.746 84.6873 113.853 84.9452 113.968C85.2119 114.084 85.4476 114.222 85.6521 114.382C85.8655 114.542 86.0345 114.742 86.159 114.982C86.2924 115.213 86.3591 115.502 86.3591 115.849C86.3591 116.24 86.2568 116.6 86.0523 116.929C85.8566 117.258 85.5632 117.521 85.1719 117.716C84.7896 117.903 84.3094 117.997 83.7314 117.997Z" fill="white"/>
<path d="M73.696 117.823V110.58H74.6964L74.8165 111.634H74.8432C75.19 111.287 75.5545 110.994 75.9369 110.754C76.3282 110.514 76.7728 110.394 77.2708 110.394C78.0355 110.394 78.5957 110.638 78.9514 111.127C79.3071 111.607 79.485 112.31 79.485 113.235V117.823H78.2712V113.395C78.2712 112.71 78.16 112.216 77.9377 111.914C77.7243 111.612 77.3775 111.461 76.8973 111.461C76.5238 111.461 76.1904 111.554 75.8969 111.741C75.6035 111.927 75.2789 112.203 74.9232 112.568V117.823H73.696Z" fill="white"/>
<path d="M67.8473 117.997C67.4471 117.997 67.087 117.916 66.7669 117.756C66.4468 117.596 66.1933 117.365 66.0066 117.063C65.8287 116.752 65.7398 116.378 65.7398 115.942C65.7398 115.151 66.0911 114.546 66.7936 114.128C67.5049 113.702 68.6343 113.404 70.1815 113.235C70.1815 112.923 70.1371 112.63 70.0482 112.354C69.9681 112.07 69.8214 111.843 69.608 111.674C69.3946 111.496 69.0878 111.407 68.6876 111.407C68.2697 111.407 67.874 111.492 67.5005 111.661C67.1359 111.821 66.8069 111.994 66.5134 112.181L66.0466 111.341C66.2689 111.198 66.5268 111.056 66.8202 110.914C67.1137 110.763 67.4338 110.638 67.7806 110.54C68.1274 110.442 68.4964 110.394 68.8877 110.394C69.4746 110.394 69.9503 110.518 70.3149 110.767C70.6884 111.016 70.9596 111.363 71.1286 111.807C71.3064 112.243 71.3953 112.763 71.3953 113.368V117.823H70.395L70.2882 116.956H70.2482C69.9103 117.241 69.5368 117.485 69.1278 117.69C68.7276 117.894 68.3008 117.997 67.8473 117.997ZM68.1941 117.009C68.5409 117.009 68.8699 116.929 69.1811 116.769C69.5013 116.609 69.8347 116.374 70.1815 116.062V114.048C69.3723 114.137 68.7276 114.266 68.2475 114.435C67.7673 114.595 67.4249 114.795 67.2204 115.035C67.0159 115.267 66.9136 115.542 66.9136 115.862C66.9136 116.28 67.0381 116.578 67.2871 116.756C67.5361 116.925 67.8384 117.009 68.1941 117.009Z" fill="white"/>
<path d="M61.0619 117.997C60.3683 117.997 59.728 117.868 59.1411 117.61C58.5631 117.352 58.0652 117.001 57.6472 116.556L58.3808 115.703C58.7276 116.067 59.1367 116.361 59.608 116.583C60.0793 116.805 60.5684 116.917 61.0752 116.917C61.7244 116.917 62.2268 116.77 62.5825 116.476C62.9471 116.183 63.1294 115.801 63.1294 115.329C63.1294 114.982 63.0538 114.707 62.9026 114.502C62.7603 114.298 62.5647 114.129 62.3157 113.995C62.0756 113.853 61.7999 113.715 61.4887 113.582L60.0882 112.968C59.7858 112.835 59.479 112.666 59.1678 112.462C58.8655 112.257 58.612 111.99 58.4075 111.661C58.203 111.332 58.1007 110.932 58.1007 110.461C58.1007 109.954 58.2341 109.509 58.5009 109.127C58.7677 108.736 59.1322 108.429 59.5946 108.207C60.057 107.984 60.5861 107.873 61.1819 107.873C61.7688 107.873 62.3068 107.984 62.7959 108.207C63.2939 108.429 63.7118 108.718 64.0497 109.074L63.4095 109.86C63.1071 109.585 62.7737 109.367 62.4091 109.207C62.0534 109.038 61.6443 108.953 61.1819 108.953C60.6306 108.953 60.186 109.082 59.8481 109.34C59.5191 109.589 59.3545 109.932 59.3545 110.367C59.3545 110.687 59.4346 110.95 59.5946 111.154C59.7636 111.359 59.9726 111.523 60.2216 111.648C60.4705 111.772 60.724 111.892 60.9818 112.008L62.3691 112.608C62.7425 112.768 63.0804 112.959 63.3828 113.182C63.694 113.404 63.9386 113.68 64.1164 114.009C64.2943 114.338 64.3832 114.742 64.3832 115.223C64.3832 115.738 64.2498 116.21 63.983 116.636C63.7163 117.054 63.3339 117.388 62.8359 117.637C62.3379 117.877 61.7466 117.997 61.0619 117.997Z" fill="white"/>
<path d="M49.9764 117.997C49.3896 117.997 48.8382 117.85 48.3225 117.556C47.8067 117.254 47.3932 116.823 47.082 116.263C46.7796 115.693 46.6285 115.009 46.6285 114.208C46.6285 113.399 46.7796 112.714 47.082 112.154C47.3932 111.585 47.8067 111.149 48.3225 110.847C48.8382 110.545 49.3896 110.394 49.9764 110.394C50.4211 110.394 50.8435 110.478 51.2436 110.647C51.6527 110.816 52.0128 111.065 52.324 111.394C52.6353 111.723 52.8798 112.123 53.0577 112.594C53.2355 113.066 53.3244 113.604 53.3244 114.208C53.3244 115.009 53.1688 115.693 52.8576 116.263C52.5463 116.823 52.1373 117.254 51.6304 117.556C51.1236 117.85 50.5722 117.997 49.9764 117.997ZM49.9764 116.983C50.3944 116.983 50.759 116.867 51.0702 116.636C51.3903 116.405 51.6393 116.08 51.8172 115.662C51.995 115.244 52.0839 114.76 52.0839 114.208C52.0839 113.648 51.995 113.159 51.8172 112.741C51.6393 112.323 51.3903 111.999 51.0702 111.767C50.759 111.536 50.3944 111.421 49.9764 111.421C49.5585 111.421 49.1895 111.536 48.8694 111.767C48.5581 111.999 48.3136 112.323 48.1357 112.741C47.9668 113.159 47.8823 113.648 47.8823 114.208C47.8823 114.76 47.9668 115.244 48.1357 115.662C48.3136 116.08 48.5581 116.405 48.8694 116.636C49.1895 116.867 49.5585 116.983 49.9764 116.983Z" fill="white"/>
<path d="M44.6363 117.997C44.1295 117.997 43.7249 117.899 43.4225 117.704C43.1202 117.499 42.9023 117.215 42.7689 116.85C42.6444 116.485 42.5822 116.063 42.5822 115.583V111.568H41.5018V110.648L42.6489 110.581L42.7823 108.54H43.796V110.581H45.7701V111.568H43.796V115.623C43.796 116.059 43.876 116.401 44.0361 116.65C44.205 116.89 44.4985 117.01 44.9164 117.01C45.0498 117.01 45.1921 116.992 45.3433 116.957C45.4944 116.912 45.6278 116.863 45.7434 116.81L45.9835 117.73C45.779 117.801 45.5611 117.864 45.3299 117.917C45.0987 117.97 44.8675 117.997 44.6363 117.997Z" fill="white"/>
<path d="M37.3936 117.997C36.8067 117.997 36.2553 117.85 35.7396 117.556C35.2238 117.254 34.8103 116.823 34.4991 116.263C34.1968 115.693 34.0456 115.009 34.0456 114.208C34.0456 113.399 34.1968 112.714 34.4991 112.154C34.8103 111.585 35.2238 111.149 35.7396 110.847C36.2553 110.545 36.8067 110.394 37.3936 110.394C37.8382 110.394 38.2606 110.478 38.6607 110.647C39.0698 110.816 39.4299 111.065 39.7411 111.394C40.0524 111.723 40.2969 112.123 40.4748 112.594C40.6526 113.066 40.7415 113.604 40.7415 114.208C40.7415 115.009 40.5859 115.693 40.2747 116.263C39.9635 116.823 39.5544 117.254 39.0475 117.556C38.5407 117.85 37.9894 117.997 37.3936 117.997ZM37.3936 116.983C37.8115 116.983 38.1761 116.867 38.4873 116.636C38.8074 116.405 39.0564 116.08 39.2343 115.662C39.4121 115.244 39.5011 114.76 39.5011 114.208C39.5011 113.648 39.4121 113.159 39.2343 112.741C39.0564 112.323 38.8074 111.999 38.4873 111.767C38.1761 111.536 37.8115 111.421 37.3936 111.421C36.9756 111.421 36.6066 111.536 36.2865 111.767C35.9752 111.999 35.7307 112.323 35.5528 112.741C35.3839 113.159 35.2994 113.648 35.2994 114.208C35.2994 114.76 35.3839 115.244 35.5528 115.662C35.7307 116.08 35.9752 116.405 36.2865 116.636C36.6066 116.867 36.9756 116.983 37.3936 116.983Z" fill="white"/>
<path d="M25.0601 117.823V108.046H26.3139L29.8886 114.208L30.9424 116.222H31.009C30.9646 115.733 30.9246 115.222 30.889 114.688C30.8534 114.155 30.8356 113.635 30.8356 113.128V108.046H32.0094V117.823H30.7423L27.1809 111.647L26.1271 109.647H26.0738C26.1005 110.136 26.1316 110.638 26.1672 111.154C26.2027 111.661 26.2205 112.172 26.2205 112.688V117.823H25.0601Z" fill="white"/>
<path d="M442.97 52.8471H459.442V76.026H442.97V52.8471ZM456.187 55.4667H446.185V73.3668H456.187V55.4667ZM465.832 49.2354H469.126V85.1546H465.832V49.2354ZM468.372 63.5634H475V66.3417H468.372V63.5634Z" fill="white"/>
<path d="M425.96 38.2939H430.3V86.2392H425.96V38.2939ZM429.294 57.2921H438.132V60.9965H429.294V57.2921ZM395.479 70.9983H399.289C402.252 70.9983 404.969 70.9631 407.439 70.8925C409.943 70.7867 412.36 70.6279 414.689 70.4162C417.017 70.1693 419.381 69.8165 421.78 69.3578L422.203 72.9564C419.734 73.415 417.317 73.7678 414.953 74.0148C412.625 74.2617 410.19 74.4381 407.65 74.544C405.11 74.6498 402.323 74.7027 399.289 74.7027H395.479V70.9983ZM395.373 42.7392H416.964V59.9381H399.818V72.4801H395.479V56.2867H412.625V46.3377H395.373V42.7392Z" fill="white"/>
<path d="M373.813 27.3525H379.303V87.2841H373.813V27.3525ZM378.047 50.968H389.094V55.5323H378.047V50.968ZM335.909 67.7038H340.606C344.266 67.7038 347.618 67.6598 350.661 67.5716C353.748 67.4393 356.702 67.2187 359.525 66.91C362.391 66.6013 365.302 66.1824 368.256 65.6532L368.918 70.3498C365.831 70.879 362.832 71.298 359.922 71.6067C357.055 71.9154 354.056 72.1138 350.925 72.202C347.794 72.2902 344.354 72.3343 340.606 72.3343H335.909V67.7038ZM335.909 33.1737H363.626V37.6719H341.334V69.8206H335.909V33.1737Z" fill="white"/>
<path d="M314.391 45.0681H327.568V50.5453H314.391V45.0681ZM309.549 16.4121H316.137V88.1713H309.549V16.4121ZM263.826 23.4769H270.335V67.9295H263.826V23.4769ZM263.826 64.5162H269.541C274.78 64.5162 280.152 64.278 285.655 63.8017C291.212 63.3255 296.954 62.4787 302.881 61.2616L303.675 66.8182C297.536 68.0353 291.662 68.882 286.052 69.3583C280.496 69.7817 274.992 69.9933 269.541 69.9933H263.826V64.5162Z" fill="white"/>
<path d="M231.407 0H239.643V89.699H231.407V0ZM237.46 36.4154H253.931V43.2619H237.46V36.4154ZM208.486 9.62478H216.523C216.523 18.1581 215.134 26.3276 212.356 34.1332C209.578 41.8727 205.212 49.05 199.258 55.665C193.305 62.2138 185.466 67.9026 175.742 72.7316L171.178 66.3812C179.513 62.2138 186.425 57.3518 191.916 51.7952C197.472 46.1725 201.607 39.9544 204.319 33.141C207.097 26.2614 208.486 18.8527 208.486 10.9147V9.62478ZM175.345 9.62478H212.654V16.4713H175.345V9.62478Z" fill="white"/>
</svg>
