<svg width="475" height="105" viewBox="0 0 475 105" fill="none" xmlns="http://www.w3.org/2000/svg">
<path d="M117.663 71.9351V61.4441L116.663 59.146V40.3621C116.663 37.0317 115.631 34.4339 113.566 32.5688C111.568 30.7037 108.47 29.7712 104.274 29.7712C101.41 29.7712 98.5787 30.2375 95.781 31.17C93.05 32.0359 90.7186 33.2349 88.7869 34.7669L83.1917 23.8763C86.1225 21.8114 89.6529 20.2127 93.7827 19.0804C97.9126 17.948 102.109 17.3818 106.372 17.3818C114.565 17.3818 120.926 19.3135 125.456 23.1769C129.985 27.0402 132.25 33.0684 132.25 41.2614V71.9351H117.663ZM101.276 72.7344C97.0799 72.7344 93.483 72.035 90.4855 70.6362C87.488 69.1708 85.19 67.2058 83.5913 64.7412C81.9927 62.2767 81.1934 59.5124 81.1934 56.4483C81.1934 53.2511 81.9594 50.4535 83.4914 48.0555C85.0901 45.6576 87.588 43.7925 90.9851 42.4603C94.3822 41.0615 98.8118 40.3621 104.274 40.3621H118.562V49.4543H105.972C102.309 49.4543 99.7777 50.0538 98.3788 51.2528C97.0466 52.4518 96.3805 53.9505 96.3805 55.7489C96.3805 57.7472 97.1465 59.3459 98.6786 60.5448C100.277 61.6772 102.442 62.2434 105.173 62.2434C107.771 62.2434 110.102 61.6439 112.167 60.4449C114.232 59.1793 115.731 57.3476 116.663 54.9496L119.061 62.1435C117.929 65.6071 115.864 68.2382 112.867 70.0367C109.869 71.8351 106.006 72.7344 101.276 72.7344Z" fill="white"/>
<path d="M0.0996094 71.9351L31.2733 1.99512H47.2597L78.5333 71.9351H61.5477L35.9693 10.1881H42.3639L16.6856 71.9351H0.0996094ZM15.6864 56.948L19.9828 44.6585H55.9524L60.3487 56.948H15.6864Z" fill="white"/>
<path d="M434.482 31.5327H454.856V60.2021H434.482V31.5327ZM450.83 34.7728H438.459V56.913H450.83V34.7728ZM462.759 27.0654H466.834V71.4932H462.759V27.0654ZM465.901 44.7874H474.1V48.2238H465.901V44.7874Z" fill="white"/>
<path d="M415.545 20.2988H420.241V72.1885H415.545V20.2988ZM419.153 40.86H428.718V44.8691H419.153V40.86ZM382.555 55.6937H386.679C389.886 55.6937 392.826 55.6556 395.499 55.5792C398.21 55.4646 400.825 55.2928 403.345 55.0637C405.866 54.7965 408.424 54.4146 411.02 53.9183L411.478 57.8129C408.806 58.3092 406.19 58.691 403.632 58.9583C401.112 59.2256 398.477 59.4165 395.728 59.5311C392.979 59.6456 389.962 59.7029 386.679 59.7029H382.555V55.6937ZM382.44 25.1098H405.808V43.7236H387.251V57.2974H382.555V39.7718H401.112V29.0044H382.44V25.1098Z" fill="white"/>
<path d="M360.69 13.5332H366.123V72.8356H360.69V13.5332ZM364.879 36.9007H375.81V41.4171H364.879V36.9007ZM323.184 53.4609H327.831C331.453 53.4609 334.769 53.4173 337.78 53.33C340.835 53.1991 343.759 52.9809 346.551 52.6754C349.388 52.37 352.268 51.9554 355.192 51.4318L355.846 56.0791C352.792 56.6027 349.824 57.0173 346.944 57.3228C344.108 57.6282 341.14 57.8246 338.042 57.9118C334.944 57.9991 331.54 58.0428 327.831 58.0428H323.184V53.4609ZM323.184 19.2933H350.61V23.7442H328.551V55.5555H323.184V19.2933Z" fill="white"/>
<path d="M302.857 33.3496H315.081V38.4306H302.857V33.3496ZM298.365 6.7666H304.477V73.3346H298.365V6.7666ZM255.949 13.3203H261.988V54.5571H255.949V13.3203ZM255.949 51.3907H261.251C266.111 51.3907 271.094 51.1698 276.2 50.728C281.354 50.2861 286.681 49.5007 292.179 48.3716L292.916 53.5262C287.221 54.6553 281.772 55.4407 276.568 55.8826C271.413 56.2753 266.308 56.4717 261.251 56.4717H255.949V51.3907Z" fill="white"/>
<path d="M228.513 0H235.304V73.9644H228.513V0ZM233.504 30.0276H247.087V35.6731H233.504V30.0276ZM209.613 7.93645H216.24C216.24 14.9729 215.095 21.7093 212.804 28.1457C210.513 34.5276 206.913 40.4459 202.004 45.9005C197.094 51.3005 190.631 55.9915 182.612 59.9734L178.849 54.7369C185.722 51.3005 191.422 47.2914 195.949 42.7095C200.531 38.0731 203.94 32.9458 206.177 27.3276C208.467 21.6548 209.613 15.5456 209.613 9.0001V7.93645ZM182.285 7.93645H213.049V13.582H182.285V7.93645Z" fill="white"/>
<path d="M113.361 105C112.473 105 111.79 104.76 111.31 104.28C110.831 103.801 110.591 103.123 110.591 102.248V93.3818H111.868V102.176C111.868 102.728 112.006 103.153 112.282 103.453C112.569 103.753 112.977 103.903 113.504 103.903C114.068 103.903 114.536 103.741 114.907 103.417L115.357 104.334C115.105 104.562 114.799 104.73 114.44 104.838C114.092 104.946 113.732 105 113.361 105ZM108.9 96.5291V95.468H114.745V96.5291H108.9Z" fill="white"/>
<path d="M105.685 104.91V102.824L105.631 102.482V98.9928C105.631 98.1895 105.403 97.572 104.948 97.1404C104.504 96.7088 103.838 96.493 102.951 96.493C102.34 96.493 101.758 96.5949 101.207 96.7987C100.655 97.0025 100.188 97.2723 99.8039 97.608L99.2283 96.6548C99.7079 96.2472 100.283 95.9355 100.955 95.7196C101.626 95.4918 102.334 95.3779 103.077 95.3779C104.3 95.3779 105.241 95.6837 105.901 96.2951C106.572 96.8946 106.908 97.8118 106.908 99.0468V104.91H105.685ZM102.43 105C101.722 105 101.105 104.886 100.577 104.658C100.062 104.418 99.666 104.094 99.3902 103.687C99.1144 103.267 98.9766 102.788 98.9766 102.248C98.9766 101.756 99.0905 101.313 99.3183 100.917C99.5581 100.51 99.9417 100.186 100.469 99.946C101.009 99.6942 101.728 99.5683 102.627 99.5683H105.883V100.522H102.663C101.752 100.522 101.117 100.683 100.757 101.007C100.409 101.331 100.236 101.732 100.236 102.212C100.236 102.752 100.445 103.183 100.865 103.507C101.285 103.831 101.872 103.993 102.627 103.993C103.347 103.993 103.964 103.831 104.48 103.507C105.007 103.171 105.391 102.692 105.631 102.068L105.919 102.949C105.679 103.573 105.259 104.07 104.66 104.442C104.072 104.814 103.329 105 102.43 105Z" fill="white"/>
<path d="M93.3916 104.91V95.4679H94.6146V98.0396L94.4887 97.59C94.7525 96.8707 95.1961 96.3251 95.8195 95.9534C96.443 95.5698 97.2164 95.3779 98.1396 95.3779V96.6189C98.0916 96.6189 98.0437 96.6189 97.9957 96.6189C97.9478 96.6069 97.8998 96.6009 97.8518 96.6009C96.8567 96.6009 96.0773 96.9066 95.5138 97.5181C94.9503 98.1176 94.6685 98.9748 94.6685 100.09V104.91H93.3916Z" fill="white"/>
<path d="M86.3135 104.91V95.4679H87.5364V98.0396L87.4105 97.59C87.6743 96.8707 88.118 96.3251 88.7414 95.9534C89.3649 95.5698 90.1382 95.3779 91.0615 95.3779V96.6189C91.0135 96.6189 90.9655 96.6189 90.9176 96.6189C90.8696 96.6069 90.8217 96.6009 90.7737 96.6009C89.7786 96.6009 88.9992 96.9066 88.4357 97.5181C87.8722 98.1176 87.5904 98.9748 87.5904 100.09V104.91H86.3135Z" fill="white"/>
<path d="M79.4706 105C78.4875 105 77.6242 104.796 76.8808 104.388C76.1375 103.969 75.5559 103.399 75.1363 102.68C74.7167 101.948 74.5068 101.115 74.5068 100.18C74.5068 99.2446 74.7047 98.4173 75.1003 97.6979C75.508 96.9786 76.0595 96.415 76.7549 96.0074C77.4623 95.5877 78.2537 95.3779 79.1289 95.3779C80.0162 95.3779 80.8015 95.5818 81.4849 95.9894C82.1803 96.3851 82.7259 96.9486 83.1215 97.68C83.5172 98.3993 83.715 99.2326 83.715 100.18C83.715 100.24 83.7091 100.306 83.6971 100.378C83.6971 100.438 83.6971 100.504 83.6971 100.575H75.478V99.6223H83.0136L82.5101 100C82.5101 99.3166 82.3602 98.7111 82.0605 98.1835C81.7727 97.644 81.377 97.2243 80.8735 96.9246C80.3699 96.6249 79.7884 96.475 79.1289 96.475C78.4815 96.475 77.9 96.6249 77.3844 96.9246C76.8688 97.2243 76.4672 97.644 76.1794 98.1835C75.8917 98.7231 75.7478 99.3405 75.7478 100.036V100.234C75.7478 100.953 75.9037 101.589 76.2154 102.14C76.5391 102.68 76.9827 103.105 77.5463 103.417C78.1218 103.717 78.7752 103.867 79.5066 103.867C80.0821 103.867 80.6157 103.765 81.1073 103.561C81.6108 103.357 82.0425 103.045 82.4022 102.626L83.1215 103.453C82.7019 103.957 82.1744 104.34 81.5389 104.604C80.9154 104.868 80.226 105 79.4706 105Z" fill="white"/>
<path d="M69.214 105C68.4346 105 67.6973 104.892 67.0019 104.676C66.3064 104.448 65.7609 104.166 65.3652 103.831L65.9407 102.824C66.3244 103.111 66.816 103.363 67.4155 103.579C68.015 103.783 68.6445 103.885 69.3039 103.885C70.2031 103.885 70.8506 103.747 71.2463 103.471C71.6419 103.183 71.8398 102.806 71.8398 102.338C71.8398 101.99 71.7259 101.72 71.498 101.529C71.2822 101.325 70.9945 101.175 70.6348 101.079C70.2751 100.971 69.8734 100.881 69.4298 100.809C68.9862 100.737 68.5425 100.653 68.0989 100.557C67.6673 100.462 67.2716 100.324 66.9119 100.144C66.5522 99.952 66.2585 99.6942 66.0307 99.3705C65.8149 99.0468 65.7069 98.6152 65.7069 98.0756C65.7069 97.5601 65.8508 97.0985 66.1386 96.6908C66.4263 96.2832 66.846 95.9654 67.3975 95.7376C67.961 95.4978 68.6445 95.3779 69.4478 95.3779C70.0593 95.3779 70.6707 95.4619 71.2822 95.6297C71.8937 95.7856 72.3973 95.9954 72.793 96.2592L72.2354 97.2843C71.8158 96.9965 71.3662 96.7927 70.8866 96.6728C70.407 96.5409 69.9274 96.475 69.4478 96.475C68.5965 96.475 67.967 96.6249 67.5594 96.9246C67.1637 97.2124 66.9659 97.584 66.9659 98.0396C66.9659 98.3993 67.0738 98.6811 67.2896 98.8849C67.5174 99.0887 67.8112 99.2506 68.1709 99.3705C68.5426 99.4784 68.9442 99.5683 69.3758 99.6403C69.8195 99.7122 70.2571 99.8021 70.6887 99.91C71.1324 100.006 71.534 100.144 71.8937 100.324C72.2654 100.492 72.5592 100.737 72.775 101.061C73.0028 101.373 73.1167 101.786 73.1167 102.302C73.1167 102.854 72.9608 103.333 72.6491 103.741C72.3493 104.136 71.9057 104.448 71.3182 104.676C70.7427 104.892 70.0413 105 69.214 105Z" fill="white"/>
<path d="M62.3567 105C61.4695 105 60.786 104.76 60.3064 104.28C59.8269 103.801 59.5871 103.123 59.5871 102.248V93.3818H60.864V102.176C60.864 102.728 61.0019 103.153 61.2776 103.453C61.5654 103.753 61.973 103.903 62.5006 103.903C63.0641 103.903 63.5317 103.741 63.9034 103.417L64.353 104.334C64.1012 104.562 63.7955 104.73 63.4358 104.838C63.0881 104.946 62.7284 105 62.3567 105ZM57.8965 96.5291V95.468H63.7415V96.5291H57.8965Z" fill="white"/>
<path d="M52.0387 95.3779C52.806 95.3779 53.4775 95.5278 54.053 95.8275C54.6405 96.1153 55.0961 96.5589 55.4198 97.1584C55.7555 97.7579 55.9234 98.5132 55.9234 99.4245V104.91H54.6465V99.5504C54.6465 98.5552 54.3947 97.8058 53.8911 97.3023C53.3995 96.7867 52.7041 96.5289 51.8049 96.5289C51.1334 96.5289 50.5459 96.6668 50.0424 96.9426C49.5508 97.2064 49.1671 97.596 48.8913 98.1116C48.6276 98.6152 48.4957 99.2266 48.4957 99.946V104.91H47.2188V95.4679H48.4417V98.0576L48.2439 97.572C48.5436 96.8886 49.0232 96.3551 49.6827 95.9714C50.3421 95.5758 51.1274 95.3779 52.0387 95.3779Z" fill="white"/>
<path d="M39.7912 105C38.88 105 38.0587 104.796 37.3273 104.388C36.6079 103.969 36.0384 103.399 35.6187 102.68C35.1991 101.948 34.9893 101.115 34.9893 100.18C34.9893 99.2326 35.1991 98.3993 35.6187 97.68C36.0384 96.9606 36.6079 96.3971 37.3273 95.9894C38.0467 95.5818 38.868 95.3779 39.7912 95.3779C40.7264 95.3779 41.5537 95.5818 42.2731 95.9894C43.0045 96.3971 43.574 96.9606 43.9817 97.68C44.4013 98.3993 44.6111 99.2326 44.6111 100.18C44.6111 101.115 44.4013 101.948 43.9817 102.68C43.574 103.399 43.0045 103.969 42.2731 104.388C41.5417 104.796 40.7144 105 39.7912 105ZM39.7912 103.867C40.4746 103.867 41.0801 103.717 41.6077 103.417C42.1352 103.105 42.5489 102.674 42.8486 102.122C43.1604 101.559 43.3162 100.911 43.3162 100.18C43.3162 99.4364 43.1604 98.789 42.8486 98.2375C42.5489 97.686 42.1352 97.2603 41.6077 96.9606C41.0801 96.6488 40.4806 96.493 39.8092 96.493C39.1378 96.493 38.5383 96.6488 38.0107 96.9606C37.4832 97.2603 37.0635 97.686 36.7518 98.2375C36.44 98.789 36.2842 99.4364 36.2842 100.18C36.2842 100.911 36.44 101.559 36.7518 102.122C37.0635 102.674 37.4832 103.105 38.0107 103.417C38.5383 103.717 39.1318 103.867 39.7912 103.867Z" fill="white"/>
<path d="M19.0352 104.91V92.3203H20.1322L25.8874 102.14H25.3119L31.013 92.3203H32.1101V104.91H30.8332V94.3166H31.1389L25.8874 103.309H25.2579L19.9704 94.3166H20.3121V104.91H19.0352Z" fill="white"/>
</svg>
