<svg width="493" height="77" viewBox="0 0 493 77" fill="none" xmlns="http://www.w3.org/2000/svg">
<path d="M154.545 1.83691H162.805V2.69091H155.609V4.56691H162.539V5.42091H155.609V7.39491H162.931V8.26291H154.545V1.83691ZM153.103 11.4129V10.5449H164.205V11.4129H153.103Z" fill="white"/>
<path d="M149.813 0.772461H150.877V13.0225H149.813V0.772461ZM141.105 9.84446C142.897 9.00446 144.297 6.93246 144.297 4.74846V3.75446H141.441V2.91446H144.283V0.982461H145.347V2.91446H148.161V3.75446H145.333V4.74846C145.333 6.83446 146.775 8.82246 148.581 9.60646L147.979 10.4325C146.593 9.78846 145.403 8.45846 144.843 6.80646C144.297 8.54246 143.107 9.95646 141.707 10.6425L141.105 9.84446Z" fill="white"/>
<path d="M132.494 2.76074V6.34474H136.078V7.32474H132.494V10.8947H131.528V7.32474H127.944V6.34474H131.528V2.76074H132.494Z" fill="white"/>
<path d="M121.007 0.772461H122.057V13.0225H121.007V0.772461ZM112.187 9.87246C115.491 8.29046 117.157 5.89646 117.381 2.95646H112.733V2.08846H118.445C118.445 5.61646 116.821 8.72446 112.747 10.7125L112.187 9.87246Z" fill="white"/>
<path d="M99.7964 10.5586H104.808V7.88462H101.126V1.64062H102.162V3.85262H108.518V1.64062H109.554V7.88462H105.844V10.5586H110.898V11.4406H99.7964V10.5586ZM102.162 7.03062H108.518V4.72062H102.162V7.03062Z" fill="white"/>
<path d="M87.5742 6.72237H92.5722V5.26637H89.0162V1.27637H97.2062V2.14437H90.0522V4.39837H97.3462V5.26637H93.6222V6.72237H98.6342V7.57637H87.5742V6.72237ZM88.9602 12.8684V8.85037H97.2902V9.71837H90.0102V12.0004H97.4022V12.8684H88.9602Z" fill="white"/>
<path d="M491.313 54.7588H492.363V67.0368H491.313V54.7588ZM483.025 56.7888V55.9348H488.667V60.2608H484.103V63.1868C486.133 63.1868 487.939 63.1028 490.123 62.7528L490.235 63.6068C487.995 63.9848 486.147 64.0548 484.061 64.0548H483.053V59.3928H487.617V56.7888H483.025Z" fill="white"/>
<path d="M479.105 54.7588H480.141V67.0368H479.105V60.5828H476.403V59.7008H479.105V54.7588ZM470.131 63.8448C471.895 62.9908 473.239 60.8908 473.239 58.7488V57.7548H470.453V56.9148H473.239V54.9828H474.275V56.9148H477.033V57.7548H474.275V58.7488C474.275 60.7928 475.661 62.7948 477.439 63.6068L476.851 64.4188C475.465 63.7748 474.317 62.4308 473.771 60.8068C473.239 62.5288 472.105 63.9568 470.719 64.6428L470.131 63.8448Z" fill="white"/>
<path d="M464.153 57.6851H466.869V54.7871H467.919V63.9571H466.869V58.5671H464.153V57.6851ZM457.881 61.3391C459.673 60.6531 460.961 58.9311 460.961 57.0411V55.5011H461.997V57.0691C461.997 58.8051 463.257 60.4151 464.993 61.0731L464.433 61.8851C463.089 61.3531 462.025 60.2751 461.507 58.9311C460.989 60.4151 459.869 61.5911 458.427 62.1791L457.881 61.3391ZM460.065 66.7431V62.9211H461.115V65.8751H468.213V66.7431H460.065Z" fill="white"/>
<path d="M448.669 55.8505H449.691V58.0765C449.691 60.2325 451.119 62.4725 452.841 63.3265L452.197 64.1525C450.867 63.4525 449.733 61.9965 449.201 60.2745C448.655 62.0945 447.493 63.6625 446.121 64.4045L445.477 63.5505C447.227 62.6685 448.669 60.3165 448.669 58.0765V55.8505ZM453.975 67.0225V54.7725H455.025V59.7565H457.069V60.6525H455.025V67.0225H453.975Z" fill="white"/>
<path d="M437.257 56.7607V60.3447H440.841V61.3247H437.257V64.8947H436.291V61.3247H432.707V60.3447H436.291V56.7607H437.257Z" fill="white"/>
<path d="M416.796 61.2404H427.856V62.0944H416.796V61.2404ZM418.028 57.6284C418.028 56.1024 419.708 55.1924 422.326 55.1924C424.944 55.1924 426.624 56.1024 426.624 57.6284C426.624 59.1544 424.944 60.0644 422.326 60.0644C419.708 60.0644 418.028 59.1544 418.028 57.6284ZM418.238 66.7564V63.2004H419.288V65.8884H426.638V66.7564H418.238ZM419.106 57.6284C419.106 58.6084 420.38 59.2104 422.326 59.2104C424.286 59.2104 425.546 58.6084 425.546 57.6284C425.546 56.6484 424.286 56.0604 422.326 56.0604C420.38 56.0604 419.106 56.6484 419.106 57.6284Z" fill="white"/>
<path d="M410.202 61.8005H411.154V63.4105H413.1V61.8005H414.052V66.8545H410.202V61.8005ZM404.812 58.0765C404.812 56.4385 406.142 55.3185 407.948 55.3185C409.782 55.3185 411.112 56.4385 411.112 58.0765C411.112 59.7145 409.782 60.8485 407.948 60.8485C406.142 60.8485 404.812 59.7145 404.812 58.0765ZM405.624 62.7105V61.9125H409.446V64.6705H406.674V66.0425C407.962 66.0425 408.746 66.0285 409.726 65.8185L409.824 66.6305C408.69 66.8405 407.836 66.8545 406.282 66.8545H405.666V63.9145H408.438V62.7105H405.624ZM405.834 58.0765C405.834 59.1965 406.744 59.9945 407.948 59.9945C409.194 59.9945 410.09 59.1965 410.09 58.0765C410.09 56.9705 409.194 56.1725 407.948 56.1725C406.744 56.1725 405.834 56.9705 405.834 58.0765ZM411.154 66.0285H413.1V64.2085H411.154V66.0285ZM413.002 61.2125V54.7725H414.052V56.3125H415.872V57.1665H414.052V58.6085H415.872V59.4625H414.052V61.2125H413.002Z" fill="white"/>
<g clip-path="url(#clip0_4579_6664)">
<path d="M0 51C0 40.88 0 35.82 2.31579 32.1229C3.5342 30.1778 5.17779 28.5342 7.12294 27.3158C10.82 25 15.88 25 25.9999 25C36.1199 25 41.1799 25 44.877 27.3158C46.8221 28.5342 48.4657 30.1778 49.6841 32.1229C51.9999 35.82 51.9999 40.88 51.9999 51C51.9999 61.12 51.9999 66.1799 49.6841 69.877C48.4657 71.8222 46.8221 73.4657 44.877 74.6842C41.1799 77 36.1199 76.9999 25.9999 76.9999C15.88 76.9999 10.82 77 7.12294 74.6842C5.17779 73.4657 3.5342 71.8222 2.31579 69.877C0 66.1799 0 61.12 0 51Z" fill="#0F344C"/>
<mask id="mask0_4579_6664" style="mask-type:alpha" maskUnits="userSpaceOnUse" x="0" y="25" width="52" height="52">
<path d="M0 51C0 40.88 0 35.82 2.31579 32.1229C3.5342 30.1778 5.17779 28.5342 7.12294 27.3158C10.82 25 15.88 25 26 25C36.1199 25 41.1799 25 44.877 27.3158C46.8221 28.5342 48.4657 30.1778 49.6841 32.1229C51.9999 35.82 51.9999 40.88 51.9999 51C51.9999 61.12 51.9999 66.1799 49.6841 69.877C48.4657 71.8221 46.8221 73.4657 44.877 74.6842C41.1799 76.9999 36.1199 76.9999 26 76.9999C15.88 76.9999 10.82 76.9999 7.12294 74.6842C5.17779 73.4657 3.5342 71.8221 2.31579 69.877C0 66.1799 0 61.12 0 51Z" fill="#0F344C"/>
</mask>
<g mask="url(#mask0_4579_6664)">
<path fill-rule="evenodd" clip-rule="evenodd" d="M50.6013 78.9928L36.2722 64.5443L40.3257 60.457L54.6547 74.9055L50.6013 78.9928Z" fill="#49C4FF"/>
<path fill-rule="evenodd" clip-rule="evenodd" d="M26 65.2307C33.8594 65.2307 40.2307 58.8594 40.2307 51C40.2307 43.1405 33.8594 36.7692 26 36.7692C18.1405 36.7692 11.7692 43.1405 11.7692 51C11.7692 58.8594 18.1405 65.2307 26 65.2307ZM26 71C37.0456 71 45.9999 62.0457 45.9999 51C45.9999 39.9543 37.0456 31 26 31C14.9543 31 6 39.9543 6 51C6 62.0457 14.9543 71 26 71Z" fill="#49C4FF"/>
</g>
<path d="M35 51.25C35 56.3586 30.8586 60.5 25.75 60.5C20.6414 60.5 16.5 56.3586 16.5 51.25C16.5 46.1414 20.6414 42 25.75 42C30.8586 42 35 46.1414 35 51.25Z" fill="#FF4F33"/>
</g>
<g clip-path="url(#clip1_4579_6664)">
<path d="M126.03 68.4184H130.651V39.1158H138.87L141.682 35.6263H115V39.1158H126.03V68.4184Z" fill="white"/>
<path d="M148.172 68.4184H152.793V52.9395H169.786V68.4184H174.357V35.6263H169.786V49.3605H152.793V35.6263H148.172V68.4184Z" fill="white"/>
<path d="M184.321 68.4184H205.885V64.8842H188.942V52.9395H202.527V49.4053H188.942V39.1158H202.527L205.338 35.6263H184.321V68.4184Z" fill="white"/>
<path d="M227.294 69C232.014 69 235.592 67.3 238.474 64.3026L235.94 61.7079C233.604 63.9895 230.971 65.3763 227.493 65.3763C220.537 65.3763 216.164 60.1868 216.164 51.9105C216.164 43.7237 220.736 38.6237 227.642 38.6237C230.772 38.6237 233.207 39.9211 235.095 41.7553L237.579 39.0711C235.492 36.9684 232.014 35 227.592 35C218.351 35 211.444 41.4421 211.444 52.0447C211.444 62.6921 218.251 69 227.294 69Z" fill="white"/>
<path d="M245.216 68.4184H249.837V52.9395H266.829V68.4184H271.4V35.6263H266.829V49.3605H249.837V35.6263H245.216V68.4184Z" fill="white"/>
<path d="M281.365 68.4184H302.928V64.8842H285.985V52.9395H299.57V49.4053H285.985V39.1158H299.57L302.382 35.6263H281.365V68.4184Z" fill="white"/>
<path d="M315.096 55.0868L316.885 50.0763C318.177 46.3632 319.369 42.8289 320.512 38.9816H320.711C321.903 42.7842 323.046 46.3632 324.387 50.0763L326.126 55.0868H315.096ZM330.747 68.4184H335.617L323.245 35.6263H318.127L305.755 68.4184H310.426L313.953 58.3974H327.269L330.747 68.4184Z" fill="white"/>
<path d="M345.349 68.4184H349.97V39.1158H358.189L361 35.6263H334.318V39.1158H345.349V68.4184Z" fill="white"/>
</g>
<path d="M63.5 6.5V6H63.2929L63.1464 6.14645L63.5 6.5ZM79.5 6.5L74.5 3.61325V9.38675L79.5 6.5ZM44.3536 26.3536L45.05 25.6571L44.3429 24.95L43.6464 25.6464L44.3536 26.3536ZM46.4428 24.2643L47.8357 22.8714L47.1286 22.1643L45.7357 23.5572L46.4428 24.2643ZM49.2286 21.4786L50.6214 20.0857L49.9143 19.3786L48.5214 20.7714L49.2286 21.4786ZM52.0143 18.6928L53.4071 17.3L52.7 16.5929L51.3072 17.9857L52.0143 18.6928ZM54.8 15.9071L56.1928 14.5143L55.4857 13.8072L54.0929 15.2L54.8 15.9071ZM57.5857 13.1214L58.9786 11.7286L58.2714 11.0214L56.8786 12.4143L57.5857 13.1214ZM60.3714 10.3357L61.7643 8.94284L61.0572 8.23573L59.6643 9.62859L60.3714 10.3357ZM63.1571 7.54998L63.8536 6.85355L63.1464 6.14645L62.45 6.84288L63.1571 7.54998ZM63.5 7H64.5V6H63.5V7ZM66.5 7H68.5V6H66.5V7ZM70.5 7H72.5V6H70.5V7ZM74.5 7H76.5V6H74.5V7Z" fill="white"/>
<path d="M380.5 61.5V62H380.293L380.146 61.8536L380.5 61.5ZM396.5 61.5L391.5 64.3868V58.6132L396.5 61.5ZM361.354 41.6464L362.05 42.3429L361.343 43.05L360.646 42.3536L361.354 41.6464ZM363.443 43.7357L364.836 45.1286L364.129 45.8357L362.736 44.4428L363.443 43.7357ZM366.229 46.5214L367.621 47.9143L366.914 48.6214L365.521 47.2286L366.229 46.5214ZM369.014 49.3072L370.407 50.7L369.7 51.4071L368.307 50.0143L369.014 49.3072ZM371.8 52.0929L373.193 53.4857L372.486 54.1928L371.093 52.8L371.8 52.0929ZM374.586 54.8786L375.979 56.2714L375.271 56.9786L373.879 55.5857L374.586 54.8786ZM377.371 57.6643L378.764 59.0572L378.057 59.7643L376.664 58.3714L377.371 57.6643ZM380.157 60.45L380.854 61.1464L380.146 61.8536L379.45 61.1571L380.157 60.45ZM380.5 61H381.5V62H380.5V61ZM383.5 61H385.5V62H383.5V61ZM387.5 61H389.5V62H387.5V61ZM391.5 61H393.5V62H391.5V61Z" fill="white"/>
<path d="M84.375 43.35V49.45H90.475V52.1H84.375V58.175H81.75V52.1H75.65V49.45H81.75V43.35H84.375Z" fill="white"/>
<defs>
<clipPath id="clip0_4579_6664">
<rect width="52" height="52" fill="white" transform="translate(0 25)"/>
</clipPath>
<clipPath id="clip1_4579_6664">
<rect width="246" height="34" fill="white" transform="translate(115 35)"/>
</clipPath>
</defs>
</svg>
