<svg width="511" height="119" viewBox="0 0 511 119" fill="none" xmlns="http://www.w3.org/2000/svg">
<path d="M104.708 84.9999C90.019 84.9999 80.6523 74.0367 80.6523 58.4967C80.6523 42.9566 90.019 31.9934 104.708 31.9934C109.072 31.9934 114.926 33.59 118.545 38.4862V31.887H134.723V84.8935H118.545V78.6136C114.926 83.4033 109.072 84.9999 104.708 84.9999ZM96.831 58.4967C96.831 67.0118 100.663 71.908 107.262 71.908C113.542 71.908 118.438 66.2667 118.545 58.4967C118.438 50.7266 113.542 45.0854 107.262 45.0854C100.663 45.0854 96.831 49.9816 96.831 58.4967Z" fill="white"/>
<path d="M49.3876 4L78.4454 84.6806H61.2023L53.9645 64.4572H24.6938L17.2431 84.6806H0L29.8029 4H49.3876ZM29.8029 50.6202H48.9619L39.5952 24.1169L29.8029 50.6202Z" fill="white"/>
<path d="M463.643 36.56H487.943V68.9H463.643V36.56ZM468.683 64.7H482.903V40.7H468.683V64.7ZM497.063 83.36V32.36H502.283V53.3H510.743V57.62H502.283V83.36H497.063Z" fill="white"/>
<path d="M443.655 24.1799H449.675V48.5399H459.545V53.6499H449.675V83.8899H443.655V24.1799ZM404.525 34.2599V29.3599H433.085V50.4299H410.685V62.6799H437.705V67.6499H404.735V45.5299H427.065V34.2599H404.525Z" fill="white"/>
<path d="M381.582 16.12H388.542V43.72H399.822V49.48H388.542V84.36H381.582V16.12ZM337.022 65.16V22.2H369.182V27.96H343.822V59.4H373.102V65.16H337.022Z" fill="white"/>
<path d="M311.053 8.05994H318.883V39.5599H331.213V46.0399H318.883V84.6499H311.053V8.05994ZM260.743 63.2299V14.8099H268.483V56.7499H303.133V63.2299H260.743Z" fill="white"/>
<path d="M231.9 0H240.6V35H254.4V42.3H240.6V85.1H231.9V0ZM175.6 54.8C193.5 49.9 209.8 36.2 209.8 14.9V14.7H178.1V7.6H218.2V14.9C218.2 40.2 198.2 57.3 177.8 62.8L175.6 54.8Z" fill="white"/>
<path d="M85.9798 105.145V106.297H82.0918V118.141H80.7958V106.297H76.9258V105.145H85.9798Z" fill="white"/>
<path d="M72.8037 105.145H74.0997V118.141H72.8037V105.145Z" fill="white"/>
<path d="M65.0414 118.267C61.9994 118.267 60.2354 116.125 60.2354 113.083V105.145H61.5314V113.101C61.5314 115.459 62.7734 117.115 65.0414 117.115C67.3094 117.115 68.5514 115.459 68.5514 113.101V105.145H69.8474V113.083C69.8474 116.125 68.0834 118.267 65.0414 118.267Z" fill="white"/>
<path d="M50.116 114.739C50.764 116.053 51.934 117.115 53.392 117.133C55.174 117.169 56.344 116.233 56.344 114.757C56.344 111.247 49.576 112.723 49.576 108.187C49.576 106.135 51.34 104.965 53.608 105.001C55.462 105.037 56.812 105.991 57.406 107.809L56.218 108.223C55.876 106.999 54.868 106.171 53.59 106.153C52.042 106.135 50.872 106.873 50.872 108.205C50.872 111.661 57.64 110.203 57.64 114.775C57.64 116.899 55.966 118.339 53.374 118.285C51.484 118.249 50.062 117.205 49 115.333L50.116 114.739Z" fill="white"/>
</svg>
