<svg width="475" height="118" viewBox="0 0 475 118" fill="none" xmlns="http://www.w3.org/2000/svg">
<path d="M97.0734 83.9213C93.4423 83.9213 90.2189 83.1432 87.403 81.5871C84.6611 79.9568 82.5122 77.7337 80.956 74.9178C79.4739 72.1019 78.7329 68.9155 78.7329 65.3585C78.7329 58.7634 81.5859 53.6502 87.2918 50.0192C92.9977 46.3141 102.075 43.7945 114.525 42.4607C114.451 40.3858 114.08 38.5703 113.413 37.0141C112.746 35.3839 111.635 34.0871 110.078 33.1237C108.596 32.1604 106.559 31.6787 103.965 31.6787C101.075 31.6787 98.222 32.2345 95.4061 33.346C92.5902 34.4576 89.7372 35.9026 86.8472 37.6811L81.0672 26.7879C83.5126 25.2318 86.1062 23.8609 88.848 22.6752C91.5898 21.4896 94.4798 20.5262 97.518 19.7852C100.556 18.9701 103.706 18.5625 106.966 18.5625C112.227 18.5625 116.637 19.5999 120.194 21.6748C123.75 23.7497 126.418 26.825 128.197 30.9006C129.975 34.9763 130.864 40.0153 130.864 46.0176V82.3651H117.526L116.414 75.6959H115.858C113.191 78.0672 110.301 80.0309 107.188 81.5871C104.076 83.1432 100.704 83.9213 97.0734 83.9213ZM102.52 71.1385C104.817 71.1385 106.892 70.6198 108.745 69.5824C110.671 68.4708 112.598 66.9517 114.525 65.0251V52.5758C109.486 53.1686 105.484 54.0208 102.52 55.1323C99.5558 56.2439 97.4439 57.5777 96.1842 59.1339C94.9244 60.6159 94.2945 62.2832 94.2945 64.1358C94.2945 66.5812 95.0356 68.3597 96.5176 69.4712C98.0738 70.5828 100.075 71.1385 102.52 71.1385Z" fill="white"/>
<path d="M0 82.3654L26.3436 0H45.7956L72.1392 82.3654H54.7991L43.1279 39.4598C41.8682 35.1619 40.6455 30.7157 39.4598 26.1213C38.3483 21.4528 37.1626 16.9325 35.9029 12.5605H35.4583C34.4208 17.0066 33.2722 21.5269 32.0125 26.1213C30.8268 30.7157 29.6412 35.1619 28.4555 39.4598L16.6732 82.3654H0ZM16.3397 61.2461V48.4633H55.4661V61.2461H16.3397Z" fill="white"/>
<path d="M99.8027 117.824V108.047H102.857C103.524 108.047 104.111 108.136 104.618 108.314C105.134 108.483 105.538 108.767 105.832 109.167C106.125 109.567 106.272 110.105 106.272 110.781C106.272 111.43 106.125 111.973 105.832 112.409C105.538 112.835 105.134 113.156 104.618 113.369C104.111 113.573 103.524 113.676 102.857 113.676H101.03V117.824H99.8027ZM101.03 112.689H102.671C103.435 112.689 104.022 112.533 104.431 112.222C104.84 111.902 105.045 111.422 105.045 110.781C105.045 110.141 104.84 109.692 104.431 109.434C104.022 109.176 103.435 109.047 102.671 109.047H101.03V112.689ZM105.165 117.824L102.604 113.356L103.578 112.702L106.552 117.824H105.165Z" fill="white"/>
<path d="M91.1797 117.824V108.047H92.4068V112.955H92.4335L96.5284 108.047H97.929L94.8611 111.755L98.3958 117.824H97.022L94.0875 112.729L92.4068 114.729V117.824H91.1797Z" fill="white"/>
<path d="M83.7315 117.997C83.2246 117.997 82.7311 117.903 82.2509 117.716C81.7796 117.521 81.375 117.281 81.0371 116.996L81.624 116.182C81.9441 116.44 82.2731 116.649 82.6111 116.809C82.949 116.969 83.3358 117.049 83.7715 117.049C84.2517 117.049 84.6074 116.943 84.8386 116.729C85.0787 116.507 85.1987 116.236 85.1987 115.916C85.1987 115.667 85.1143 115.462 84.9453 115.302C84.7852 115.133 84.5763 114.991 84.3184 114.875C84.0694 114.751 83.8115 114.64 83.5448 114.542C83.2068 114.408 82.8734 114.262 82.5444 114.102C82.2242 113.933 81.9575 113.719 81.7441 113.461C81.5395 113.195 81.4373 112.857 81.4373 112.448C81.4373 112.056 81.5351 111.71 81.7307 111.407C81.9263 111.096 82.2109 110.852 82.5844 110.674C82.9579 110.487 83.4069 110.394 83.9316 110.394C84.3762 110.394 84.7897 110.474 85.1721 110.634C85.5633 110.794 85.8968 110.989 86.1724 111.221L85.5855 111.981C85.3366 111.803 85.0787 111.652 84.8119 111.527C84.554 111.403 84.265 111.341 83.9449 111.341C83.4825 111.341 83.1402 111.447 82.9178 111.661C82.7044 111.865 82.5977 112.11 82.5977 112.394C82.5977 112.617 82.6689 112.803 82.8111 112.955C82.9623 113.106 83.1579 113.235 83.398 113.341C83.6381 113.439 83.8916 113.541 84.1583 113.648C84.4251 113.746 84.6874 113.853 84.9453 113.968C85.2121 114.084 85.4477 114.222 85.6522 114.382C85.8657 114.542 86.0346 114.742 86.1591 114.982C86.2925 115.213 86.3592 115.502 86.3592 115.849C86.3592 116.24 86.2569 116.6 86.0524 116.929C85.8568 117.258 85.5633 117.521 85.1721 117.716C84.7897 117.903 84.3095 117.997 83.7315 117.997Z" fill="white"/>
<path d="M73.696 117.823V110.58H74.6964L74.8165 111.634H74.8432C75.19 111.287 75.5545 110.994 75.9369 110.754C76.3282 110.514 76.7728 110.394 77.2708 110.394C78.0355 110.394 78.5957 110.638 78.9514 111.127C79.3071 111.607 79.485 112.31 79.485 113.235V117.823H78.2712V113.395C78.2712 112.71 78.16 112.216 77.9377 111.914C77.7243 111.612 77.3775 111.461 76.8973 111.461C76.5238 111.461 76.1904 111.554 75.8969 111.741C75.6035 111.927 75.2789 112.203 74.9232 112.568V117.823H73.696Z" fill="white"/>
<path d="M67.8472 117.997C67.4471 117.997 67.0869 117.916 66.7668 117.756C66.4467 117.596 66.1933 117.365 66.0065 117.063C65.8287 116.752 65.7397 116.378 65.7397 115.942C65.7397 115.151 66.091 114.546 66.7935 114.128C67.5049 113.702 68.6342 113.404 70.1815 113.235C70.1815 112.923 70.137 112.63 70.0481 112.354C69.9681 112.07 69.8213 111.843 69.6079 111.674C69.3945 111.496 69.0877 111.407 68.6876 111.407C68.2696 111.407 67.8739 111.492 67.5004 111.661C67.1358 111.821 66.8068 111.994 66.5134 112.181L66.0465 111.341C66.2688 111.198 66.5267 111.056 66.8202 110.914C67.1136 110.763 67.4337 110.638 67.7805 110.54C68.1273 110.442 68.4964 110.394 68.8876 110.394C69.4745 110.394 69.9503 110.518 70.3149 110.767C70.6883 111.016 70.9596 111.363 71.1285 111.807C71.3064 112.243 71.3953 112.763 71.3953 113.368V117.823H70.3949L70.2882 116.956H70.2482C69.9103 117.241 69.5368 117.485 69.1277 117.69C68.7276 117.894 68.3007 117.997 67.8472 117.997ZM68.194 117.009C68.5408 117.009 68.8699 116.929 69.1811 116.769C69.5012 116.609 69.8347 116.374 70.1815 116.062V114.048C69.3723 114.137 68.7276 114.266 68.2474 114.435C67.7672 114.595 67.4248 114.795 67.2203 115.035C67.0158 115.267 66.9135 115.542 66.9135 115.862C66.9135 116.28 67.038 116.578 67.287 116.756C67.536 116.925 67.8383 117.009 68.194 117.009Z" fill="white"/>
<path d="M61.0619 117.997C60.3683 117.997 59.728 117.868 59.1411 117.61C58.5631 117.352 58.0652 117.001 57.6472 116.556L58.3808 115.703C58.7276 116.067 59.1367 116.361 59.608 116.583C60.0793 116.805 60.5684 116.917 61.0752 116.917C61.7244 116.917 62.2268 116.77 62.5825 116.476C62.9471 116.183 63.1294 115.801 63.1294 115.329C63.1294 114.982 63.0538 114.707 62.9026 114.502C62.7603 114.298 62.5647 114.129 62.3157 113.995C62.0756 113.853 61.7999 113.715 61.4887 113.582L60.0882 112.968C59.7858 112.835 59.479 112.666 59.1678 112.462C58.8655 112.257 58.612 111.99 58.4075 111.661C58.203 111.332 58.1007 110.932 58.1007 110.461C58.1007 109.954 58.2341 109.509 58.5009 109.127C58.7677 108.736 59.1322 108.429 59.5946 108.207C60.057 107.984 60.5861 107.873 61.1819 107.873C61.7688 107.873 62.3068 107.984 62.7959 108.207C63.2939 108.429 63.7118 108.718 64.0497 109.074L63.4095 109.86C63.1071 109.585 62.7737 109.367 62.4091 109.207C62.0534 109.038 61.6443 108.953 61.1819 108.953C60.6306 108.953 60.186 109.082 59.8481 109.34C59.5191 109.589 59.3545 109.932 59.3545 110.367C59.3545 110.687 59.4346 110.95 59.5946 111.154C59.7636 111.359 59.9726 111.523 60.2216 111.648C60.4705 111.772 60.724 111.892 60.9818 112.008L62.3691 112.608C62.7425 112.768 63.0804 112.959 63.3828 113.182C63.694 113.404 63.9386 113.68 64.1164 114.009C64.2943 114.338 64.3832 114.742 64.3832 115.223C64.3832 115.738 64.2498 116.21 63.983 116.636C63.7163 117.054 63.3339 117.388 62.8359 117.637C62.3379 117.877 61.7466 117.997 61.0619 117.997Z" fill="white"/>
<path d="M49.9764 117.997C49.3895 117.997 48.8382 117.85 48.3224 117.556C47.8067 117.254 47.3932 116.823 47.0819 116.263C46.7796 115.693 46.6284 115.009 46.6284 114.208C46.6284 113.399 46.7796 112.714 47.0819 112.154C47.3932 111.585 47.8067 111.149 48.3224 110.847C48.8382 110.545 49.3895 110.394 49.9764 110.394C50.421 110.394 50.8434 110.478 51.2436 110.647C51.6526 110.816 52.0127 111.065 52.324 111.394C52.6352 111.723 52.8797 112.123 53.0576 112.594C53.2354 113.066 53.3244 113.604 53.3244 114.208C53.3244 115.009 53.1687 115.693 52.8575 116.263C52.5463 116.823 52.1372 117.254 51.6304 117.556C51.1235 117.85 50.5722 117.997 49.9764 117.997ZM49.9764 116.983C50.3943 116.983 50.7589 116.867 51.0701 116.636C51.3903 116.405 51.6393 116.08 51.8171 115.662C51.995 115.244 52.0839 114.76 52.0839 114.208C52.0839 113.648 51.995 113.159 51.8171 112.741C51.6393 112.323 51.3903 111.999 51.0701 111.767C50.7589 111.536 50.3943 111.421 49.9764 111.421C49.5584 111.421 49.1894 111.536 48.8693 111.767C48.5581 111.999 48.3135 112.323 48.1357 112.741C47.9667 113.159 47.8822 113.648 47.8822 114.208C47.8822 114.76 47.9667 115.244 48.1357 115.662C48.3135 116.08 48.5581 116.405 48.8693 116.636C49.1894 116.867 49.5584 116.983 49.9764 116.983Z" fill="white"/>
<path d="M44.6363 117.997C44.1294 117.997 43.7248 117.899 43.4225 117.704C43.1201 117.499 42.9023 117.215 42.7689 116.85C42.6444 116.485 42.5821 116.063 42.5821 115.583V111.568H41.5017V110.648L42.6488 110.581L42.7822 108.54H43.7959V110.581H45.77V111.568H43.7959V115.623C43.7959 116.059 43.876 116.401 44.036 116.65C44.205 116.89 44.4984 117.01 44.9164 117.01C45.0498 117.01 45.192 116.992 45.3432 116.957C45.4944 116.912 45.6278 116.863 45.7434 116.81L45.9835 117.73C45.7789 117.801 45.5611 117.864 45.3299 117.917C45.0987 117.97 44.8675 117.997 44.6363 117.997Z" fill="white"/>
<path d="M37.3936 117.997C36.8067 117.997 36.2554 117.85 35.7396 117.556C35.2239 117.254 34.8104 116.823 34.4992 116.263C34.1968 115.693 34.0457 115.009 34.0457 114.208C34.0457 113.399 34.1968 112.714 34.4992 112.154C34.8104 111.585 35.2239 111.149 35.7396 110.847C36.2554 110.545 36.8067 110.394 37.3936 110.394C37.8382 110.394 38.2606 110.478 38.6608 110.647C39.0698 110.816 39.43 111.065 39.7412 111.394C40.0524 111.723 40.297 112.123 40.4748 112.594C40.6527 113.066 40.7416 113.604 40.7416 114.208C40.7416 115.009 40.586 115.693 40.2747 116.263C39.9635 116.823 39.5545 117.254 39.0476 117.556C38.5407 117.85 37.9894 117.997 37.3936 117.997ZM37.3936 116.983C37.8116 116.983 38.1762 116.867 38.4874 116.636C38.8075 116.405 39.0565 116.08 39.2343 115.662C39.4122 115.244 39.5011 114.76 39.5011 114.208C39.5011 113.648 39.4122 113.159 39.2343 112.741C39.0565 112.323 38.8075 111.999 38.4874 111.767C38.1762 111.536 37.8116 111.421 37.3936 111.421C36.9757 111.421 36.6067 111.536 36.2865 111.767C35.9753 111.999 35.7308 112.323 35.5529 112.741C35.384 113.159 35.2995 113.648 35.2995 114.208C35.2995 114.76 35.384 115.244 35.5529 115.662C35.7308 116.08 35.9753 116.405 36.2865 116.636C36.6067 116.867 36.9757 116.983 37.3936 116.983Z" fill="white"/>
<path d="M25.0601 117.824V108.047H26.3139L29.8886 114.209L30.9424 116.223H31.009C30.9646 115.734 30.9246 115.223 30.889 114.689C30.8534 114.156 30.8356 113.636 30.8356 113.129V108.047H32.0094V117.824H30.7423L27.1809 111.648L26.1271 109.647H26.0738C26.1005 110.137 26.1316 110.639 26.1672 111.155C26.2027 111.662 26.2205 112.173 26.2205 112.689V117.824H25.0601Z" fill="white"/>
<path d="M442.97 52.8471H459.441V76.026H442.97V52.8471ZM456.187 55.4667H446.185V73.3668H456.187V55.4667ZM465.832 49.2354H469.126V85.1546H465.832V49.2354ZM468.372 63.5634H475V66.3417H468.372V63.5634Z" fill="white"/>
<path d="M425.96 38.2939H430.3V86.2392H425.96V38.2939ZM429.294 57.2921H438.132V60.9965H429.294V57.2921ZM395.478 70.9983H399.289C402.252 70.9983 404.969 70.9631 407.438 70.8925C409.943 70.7867 412.36 70.6279 414.688 70.4162C417.017 70.1693 419.38 69.8165 421.78 69.3578L422.203 72.9564C419.733 73.415 417.317 73.7678 414.953 74.0148C412.624 74.2617 410.19 74.4381 407.65 74.544C405.11 74.6498 402.323 74.7027 399.289 74.7027H395.478V70.9983ZM395.373 42.7392H416.964V59.9381H399.818V72.4801H395.478V56.2867H412.624V46.3377H395.373V42.7392Z" fill="white"/>
<path d="M373.813 27.3525H379.303V87.2841H373.813V27.3525ZM378.047 50.968H389.094V55.5323H378.047V50.968ZM335.909 67.7038H340.606C344.266 67.7038 347.618 67.6598 350.661 67.5716C353.748 67.4393 356.702 67.2187 359.525 66.91C362.391 66.6013 365.302 66.1824 368.256 65.6532L368.918 70.3498C365.831 70.879 362.832 71.298 359.922 71.6067C357.055 71.9154 354.056 72.1138 350.925 72.202C347.794 72.2902 344.354 72.3343 340.606 72.3343H335.909V67.7038ZM335.909 33.1737H363.626V37.6719H341.333V69.8206H335.909V33.1737Z" fill="white"/>
<path d="M314.391 45.0681H327.568V50.5453H314.391V45.0681ZM309.549 16.4121H316.137V88.1713H309.549V16.4121ZM263.826 23.4769H270.335V67.9295H263.826V23.4769ZM263.826 64.5162H269.541C274.78 64.5162 280.152 64.278 285.655 63.8017C291.212 63.3255 296.954 62.4787 302.881 61.2616L303.674 66.8182C297.536 68.0353 291.662 68.882 286.052 69.3583C280.496 69.7817 274.992 69.9933 269.541 69.9933H263.826V64.5162Z" fill="white"/>
<path d="M231.407 0H239.643V89.699H231.407V0ZM237.46 36.4154H253.931V43.2619H237.46V36.4154ZM208.486 9.62478H216.523C216.523 18.1581 215.134 26.3276 212.356 34.1332C209.578 41.8727 205.212 49.05 199.258 55.665C193.305 62.2138 185.466 67.9026 175.742 72.7316L171.178 66.3812C179.513 62.2138 186.425 57.3518 191.916 51.7952C197.472 46.1725 201.607 39.9544 204.319 33.141C207.097 26.2614 208.486 18.8527 208.486 10.9147V9.62478ZM175.345 9.62478H212.654V16.4713H175.345V9.62478Z" fill="white"/>
</svg>
