<svg width="250" height="96" viewBox="0 0 250 96" fill="none" xmlns="http://www.w3.org/2000/svg">
<g id="Frame" clip-path="url(#clip0_450_41581)">
<path id="Vector" d="M5.96548 24.1497C9.52558 27.4483 14.1929 29.28 19.038 29.28C23.883 29.28 28.5503 27.4483 32.1104 24.1497C33.8933 22.5499 35.3497 20.6178 36.3986 18.4607C37.5001 16.2022 38.0738 13.7213 38.0762 11.2066V4.76591C38.0955 4.12818 37.987 3.49306 37.7572 2.89819C37.5274 2.30333 37.1809 1.76083 36.7383 1.30288C36.2957 0.844933 35.766 0.480842 35.1806 0.232212C34.5952 -0.0164183 33.966 -0.144531 33.3303 -0.144531C32.6947 -0.144531 32.0655 -0.0164183 31.48 0.232212C30.8946 0.480842 30.365 0.844933 29.9223 1.30288C29.4797 1.76083 29.1332 2.30333 28.9034 2.89819C28.6736 3.49306 28.5652 4.12818 28.5845 4.76591V7.25867H9.49147V4.76591C9.51077 4.12818 9.40229 3.49306 9.17248 2.89819C8.94266 2.30333 8.59621 1.76083 8.15361 1.30288C7.71101 0.844933 7.1813 0.480842 6.59589 0.232212C6.01048 -0.0164183 5.38128 -0.144531 4.74562 -0.144531C4.10996 -0.144531 3.48076 -0.0164183 2.89535 0.232212C2.30994 0.480842 1.78023 0.844933 1.33763 1.30288C0.895031 1.76083 0.548557 2.30333 0.318741 2.89819C0.0889242 3.49306 -0.0195559 4.12818 -0.000251346 4.76591V11.2066C0.00211757 13.7213 0.575871 16.2022 1.67734 18.4607C2.72624 20.6178 4.18258 22.5499 5.96548 24.1497ZM25.7505 18.1574C23.9342 19.8747 21.5332 20.831 19.038 20.831C16.5427 20.831 14.1417 19.8747 12.3254 18.1574C11.122 17.1052 10.2385 15.7338 9.77619 14.2006H28.2997C27.8357 15.733 26.9525 17.1039 25.7505 18.1574Z" fill="#FB6D3A"/>
<path id="Vector_2" d="M48.9831 29.4693C49.6068 29.4693 50.2244 29.3459 50.8005 29.1061C51.3766 28.8662 51.8999 28.5147 52.3405 28.0717C52.7811 27.6286 53.1304 27.1027 53.3682 26.524C53.6061 25.9453 53.7279 25.3252 53.7268 24.6992V4.76591C53.7461 4.12819 53.6377 3.49306 53.4078 2.89819C53.178 2.30333 52.8315 1.76083 52.3889 1.30288C51.9463 0.844934 51.4166 0.480842 50.8312 0.232212C50.2458 -0.0164183 49.6166 -0.144531 48.9809 -0.144531C48.3453 -0.144531 47.7161 -0.0164183 47.1307 0.232212C46.5453 0.480842 46.0156 0.844934 45.573 1.30288C45.1304 1.76083 44.7839 2.30333 44.5541 2.89819C44.3243 3.49306 44.2158 4.12819 44.2351 4.76591V24.6992C44.2345 25.3254 44.3569 25.9456 44.5953 26.5243C44.8336 27.1031 45.1833 27.6289 45.6242 28.0719C46.0652 28.5149 46.5888 28.8664 47.1651 29.1061C47.7415 29.3459 48.3592 29.4693 48.9831 29.4693Z" fill="#FB6D3A"/>
<path id="Vector_3" d="M108.689 62.8293C109.946 62.827 111.152 62.3239 112.04 61.4304C112.929 60.5369 113.428 59.3261 113.428 58.0636V4.86707C113.39 3.62876 112.874 2.45377 111.988 1.59115C111.102 0.728535 109.916 0.246094 108.682 0.246094C107.448 0.246094 106.262 0.728535 105.376 1.59115C104.49 2.45377 103.974 3.62876 103.936 4.86707V58.0636C103.935 58.69 104.058 59.3104 104.297 59.8891C104.535 60.4679 104.886 60.9936 105.327 61.4364C105.768 61.8791 106.293 62.23 106.869 62.469C107.446 62.7081 108.064 62.8305 108.689 62.8293Z" fill="#FB6D3A"/>
<path id="Vector_4" d="M48.9917 51.2135C50.2475 51.2135 51.4518 50.7128 52.3398 49.8215C53.2277 48.9303 53.7266 47.7215 53.7266 46.461V37.3253C53.7266 36.0648 53.2277 34.856 52.3398 33.9647C51.4518 33.0735 50.2475 32.5728 48.9917 32.5728H9.64505C9.12297 32.5733 8.6061 32.6772 8.12403 32.8784C7.64197 33.0796 7.20414 33.3742 6.83558 33.7453C6.46702 34.1165 6.17496 34.5569 5.9761 35.0414C5.77724 35.526 5.67548 36.0451 5.67663 36.5691C5.67663 37.6255 6.09473 38.6386 6.83895 39.3856C7.58317 40.1326 8.59256 40.5522 9.64505 40.5522H44.248V43.6605H14.358C11.8871 43.6605 9.51745 44.6457 7.77026 46.3994C6.02307 48.1531 5.0415 50.5316 5.0415 53.0117C5.0415 55.4918 6.02307 57.8703 7.77026 59.624C9.51745 61.3776 11.8871 62.3628 14.358 62.3628H49.767C50.8206 62.3628 51.8311 61.9427 52.5762 61.1949C53.3212 60.4471 53.7397 59.4328 53.7397 58.3753C53.7397 57.3177 53.3212 56.3035 52.5762 55.5557C51.8311 54.8079 50.8206 54.3878 49.767 54.3878H14.5332V51.2223L48.9917 51.2135Z" fill="#FB6D3A"/>
<path id="Vector_5" d="M66.4068 51.3543H93.6687C94.8989 51.3543 96.0788 50.8638 96.9487 49.9907C97.8186 49.1175 98.3073 47.9333 98.3073 46.6985C98.3073 45.4637 97.8186 44.2795 96.9487 43.4064C96.0788 42.5333 94.8989 42.0427 93.6687 42.0427H71.1636V32.7707H93.5724C94.1945 32.7707 94.8106 32.6476 95.3853 32.4085C95.9601 32.1694 96.4823 31.8189 96.922 31.3772C97.3617 30.9354 97.7104 30.411 97.9481 29.8338C98.1858 29.2567 98.3078 28.6383 98.3073 28.0138V18.2142C98.3078 16.4622 97.9645 14.7272 97.2969 13.1083C96.6293 11.4895 95.6506 10.0185 94.4165 8.77947C93.1824 7.54039 91.7172 6.55747 90.1046 5.88686C88.492 5.21626 86.7635 4.87109 85.018 4.87109H66.3105C65.0802 4.87109 63.9004 5.36162 63.0305 6.23475C62.1606 7.10788 61.6719 8.29209 61.6719 9.52689C61.6719 10.7617 62.1606 11.9459 63.0305 12.819C63.9004 13.6922 65.0802 14.1827 66.3105 14.1827H83.5681C84.9621 14.1827 86.2991 14.7385 87.2848 15.7279C88.2705 16.7173 88.8243 18.0592 88.8243 19.4584V23.4679H66.4156C65.7934 23.4668 65.1771 23.5887 64.6019 23.8267C64.0267 24.0648 63.5039 24.4143 63.0633 24.8552C62.6228 25.2962 62.2731 25.82 62.0344 26.3966C61.7956 26.9733 61.6724 27.5915 61.6719 28.216V46.6062C61.673 47.8659 62.1724 49.0736 63.0603 49.9639C63.9481 50.8542 65.1518 51.3543 66.4068 51.3543Z" fill="#FB6D3A"/>
<path id="Vector_6" d="M153.156 61.8445C147.851 61.8451 142.639 60.4547 138.034 57.811C133.43 55.1673 129.594 51.3621 126.906 46.7722C124.217 42.1824 122.77 36.9673 122.708 31.6435C122.646 26.3197 123.971 21.072 126.551 16.4201C129.131 11.7683 132.877 7.87379 137.419 5.1224C141.96 2.37102 147.138 0.858239 152.441 0.73392C157.744 0.609601 162.988 1.87806 167.652 4.41363C172.316 6.94921 176.24 10.6639 179.033 15.1898C179.372 15.7383 179.601 16.3484 179.705 16.9854C179.809 17.6223 179.787 18.2737 179.64 18.9022C179.494 19.5307 179.225 20.124 178.85 20.6483C178.475 21.1727 178.001 21.6177 177.454 21.9581C176.908 22.2984 176.3 22.5274 175.665 22.6319C175.031 22.7365 174.382 22.7145 173.756 22.5674C173.13 22.4202 172.538 22.1507 172.016 21.7742C171.494 21.3977 171.05 20.9216 170.711 20.3732C168.251 16.399 164.523 13.378 160.134 11.8022C155.745 10.2263 150.954 10.1885 146.54 11.6948C142.127 13.2011 138.352 16.1629 135.83 20.0977C133.308 24.0324 132.188 28.7084 132.652 33.3639C133.115 38.0194 135.136 42.3802 138.384 45.7359C141.632 49.0917 145.917 51.2447 150.54 51.8442C155.163 52.4438 159.852 51.4547 163.843 49.0379C167.834 46.6211 170.893 42.919 172.52 38.5347H154.312C153.013 38.5347 151.768 38.0169 150.849 37.0951C149.931 36.1733 149.415 34.9231 149.415 33.6195C149.415 32.316 149.931 31.0658 150.849 30.144C151.768 29.2222 153.013 28.7043 154.312 28.7043H178.49C179.178 28.6981 179.86 28.8333 180.493 29.1018C181.127 29.3702 181.699 29.7661 182.174 30.2651C182.647 30.7691 183.008 31.3676 183.234 32.0214C183.461 32.6752 183.547 33.3696 183.488 34.0592C182.836 41.6692 179.353 48.7538 173.733 53.9026C168.112 59.0515 160.765 61.8869 153.156 61.8445Z" fill="white"/>
<path id="Vector_7" d="M219.554 61.8357C213.533 61.8357 207.647 60.0437 202.641 56.6862C197.635 53.3288 193.733 48.5568 191.429 42.9736C189.125 37.3904 188.522 31.2467 189.697 25.3197C190.871 19.3926 193.771 13.9482 198.028 9.67497C202.285 5.40177 207.71 2.49168 213.615 1.31271C219.52 0.133732 225.641 0.738827 231.203 3.05147C236.766 5.3641 241.52 9.28043 244.865 14.3052C248.21 19.3299 249.996 25.2374 249.996 31.2806C249.986 39.3815 246.776 47.1479 241.069 52.876C235.362 58.6042 227.625 61.8264 219.554 61.8357ZM219.554 10.556C215.471 10.556 211.479 11.7711 208.084 14.0478C204.688 16.3245 202.042 19.5604 200.479 23.3466C198.916 27.1328 198.506 31.2991 199.302 35.319C200.097 39.3388 202.062 43.0316 204.949 45.9305C207.835 48.8295 211.513 50.8043 215.517 51.6055C219.522 52.4066 223.673 51.9981 227.446 50.4315C231.219 48.8649 234.445 46.2107 236.715 42.8042C238.986 39.3978 240.199 35.3922 240.202 31.2938C240.199 25.7968 238.024 20.5254 234.152 16.6372C230.281 12.749 225.03 10.5618 219.554 10.556Z" fill="white"/>
<path id="Vector_8" d="M219.554 40.7195C224.747 40.7195 228.958 36.4935 228.958 31.2804C228.958 26.0673 224.747 21.8413 219.554 21.8413C214.36 21.8413 210.149 26.0673 210.149 31.2804C210.149 36.4935 214.36 40.7195 219.554 40.7195Z" fill="white"/>
<path id="Vector_9" d="M186.9 96.0002C179.364 96.0291 171.925 94.2909 165.177 90.9241C158.429 87.5572 152.557 82.6549 148.03 76.6077C147.246 75.5688 146.904 74.2595 147.081 72.968C147.258 71.6764 147.939 70.5083 148.974 69.7207C150.009 68.9331 151.314 68.5904 152.601 68.7681C153.887 68.9457 155.051 69.6292 155.836 70.6681C159.467 75.4847 164.161 79.3912 169.549 82.0809C174.937 84.7706 180.873 86.1704 186.891 86.1704C192.909 86.1704 198.845 84.7706 204.233 82.0809C209.621 79.3912 214.315 75.4847 217.946 70.6681C218.731 69.6292 219.894 68.9457 221.181 68.7681C222.468 68.5904 223.772 68.9331 224.807 69.7207C225.843 70.5083 226.523 71.6764 226.7 72.968C226.877 74.2595 226.536 75.5688 225.751 76.6077C221.226 82.6522 215.357 87.5529 208.612 90.9196C201.867 94.2863 194.433 96.026 186.9 96.0002Z" fill="white"/>
</g>
<defs>
<clipPath id="clip0_450_41581">
<rect width="250" height="96" fill="white"/>
</clipPath>
</defs>
</svg>
