<svg width="220" height="121" viewBox="0 0 220 121" fill="none" xmlns="http://www.w3.org/2000/svg">
<path d="M107.217 53.6474C106.91 45.6217 100.259 43.4223 87.8054 43.4223C79.7827 43.4223 70.993 44.7778 64.342 46.1244C62.5101 46.5464 62.2032 44.4367 64.0352 43.925C71.6788 41.9859 81.38 41.0433 94.6008 41.1331C97.7052 41.151 104.672 42.4079 104.537 37.1292C104.392 31.276 96.893 32.8111 89.3125 32.847C82.0479 32.883 75.1713 32.5957 67.8344 31.8326C66.1559 31.662 66.4627 29.6332 67.9879 29.8038C74.7923 30.3065 81.4342 30.6476 87.9318 30.6476C100.313 30.6476 103.679 28.3674 103.679 23.0439C103.679 17.7204 98.3279 14.7668 87.1737 13.7524C78.9976 13.0791 71.2006 12.8188 63.7103 13.4113C54.4603 14.0846 46.6632 15.7723 44.7591 21.0958C43.0805 25.746 42.7827 33.9064 44.7591 37.7397C44.9486 38.1167 45.6435 39.176 45.6435 39.176C45.6435 39.176 45.0479 40.5675 44.8493 41.0343C43.1437 45.0831 42.9362 52.6958 44.8493 57.4268C46.6813 62.2386 52.6464 66.045 63.2681 66.8889C72.5903 67.5622 81.3801 67.7327 90.7835 66.4669C100.106 65.0306 107.596 62.0771 107.217 53.6295V53.6474Z" fill="#E50050"/>
<path d="M90.5583 4.25488C88.4286 4.25488 86.5334 5.50272 85.2881 7.45079C84.0427 5.50272 82.1476 4.25488 80.0178 4.25488C76.2817 4.25488 73.2495 8.10613 73.2495 12.8641C73.2495 17.622 76.2817 21.4733 80.0178 21.4733C82.1476 21.4733 84.0427 20.2254 85.2881 18.2774C86.5334 20.2254 88.4286 21.4733 90.5583 21.4733C94.2944 21.4733 97.3266 17.622 97.3266 12.8641C97.3266 8.10613 94.2944 4.25488 90.5583 4.25488Z" stroke="#E50050" stroke-width="4" stroke-miterlimit="10"/>
<path d="M76.1012 68.2358C72.2297 68.2358 68.1327 68.0742 63.2144 67.7151C53.0258 66.9072 46.2395 63.3611 44.0917 57.7324C42.0071 52.5615 42.4132 44.7692 44.1007 40.7474C44.2271 40.4422 44.5339 39.724 44.7324 39.2751C44.5068 38.916 44.1819 38.3954 44.0466 38.135C41.9258 34.0324 42.2778 25.6207 44.0014 20.8538C46.2034 14.7133 55.1737 13.25 63.6566 12.6306C65.8495 12.46 68.1417 12.3523 70.6415 12.3164C70.8851 6.39137 75.0002 1.65137 80.0178 1.65137C81.9309 1.65137 83.7359 2.3067 85.288 3.55454C86.8312 2.3067 88.6361 1.65137 90.5583 1.65137C95.7383 1.65137 99.9436 6.67866 99.9436 12.864C99.9436 13.8874 99.8173 14.9198 99.5827 15.9253C102.85 17.6309 104.51 20.0368 104.51 23.0622C104.51 29.2744 100.178 31.4739 87.9502 31.4739C82.0573 31.4739 75.6951 31.2045 67.9432 30.63H67.8258C67.5641 30.63 67.528 30.7647 67.528 30.8096C67.519 30.9891 67.8619 31.034 67.9251 31.043C74.5941 31.7342 81.0195 32.0574 88.1578 32.0574H89.3129C90.6215 32.0484 91.939 31.9945 93.2115 31.9497C94.511 31.8958 95.7473 31.8509 96.9205 31.8509C99.6188 31.8509 105.223 31.8509 105.358 37.1296C105.394 38.5031 104.997 39.6252 104.194 40.4422C102.732 41.9324 100.241 42.103 98.4817 42.103C97.6424 42.103 96.8212 42.0581 96.0902 42.0222C95.5398 41.9952 95.0253 41.9683 94.6012 41.9593C94.0146 41.9593 93.4371 41.9593 92.8685 41.9593C80.7668 41.9593 71.6702 42.8391 64.2432 44.7243C63.7558 44.859 63.6024 45.1283 63.6205 45.2719C63.6295 45.3707 63.81 45.3797 63.8822 45.3797C63.9634 45.3797 64.0536 45.3707 64.1529 45.3438C70.2805 44.0959 79.3319 42.6237 87.7968 42.6237C99.6819 42.6237 107.678 44.4909 108.02 53.6208C108.463 63.3342 99.1044 66.0274 90.9012 67.2932C86.1454 67.9306 81.3083 68.2448 76.0922 68.2448L76.1012 68.2358Z" fill="#E50050"/>
<path d="M90.5581 2.46844C95.2869 2.46844 99.1312 7.13662 99.1312 12.8731C99.1312 14.103 98.9508 15.27 98.6259 16.3653C102.028 17.9632 103.698 20.2075 103.698 23.0713C103.698 28.3948 100.331 30.675 87.95 30.675C81.4525 30.675 74.8015 30.3339 68.0061 29.8312C67.9429 29.8312 67.8888 29.8222 67.8256 29.8222C66.4539 29.8222 66.2373 31.6985 67.8527 31.86C74.8015 32.5782 81.3261 32.8745 88.1666 32.8745C88.5546 32.8745 88.9427 32.8745 89.3307 32.8745C91.9749 32.8655 94.61 32.668 96.9293 32.668C101.243 32.668 104.456 33.3503 104.555 37.1566C104.645 40.7116 101.505 41.3041 98.4995 41.3041C97.0466 41.3041 95.6298 41.1695 94.619 41.1605C94.0325 41.1605 93.4549 41.1605 92.8773 41.1605C80.541 41.1605 71.3451 42.0941 64.0444 43.9524C62.3749 44.4102 62.4742 46.2057 63.891 46.2057C64.0264 46.2057 64.1798 46.1878 64.3512 46.1519C71.0022 44.7963 79.792 43.4497 87.8147 43.4497C100.268 43.4497 106.919 45.6491 107.226 53.6748C107.605 62.1224 100.115 65.0759 90.7927 66.5123C85.7842 67.1856 80.9471 67.4549 76.11 67.4549C71.8776 67.4549 67.6361 67.2484 63.2864 66.9342C52.6647 66.0904 46.6995 62.284 44.8676 57.4722C42.9544 52.7412 43.162 45.1284 44.8676 41.0797C45.0661 40.6129 45.6617 39.2214 45.6617 39.2214C45.6617 39.2214 44.9759 38.1621 44.7773 37.785C42.801 33.9517 43.0988 25.7914 44.7773 21.1412C46.6905 15.8177 54.4876 14.1299 63.7286 13.4566C66.2734 13.2591 68.8454 13.1604 71.4625 13.1334C71.4625 13.0526 71.4534 12.9629 71.4534 12.8821C71.4534 7.1456 75.2978 2.47742 80.0266 2.47742C81.9759 2.47742 83.8078 3.24945 85.2968 4.64991C86.7768 3.24945 88.6178 2.47742 90.5671 2.47742M90.5671 0.861498C88.699 0.861498 86.8761 1.463 85.2968 2.5672C83.7266 1.463 81.8946 0.861498 80.0266 0.861498C74.7834 0.861498 70.4608 5.53867 69.8832 11.5355C67.6632 11.5804 65.5966 11.6791 63.5932 11.8407C54.8576 12.4781 45.5986 14.0222 43.2342 20.5936C41.4564 25.5221 41.1134 34.23 43.3154 38.5212C43.4237 38.7276 43.6222 39.0598 43.8117 39.365C43.6403 39.769 43.4417 40.2268 43.3515 40.4513C41.6007 44.6257 41.1766 52.6963 43.3515 58.0647C45.5986 63.9717 52.6376 67.6973 63.151 68.5322C68.1054 68.8913 72.2205 69.0618 76.11 69.0618C81.3622 69.0618 86.2354 68.7477 91.0183 68.1013C99.5824 66.7816 109.329 63.9448 108.86 53.585C108.616 47.2561 104.799 44.2666 99.429 42.9021C101.216 42.8213 103.382 42.4622 104.799 41.0169C105.764 40.0294 106.233 38.7187 106.197 37.1117C106.08 32.4076 102.218 31.3483 99.2215 31.1149C103.138 29.885 105.349 27.4971 105.349 23.0713C105.349 19.8844 103.734 17.3528 100.53 15.5124C100.701 14.6416 100.783 13.7529 100.783 12.8731C100.783 6.24787 96.2073 0.852539 90.5761 0.852539L90.5671 0.861498Z" fill="white"/>
<path d="M90.5583 21.4733C94.2964 21.4733 97.3266 17.6188 97.3266 12.8641C97.3266 8.10935 94.2964 4.25488 90.5583 4.25488C86.8203 4.25488 83.79 8.10935 83.79 12.8641C83.79 17.6188 86.8203 21.4733 90.5583 21.4733Z" fill="white"/>
<path d="M80.0178 21.4733C83.7558 21.4733 86.7861 17.6188 86.7861 12.8641C86.7861 8.10935 83.7558 4.25488 80.0178 4.25488C76.2798 4.25488 73.2495 8.10935 73.2495 12.8641C73.2495 17.6188 76.2798 21.4733 80.0178 21.4733Z" fill="white"/>
<path d="M82.7792 15.3063C84.08 15.3063 85.1346 14.2572 85.1346 12.9632C85.1346 11.6691 84.08 10.6201 82.7792 10.6201C81.4784 10.6201 80.4238 11.6691 80.4238 12.9632C80.4238 14.2572 81.4784 15.3063 82.7792 15.3063Z" fill="#231916"/>
<path d="M93.3109 15.3063C94.6118 15.3063 95.6663 14.2572 95.6663 12.9632C95.6663 11.6691 94.6118 10.6201 93.3109 10.6201C92.0101 10.6201 90.9556 11.6691 90.9556 12.9632C90.9556 14.2572 92.0101 15.3063 93.3109 15.3063Z" fill="#231916"/>
<path d="M50.9861 26.6621C51.9231 26.6621 52.6827 25.2754 52.6827 23.5649C52.6827 21.8544 51.9231 20.4678 50.9861 20.4678C50.0491 20.4678 49.2896 21.8544 49.2896 23.5649C49.2896 25.2754 50.0491 26.6621 50.9861 26.6621Z" fill="white"/>
<path d="M58.0704 28.6372C58.0704 30.3518 57.3124 31.7344 56.3738 31.7344C55.4353 31.7344 54.6772 30.3429 54.6772 28.6372C54.6772 26.9315 55.4353 25.54 56.3738 25.54C57.3124 25.54 58.0704 26.9315 58.0704 28.6372Z" fill="white"/>
<path d="M130.464 67.5266C109.744 67.5266 99.2307 61.0899 99.2307 48.3871C99.2307 42.2556 101.324 37.7221 105.62 34.607C99.9526 32.8295 98.6982 28.9333 98.6982 25.8362C98.6982 20.0458 101.613 16.1766 106.125 15.9881C106.676 15.9432 107.262 15.9253 107.822 15.9253C110.412 15.9253 112.803 16.3831 115.032 17.3257C114.41 15.7637 114.247 14.049 114.365 12.5947C114.698 7.32503 120.718 4.16504 130.464 4.16504C140.21 4.16504 145.986 7.31605 146.41 12.5947C146.509 14.2914 146.212 15.9342 145.598 17.3437C147.872 16.4011 150.336 15.9253 152.971 15.9253C153.53 15.9253 154.108 15.9432 154.677 15.9881C159.189 16.2843 162.004 19.9022 162.004 25.4142C162.004 29.867 159.532 33.0718 154.983 34.589C159.342 37.7041 161.463 42.2376 161.463 48.3961C161.463 61.0989 151.031 67.5356 130.464 67.5356V67.5266ZM125.898 39.8497C125.817 39.8497 125.645 39.9574 125.555 40.1549C125.465 40.3434 125.428 40.6487 125.744 41.0257C128.533 44.0241 131.818 45.9542 135.202 46.5827C135.229 46.5827 135.31 46.5827 135.31 46.5827C135.689 46.5827 135.843 46.2595 135.879 46.062C135.897 45.9542 135.897 45.8106 135.788 45.7747C131.926 44.491 128.885 42.6686 125.934 39.8497H125.907H125.898Z" fill="#E50050"/>
<path d="M130.464 4.96375C139.407 4.96375 145.21 7.83648 145.598 12.6483C145.751 15.3505 144.831 18.2232 142.692 19.8301C145.697 17.7564 149.181 16.724 152.971 16.724C153.512 16.724 154.063 16.7419 154.613 16.7868C158.431 17.0382 161.183 20.0007 161.183 25.405C161.183 29.7949 158.512 33.0895 153.007 34.2745C158.891 37.65 160.651 42.803 160.651 48.3779C160.651 58.181 153.927 66.7094 130.464 66.7094C107.001 66.7094 100.043 58.181 100.043 48.3779C100.043 42.803 101.803 37.65 107.605 34.2745C102.182 33.1793 99.5013 30.3066 99.5013 25.827C99.5013 20.4226 102.173 16.9574 106.152 16.7868C106.712 16.7419 107.271 16.724 107.813 16.724C111.612 16.724 114.915 17.7564 117.92 19.8301C115.781 18.313 114.942 15.3505 115.168 12.6483C115.474 7.83648 121.205 4.96375 130.455 4.96375M135.292 47.3903C136.709 47.3903 137.187 45.4064 136.032 45.0024C132.215 43.7366 129.309 41.9591 126.475 39.2569C126.295 39.1043 126.087 39.0325 125.88 39.0325C124.986 39.0325 124.102 40.3701 125.094 41.5372C127.919 44.5805 131.357 46.6901 135.03 47.3634C135.121 47.3814 135.202 47.3814 135.283 47.3814M130.446 3.33887C120.221 3.33887 113.904 6.77716 113.534 12.5406C113.435 13.7345 113.516 14.9016 113.751 15.9789C111.883 15.3864 109.906 15.0991 107.795 15.0991C107.226 15.0991 106.631 15.1171 106.035 15.1619C101.144 15.3864 97.8589 19.6596 97.8589 25.818C97.8589 28.9241 99.005 32.7664 103.95 34.8581C100.214 38.0809 98.3913 42.5337 98.3913 48.3779C98.3913 54.2221 100.738 59.1775 105.358 62.526C110.674 66.3773 119.111 68.3254 130.437 68.3254C156.734 68.3254 162.257 57.4718 162.257 48.3779C162.257 42.4977 160.398 38.0271 156.581 34.8042C160.569 32.9998 162.789 29.6962 162.789 25.405C162.789 19.4262 159.685 15.5031 154.694 15.1709C154.117 15.126 153.521 15.1081 152.944 15.1081C150.823 15.1081 148.802 15.4043 146.888 15.9968C147.15 14.9196 147.258 13.7615 147.195 12.5585C146.735 6.77718 140.472 3.33887 130.437 3.33887H130.446Z" fill="white"/>
<path d="M124.977 32.3268C128.715 32.3268 131.746 28.4723 131.746 23.7176C131.746 18.9629 128.715 15.1084 124.977 15.1084C121.239 15.1084 118.209 18.9629 118.209 23.7176C118.209 28.4723 121.239 32.3268 124.977 32.3268Z" fill="white"/>
<path d="M127.333 26.9046C127.333 25.6119 126.277 24.5615 124.977 24.5615C123.678 24.5615 122.622 25.6119 122.622 26.9046C122.622 28.1973 123.678 29.2477 124.977 29.2477C126.277 29.2477 127.333 28.1973 127.333 26.9046Z" fill="#231916"/>
<path d="M135.509 32.3268C139.247 32.3268 142.277 28.4723 142.277 23.7176C142.277 18.9629 139.247 15.1084 135.509 15.1084C131.771 15.1084 128.74 18.9629 128.74 23.7176C128.74 28.4723 131.771 32.3268 135.509 32.3268Z" fill="white"/>
<path d="M137.864 26.9046C137.864 25.6119 136.808 24.5615 135.509 24.5615C134.209 24.5615 133.153 25.6119 133.153 26.9046C133.153 28.1973 134.209 29.2477 135.509 29.2477C136.808 29.2477 137.864 28.1973 137.864 26.9046Z" fill="#231916"/>
<path d="M108.878 49.6079C108.878 51.3226 108.12 52.7051 107.181 52.7051C106.242 52.7051 105.484 51.3136 105.484 49.6079C105.484 47.9022 106.242 46.5107 107.181 46.5107C108.12 46.5107 108.878 47.9022 108.878 49.6079Z" fill="white"/>
<path d="M114.256 54.6802C114.256 56.3948 113.498 57.7773 112.56 57.7773C111.621 57.7773 110.863 56.3859 110.863 54.6802C110.863 52.9745 111.621 51.583 112.56 51.583C113.498 51.583 114.256 52.9745 114.256 54.6802Z" fill="white"/>
<path d="M186.054 68.236C182.182 68.236 178.085 68.0744 173.167 67.7153C162.978 66.9073 156.192 63.3613 154.044 57.7326C151.969 52.5976 152.375 44.7963 154.044 40.7476C156.12 35.3881 159.459 32.0486 169.62 32.0486C177.679 32.0486 184.276 31.7344 191.008 31.0431C191.08 31.0431 191.423 30.9893 191.414 30.8097C191.414 30.7648 191.387 30.6212 191.116 30.6212H190.999C183.247 31.2047 176.885 31.474 170.992 31.474C158.764 31.474 154.432 29.2746 154.432 23.0623C154.432 19.642 156.535 17.0296 160.686 15.297C160.533 14.489 160.461 13.6721 160.461 12.8552C160.461 6.66984 164.675 1.64258 169.846 1.64258C171.759 1.64258 173.564 2.29791 175.116 3.54576C176.659 2.29791 178.464 1.64258 180.386 1.64258C185.422 1.64258 189.537 6.39156 189.763 12.3345C191.721 12.3884 193.535 12.4781 195.286 12.6218C203.769 13.2412 212.739 14.7045 214.941 20.8449C216.701 25.6927 216.692 33.9069 214.923 38.0723C213.831 40.6488 210.555 41.9505 205.195 41.9505C204.978 41.9505 204.752 41.9505 204.527 41.9505C203.579 41.9415 202.65 41.9326 201.738 41.9326C190.548 41.9326 181.533 42.8393 174.178 44.7155C173.69 44.8502 173.537 45.1195 173.555 45.2631C173.573 45.3619 173.745 45.3709 173.817 45.3709C173.898 45.3709 173.988 45.3619 174.087 45.3349C180.206 44.0871 189.257 42.6148 197.731 42.6148C209.616 42.6148 217.612 44.4821 217.955 53.612C218.397 63.3254 209.039 66.0186 200.836 67.2844C196.08 67.9218 191.243 68.236 186.027 68.236H186.054Z" fill="#E50050"/>
<path d="M180.396 2.46844C185.124 2.46844 188.969 7.13662 188.969 12.8731C188.969 12.9629 188.96 13.0527 188.96 13.1424C191.072 13.1873 193.165 13.2771 195.232 13.4387C204.482 14.112 212.279 15.7997 214.183 21.1232C215.862 25.7734 215.862 33.7901 214.183 37.7671C213.091 40.3436 209.445 41.1515 205.204 41.1515C204.987 41.1515 204.771 41.1515 204.554 41.1515C203.597 41.1425 202.668 41.1336 201.747 41.1336C189.944 41.1336 181.073 42.139 173.979 43.9434C172.31 44.4013 172.409 46.1967 173.826 46.1967C173.961 46.1967 174.115 46.1788 174.286 46.1429C180.937 44.7873 189.727 43.4407 197.75 43.4407C210.203 43.4407 216.854 45.6401 217.161 53.6658C217.54 62.1134 210.05 65.067 200.728 66.5033C195.719 67.1766 190.882 67.4459 186.045 67.4459C181.813 67.4459 177.571 67.2395 173.221 66.9253C162.6 66.0814 156.634 62.275 154.803 57.4632C152.889 52.7322 153.124 45.1284 154.803 41.0707C156.634 36.3397 159.468 32.8745 169.63 32.8745C176.894 32.8745 183.771 32.6231 191.108 31.86C192.723 31.6985 192.506 29.8222 191.135 29.8222C191.081 29.8222 191.017 29.8222 190.954 29.8312C184.15 30.3339 177.508 30.675 171.01 30.675C158.629 30.675 155.263 28.3948 155.263 23.0713C155.263 19.8484 157.347 17.4246 161.643 15.8087C161.417 14.875 161.291 13.8875 161.291 12.8731C161.291 7.13662 165.135 2.46844 169.864 2.46844C171.814 2.46844 173.645 3.24049 175.134 4.64095C176.624 3.24049 178.455 2.46844 180.405 2.46844M180.405 0.852539C178.537 0.852539 176.714 1.45401 175.134 2.55822C173.564 1.45401 171.732 0.852539 169.864 0.852539C164.242 0.852539 159.658 6.24787 159.658 12.8731C159.658 13.5195 159.703 14.1748 159.793 14.8212C155.705 16.6884 153.629 19.4624 153.629 23.0713C153.629 28.6552 157.14 30.9892 163.168 31.8511C157.393 33.1079 154.911 36.2589 153.277 40.4782C151.554 44.6437 151.13 52.7232 153.277 58.0557C155.524 63.9628 162.564 67.6883 173.077 68.5232C178.031 68.8823 182.146 69.0529 186.036 69.0529C191.288 69.0529 196.161 68.7387 200.944 68.0923C209.508 66.7726 219.255 63.9358 218.785 53.576C218.524 46.7892 214.156 43.8447 208.164 42.6238C212.153 42.1749 214.679 40.7655 215.681 38.4045C217.513 34.0864 217.522 25.5939 215.717 20.5846C213.353 14.0132 204.094 12.4691 195.349 11.8317C193.815 11.706 192.227 11.6253 190.53 11.5714C189.98 5.55663 185.639 0.861498 180.387 0.861498L180.405 0.852539Z" fill="white"/>
<path d="M186.054 68.2354C182.182 68.2354 178.085 68.0738 173.167 67.7147C162.978 66.9068 156.192 63.3608 154.044 57.732C151.969 52.597 152.375 44.7958 154.044 40.747C156.12 35.3876 159.459 32.048 169.62 32.048C177.679 32.048 184.276 31.7338 191.008 31.0426C191.08 31.0426 191.423 30.9887 191.414 30.8092C191.414 30.7643 191.387 30.6207 191.116 30.6207H190.999C183.247 31.2042 176.885 31.4735 170.992 31.4735C158.764 31.4735 154.432 29.2741 154.432 23.0618C154.432 17.3163 160.073 14.0127 171.678 12.9624C177.156 12.5135 181.957 12.2891 186.361 12.2891C189.51 12.2891 192.425 12.3968 195.277 12.6212C203.76 13.2406 212.73 14.7039 214.932 20.8444C216.692 25.6921 216.683 33.9063 214.914 38.0718C213.822 40.6483 210.546 41.95 205.185 41.95C204.969 41.95 204.743 41.95 204.518 41.95C203.57 41.941 202.641 41.932 201.729 41.932C190.539 41.932 181.524 42.8387 174.169 44.715C173.681 44.8496 173.528 45.119 173.546 45.2626C173.555 45.3613 173.736 45.3703 173.808 45.3703C173.889 45.3703 173.979 45.3613 174.078 45.3344C180.197 44.0866 189.248 42.6143 197.722 42.6143C209.607 42.6143 217.603 44.4816 217.946 53.6114C218.388 63.3249 209.03 66.0181 200.827 67.2838C196.071 67.9212 191.225 68.2354 186.018 68.2354H186.054Z" fill="#E50050"/>
<path d="M186.388 13.1061C189.384 13.1061 192.335 13.2049 195.241 13.4383C204.491 14.1116 212.288 15.7993 214.192 21.1228C215.87 25.7731 215.87 33.7898 214.192 37.7667C213.1 40.3432 209.445 41.1511 205.213 41.1511C204.996 41.1511 204.779 41.1511 204.563 41.1511C203.615 41.1421 202.677 41.1332 201.756 41.1332C189.952 41.1332 181.081 42.1386 173.988 43.9431C172.319 44.4009 172.418 46.1963 173.835 46.1963C173.97 46.1963 174.124 46.1784 174.295 46.1425C180.946 44.7869 189.736 43.4403 197.758 43.4403C210.212 43.4403 216.863 45.6398 217.17 53.6654C217.549 62.1131 210.059 65.0666 200.736 66.503C195.728 67.1763 190.891 67.4456 186.054 67.4456C181.821 67.4456 177.58 67.2391 173.23 66.9249C162.608 66.081 156.643 62.2747 154.811 57.4628C152.898 52.7318 153.133 45.1281 154.811 41.0703C156.643 36.3393 159.477 32.8741 169.638 32.8741C176.903 32.8741 183.78 32.6227 191.116 31.8597C192.732 31.6981 192.515 29.8218 191.144 29.8218C191.089 29.8218 191.026 29.8218 190.963 29.8308C184.159 30.3335 177.517 30.6747 171.019 30.6747C158.638 30.6747 155.272 28.3944 155.272 23.0709C155.272 17.7474 160.623 14.7939 171.777 13.7794C176.786 13.3665 181.65 13.1061 186.388 13.1061ZM186.388 11.4902C181.957 11.4902 177.138 11.7147 171.642 12.1635C167.184 12.5675 153.638 13.7974 153.638 23.0709C153.638 28.6548 157.149 30.9889 163.177 31.8507C157.401 33.1075 154.92 36.2585 153.286 40.4778C151.563 44.6433 151.138 52.7228 153.286 58.0553C155.533 63.9624 162.572 67.688 173.086 68.5228C178.04 68.8819 182.155 69.0525 186.045 69.0525C191.297 69.0525 196.17 68.7383 200.953 68.0919C209.517 66.7723 219.264 63.9354 218.794 53.5757C218.533 46.7888 214.165 43.8443 208.173 42.6234C212.161 42.1745 214.688 40.7651 215.69 38.4041C217.522 34.086 217.531 25.5935 215.726 20.5842C213.362 14.0128 204.103 12.4687 195.358 11.8313C192.497 11.6069 189.564 11.4992 186.388 11.4992V11.4902Z" fill="white"/>
<path d="M180.396 23.2693C178.447 23.2693 176.615 22.4972 175.126 21.0968C173.646 22.4972 171.805 23.2693 169.855 23.2693C165.127 23.2693 161.282 18.6011 161.282 12.8646C161.282 7.12814 165.127 2.45996 169.855 2.45996C171.805 2.45996 173.637 3.23199 175.126 4.63245C176.615 3.23199 178.447 2.45996 180.396 2.45996C185.125 2.45996 188.969 7.12814 188.969 12.8646C188.969 18.6011 185.125 23.2693 180.396 23.2693Z" fill="#E50050"/>
<path d="M169.864 21.4733C173.603 21.4733 176.633 17.6188 176.633 12.8641C176.633 8.10935 173.603 4.25488 169.864 4.25488C166.126 4.25488 163.096 8.10935 163.096 12.8641C163.096 17.6188 166.126 21.4733 169.864 21.4733Z" fill="white"/>
<path d="M180.396 21.4733C184.134 21.4733 187.164 17.6188 187.164 12.8641C187.164 8.10935 184.134 4.25488 180.396 4.25488C176.658 4.25488 173.627 8.10935 173.627 12.8641C173.627 17.6188 176.658 21.4733 180.396 21.4733Z" fill="white"/>
<path d="M179.99 12.9632C179.99 11.6704 178.934 10.6201 177.634 10.6201C176.335 10.6201 175.279 11.6704 175.279 12.9632C175.279 14.2559 176.335 15.3063 177.634 15.3063C178.934 15.3063 179.99 14.2559 179.99 12.9632Z" fill="#231916"/>
<path d="M169.458 12.9632C169.458 11.6704 168.402 10.6201 167.103 10.6201C165.803 10.6201 164.748 11.6704 164.748 12.9632C164.748 14.2559 165.803 15.3063 167.103 15.3063C168.402 15.3063 169.458 14.2559 169.458 12.9632Z" fill="#231916"/>
<path d="M208.245 49.7602C208.245 51.4749 207.487 52.8574 206.548 52.8574C205.61 52.8574 204.852 51.4659 204.852 49.7602C204.852 48.0545 205.61 46.6631 206.548 46.6631C207.487 46.6631 208.245 48.0545 208.245 49.7602Z" fill="white"/>
<path d="M213.624 54.8237C213.624 56.5384 212.866 57.9209 211.927 57.9209C210.989 57.9209 210.23 56.5294 210.23 54.8237C210.23 53.118 210.989 51.7266 211.927 51.7266C212.866 51.7266 213.624 53.118 213.624 54.8237Z" fill="white"/>
<path d="M3.09048 28.9051L3.10685 29.3882H3.11695C3.20053 31.4781 3.38448 33.4967 3.57334 35.341C3.62663 35.8614 3.68017 36.3668 3.73195 36.8555C3.87863 38.2399 4.0112 39.4912 4.08399 40.574C4.21911 42.6169 3.89306 44.606 3.46956 46.641C3.38037 47.0695 3.28656 47.5012 3.19208 47.9359C2.84192 49.5472 2.48269 51.2001 2.3165 52.8893L2.31645 52.8898C2.00057 56.1306 3.0844 59.542 5.01932 62.3056C6.95422 65.0692 9.77467 67.2334 12.9876 67.9254C18.3155 69.0744 22.3956 68.8811 25.5624 67.9172C28.7333 66.952 30.9529 65.2249 32.5738 63.3669C35.3183 60.2345 36.3845 55.421 36.7296 51.4192L36.7296 51.4185C37.2636 45.1256 37.4368 39.1686 36.8375 32.8627C36.7644 32.0937 36.7007 31.3008 36.6359 30.4945C36.44 28.0565 36.2342 25.4958 35.7291 23.1002C35.0539 19.8982 33.8283 16.8943 31.3033 14.7453C29.512 13.2206 26.8385 12.355 24.1099 11.9287C21.3684 11.5005 18.4999 11.5048 16.2549 11.7748C11.7012 12.3225 7.38643 15.1053 5.31854 19.2102C3.84132 22.14 2.97903 25.6161 3.09048 28.9051Z" fill="#E50050" stroke="white"/>
<path d="M29.0301 31.2493C29.6348 31.1326 30.2755 31.4648 30.4379 32.0752C30.6094 32.6767 30.2484 33.3051 29.6348 33.4308C27.1801 34.0143 24.166 34.3734 20.854 34.5171C20.854 35.4148 20.8269 36.3753 20.7818 37.3449C20.7548 38.0182 20.1772 38.5299 19.4913 38.485C18.8055 38.4401 18.3272 37.8566 18.3452 37.1743C18.3904 36.2766 18.4174 35.4058 18.4174 34.5619H18.3001C15.7462 34.5619 13.1923 34.4183 10.8369 34.131C10.2323 34.0592 9.79011 33.4757 9.86231 32.8742C9.96158 32.2458 10.5391 31.8329 11.1528 31.9047C13.4901 32.174 15.9899 32.2907 18.4265 32.2907C18.4265 31.5186 18.3994 30.8184 18.3813 30.208C17.7226 30.208 17.0638 30.2349 16.414 30.2349C13.9052 30.2349 11.4777 30.0913 9.31182 29.8219C8.68011 29.7501 8.26499 29.1666 8.36426 28.5651C8.46352 27.9367 9.04109 27.5238 9.65475 27.6225C11.1618 27.7931 12.7682 27.9098 14.3745 27.9636C13.9594 26.6799 13.427 24.9652 13.057 23.8521C13.0118 23.6546 12.9848 23.493 13.0118 23.3403C12.0913 23.3852 11.2882 23.4122 10.6294 23.4571C10.0248 23.5019 9.46524 23.0441 9.41109 22.4426C9.33889 21.8142 9.79914 21.2845 10.4128 21.2307C12.1365 21.114 15.0604 20.9883 18.1918 20.8896C18.1648 20.8177 18.1647 20.7459 18.1647 20.6921C18.1377 20.2342 18.1196 19.6776 18.0655 18.9953C15.8004 19.1121 13.6616 19.2647 12.326 19.3814C11.6943 19.4532 11.1077 19.0402 11.0084 18.4118C10.9091 17.8104 11.3243 17.2268 11.956 17.155C13.3638 17.0114 15.5747 16.8677 17.9572 16.7241C17.9572 16.6523 17.9301 16.5535 17.9301 16.4817C17.885 15.8084 18.3452 15.171 19.004 15.0543C19.6628 14.9376 20.2945 15.3955 20.3396 16.0418C20.3667 16.2124 20.3667 16.4009 20.3848 16.6254C22.7943 16.5087 25.1767 16.4548 26.9004 16.5087C27.5321 16.5087 28.0194 17.0383 27.9743 17.6667C27.9291 18.2951 27.3877 18.753 26.756 18.753C25.1045 18.7081 22.8123 18.7799 20.484 18.8697C20.5111 19.4712 20.5562 20.2252 20.5833 20.8087C22.9387 20.7369 25.303 20.6921 27.2252 20.6921C27.8299 20.6921 28.3894 20.719 28.9038 20.719C29.5355 20.719 30.0228 21.2486 29.9957 21.8591C29.9686 22.4875 29.4362 22.9453 28.8316 22.9453H26.034C25.8896 23.6456 25.7182 24.4445 25.5196 25.2435C25.303 26.0694 25.0594 26.8146 24.7887 27.4699C26.4401 27.2544 27.9472 26.9851 29.2106 26.6979C29.8152 26.5273 30.4289 26.8684 30.6184 27.452C30.7899 28.0355 30.474 28.6639 29.8604 28.8344C27.4779 29.418 24.2652 29.8758 20.7908 30.0913C20.8179 30.7197 20.836 31.4468 20.836 32.2458C23.8501 32.1291 26.6928 31.788 29.003 31.2583L29.0301 31.2493ZM23.5794 22.9723C20.9082 23.0172 17.9391 23.1159 15.4123 23.2147C15.8274 24.5972 16.405 26.3837 16.8021 27.5956C16.8472 27.7123 16.8743 27.8649 16.8743 28.0085C17.7226 27.9816 18.5709 27.9636 19.4282 27.9367H19.6267C20.475 27.8918 21.2782 27.838 22.0813 27.7661C22.1084 27.6494 22.1535 27.5507 22.1986 27.425C22.7311 26.3388 23.2184 24.8126 23.5884 22.9723H23.5794Z" fill="white"/>
<path d="M14.1489 44.2125C14.9972 44.5267 15.7282 45.0833 16.2155 45.8823C16.7028 46.6813 16.9465 47.6508 16.9465 48.7819V48.8268C16.8743 50.4517 16.0982 52.1933 14.6092 54.0067C15.3853 54.7787 16.0711 55.461 16.5765 55.9458C17.0367 56.3857 17.0367 57.1039 16.6036 57.5437C16.1884 58.0016 15.4575 58.0016 15.0243 57.5886C14.7084 57.3013 14.3475 56.9333 13.9323 56.5203C13.8872 58.4594 13.9775 60.6319 14.0496 61.9426C14.0767 62.5979 13.5894 63.1545 12.9577 63.1994C12.326 63.2443 11.7665 62.7595 11.7214 62.1311C11.6492 60.9192 11.577 58.9352 11.604 57.05C11.0445 57.5348 10.5301 57.9477 10.124 58.2619C9.60965 58.621 8.90575 58.5043 8.57185 57.9747C8.22892 57.463 8.35526 56.7627 8.86062 56.3767C9.5194 55.865 10.4399 55.1199 11.3694 54.2221C13.4631 52.1933 14.6272 50.2811 14.6994 48.755C14.6994 47.4982 14.2392 46.6274 13.4089 46.3581C12.9216 46.1606 12.2628 46.2144 11.6311 46.4748C11.1438 46.6723 10.6836 46.9596 10.2233 47.3725C9.76307 47.7855 9.05917 47.8842 8.57185 47.4712C8.08453 47.1122 7.98526 46.385 8.45453 45.9451C9.15843 45.2449 9.9616 44.7152 10.7918 44.3741C11.3784 44.1586 11.9379 44.0329 12.4884 43.9881C13.075 43.9611 13.6526 44.033 14.167 44.2035L14.1489 44.2125ZM10.115 42.3003C9.51038 42.1836 9.1133 41.5732 9.23964 40.9717C9.35696 40.3702 9.94355 39.9573 10.5572 40.1009C11.9199 40.4151 13.7428 40.8999 15.0604 41.5552C15.6199 41.8245 15.7192 42.5427 15.3311 43.0095C14.9431 43.5212 14.2392 43.6379 13.6255 43.3686C12.7772 43.0095 11.5318 42.6415 10.124 42.3003H10.115ZM31.2231 56.6729C31.4938 58.1003 31.5389 59.8419 31.3223 61.9695C31.2772 62.5531 30.7357 62.957 30.1582 62.8852C29.7972 62.8403 29.4723 62.6159 29.3279 62.3017C29.3009 62.3017 29.2828 62.3017 29.2557 62.3286C27.3065 63.0288 25.1948 63.1545 23.805 63.1545H23.3448C21.955 63.1276 20.2765 62.9391 19.0672 62.4992C18.8957 62.8583 18.5799 63.1276 18.1648 63.1725C17.6053 63.2443 17.0728 62.8134 17.0458 62.2568C17.0006 61.1706 17.0006 59.6444 17.0909 58.0734C17.1901 56.1164 17.3797 54.5902 17.6775 53.5219C17.8218 52.9653 18.4535 52.7499 18.986 52.9923C19.0582 53.0371 19.1304 53.091 19.1755 53.1359C19.2477 53.091 19.3199 53.0371 19.4192 53.0192C21.1699 52.4895 22.7492 52.0497 24.2562 51.8791C25.2579 51.7355 26.1243 51.7624 26.9094 51.906C27.8299 52.0497 28.615 52.4177 29.2648 52.9474C29.7521 53.3603 30.1672 53.8631 30.5101 54.4915C30.826 55.1199 31.0697 55.847 31.214 56.6729H31.2231ZM19.1394 42.8569C18.5799 43.0275 17.9482 42.812 17.7045 42.2555C17.4609 41.7437 17.6775 41.0974 18.237 40.9268C18.8416 40.7293 19.5545 40.5677 20.3036 40.4151C21.4497 40.2176 22.7401 40.1009 24.0035 40.074C25.3211 40.074 26.6026 40.1458 27.7487 40.3433C28.597 40.4869 29.355 40.6844 30.0318 40.8999C30.5643 41.0974 30.7809 41.7437 30.5372 42.2555C30.2665 42.7851 29.6348 43.0095 29.0572 42.839C26.2597 41.9412 21.8106 42.0669 19.1394 42.8659V42.8569ZM29.0121 44.814C29.4001 45.2988 29.716 45.8823 29.9416 46.5286C30.3026 47.6149 30.447 48.8986 30.3748 50.3978C30.3477 50.9814 29.8153 51.4123 29.2106 51.3404C28.9218 51.3135 28.6782 51.1699 28.5067 50.9544C28.3894 51.0532 28.236 51.125 28.0645 51.1519C26.5304 51.3674 24.8789 51.4212 23.787 51.4212H23.426C22.334 51.3943 21.0435 51.3494 20.0689 51.2058C19.9516 51.2058 19.8523 51.1609 19.7531 51.107C19.5816 51.3494 19.3109 51.52 18.995 51.5379C18.4084 51.6367 17.9031 51.2237 17.876 50.6402C17.8489 49.8682 17.876 48.8986 17.9482 47.956C18.0655 46.7261 18.237 45.7027 18.4806 44.9307C18.625 44.419 19.2116 44.2305 19.6719 44.4459C19.744 44.3472 19.8162 44.3023 19.9155 44.2484C21.0345 43.5931 22.1987 43.1622 23.3448 42.9647C24.9692 42.6774 26.4582 42.8928 27.6494 43.5931C28.1548 43.9073 28.624 44.2933 29.0121 44.805V44.814ZM19.1394 60.7576C19.4282 60.6409 19.8162 60.614 20.1592 60.7127C20.8631 60.9102 21.9099 61.0718 23.2726 61.1257C23.1733 60.9102 23.1282 60.6678 23.1282 60.4254C23.1733 59.9407 23.1733 59.2853 23.1282 58.4145C23.1011 58.2978 23.1011 58.1721 23.1011 58.0734C22.8845 58.0734 22.6589 58.1003 22.4423 58.1003C21.0345 58.217 19.9155 58.4145 19.1575 58.5851C19.1304 59.3572 19.1304 60.0843 19.1304 60.7666L19.1394 60.7576ZM20.0599 55.0481C19.8704 55.0929 19.6718 55.0929 19.5004 55.075C19.4282 55.5059 19.356 55.9907 19.3018 56.5293C20.3487 56.3139 21.4948 56.1882 22.2709 56.1164C22.4875 56.1164 22.704 56.0894 22.9297 56.0715C22.8575 55.5418 22.8123 55.0032 22.7401 54.5274V54.3299C21.9099 54.5274 21.0165 54.7608 20.0689 55.057L20.0599 55.0481ZM27.6494 49.15C27.8389 49.1231 28.0375 49.15 28.236 49.2218C28.2089 48.4677 28.0916 47.8213 27.8931 47.2378C27.6043 46.4119 27.135 45.8104 26.5304 45.4514C25.6099 44.8948 24.4909 44.9666 23.7148 45.0923C22.8845 45.2359 22.0092 45.577 21.1609 46.0349C20.8901 46.1785 20.6014 46.2324 20.3306 46.1785C20.2314 46.6633 20.1321 47.3366 20.0599 48.1625C20.0328 48.5485 20.0148 48.9615 19.9877 49.3475C20.2043 49.2487 20.4209 49.2038 20.6645 49.2308C21.3414 49.3026 22.316 49.3744 23.435 49.3744C24.9692 49.4014 26.4492 49.3026 27.6404 49.159L27.6494 49.15ZM28.3533 60.4703C28.6692 60.3716 29.0121 60.3985 29.3009 60.5421C29.4453 57.4719 28.985 55.461 27.9111 54.5633C27.1621 53.9618 26.0882 53.8092 24.7526 53.9618C24.7977 54.0606 24.8248 54.1593 24.8248 54.276C24.897 54.7877 24.9692 55.3892 25.0233 56.0176C25.7723 56.0176 26.4582 56.0445 27.0448 56.0894C27.5772 56.1343 27.9472 56.6729 27.8479 57.2026C27.7487 57.7592 27.2433 58.1003 26.6838 58.0734C26.2416 58.0285 25.7362 58.0016 25.2038 58.0016C25.2309 58.1003 25.2309 58.1991 25.2309 58.2888C25.3031 59.429 25.3031 60.3177 25.2038 61.0449V61.0718C26.3679 60.9731 27.4418 60.7845 28.3623 60.4703H28.3533Z" fill="white"/>
<path d="M9.99733 98.2284C8.02098 100.194 4.7722 100.688 2.66049 99.0454C0.684151 97.5372 0.278046 94.9876 1.69488 92.3393C4.6278 86.9081 9.2122 81.2973 13.2461 77.6076C15.3127 75.7404 17.9659 75.6416 19.7527 76.8805C21.9998 78.4335 22.5051 80.7586 21.2237 83.2184C20.5378 84.583 19.3466 86.4592 17.9659 88.4611C20.5378 88.8292 23.0105 89.3768 24.6168 90.2387C26.6383 91.3339 27.2339 93.7936 26.4037 95.9392C25.5734 98.1297 23.4707 99.2698 20.989 99.18C17.7763 99.0454 14.5727 97.7167 11.9556 96.1277C11.3149 96.8549 10.629 97.591 9.98829 98.2284H9.99733ZM39.2544 110.68C39.2544 116.883 33.3434 120.259 23.0195 120.259C12.6956 120.259 6.87488 116.883 6.87488 110.68C6.87488 104.477 12.6505 101.101 23.0195 101.101C33.3885 101.101 39.2544 104.477 39.2544 110.68ZM27.7934 110.68C27.7934 109.674 26.6022 109.172 23.0737 109.172C19.5451 109.172 18.3539 109.674 18.3539 110.68C18.3539 111.685 19.5 112.188 23.0737 112.188C26.6473 112.188 27.7934 111.685 27.7934 110.68ZM39.5793 96.0828C39.3537 99.5481 37.5578 101.37 34.5346 101.37C31.5115 101.37 29.3998 99.6378 29.0749 96.2175C28.6146 91.1992 28.5244 85.4538 29.0298 80.5701C29.3998 76.8715 31.9627 75.6416 34.4895 75.6416C37.0164 75.6416 39.3537 76.9613 39.5793 80.5701C39.9042 85.364 39.9042 91.1094 39.5793 96.0828Z" fill="#E50050"/>
<path d="M86.9393 104.298C86.9393 106.443 85.9286 108.4 82.6256 108.679C79.6476 108.957 75.7942 109.092 71.67 109.181C71.8054 111.147 71.7603 112.925 71.5346 114.747C71.1195 118.078 69.1973 119.766 65.8944 119.766C62.5915 119.766 60.6693 118.078 60.209 114.747C59.9383 112.925 59.8842 111.147 59.9834 109.181C56.13 109.136 52.5112 109.002 49.479 108.768C46.2212 108.544 44.7593 106.802 44.7593 104.298C44.7593 101.793 46.2302 100.33 49.479 100.24C59.0629 99.9707 73.9622 99.8719 82.6347 100.24C85.9376 100.375 86.9483 102.152 86.9483 104.298H86.9393ZM52.9173 89.3326H53.1429C53.0978 87.968 53.0978 86.6394 53.1429 85.3646C50.1198 85.1402 48.6037 83.5423 48.6037 81.262C48.6037 78.9818 50.21 77.6173 53.4678 77.3838C59.9744 76.926 73.3215 76.8811 78.6459 77.3838C81.9488 77.707 83.14 79.2511 83.14 81.262C83.14 83.2729 81.9488 84.9607 78.6459 85.1402H78.321C78.3661 86.4599 78.3661 87.8334 78.321 89.153L79.2415 89.2428C82.5444 89.566 83.7356 91.2088 83.7356 93.2108C83.7356 95.2127 82.5444 96.9992 79.2415 97.1787C73.7366 97.5019 59.3427 97.6814 52.9173 97.4032C49.6595 97.2685 48.0532 95.5808 48.0532 93.2108C48.0532 90.8408 49.6595 89.566 52.9173 89.3326ZM62.772 88.9645C64.6942 88.9196 66.7156 88.9196 68.6829 88.9196C68.6378 87.7346 68.6378 86.5945 68.6829 85.4544C66.7607 85.4544 64.6942 85.4993 62.7178 85.4993C62.7629 86.6394 62.7629 87.7795 62.7629 88.9645H62.772Z" fill="#E50050"/>
<path d="M96.3337 100.24C92.2095 99.8719 90.4678 98.1841 90.0978 95.4461C89.6827 92.3399 89.7278 87.3306 90.1429 82.815C89.7729 82.3123 89.5474 81.5403 89.5474 80.4899C89.5474 77.7968 91.3793 77.2491 93.7166 77.0696C98.1205 76.7015 105.773 76.7015 109.446 77.0247C112.009 77.2492 113.48 77.8955 113.48 80.4451C113.48 83.228 112.153 84.0449 109.581 84.2335C107.38 84.413 103.571 84.4579 100.088 84.413V85.5531C103.436 85.4634 106.739 85.5531 109.401 85.6878C111.007 85.7776 112.514 86.2803 112.514 88.5605C112.514 90.7061 110.908 91.2537 109.401 91.3884C107.019 91.6128 103.21 91.7115 99.9073 91.5679L99.7269 92.8875C101.559 92.8427 106.793 92.7529 109.861 92.8875C112.523 93.0222 114.536 93.2107 114.581 96.3079C114.626 99.3153 112.514 99.7282 109.861 100.096C107.614 100.419 100.142 100.554 96.3337 100.231V100.24ZM126.141 111.138C126.141 117.162 120.501 120.538 109.681 120.538C98.8605 120.538 93.3105 117.162 93.3105 111.138C93.3105 105.115 98.8605 101.739 109.681 101.739C120.501 101.739 126.141 105.115 126.141 111.138ZM114.68 111.138C114.68 110.268 113.489 109.819 109.726 109.819C105.963 109.819 104.772 110.277 104.772 111.138C104.772 112 105.918 112.458 109.726 112.458C113.534 112.458 114.68 112 114.68 111.138ZM132.332 88.5156C132.332 92.2143 130.861 93.8481 127.883 94.0366H126.692L126.556 96.8645C126.331 100.33 124.084 102.296 121.006 102.296C117.929 102.296 116.187 100.428 115.917 97.0081C115.456 91.4422 115.501 84.9247 115.917 80.5887C116.287 76.8901 118.85 75.6602 121.421 75.6602C123.993 75.6602 126.286 76.9798 126.556 80.5887L126.692 83.3716C127.197 83.2819 127.748 83.237 128.298 83.237C131.005 83.237 132.332 84.9696 132.332 88.5246V88.5156Z" fill="white"/>
<path d="M175.884 106.12C175.884 108.265 174.873 110.267 171.57 110.501C168.592 110.725 164.784 110.869 160.705 110.913C160.705 112.332 160.66 113.696 160.479 115.061C160.064 118.392 158.142 120.079 154.839 120.079C151.536 120.079 149.659 118.392 149.154 115.061C148.973 113.696 148.883 112.323 148.883 110.913C145.075 110.869 141.456 110.779 138.433 110.59C135.175 110.411 133.713 108.633 133.713 106.12C133.713 103.606 135.184 102.376 138.433 102.241C148.017 101.828 162.916 101.873 171.588 102.241C174.891 102.376 175.902 103.974 175.902 106.12H175.884ZM135.987 83.3084C135.987 80.5703 137.909 78.8377 140.987 78.703L148.829 78.4337C149.054 75.1929 151.807 74.376 154.74 74.376C157.673 74.376 160.38 75.148 160.606 78.4337C163.358 78.4786 166.065 78.5684 168.538 78.703C171.606 78.8826 173.447 80.5703 173.447 83.3084C173.447 86.0464 171.615 87.8688 168.538 87.9586H168.403C168.863 89.0089 169.043 90.1042 169.043 91.1096C169.043 95.2122 165.921 100.464 154.83 100.464C142.864 100.464 140.571 95.2212 140.571 91.1096C140.571 90.1042 140.707 89.0089 141.122 87.9586H140.987C137.909 87.8688 135.987 85.9926 135.987 83.3084ZM158.503 90.3286C158.503 88.7306 157.077 88.183 154.929 88.183C152.781 88.183 151.356 88.7306 151.356 90.3286C151.356 91.9265 152.872 92.4293 154.929 92.4293C156.987 92.4293 158.503 91.8817 158.503 90.3286Z" fill="white"/>
<path d="M219.896 106.946C219.896 109.091 218.885 110.824 215.582 111.093C212.604 111.362 208.75 111.506 204.671 111.596C204.626 112.736 204.581 113.831 204.446 115.016C204.076 118.347 202.108 120.035 198.806 120.035C195.503 120.035 193.58 118.347 193.12 115.016C192.94 113.831 192.849 112.736 192.849 111.596C189.041 111.551 185.422 111.371 182.444 111.183C179.187 110.959 177.725 109.361 177.725 106.847C177.725 104.333 179.196 103.148 182.444 103.059C192.028 102.735 206.928 102.69 215.6 103.059C218.903 103.193 219.914 104.791 219.914 106.937L219.896 106.946ZM181.334 80.6243C181.289 78.0209 182.986 77.0693 185.783 76.8359C191.929 76.3332 202.154 76.2434 208.389 76.791C212.468 77.1591 214.625 78.0209 215.086 81.531C215.356 83.5419 215.311 85.7234 215.04 87.5997C214.67 90.2031 212.884 91.3881 209.265 91.7472C204.771 92.205 196.703 92.1601 193.626 91.9716V93.5246C196.929 93.3451 206.052 93.0219 211.052 93.3002C214.625 93.4798 216.232 94.3506 216.232 96.9001C216.232 99.4496 214.806 100.599 211.232 100.823C205.321 101.191 195.963 101.281 190.413 100.913C185.504 100.59 182.896 100.096 182.21 96.9001C181.659 94.2967 181.704 91.02 182.119 89.2784C182.715 86.8186 184.457 86.271 188.13 86.0825C192.344 85.8581 200.466 85.7593 203.489 85.9029V84.1703C198.815 84.4397 189.917 84.6731 186.153 84.4935C182.76 84.314 181.388 82.9405 181.343 80.6153L181.334 80.6243Z" fill="white"/>
</svg>
