<svg width="456" height="57" viewBox="0 0 456 57" fill="none" xmlns="http://www.w3.org/2000/svg">
<path d="M17.1293 3.4052C24.0411 3.4052 29.0747 4.88571 32.23 7.84675C35.4355 10.7584 37.0383 14.7805 37.0383 19.913C37.0383 22.2325 36.6877 24.4532 35.9865 26.5753C35.2853 28.6481 34.1082 30.5234 32.4554 32.2013C30.8527 33.8299 28.7241 35.113 26.0695 36.0507C23.415 36.9883 20.1344 37.4571 16.2277 37.4571H11.3444V56.2597H0V3.4052H17.1293ZM16.5282 12.5844H11.3444V28.2779H15.1008C17.2545 28.2779 19.1076 28.0065 20.6603 27.4636C22.2129 26.9208 23.415 26.0571 24.2664 24.8727C25.1179 23.6883 25.5436 22.1584 25.5436 20.2831C25.5436 17.6675 24.8174 15.7429 23.3649 14.5091C21.9124 13.226 19.6335 12.5844 16.5282 12.5844Z" fill="#FB6D3A"/>
<path d="M63.1025 15.0273C68.6119 15.0273 72.8191 16.2117 75.724 18.5805C78.6791 20.9 80.1566 24.4779 80.1566 29.3143V56.2597H72.3433L70.1645 50.7818H69.864C68.7121 52.213 67.51 53.3974 66.2579 54.3351C65.0558 55.2727 63.6534 55.939 62.0507 56.3338C60.498 56.7779 58.5698 57 56.2658 57C53.8617 57 51.683 56.5558 49.7297 55.6675C47.8264 54.7299 46.3238 53.3234 45.222 51.4481C44.1201 49.5234 43.5691 47.1052 43.5691 44.1935C43.5691 39.9 45.0967 36.7416 48.152 34.7182C51.2072 32.6455 55.79 31.5104 61.9004 31.313L69.0376 31.0909V29.3143C69.0376 27.1922 68.4616 25.6377 67.3097 24.6507C66.2078 23.6636 64.6551 23.1701 62.6517 23.1701C60.6483 23.1701 58.695 23.4662 56.7917 24.0584C54.8885 24.6013 52.9852 25.2922 51.082 26.1312L47.4007 18.6545C49.6044 17.5195 52.0336 16.6312 54.6881 15.9896C57.3927 15.3481 60.1975 15.0273 63.1025 15.0273ZM64.6802 37.6792C61.074 37.7779 58.5697 38.4195 57.1674 39.6039C55.765 40.7883 55.0638 42.3429 55.0638 44.2675C55.0638 45.9455 55.5646 47.1545 56.5663 47.8948C57.568 48.5857 58.8703 48.9312 60.473 48.9312C62.8771 48.9312 64.9056 48.2403 66.5584 46.8584C68.2112 45.4273 69.0376 43.4286 69.0376 40.8623V37.5312L64.6802 37.6792Z" fill="white"/>
<path d="M114.529 15.1013C115.08 15.1013 115.731 15.126 116.482 15.1753C117.234 15.2247 117.835 15.2987 118.285 15.3974L117.459 25.761C117.108 25.6623 116.582 25.5883 115.881 25.539C115.23 25.4403 114.654 25.3909 114.153 25.3909C112.701 25.3909 111.298 25.5883 109.946 25.9831C108.594 26.3286 107.367 26.8961 106.265 27.6857C105.213 28.4753 104.362 29.5364 103.711 30.8688C103.109 32.1519 102.809 33.7558 102.809 35.6805V56.2597H91.6148V15.8416H100.104L101.757 22.6519H102.283C103.084 21.2701 104.086 20.0117 105.288 18.8766C106.49 17.7416 107.868 16.8286 109.42 16.1377C111.023 15.4468 112.726 15.1013 114.529 15.1013Z" fill="white"/>
<path d="M143.01 48.1909C144.262 48.1909 145.464 48.0675 146.616 47.8208C147.768 47.574 148.92 47.2779 150.072 46.9325V55.1494C148.87 55.6429 147.368 56.0623 145.565 56.4078C143.812 56.8026 141.883 57 139.78 57C137.326 57 135.122 56.6052 133.168 55.8156C131.265 55.026 129.738 53.6688 128.586 51.7442C127.484 49.7701 126.933 47.0558 126.933 43.6013V24.1325H121.599V19.4688L127.759 15.7675L130.99 7.25454H138.127V15.8416H149.622V24.1325H138.127V43.6013C138.127 45.1312 138.578 46.2909 139.479 47.0805C140.381 47.8208 141.558 48.1909 143.01 48.1909Z" fill="white"/>
<path d="M181.596 15.1013C186.003 15.1013 189.534 16.2857 192.189 18.6545C194.843 20.974 196.171 24.7247 196.171 29.9065V56.2597H184.976V32.6455C184.976 29.7338 184.451 27.5623 183.399 26.1312C182.347 24.6507 180.669 23.9104 178.365 23.9104C174.959 23.9104 172.63 25.0701 171.378 27.3896C170.126 29.6597 169.5 32.9416 169.5 37.2351V56.2597H158.306V15.8416H166.871L168.373 21.0234H168.974C169.876 19.6416 170.978 18.5312 172.28 17.6922C173.582 16.8039 175.034 16.1623 176.637 15.7675C178.24 15.3234 179.893 15.1013 181.596 15.1013Z" fill="white"/>
<path d="M224.586 15.1013C228.393 15.1013 231.648 15.8169 234.353 17.2481C237.107 18.6792 239.236 20.752 240.739 23.4662C242.241 26.1805 242.993 29.5117 242.993 33.4597V38.7896H216.547C216.648 41.8987 217.574 44.3416 219.327 46.1182C221.13 47.8948 223.609 48.7831 226.765 48.7831C229.419 48.7831 231.823 48.5364 233.977 48.0429C236.131 47.5 238.36 46.6857 240.664 45.6V54.113C238.66 55.1 236.531 55.8156 234.278 56.2597C232.074 56.7532 229.394 57 226.239 57C222.132 57 218.501 56.2597 215.345 54.7792C212.19 53.2493 209.711 50.9545 207.908 47.8948C206.105 44.8351 205.203 40.9857 205.203 36.3468C205.203 31.6091 206.004 27.6857 207.607 24.5766C209.26 21.4182 211.539 19.0494 214.444 17.4701C217.349 15.8909 220.729 15.1013 224.586 15.1013ZM224.661 22.9481C222.508 22.9481 220.704 23.639 219.252 25.0208C217.85 26.4026 217.023 28.5494 216.773 31.461H232.475C232.475 29.8325 232.174 28.3766 231.573 27.0935C231.022 25.8104 230.171 24.7987 229.019 24.0584C227.867 23.3182 226.414 22.9481 224.661 22.9481Z" fill="white"/>
<path d="M274.984 15.1013C275.535 15.1013 276.186 15.126 276.937 15.1753C277.688 15.2247 278.289 15.2987 278.74 15.3974L277.914 25.761C277.563 25.6623 277.037 25.5883 276.336 25.539C275.685 25.4403 275.109 25.3909 274.608 25.3909C273.156 25.3909 271.753 25.5883 270.401 25.9831C269.048 26.3286 267.821 26.8961 266.72 27.6857C265.668 28.4753 264.816 29.5364 264.165 30.8688C263.564 32.1519 263.264 33.7558 263.264 35.6805V56.2597H252.07V15.8416H260.559L262.212 22.6519H262.738C263.539 21.2701 264.541 20.0117 265.743 18.8766C266.945 17.7416 268.322 16.8286 269.875 16.1377C271.478 15.4468 273.181 15.1013 274.984 15.1013Z" fill="white"/>
<path d="M329.291 56.2597L316.369 14.8052H316.069C316.119 15.7922 316.194 17.2727 316.294 19.2468C316.394 21.2208 316.495 23.3429 316.595 25.613C316.695 27.8338 316.745 29.8571 316.745 31.6831V56.2597H306.603V3.4052H322.079L334.776 43.8234H335.001L348.449 3.4052H363.926V56.2597H353.332V31.239C353.332 29.561 353.358 27.6364 353.408 25.4649C353.508 23.2935 353.583 21.2455 353.633 19.3208C353.733 17.3468 353.808 15.8662 353.858 14.8792H353.558L339.734 56.2597H329.291Z" fill="#503E9D"/>
<path d="M393.403 15.0273C398.912 15.0273 403.119 16.2117 406.024 18.5805C408.979 20.9 410.457 24.4779 410.457 29.3143V56.2597H402.644L400.465 50.7818H400.164C399.012 52.213 397.81 53.3974 396.558 54.3351C395.356 55.2727 393.954 55.939 392.351 56.3338C390.798 56.7779 388.87 57 386.566 57C384.162 57 381.983 56.5558 380.03 55.6675C378.127 54.7299 376.624 53.3234 375.522 51.4481C374.42 49.5234 373.87 47.1052 373.87 44.1935C373.87 39.9 375.397 36.7416 378.452 34.7182C381.508 32.6455 386.09 31.5104 392.201 31.313L399.338 31.0909V29.3143C399.338 27.1922 398.762 25.6377 397.61 24.6507C396.508 23.6636 394.956 23.1701 392.952 23.1701C390.949 23.1701 388.995 23.4662 387.092 24.0584C385.189 24.6013 383.286 25.2922 381.382 26.1312L377.701 18.6545C379.905 17.5195 382.334 16.6312 384.988 15.9896C387.693 15.3481 390.498 15.0273 393.403 15.0273ZM394.981 37.6792C391.374 37.7779 388.87 38.4195 387.468 39.6039C386.065 40.7883 385.364 42.3429 385.364 44.2675C385.364 45.9455 385.865 47.1545 386.867 47.8948C387.868 48.5857 389.171 48.9312 390.773 48.9312C393.177 48.9312 395.206 48.2403 396.859 46.8584C398.512 45.4273 399.338 43.4286 399.338 40.8623V37.5312L394.981 37.6792Z" fill="white"/>
<path d="M433.109 56.2597H421.915V0H433.109V56.2597Z" fill="white"/>
<path d="M456 56.2597H444.806V0H456V56.2597Z" fill="white"/>
</svg>
