<svg width="100" height="100" viewBox="0 0 100 100" fill="none" xmlns="http://www.w3.org/2000/svg">
<path fill-rule="evenodd" clip-rule="evenodd" d="M27.8401 31.1542C27.9553 31.5859 28.0804 32.0821 28.1036 32.4416C28.1171 32.6501 28.1101 33.2026 27.6457 33.6526C27.1666 34.1168 26.5966 34.0934 26.3741 34.063C25.9791 34.009 25.6657 33.8079 25.5749 33.7497C25.5725 33.7481 25.5702 33.7467 25.5681 33.7453C25.2918 33.5685 25.019 33.3319 24.8877 33.2111C24.0059 32.3999 23.1079 31.6205 22.1879 30.822C21.9897 30.6499 21.7905 30.477 21.5902 30.3027C21.3063 30.0557 20.907 29.6417 20.5035 29.2232C20.4492 29.1669 20.3949 29.1106 20.3407 29.0545C19.8512 28.5479 19.3036 27.9874 18.746 27.4731C18.6685 27.4016 18.5917 27.3318 18.5158 27.2641C18.7968 28.3111 19.144 29.5485 19.5055 30.8285C19.5771 31.0823 19.6493 31.3376 19.7216 31.5932C20.1301 33.0382 20.5414 34.4931 20.8744 35.7249C21.2486 37.109 21.573 38.3814 21.634 38.9914C21.7138 39.7891 21.1317 40.5004 20.334 40.5802C19.5363 40.66 18.825 40.078 18.7452 39.2802C18.714 38.968 18.476 37.9776 18.0718 36.4826C17.7436 35.2684 17.3377 33.8327 16.9288 32.3865C16.8564 32.1301 16.7838 31.8734 16.7115 31.6175C16.2343 29.9274 15.77 28.2705 15.4517 27.0271C15.2937 26.4101 15.1639 25.8654 15.0872 25.4595C15.0506 25.2661 15.0153 25.0493 15.004 24.8536C14.9992 24.7688 14.992 24.5933 15.0283 24.3947C15.0459 24.2979 15.0894 24.104 15.2122 23.8929C15.344 23.6666 15.6222 23.3362 16.1094 23.2063C17.1369 22.9323 18.1183 23.4127 18.7183 23.7752C19.4057 24.1907 20.0991 24.7715 20.7145 25.3392C21.339 25.9153 21.9373 26.5288 22.4284 27.0371C22.4766 27.0869 22.5233 27.1353 22.5685 27.1821C23.0145 27.6439 23.3154 27.9554 23.496 28.1127C23.6899 28.2814 23.8847 28.4505 24.0803 28.6202C24.0907 28.6292 24.1011 28.6383 24.1116 28.6473C23.8465 27.6955 23.5738 26.666 23.3448 25.6551C22.9895 24.087 22.7035 22.4177 22.7704 21.1067C22.803 20.4682 22.9262 19.7054 23.3456 19.0774C23.8486 18.3241 24.6601 17.9393 25.5855 18.0078C26.3948 18.0678 27.0847 18.3901 27.6191 18.7205C28.1398 19.0425 28.6043 19.432 28.9472 19.7194L28.9672 19.7362C30.8684 21.3299 32.652 23.1433 34.2643 24.9754C34.8098 25.5953 35.2847 26.267 35.7071 26.8645C35.763 26.9436 35.818 27.0213 35.8721 27.0975C36.3551 27.7776 36.7873 28.3599 37.2849 28.8576C37.8518 29.4245 37.8518 30.3436 37.2849 30.9104C36.718 31.4773 35.7989 31.4773 35.2321 30.9104C34.5449 30.2233 33.9903 29.4617 33.5051 28.7786C33.4477 28.6977 33.3913 28.6181 33.3358 28.5397C32.9029 27.9283 32.5214 27.3895 32.0848 26.8934C30.542 25.1402 28.8631 23.4372 27.1022 21.9611C26.7342 21.6526 26.417 21.3907 26.0922 21.1898C25.9404 21.096 25.8086 21.0296 25.694 20.9843C25.6841 21.058 25.6753 21.1474 25.6698 21.2548C25.6248 22.1365 25.8263 23.4694 26.1762 25.0135C26.5182 26.523 26.9682 28.0958 27.3488 29.4164C27.3612 29.4597 27.3736 29.5027 27.3859 29.5454C27.5594 30.1474 27.7192 30.7018 27.8401 31.1542ZM27.1367 31.3023C27.1369 31.3024 27.1363 31.3021 27.1349 31.3012C27.136 31.3018 27.1366 31.3022 27.1367 31.3023Z" fill="#FFB800"/>
<path fill-rule="evenodd" clip-rule="evenodd" d="M32.9835 39.821C33.8941 39.3886 34.87 39.2393 35.8711 39.2393C36.2538 39.2393 36.6019 39.3873 36.8613 39.6293C37.3056 39.6185 37.763 39.6154 38.2209 39.6291C39.7717 39.6755 41.5448 39.9153 43.0065 40.8898C44.4326 41.8405 45.6103 42.9209 46.6503 44.3572C47.84 46 48.8014 48.5976 49.048 51.1144C49.2887 53.5711 48.8858 56.4961 46.6432 58.178C45.1308 59.3123 43.174 60.0101 41.2448 60.3669C39.3055 60.7255 37.2752 60.7618 35.542 60.4782C32.2299 59.9362 30.0581 57.2197 29.0708 54.5272C28.3857 52.6587 28.2789 50.2603 28.5601 48.0277C28.8411 45.7954 29.5392 43.4963 30.6729 41.8544C31.3034 40.9412 32.0608 40.2592 32.9835 39.821ZM33.9049 42.6293C33.622 42.8217 33.3426 43.0975 33.062 43.504C32.2843 44.6302 31.6875 46.4288 31.4405 48.3904C31.1936 50.3517 31.3256 52.2434 31.7966 53.5278C32.5806 55.6661 34.1162 57.3031 36.0109 57.6131C37.3806 57.8373 39.0721 57.8163 40.7168 57.5121C42.3716 57.206 43.8612 56.6355 44.9012 55.8555C45.9008 55.1058 46.3679 53.5336 46.1586 51.3975C45.9552 49.3215 45.1468 47.2308 44.2989 46.0599C43.4835 44.9339 42.5677 44.0864 41.3961 43.3054C40.6273 42.7928 39.5303 42.5728 38.1341 42.531C37.4531 42.5106 36.7511 42.533 36.034 42.5628C35.9188 42.5675 35.8026 42.5726 35.6857 42.5776C35.0939 42.6032 34.4858 42.6294 33.9234 42.6294C33.9172 42.6294 33.9111 42.6294 33.9049 42.6293Z" fill="#FFB800"/>
<path d="M41.9998 50.0806C41.9998 51.8844 40.5375 53.3467 38.7337 53.3467C36.9299 53.3467 35.4676 51.8844 35.4676 50.0806C35.4676 48.2767 36.9299 46.8145 38.7337 46.8145C40.5375 46.8145 41.9998 48.2767 41.9998 50.0806Z" fill="#FFB800"/>
<path d="M64.427 50.0806C64.427 51.8844 62.9647 53.3467 61.1609 53.3467C59.3571 53.3467 57.8948 51.8844 57.8948 50.0806C57.8948 48.2767 59.3571 46.8145 61.1609 46.8145C62.9647 46.8145 64.427 48.2767 64.427 50.0806Z" fill="#FFB800"/>
<path fill-rule="evenodd" clip-rule="evenodd" d="M58.7238 40.187C58.9823 40.0268 59.293 39.9461 59.6192 39.9758C60.2027 40.0288 60.7495 40.0611 61.3231 40.0949C61.7687 40.1212 62.2306 40.1485 62.7384 40.1872C63.8168 40.2693 64.9582 40.3971 66.0379 40.6834C67.1234 40.9713 68.207 41.4346 69.1301 42.2273C70.0685 43.0332 70.7663 44.1159 71.1639 45.5154C71.9513 48.2872 72.0106 51.9124 71.0313 54.7454C70.4366 56.4657 69.1044 57.6865 67.708 58.5033C66.3032 59.3251 64.7008 59.8197 63.3064 60.0342C60.5469 60.4587 56.973 60.2114 54.3101 58.6303C50.6878 56.4795 50.3441 52.3684 50.7437 49.2191C51.1603 45.935 52.2496 42.7841 55.6718 40.8829C56.5643 40.3871 57.4895 40.2405 58.2965 40.1994C58.4332 40.1925 58.577 40.1886 58.7238 40.187ZM61.06 42.9878C60.8776 43.0705 60.675 43.1165 60.4616 43.1165C60.116 43.1165 59.8281 43.108 59.5633 43.1001C59.1768 43.0887 58.8396 43.0787 58.4442 43.0989C57.8634 43.1284 57.4335 43.2254 57.0818 43.4208C54.8431 44.6645 53.9916 46.6854 53.6238 49.5845C53.258 52.4675 53.7518 54.9224 55.7923 56.134C57.6801 57.2548 60.5027 57.5282 62.865 57.1647C63.9612 56.9961 65.2037 56.6048 66.2421 55.9974C67.289 55.385 67.9983 54.6333 68.2874 53.7969C69.044 51.6081 69.0217 48.5985 68.3712 46.3088C68.1176 45.4162 67.7137 44.8378 67.2386 44.4298C66.7482 44.0086 66.1065 43.7051 65.2937 43.4896C64.475 43.2725 63.5451 43.1603 62.5179 43.082C62.1291 43.0524 61.6938 43.0261 61.2464 42.9991C61.1844 42.9953 61.1223 42.9916 61.06 42.9878Z" fill="#FFB800"/>
<path fill-rule="evenodd" clip-rule="evenodd" d="M72.4695 23.9817C72.3416 24.1302 72.2355 24.2532 72.1547 24.342C70.3412 26.336 69.093 28.6053 68.0234 31.0968C68.0287 31.0845 67.9926 31.1833 67.8766 31.4813C67.7797 31.7301 67.6493 32.0584 67.5152 32.3734C67.3896 32.6683 67.2321 33.0201 67.0824 33.278C67.0424 33.3468 66.9888 33.4339 66.9233 33.5222C66.8771 33.5844 66.7424 33.7634 66.5224 33.9144C66.4082 33.9928 66.1779 34.1291 65.8533 34.1685C65.4757 34.2144 65.0784 34.1142 64.7577 33.8599C64.4802 33.6399 64.3522 33.3783 64.2957 33.2356C64.2355 33.0833 64.2107 32.9494 64.1989 32.8664C64.1259 32.3503 64.334 31.8592 64.7067 31.5479C64.7469 31.4601 64.7931 31.3556 64.8441 31.2359C64.9612 30.961 65.0791 30.6644 65.1711 30.4281C65.2013 30.3505 65.2351 30.2624 65.2657 30.1828C65.3084 30.0715 65.3446 29.977 65.3556 29.9516C66.4941 27.2996 67.8953 24.7104 70.007 22.3886C70.027 22.3666 70.0753 22.3106 70.1456 22.229C70.4175 21.9136 71.0181 21.217 71.5801 20.6348C71.9482 20.2535 72.3673 19.8474 72.7696 19.5336C72.9686 19.3784 73.2049 19.2128 73.4598 19.0857C73.6719 18.9799 74.1154 18.7868 74.6507 18.8615C75.8435 19.0279 76.3292 20.0336 76.5083 20.5972C76.7048 21.2156 76.7532 21.9231 76.7573 22.5148C76.7643 23.5373 76.6316 24.6234 76.5783 25.0592C76.5692 25.1341 76.5624 25.1897 76.559 25.2226C76.4605 26.1903 76.3409 26.9439 76.2335 27.6205C76.2119 27.7563 76.1909 27.889 76.1706 28.0198C76.05 28.7966 75.9485 29.5456 75.9002 30.5913L75.8996 30.6051L75.8987 30.619L75.8987 30.6191L75.8986 30.6198L75.8976 30.6366C75.8968 30.6486 75.8956 30.6667 75.8941 30.6904C75.8911 30.7378 75.8867 30.8076 75.8813 30.8965C75.8705 31.0743 75.8554 31.328 75.8386 31.6307C75.8217 31.9377 75.803 32.2937 75.7853 32.6711C76.8958 31.4611 78.0696 30.2833 78.9333 29.4684C79.4242 29.0053 79.9929 28.3416 80.6494 27.5755C80.7932 27.4077 80.9412 27.235 81.0935 27.0583C81.883 26.143 82.8033 25.1061 83.6871 24.4369C84.3262 23.9529 85.2367 24.0786 85.7207 24.7177C86.2047 25.3568 86.0789 26.2673 85.4398 26.7513C84.8413 27.2046 84.1141 28.0012 83.292 28.9545C83.1623 29.1049 83.0297 29.2598 82.8954 29.4167C82.2389 30.184 81.5405 31 80.9256 31.5802C79.3357 33.0801 76.7997 35.7237 75.637 37.3746C75.5711 37.4681 75.3784 37.728 75.0215 37.8931C74.5351 38.1181 73.9687 38.0642 73.5339 37.753C73.215 37.5247 73.0748 37.2346 73.0285 37.1325C72.9675 36.9984 72.9338 36.8765 72.9149 36.7983C72.8472 36.5187 72.8269 36.1774 72.8168 35.9136C72.7944 35.3222 72.8098 34.5063 72.837 33.7125C72.8645 32.9082 72.9057 32.0876 72.9399 31.4704C72.957 31.1612 72.9724 30.9018 72.9835 30.7195C72.9891 30.6282 72.9936 30.5562 72.9967 30.5068C72.9983 30.4821 72.9995 30.463 73.0003 30.45L73.0008 30.4437C73.056 29.2614 73.1731 28.403 73.3018 27.5743C73.324 27.4311 73.3464 27.2901 73.3687 27.1492C73.4752 26.477 73.581 25.8092 73.6708 24.9284C73.6784 24.8532 73.6901 24.7556 73.7039 24.6401C73.7624 24.1496 73.8597 23.3354 73.8541 22.5349C73.854 22.5106 73.8537 22.4866 73.8533 22.463C73.7929 22.5236 73.7313 22.5864 73.6688 22.6512C73.1795 23.158 72.7658 23.638 72.4695 23.9817ZM73.7125 21.3989C73.7126 21.3986 73.7146 21.4024 73.7183 21.4114C73.7142 21.4037 73.7124 21.3992 73.7125 21.3989Z" fill="#FFB800"/>
<path d="M84.8445 80.1201C86.8445 80.1201 88.1378 78.6934 88.1378 76.5201C88.1378 74.3468 86.8445 72.9201 84.8445 72.9201C82.8445 72.9201 81.5512 74.3468 81.5512 76.5201C81.5512 78.6934 82.8445 80.1201 84.8445 80.1201ZM79.8445 76.5201C79.8445 73.5334 81.9111 71.4268 84.8445 71.4268C87.7778 71.4268 89.8578 73.5334 89.8578 76.5201C89.8578 79.5068 87.7778 81.6134 84.8445 81.6134C81.9111 81.6134 79.8445 79.5068 79.8445 76.5201Z" fill="white"/>
<path d="M76.4613 71.5332H78.168V81.5065H76.4613V71.5332Z" fill="white"/>
<path d="M69.9512 71.5332V80.0265H74.7245V81.5065H68.2445V71.5332H69.9512Z" fill="white"/>
<path d="M61.6935 80.1201C63.6935 80.1201 64.9868 78.6934 64.9868 76.5201C64.9868 74.3468 63.6935 72.9201 61.6935 72.9201C59.6935 72.9201 58.4002 74.3468 58.4002 76.5201C58.4002 78.6934 59.6935 80.1201 61.6935 80.1201ZM56.6935 76.5201C56.6935 73.5334 58.7601 71.4268 61.6935 71.4268C64.6268 71.4268 66.7068 73.5334 66.7068 76.5201C66.7068 79.5068 64.6268 81.6134 61.6935 81.6134C58.7601 81.6134 56.6935 79.5068 56.6935 76.5201Z" fill="white"/>
<path d="M55.8438 71.5332V73.0132H50.5371V75.7732H55.0038V77.2399H50.5371V81.5065H48.8304V71.5332H55.8438Z" fill="white"/>
<path d="M47.2408 71.5332V73.0132H44.4008V81.5065H42.6808V73.0132H39.8141V71.5332H47.2408Z" fill="white"/>
<path d="M34.934 76.7865C35.9473 76.7865 36.614 76.0399 36.614 74.8932C36.614 73.7465 35.9473 73.0132 34.934 73.0132H32.3607V76.7865H34.934ZM30.654 81.5065V71.5332H35.2407C37.054 71.5332 38.3207 72.9065 38.3207 74.8399C38.334 76.1065 37.7607 77.2665 36.2273 77.9865L38.8007 81.5065H36.6673L34.294 78.2665H32.3607V81.5065H30.654Z" fill="white"/>
<path d="M24.0763 80.1201C26.0763 80.1201 27.3696 78.6934 27.3696 76.5201C27.3696 74.3468 26.0763 72.9201 24.0763 72.9201C22.0763 72.9201 20.783 74.3468 20.783 76.5201C20.783 78.6934 22.0763 80.1201 24.0763 80.1201ZM19.0763 76.5201C19.0763 73.5334 21.143 71.4268 24.0763 71.4268C27.0096 71.4268 29.0896 73.5334 29.0896 76.5201C29.0896 79.5068 27.0096 81.6134 24.0763 81.6134C21.143 81.6134 19.0763 79.5068 19.0763 76.5201Z" fill="white"/>
<path d="M14.84 76.7865C15.8667 76.7865 16.5334 76.0399 16.5334 74.8932C16.5334 73.7599 15.8667 73.0132 14.84 73.0132H12.3734V76.7865H14.84ZM10.6667 81.5065V71.5332H14.8934C16.8534 71.5332 18.24 72.9199 18.24 74.8932C18.24 76.8799 16.8534 78.2532 14.8934 78.2532H12.3734V81.5065H10.6667Z" fill="white"/>
</svg>
