<svg width="347" height="104" viewBox="0 0 347 104" fill="none" xmlns="http://www.w3.org/2000/svg">
<path d="M117.627 79.4496C109.229 79.4496 102.396 72.6778 102.396 64.3556C102.396 56.0335 109.229 49.2617 117.627 49.2617C122.932 49.2617 127.774 51.9328 130.574 56.4049C131.289 57.5429 130.934 59.0415 129.785 59.7476C128.637 60.4537 127.125 60.1039 126.412 58.9659C124.51 55.9298 121.226 54.1181 117.627 54.1181C111.931 54.1181 107.296 58.7111 107.296 64.3556C107.296 70.0002 111.931 74.5932 117.627 74.5932C122.07 74.5932 125.859 71.868 127.319 67.9359H118.208C116.855 67.9359 115.759 66.8475 115.759 65.5087C115.759 64.1699 116.857 63.0816 118.208 63.0816H130.306C130.999 63.0816 131.672 63.3451 132.147 63.8503C132.622 64.3556 132.858 65.0358 132.797 65.7247C132.086 73.5502 125.565 79.4517 117.629 79.4517L117.627 79.4496Z" fill="white"/>
<path d="M150.847 79.4417C142.449 79.4417 135.616 72.67 135.616 64.3478C135.616 56.0257 142.449 49.2539 150.847 49.2539C159.245 49.2539 166.078 56.0257 166.078 64.3478C166.078 72.67 159.245 79.4417 150.847 79.4417ZM150.847 54.1103C145.151 54.1103 140.517 58.7033 140.517 64.3478C140.517 69.9924 145.151 74.5854 150.847 74.5854C156.543 74.5854 161.178 69.9924 161.178 64.3478C161.178 58.7033 156.543 54.1103 150.847 54.1103Z" fill="white"/>
<path d="M150.847 69.012C153.446 69.012 155.553 66.9238 155.553 64.3478C155.553 61.7718 153.446 59.6836 150.847 59.6836C148.247 59.6836 146.14 61.7718 146.14 64.3478C146.14 66.9238 148.247 69.012 150.847 69.012Z" fill="white"/>
<path d="M135.013 97.1289C127.585 97.1289 120.75 93.3111 116.259 86.6552C115.471 85.4865 115.674 83.8219 116.715 82.9365C117.755 82.0511 119.237 82.2802 120.025 83.4489C123.615 88.7684 129.077 91.8212 135.011 91.8212C140.944 91.8212 146.407 88.7707 149.996 83.4489C150.785 82.2802 152.266 82.0511 153.307 82.9365C154.347 83.8219 154.551 85.4865 153.763 86.6552C149.271 93.3111 142.436 97.1289 135.009 97.1289H135.013Z" fill="white"/>
<path d="M89.1052 72.7382L86.2442 68.1404L83.8081 64.2245C84.3659 63.9959 84.8801 63.7296 85.353 63.4311C85.3595 63.4254 85.366 63.4217 85.3726 63.4198C85.4793 63.3499 85.5796 63.28 85.682 63.212C85.7256 63.1799 85.7713 63.1478 85.8149 63.1157C85.9108 63.0458 86.0088 62.974 86.1025 62.8984C86.1461 62.8663 86.1853 62.8323 86.2289 62.7964C86.3183 62.7209 86.4119 62.6434 86.5035 62.5641C86.534 62.5376 86.5601 62.5093 86.5906 62.4828C86.8848 62.2108 87.1506 61.9218 87.3881 61.6139C87.4208 61.5742 87.4557 61.5327 87.484 61.493C87.5472 61.4099 87.6082 61.323 87.667 61.2361C87.7041 61.1832 87.7368 61.1322 87.7695 61.0793C87.8261 60.9962 87.8806 60.9093 87.9307 60.8186C87.9634 60.7639 87.9939 60.7091 88.0244 60.6543C88.0701 60.5655 88.1203 60.4748 88.1638 60.3861C88.19 60.3332 88.214 60.2784 88.2379 60.2236C88.3251 60.0385 88.4014 59.8496 88.4689 59.6588C88.4863 59.6097 88.5059 59.5625 88.5234 59.5133C88.5539 59.417 88.58 59.3226 88.6062 59.2262C88.6258 59.1601 88.6454 59.094 88.6628 59.026C88.6868 58.9296 88.7064 58.8352 88.726 58.737C88.7391 58.6708 88.7522 58.601 88.7652 58.5311C88.7827 58.4291 88.7979 58.3308 88.811 58.2307C88.8219 58.1646 88.8284 58.1004 88.835 58.0361C88.8459 57.9266 88.8589 57.817 88.8655 57.7056C88.8655 57.6772 88.8655 57.6451 88.8698 57.6168C88.8764 57.4808 88.8829 57.3486 88.8829 57.2088C88.8851 52.4183 84.5729 49.1919 78.1493 49.1805C78.1318 49.1805 78.1187 49.1768 78.1035 49.1768H71.1373C69.843 49.1768 68.7905 50.0891 68.7905 51.215V73.0858C68.821 74.1908 69.8626 75.0768 71.1438 75.0768C72.4251 75.0768 73.4644 74.1946 73.4971 73.0914V72.9724L73.4928 67.9043V65.2559L78.11 65.2521C78.4303 65.2521 78.7637 65.2521 79.0971 65.2257L79.1298 65.2804C79.1363 65.2974 79.1472 65.3126 79.1559 65.3277L84.5969 74.0737L84.7145 74.2626L84.9673 74.6706C85.2745 75.1656 85.7844 75.5075 86.3618 75.6567C86.9371 75.804 87.5777 75.7644 88.1508 75.498C88.3948 75.3828 88.604 75.2411 88.774 75.0692C89.4255 74.4496 89.5889 73.5184 89.1008 72.7363L89.1052 72.7382ZM81.6509 60.8602C81.6509 60.8602 81.6313 60.8696 81.6204 60.8715C81.47 60.9376 81.3197 60.9981 81.1606 61.0548C81.08 61.0831 80.9928 61.1039 80.9144 61.1303C80.8185 61.1587 80.727 61.1908 80.6268 61.2172C80.5026 61.2493 80.3696 61.2758 80.2389 61.3003C80.1779 61.3154 80.1191 61.3324 80.0559 61.3438C79.8946 61.3721 79.7312 61.3967 79.5656 61.4156C79.5264 61.4212 79.485 61.4307 79.4414 61.4326C79.2649 61.4552 79.0775 61.4703 78.8879 61.4817C78.8574 61.4855 78.8269 61.4873 78.7942 61.4911C78.5872 61.5025 78.3737 61.5062 78.1558 61.5081H73.4884L73.4841 52.9245L78.1013 52.9207C78.6526 52.9207 79.1668 52.9604 79.6462 53.0284C82.4636 53.4194 84.1022 54.9212 84.1022 57.2163C84.1022 58.8956 83.2241 60.1537 81.6487 60.8602H81.6509Z" fill="#FA6C39"/>
<path d="M31.8961 61.5119C34.0838 60.3048 35.1907 58.5046 35.1907 56.1604C35.1907 51.7874 31.3819 49.1768 24.9996 49.1768H17.5279C16.2336 49.1768 15.1812 50.0891 15.1812 51.215V73.0386C15.1812 74.1644 16.2336 75.0768 17.5279 75.0768H26.087C32.5498 75.0768 36.4088 72.2338 36.4088 67.4736C36.4088 64.6401 34.8508 62.5886 31.8961 61.5119ZM19.879 52.9226H24.9996C28.6996 52.9226 30.495 54.0768 30.495 56.4532C30.495 58.8295 28.5187 60.1632 24.6205 60.1632H19.879V52.9226ZM26.0891 71.3328H19.879V63.6162H25.7122C30.5691 63.6162 31.5867 65.7149 31.5867 67.4736C31.5867 69.9633 29.6343 71.3309 26.0891 71.3309V71.3328Z" fill="#FA6C39"/>
<path d="M66.3826 73.2029C66.3826 74.2362 65.4151 75.0749 64.2232 75.0749H51.9512C50.6525 75.0749 49.6001 74.1625 49.6001 73.0404V51.215C49.6001 50.0891 50.6525 49.1768 51.9512 49.1768C53.2499 49.1768 54.298 50.0891 54.298 51.215V71.3309H64.2232C65.4151 71.3309 66.3826 72.1696 66.3826 73.2029Z" fill="#FA6C39"/>
<path d="M95.3873 49.1768H95.3852C94.077 49.1768 93.0166 50.0961 93.0166 51.2301V73.0197C93.0166 74.1537 94.077 75.073 95.3852 75.073H95.3873C96.6955 75.073 97.7559 74.1537 97.7559 73.0197V51.2301C97.7559 50.0961 96.6955 49.1768 95.3873 49.1768Z" fill="#FA6C39"/>
<path d="M42.3795 49.1768H42.3773C41.0692 49.1768 40.0088 50.0961 40.0088 51.2301V73.0197C40.0088 74.1537 41.0692 75.073 42.3773 75.073H42.3795C43.6876 75.073 44.7481 74.1537 44.7481 73.0197V51.2301C44.7481 50.0961 43.6876 49.1768 42.3795 49.1768Z" fill="#FA6C39"/>
<path d="M267.692 48.4125C267.692 44.7674 264.644 41.8125 260.893 41.8125C257.142 41.8125 254.101 44.7674 254.101 48.4125L254.101 85.3044C254.101 88.9495 257.148 91.9044 260.9 91.9044C264.651 91.9044 267.692 88.9495 267.692 85.3044L267.692 48.4125Z" fill="white"/>
<path d="M228.804 48.3155C235.078 44.4357 238.252 38.6493 238.252 31.1142C238.252 17.0581 227.329 8.66699 209.027 8.66699H187.601C183.89 8.66699 180.872 11.5996 180.872 15.2184V85.3653C180.872 88.9841 183.89 91.9167 187.601 91.9167H212.145C230.679 91.9167 241.745 82.7787 241.745 67.4779C241.745 58.3703 237.277 51.7764 228.804 48.3155ZM194.343 20.7073H209.027C219.637 20.7073 224.786 24.4171 224.786 32.0554C224.786 39.6936 219.119 43.9803 207.94 43.9803H194.343V20.7073ZM212.152 79.8825H194.343V55.0794H211.071C224.999 55.0794 227.917 61.8251 227.917 67.4779C227.917 75.4805 222.318 79.8764 212.152 79.8764V79.8825Z" fill="white"/>
<rect width="13.2863" height="13.2863" transform="matrix(0.708598 0.705613 -0.708598 0.705613 260.757 12.5498)" fill="#FA6C39"/>
<path fill-rule="evenodd" clip-rule="evenodd" d="M280.73 48.4416C280.73 44.7805 283.711 41.8125 287.387 41.8125H327.33C330.076 41.8125 332.54 43.4906 333.535 46.0384C334.53 48.5862 333.853 51.4811 331.829 53.3283L304.502 78.2727H327.33C331.007 78.2727 333.988 81.2407 333.988 84.9019C333.988 88.563 331.007 91.531 327.33 91.531H287.387C284.642 91.531 282.178 89.8529 281.183 87.3051C280.188 84.7573 280.865 81.8624 282.889 80.0152L310.216 55.0708H287.387C283.711 55.0708 280.73 52.1028 280.73 48.4416Z" fill="white"/>
</svg>
