<svg width="456" height="93" viewBox="0 0 456 93" fill="none" xmlns="http://www.w3.org/2000/svg">
<path d="M7 46C7 30.4308 7 22.6462 10.5628 16.9584C12.4372 13.9658 14.9658 11.4372 17.9584 9.56276C23.6462 6 31.4308 6 47 6C62.5692 6 70.3538 6 76.0416 9.56276C79.0341 11.4372 81.5628 13.9658 83.4372 16.9584C87 22.6462 87 30.4308 87 46C87 61.5692 87 69.3538 83.4372 75.0416C81.5628 78.0341 79.0341 80.5628 76.0416 82.4372C70.3538 86 62.5692 86 47 86C31.4308 86 23.6462 86 17.9584 82.4372C14.9658 80.5628 12.4372 78.0341 10.5628 75.0416C7 69.3538 7 61.5692 7 46Z" fill="#0F344C"/>
<mask id="mask0_551_1812" style="mask-type:alpha" maskUnits="userSpaceOnUse" x="6" y="6" width="81" height="80">
<path d="M6.99951 46C6.99951 30.4308 6.99951 22.6462 10.5623 16.9584C12.4368 13.9658 14.9654 11.4372 17.9579 9.56276C23.6457 6 31.4303 6 46.9995 6C62.5687 6 70.3533 6 76.0411 9.56276C79.0337 11.4372 81.5623 13.9658 83.4368 16.9584C86.9995 22.6462 86.9995 30.4308 86.9995 46C86.9995 61.5692 86.9995 69.3538 83.4368 75.0416C81.5623 78.0341 79.0337 80.5628 76.0411 82.4372C70.3533 86 62.5687 86 46.9995 86C31.4303 86 23.6457 86 17.9579 82.4372C14.9654 80.5628 12.4368 78.0341 10.5623 75.0416C6.99951 69.3538 6.99951 61.5692 6.99951 46Z" fill="#0F344C"/>
</mask>
<g mask="url(#mask0_551_1812)">
<path fill-rule="evenodd" clip-rule="evenodd" d="M85.4072 89.1463L63.1971 66.9362L69.48 60.6533L91.6901 82.8634L85.4072 89.1463Z" fill="#49C4FF"/>
<path fill-rule="evenodd" clip-rule="evenodd" d="M46.9995 68.0577C59.1816 68.0577 69.0572 58.1821 69.0572 46C69.0572 33.8179 59.1816 23.9423 46.9995 23.9423C34.8174 23.9423 24.9418 33.8179 24.9418 46C24.9418 58.1821 34.8174 68.0577 46.9995 68.0577ZM46.9995 77C64.1203 77 77.9995 63.1208 77.9995 46C77.9995 28.8792 64.1203 15 46.9995 15C29.8787 15 15.9995 28.8792 15.9995 46C15.9995 63.1208 29.8787 77 46.9995 77Z" fill="#49C4FF"/>
</g>
<path d="M61 46C61 53.732 54.732 60 47 60C39.268 60 33 53.732 33 46C33 38.268 39.268 32 47 32C54.732 32 61 38.268 61 46Z" fill="#FF4F33"/>
<path d="M120.738 71.1618H127.332V28.9316H139.059L143.07 23.9026H105V28.9316H120.738V71.1618Z" fill="white"/>
<path d="M152.331 71.1618H158.924V48.8539H183.17V71.1618H189.692V23.9026H183.17V43.6961H158.924V23.9026H152.331V71.1618Z" fill="white"/>
<path d="M203.909 71.1618H234.677V66.0684H210.502V48.8539H229.886V43.7605H210.502V28.9316H229.886L233.897 23.9026H203.909V71.1618Z" fill="white"/>
<path d="M265.225 72C271.96 72 277.064 69.55 281.176 65.2303L277.56 61.4908C274.228 64.7789 270.471 66.7776 265.508 66.7776C255.583 66.7776 249.344 59.2987 249.344 47.3711C249.344 35.5724 255.867 28.2224 265.721 28.2224C270.187 28.2224 273.661 30.0921 276.355 32.7355L279.9 28.8671C276.922 25.8368 271.96 23 265.65 23C252.464 23 242.609 32.2842 242.609 47.5645C242.609 62.9092 252.322 72 265.225 72Z" fill="white"/>
<path d="M290.796 71.1618H297.389V48.8539H321.635V71.1618H328.157V23.9026H321.635V43.6961H297.389V23.9026H290.796V71.1618Z" fill="white"/>
<path d="M342.374 71.1618H373.142V66.0684H348.967V48.8539H368.35V43.7605H348.967V28.9316H368.35L372.362 23.9026H342.374V71.1618Z" fill="white"/>
<path d="M390.503 51.9487L393.055 44.7276C394.898 39.3763 396.6 34.2829 398.23 28.7382H398.514C400.215 34.2184 401.846 39.3763 403.76 44.7276L406.241 51.9487H390.503ZM412.835 71.1618H419.782L402.129 23.9026H394.827L377.175 71.1618H383.839L388.872 56.7197H407.872L412.835 71.1618Z" fill="white"/>
<path d="M433.668 71.1618H440.262V28.9316H451.989L456 23.9026H417.93V28.9316H433.668V71.1618Z" fill="white"/>
</svg>
