<svg width="90" height="90" viewBox="0 0 90 90" fill="none" xmlns="http://www.w3.org/2000/svg">
<path d="M78.0586 20.2593H77.0625V12.3052H78.0293V13.5576H78.1099C78.3149 13.128 78.6128 12.7959 79.0034 12.5615C79.3989 12.3223 79.8848 12.2027 80.4609 12.2027C81.0029 12.2027 81.4741 12.315 81.8745 12.5396C82.2798 12.7593 82.5923 13.0889 82.812 13.5283C83.0366 13.9678 83.1489 14.5 83.1489 15.125V20.2593H82.1528V15.1836C82.1528 14.7588 82.0723 14.3902 81.9111 14.0777C81.7549 13.7652 81.5278 13.5259 81.23 13.3599C80.937 13.189 80.5879 13.1035 80.1826 13.1035C79.7725 13.1035 79.4062 13.1939 79.084 13.3745C78.7617 13.5503 78.5103 13.8067 78.3296 14.1436C78.1489 14.4756 78.0586 14.8687 78.0586 15.3228V20.2593Z" fill="white"/>
<path d="M64.8984 12.3052H65.9531L67.7988 18.7725H67.8647L69.7031 12.3052H70.7651L72.5815 18.7505H72.6621L74.5005 12.3052H75.5479L73.1455 20.2593H72.1274L70.2671 13.836H70.1719L68.3335 20.2593H67.3008L64.8984 12.3052Z" fill="white"/>
<path d="M60.5337 20.4204C59.8501 20.4204 59.2373 20.2471 58.6953 19.9004C58.1582 19.5537 57.7407 19.0703 57.4429 18.4502C57.145 17.8252 56.9961 17.1123 56.9961 16.3115C56.9961 15.5059 57.145 14.793 57.4429 14.1729C57.7407 13.5479 58.1582 13.062 58.6953 12.7154C59.2373 12.3687 59.8501 12.1953 60.5337 12.1953C61.2173 12.1953 61.8252 12.3687 62.3574 12.7154C62.8945 13.062 63.3096 13.5479 63.6025 14.1729C63.9004 14.793 64.0493 15.5059 64.0493 16.3115C64.0493 17.1123 63.9004 17.8252 63.6025 18.4502C63.3096 19.0703 62.8945 19.5537 62.3574 19.9004C61.8252 20.2471 61.2173 20.4204 60.5337 20.4204ZM60.5337 19.5269C61.061 19.5269 61.5151 19.3828 61.896 19.0947C62.2769 18.8067 62.5649 18.4185 62.7603 17.9302C62.9556 17.4419 63.0532 16.9024 63.0532 16.3115C63.0532 15.7207 62.9556 15.1812 62.7603 14.6929C62.5649 14.2046 62.2769 13.8164 61.896 13.5283C61.5151 13.2354 61.061 13.0889 60.5337 13.0889C60.0063 13.0889 59.5522 13.2354 59.1714 13.5283C58.7905 13.8164 58.5 14.2046 58.2998 14.6929C58.0996 15.1812 57.9995 15.7207 57.9995 16.3115C57.9995 16.9024 58.0972 17.4419 58.2925 17.9302C58.4927 18.4185 58.7832 18.8067 59.1641 19.0947C59.5498 19.3828 60.0063 19.5269 60.5337 19.5269Z" fill="white"/>
<path d="M47.9346 20.2593V19.3218H50.4468C51.3403 19.3218 52.0898 19.1485 52.6953 18.8018C53.3008 18.4502 53.7549 17.9473 54.0576 17.293C54.3652 16.6387 54.5166 15.8526 54.5117 14.9346C54.5117 14.0264 54.3628 13.2476 54.0649 12.5982C53.772 11.9488 53.335 11.4507 52.7539 11.104C52.1777 10.7573 51.4673 10.584 50.6226 10.584H47.8979V9.65381H50.6885C51.6992 9.65381 52.5659 9.86381 53.2886 10.2837C54.0161 10.6988 54.5728 11.3042 54.9585 12.1001C55.3442 12.896 55.5371 13.8408 55.5371 14.9346C55.5371 16.043 55.3394 16.9976 54.9438 17.7984C54.5483 18.5943 53.9746 19.2046 53.2227 19.6294C52.4707 20.0493 51.5674 20.2593 50.5127 20.2593H47.9346ZM48.4033 20.2593H47.3633V9.65381H48.4033V20.2593Z" fill="white"/>
<path d="M41.4102 20.2593H40.4141V9.65381H41.4102V20.2593Z" fill="white"/>
<path d="M38.2734 20.2593H37.2773V9.65381H38.2734V20.2593Z" fill="white"/>
<path d="M32.0122 20.4204C31.3286 20.4204 30.7158 20.2471 30.1738 19.9004C29.6367 19.5537 29.2192 19.0703 28.9214 18.4502C28.6235 17.8252 28.4746 17.1123 28.4746 16.3115C28.4746 15.5059 28.6235 14.793 28.9214 14.1729C29.2192 13.5479 29.6367 13.062 30.1738 12.7154C30.7158 12.3687 31.3286 12.1953 32.0122 12.1953C32.6958 12.1953 33.3037 12.3687 33.8359 12.7154C34.373 13.062 34.7881 13.5479 35.0811 14.1729C35.3789 14.793 35.5278 15.5059 35.5278 16.3115C35.5278 17.1123 35.3789 17.8252 35.0811 18.4502C34.7881 19.0703 34.373 19.5537 33.8359 19.9004C33.3037 20.2471 32.6958 20.4204 32.0122 20.4204ZM32.0122 19.5269C32.5396 19.5269 32.9937 19.3828 33.3745 19.0947C33.7554 18.8067 34.0435 18.4185 34.2388 17.9302C34.4341 17.4419 34.5317 16.9024 34.5317 16.3115C34.5317 15.7207 34.4341 15.1812 34.2388 14.6929C34.0435 14.2046 33.7554 13.8164 33.3745 13.5283C32.9937 13.2354 32.5396 13.0889 32.0122 13.0889C31.4849 13.0889 31.0308 13.2354 30.6499 13.5283C30.269 13.8164 29.9785 14.2046 29.7783 14.6929C29.5781 15.1812 29.478 15.7207 29.478 16.3115C29.478 16.9024 29.5757 17.4419 29.771 17.9302C29.9712 18.4185 30.2617 18.8067 30.6426 19.0947C31.0283 19.3828 31.4849 19.5269 32.0122 19.5269Z" fill="white"/>
<path d="M24.1387 12.3052H25.1055V13.5357H25.1787C25.3398 13.1206 25.6157 12.791 26.0063 12.5469C26.397 12.3028 26.8364 12.1807 27.3247 12.1807C27.5151 12.1807 27.6885 12.188 27.8447 12.2027V13.2061C27.8008 13.1963 27.7202 13.1841 27.603 13.1695C27.4858 13.1548 27.3687 13.1475 27.2515 13.1475C26.856 13.1475 26.4971 13.2354 26.1748 13.4112C25.8525 13.5821 25.5986 13.8213 25.4131 14.1289C25.2275 14.4317 25.1348 14.7735 25.1348 15.1543V20.2593H24.1387V12.3052Z" fill="white"/>
<path d="M19.3999 20.4204C18.6919 20.4204 18.0693 20.2447 17.5322 19.8931C16.9951 19.5366 16.5801 19.0484 16.2871 18.4282C15.9941 17.8032 15.8477 17.0977 15.8477 16.3115C15.8477 15.5205 15.9966 14.8125 16.2944 14.1875C16.5923 13.5625 17.0073 13.0742 17.5396 12.7227C18.0718 12.3711 18.6846 12.1953 19.3779 12.1953C19.915 12.1953 20.4033 12.2979 20.8428 12.503C21.2871 12.708 21.6484 13.001 21.9268 13.3819C22.2051 13.7578 22.3809 14.1924 22.4541 14.6856H21.4434C21.3848 14.3877 21.2627 14.1192 21.0771 13.8799C20.8916 13.6358 20.6548 13.4429 20.3667 13.3013C20.0835 13.1597 19.7612 13.0889 19.3999 13.0889C18.9019 13.0889 18.46 13.2232 18.0742 13.4917C17.6934 13.7603 17.3931 14.1363 17.1733 14.6197C16.9585 15.0982 16.8511 15.6524 16.8511 16.2822C16.8511 16.9121 16.9561 17.4737 17.166 17.9668C17.3809 18.4551 17.6787 18.836 18.0596 19.1094C18.4453 19.3828 18.8921 19.5196 19.3999 19.5196C19.7417 19.5196 20.0566 19.4561 20.3447 19.3291C20.6328 19.2022 20.8721 19.0166 21.0625 18.7725C21.2578 18.5283 21.3872 18.2451 21.4507 17.9229H22.4541C22.3857 18.4063 22.2148 18.836 21.9414 19.2119C21.6729 19.5879 21.3188 19.8833 20.8794 20.0982C20.4399 20.313 19.9468 20.4204 19.3999 20.4204Z" fill="white"/>
<path d="M13.2329 12.3125C13.1939 11.9317 13.0669 11.5996 12.852 11.3164C12.6421 11.0283 12.354 10.8111 11.9878 10.6646C11.6265 10.5132 11.2163 10.4375 10.7573 10.4375C10.2739 10.4375 9.84668 10.5205 9.47559 10.6865C9.10449 10.8477 8.81396 11.0747 8.604 11.3677C8.39404 11.6558 8.28906 11.9878 8.28906 12.3638C8.28906 12.8667 8.48438 13.2647 8.875 13.5576C9.26562 13.8457 9.771 14.0777 10.3911 14.2534L11.4897 14.5611C12.3394 14.7905 13.0352 15.125 13.5772 15.5645C14.124 15.999 14.3975 16.6192 14.3975 17.4248C14.3975 17.9961 14.2485 18.5113 13.9507 18.9702C13.6577 19.4292 13.228 19.7905 12.6616 20.0542C12.1001 20.313 11.4385 20.4424 10.6768 20.4424C9.95898 20.4424 9.3291 20.3228 8.78711 20.0835C8.25 19.8443 7.82764 19.5098 7.52002 19.0801C7.2124 18.6455 7.03906 18.145 7 17.5786H8.06201C8.10107 17.9839 8.23779 18.3281 8.47217 18.6114C8.70654 18.8946 9.01416 19.1118 9.39502 19.2632C9.78076 19.4146 10.208 19.4903 10.6768 19.4903C11.1992 19.4903 11.6655 19.4048 12.0757 19.2339C12.4858 19.0581 12.8057 18.8115 13.0352 18.4942C13.2646 18.1768 13.3794 17.813 13.3794 17.4029C13.3794 17.0659 13.2915 16.7779 13.1157 16.5386C12.9399 16.2993 12.6934 16.1016 12.376 15.9453C12.0635 15.7842 11.668 15.6328 11.1894 15.4912L9.91504 15.1323C9.06055 14.8784 8.40625 14.5293 7.95215 14.085C7.50293 13.6358 7.27832 13.0767 7.27832 12.4077C7.27832 11.8413 7.43213 11.3384 7.73975 10.8989C8.05225 10.4595 8.47217 10.1177 8.99951 9.8736C9.53174 9.6245 10.1274 9.5 10.7866 9.5C11.4409 9.5 12.0244 9.6221 12.5371 9.8662C13.0547 10.1104 13.4648 10.4448 13.7676 10.8697C14.0703 11.2945 14.2314 11.7754 14.251 12.3125H13.2329Z" fill="white"/>
<path d="M57.5 43C57.5 36.3726 52.1274 31 45.5 31C38.8726 31 33.5 36.3726 33.5 43V58C33.5 64.6274 38.8726 70 45.5 70C52.1274 70 57.5 64.6274 57.5 58V43Z" stroke="white"/>
<path d="M47 40C47 39.1716 46.3284 38.5 45.5 38.5C44.6716 38.5 44 39.1716 44 40V45C44 45.8284 44.6716 46.5 45.5 46.5C46.3284 46.5 47 45.8284 47 45V40Z" fill="#FFB800"/>
<path d="M41 83L45.5 88L50 83" stroke="#FFB800" stroke-linecap="round" stroke-linejoin="round"/>
</svg>
